  0
SECTION
  2
HEADER
  9
$ANGBASE
  50
0.0
  9
$ANGDIR
  70
1
  9
$MEASUREMENT
  70
0
  0
ENDSEC
  0
SECTION
  2
TABLES
  0
TABLE
  2
LTYPE
  70
4
  0
LTYPE
  5
40F
  2
CONTINUOUS
  70
0
  3
Solid line
  72
65
  73
0
  40
0.0
  0
LTYPE
  5
410
  2
DASHDOT
 70
0
  3
Dash Dot ____ _ ____ _
 72
65
 73
4
 40
2.0
 49
1.25
 49
-0.25
 49
0.25
 49
-0.25
  0
LTYPE
  5
411
  2
DASHED
 70
0
  3
Dashed __ __ __ __ __
 72
65
 73
2
 40
0.75
 49
0.5
 49
-0.25
  0
LTYPE
  5
43B
  2
DOTTED
 70
0
  3
Dotted .  .  .  .
 72
65
 73
2
 40
0.2
 49
0.0
 49
-0.2
  0
ENDTAB
  0
TABLE
  2
STYLE
  70
4
  0
STYLE
  2
KICAD
  70
0
  40
0
  41
1
  42
1
  50
0
  71
0
  3
isocp.shx
  0
STYLE
  2
KICADB
  70
0
  40
0
  41
1
  42
1
  50
0
  71
0
  3
isocp.shx
  0
STYLE
  2
KICADI
  70
0
  40
0
  41
1
  42
1
  50
15
  71
0
  3
isocp.shx
  0
STYLE
  2
KICADBI
  70
0
  40
0
  41
1
  42
1
  50
15
  71
0
  3
isocp.shx
  0
ENDTAB
  0
TABLE
  2
LAYER
  70
1
  0
LAYER
  2
BLACK
  70
0
  62
7
  6
CONTINUOUS
  0
ENDTAB
  0
ENDSEC
  0
SECTION
  2
ENTITIES
0
LINE
8
BLACK
6
CONTINUOUS
10
7.14926
20
-3.50374
11
7.14941
21
-3.50375
0
LINE
8
BLACK
6
CONTINUOUS
10
7.14941
20
-3.50375
11
7.14959
21
-3.50381
0
LINE
8
BLACK
6
CONTINUOUS
10
7.14959
20
-3.50381
11
7.14976
21
-3.5039
0
LINE
8
BLACK
6
CONTINUOUS
10
7.14976
20
-3.5039
11
7.14991
21
-3.50403
0
LINE
8
BLACK
6
CONTINUOUS
10
7.14991
20
-3.50403
11
7.15003
21
-3.50417
0
LINE
8
BLACK
6
CONTINUOUS
10
7.15003
20
-3.50417
11
7.15013
21
-3.50435
0
LINE
8
BLACK
6
CONTINUOUS
10
7.15013
20
-3.50435
11
7.15018
21
-3.50453
0
LINE
8
BLACK
6
CONTINUOUS
10
7.15018
20
-3.50453
11
7.1502
21
-3.50472
0
LINE
8
BLACK
6
CONTINUOUS
10
7.1502
20
-3.50472
11
7.1502
21
-3.50477
0
LINE
8
BLACK
6
CONTINUOUS
10
7.1502
20
-3.50477
11
7.1502
21
-3.64641
0
LINE
8
BLACK
6
CONTINUOUS
10
7.1502
20
-3.64641
11
7.1502
21
-3.64646
0
LINE
8
BLACK
6
CONTINUOUS
10
7.1502
20
-3.64646
11
7.15018
21
-3.64665
0
LINE
8
BLACK
6
CONTINUOUS
10
7.15018
20
-3.64665
11
7.15013
21
-3.64684
0
LINE
8
BLACK
6
CONTINUOUS
10
7.15013
20
-3.64684
11
7.15003
21
-3.64701
0
LINE
8
BLACK
6
CONTINUOUS
10
7.15003
20
-3.64701
11
7.14991
21
-3.64716
0
LINE
8
BLACK
6
CONTINUOUS
10
7.14991
20
-3.64716
11
7.14976
21
-3.64728
0
LINE
8
BLACK
6
CONTINUOUS
10
7.14976
20
-3.64728
11
7.14959
21
-3.64737
0
LINE
8
BLACK
6
CONTINUOUS
10
7.14959
20
-3.64737
11
7.14941
21
-3.64743
0
LINE
8
BLACK
6
CONTINUOUS
10
7.14941
20
-3.64743
11
7.14926
21
-3.64744
0
LINE
8
BLACK
6
CONTINUOUS
10
7.14926
20
-3.64744
11
7.14926
21
-3.64744
0
LINE
8
BLACK
6
CONTINUOUS
10
7.14926
20
-3.64744
11
7.14921
21
-3.64745
0
LINE
8
BLACK
6
CONTINUOUS
10
7.14921
20
-3.64745
11
7.14916
21
-3.64744
0
LINE
8
BLACK
6
CONTINUOUS
10
7.14916
20
-3.64744
11
5.50753
21
-3.64744
0
LINE
8
BLACK
6
CONTINUOUS
10
5.50753
20
-3.64744
11
5.50748
21
-3.64745
0
LINE
8
BLACK
6
CONTINUOUS
10
5.50748
20
-3.64745
11
5.50743
21
-3.64744
0
LINE
8
BLACK
6
CONTINUOUS
10
5.50743
20
-3.64744
11
5.50743
21
-3.64744
0
LINE
8
BLACK
6
CONTINUOUS
10
5.50743
20
-3.64744
11
5.50729
21
-3.64743
0
LINE
8
BLACK
6
CONTINUOUS
10
5.50729
20
-3.64743
11
5.5071
21
-3.64737
0
LINE
8
BLACK
6
CONTINUOUS
10
5.5071
20
-3.64737
11
5.50693
21
-3.64728
0
LINE
8
BLACK
6
CONTINUOUS
10
5.50693
20
-3.64728
11
5.50678
21
-3.64716
0
LINE
8
BLACK
6
CONTINUOUS
10
5.50678
20
-3.64716
11
5.50666
21
-3.64701
0
LINE
8
BLACK
6
CONTINUOUS
10
5.50666
20
-3.64701
11
5.50657
21
-3.64684
0
LINE
8
BLACK
6
CONTINUOUS
10
5.50657
20
-3.64684
11
5.50651
21
-3.64665
0
LINE
8
BLACK
6
CONTINUOUS
10
5.50651
20
-3.64665
11
5.50649
21
-3.64646
0
LINE
8
BLACK
6
CONTINUOUS
10
5.50649
20
-3.64646
11
5.5065
21
-3.64641
0
LINE
8
BLACK
6
CONTINUOUS
10
5.5065
20
-3.64641
11
5.5065
21
-3.50477
0
LINE
8
BLACK
6
CONTINUOUS
10
5.5065
20
-3.50477
11
5.50649
21
-3.50472
0
LINE
8
BLACK
6
CONTINUOUS
10
5.50649
20
-3.50472
11
5.50651
21
-3.50453
0
LINE
8
BLACK
6
CONTINUOUS
10
5.50651
20
-3.50453
11
5.50657
21
-3.50435
0
LINE
8
BLACK
6
CONTINUOUS
10
5.50657
20
-3.50435
11
5.50666
21
-3.50417
0
LINE
8
BLACK
6
CONTINUOUS
10
5.50666
20
-3.50417
11
5.50678
21
-3.50403
0
LINE
8
BLACK
6
CONTINUOUS
10
5.50678
20
-3.50403
11
5.50693
21
-3.5039
0
LINE
8
BLACK
6
CONTINUOUS
10
5.50693
20
-3.5039
11
5.5071
21
-3.50381
0
LINE
8
BLACK
6
CONTINUOUS
10
5.5071
20
-3.50381
11
5.50729
21
-3.50375
0
LINE
8
BLACK
6
CONTINUOUS
10
5.50729
20
-3.50375
11
5.50743
21
-3.50374
0
LINE
8
BLACK
6
CONTINUOUS
10
5.50743
20
-3.50374
11
5.50748
21
-3.50374
0
LINE
8
BLACK
6
CONTINUOUS
10
5.50748
20
-3.50374
11
5.50753
21
-3.50374
0
LINE
8
BLACK
6
CONTINUOUS
10
5.50753
20
-3.50374
11
7.14916
21
-3.50374
0
LINE
8
BLACK
6
CONTINUOUS
10
7.14916
20
-3.50374
11
7.14921
21
-3.50374
0
LINE
8
BLACK
6
CONTINUOUS
10
7.14921
20
-3.50374
11
7.14926
21
-3.50374
0
LINE
8
BLACK
6
CONTINUOUS
10
5.50846
20
-3.50571
11
5.50846
21
-3.64547
0
LINE
8
BLACK
6
CONTINUOUS
10
5.50846
20
-3.64547
11
7.14823
21
-3.64547
0
LINE
8
BLACK
6
CONTINUOUS
10
7.14823
20
-3.64547
11
7.14823
21
-3.50571
0
LINE
8
BLACK
6
CONTINUOUS
10
7.14823
20
-3.50571
11
5.50846
21
-3.50571
0
LINE
8
BLACK
6
CONTINUOUS
10
5.3528
20
-2.84665
11
5.3528
21
-2.84665
0
LINE
8
BLACK
6
CONTINUOUS
10
5.3528
20
-2.84665
11
5.35295
21
-2.84667
0
LINE
8
BLACK
6
CONTINUOUS
10
5.35295
20
-2.84667
11
5.35313
21
-2.84672
0
LINE
8
BLACK
6
CONTINUOUS
10
5.35313
20
-2.84672
11
5.35331
21
-2.84682
0
LINE
8
BLACK
6
CONTINUOUS
10
5.35331
20
-2.84682
11
5.35346
21
-2.84694
0
LINE
8
BLACK
6
CONTINUOUS
10
5.35346
20
-2.84694
11
5.35358
21
-2.84709
0
LINE
8
BLACK
6
CONTINUOUS
10
5.35358
20
-2.84709
11
5.35367
21
-2.84726
0
LINE
8
BLACK
6
CONTINUOUS
10
5.35367
20
-2.84726
11
5.35373
21
-2.84744
0
LINE
8
BLACK
6
CONTINUOUS
10
5.35373
20
-2.84744
11
5.35374
21
-2.84764
0
LINE
8
BLACK
6
CONTINUOUS
10
5.35374
20
-2.84764
11
5.35374
21
-2.84769
0
LINE
8
BLACK
6
CONTINUOUS
10
5.35374
20
-2.84769
11
5.35374
21
-3.56727
0
LINE
8
BLACK
6
CONTINUOUS
10
5.35374
20
-3.56727
11
5.35374
21
-3.56732
0
LINE
8
BLACK
6
CONTINUOUS
10
5.35374
20
-3.56732
11
5.35374
21
-3.56737
0
LINE
8
BLACK
6
CONTINUOUS
10
5.35374
20
-3.56737
11
5.35374
21
-3.56737
0
LINE
8
BLACK
6
CONTINUOUS
10
5.35374
20
-3.56737
11
5.35373
21
-3.56752
0
LINE
8
BLACK
6
CONTINUOUS
10
5.35373
20
-3.56752
11
5.35367
21
-3.5677
0
LINE
8
BLACK
6
CONTINUOUS
10
5.35367
20
-3.5677
11
5.35358
21
-3.56787
0
LINE
8
BLACK
6
CONTINUOUS
10
5.35358
20
-3.56787
11
5.35346
21
-3.56802
0
LINE
8
BLACK
6
CONTINUOUS
10
5.35346
20
-3.56802
11
5.35331
21
-3.56815
0
LINE
8
BLACK
6
CONTINUOUS
10
5.35331
20
-3.56815
11
5.35313
21
-3.56824
0
LINE
8
BLACK
6
CONTINUOUS
10
5.35313
20
-3.56824
11
5.35295
21
-3.56829
0
LINE
8
BLACK
6
CONTINUOUS
10
5.35295
20
-3.56829
11
5.35276
21
-3.56831
0
LINE
8
BLACK
6
CONTINUOUS
10
5.35276
20
-3.56831
11
5.35271
21
-3.56831
0
LINE
8
BLACK
6
CONTINUOUS
10
5.35271
20
-3.56831
11
3.53312
21
-3.56831
0
LINE
8
BLACK
6
CONTINUOUS
10
3.53312
20
-3.56831
11
3.53307
21
-3.56831
0
LINE
8
BLACK
6
CONTINUOUS
10
3.53307
20
-3.56831
11
3.53288
21
-3.56829
0
LINE
8
BLACK
6
CONTINUOUS
10
3.53288
20
-3.56829
11
3.53269
21
-3.56824
0
LINE
8
BLACK
6
CONTINUOUS
10
3.53269
20
-3.56824
11
3.53252
21
-3.56815
0
LINE
8
BLACK
6
CONTINUOUS
10
3.53252
20
-3.56815
11
3.53237
21
-3.56802
0
LINE
8
BLACK
6
CONTINUOUS
10
3.53237
20
-3.56802
11
3.53225
21
-3.56787
0
LINE
8
BLACK
6
CONTINUOUS
10
3.53225
20
-3.56787
11
3.53216
21
-3.5677
0
LINE
8
BLACK
6
CONTINUOUS
10
3.53216
20
-3.5677
11
3.5321
21
-3.56752
0
LINE
8
BLACK
6
CONTINUOUS
10
3.5321
20
-3.56752
11
3.53208
21
-3.56732
0
LINE
8
BLACK
6
CONTINUOUS
10
3.53208
20
-3.56732
11
3.53209
21
-3.56727
0
LINE
8
BLACK
6
CONTINUOUS
10
3.53209
20
-3.56727
11
3.53209
21
-2.84769
0
LINE
8
BLACK
6
CONTINUOUS
10
3.53209
20
-2.84769
11
3.53208
21
-2.84764
0
LINE
8
BLACK
6
CONTINUOUS
10
3.53208
20
-2.84764
11
3.5321
21
-2.84744
0
LINE
8
BLACK
6
CONTINUOUS
10
3.5321
20
-2.84744
11
3.53216
21
-2.84726
0
LINE
8
BLACK
6
CONTINUOUS
10
3.53216
20
-2.84726
11
3.53225
21
-2.84709
0
LINE
8
BLACK
6
CONTINUOUS
10
3.53225
20
-2.84709
11
3.53237
21
-2.84694
0
LINE
8
BLACK
6
CONTINUOUS
10
3.53237
20
-2.84694
11
3.53252
21
-2.84682
0
LINE
8
BLACK
6
CONTINUOUS
10
3.53252
20
-2.84682
11
3.53269
21
-2.84672
0
LINE
8
BLACK
6
CONTINUOUS
10
3.53269
20
-2.84672
11
3.53288
21
-2.84667
0
LINE
8
BLACK
6
CONTINUOUS
10
3.53288
20
-2.84667
11
3.53302
21
-2.84665
0
LINE
8
BLACK
6
CONTINUOUS
10
3.53302
20
-2.84665
11
3.53302
21
-2.84665
0
LINE
8
BLACK
6
CONTINUOUS
10
3.53302
20
-2.84665
11
3.53307
21
-2.84665
0
LINE
8
BLACK
6
CONTINUOUS
10
3.53307
20
-2.84665
11
3.53312
21
-2.84665
0
LINE
8
BLACK
6
CONTINUOUS
10
3.53312
20
-2.84665
11
5.35271
21
-2.84665
0
LINE
8
BLACK
6
CONTINUOUS
10
5.35271
20
-2.84665
11
5.35276
21
-2.84665
0
LINE
8
BLACK
6
CONTINUOUS
10
5.35276
20
-2.84665
11
5.3528
21
-2.84665
0
LINE
8
BLACK
6
CONTINUOUS
10
3.53406
20
-2.84862
11
3.53406
21
-3.56634
0
LINE
8
BLACK
6
CONTINUOUS
10
3.53406
20
-3.56634
11
5.35177
21
-3.56634
0
LINE
8
BLACK
6
CONTINUOUS
10
5.35177
20
-3.56634
11
5.35177
21
-2.84862
0
LINE
8
BLACK
6
CONTINUOUS
10
5.35177
20
-2.84862
11
3.53406
21
-2.84862
0
LINE
8
BLACK
6
CONTINUOUS
10
4.28329
20
-3.19628
11
4.29361
21
-3.17136
0
LINE
8
BLACK
6
CONTINUOUS
10
4.29361
20
-3.17136
11
4.3086
21
-3.14893
0
LINE
8
BLACK
6
CONTINUOUS
10
4.3086
20
-3.14893
11
4.32767
21
-3.12986
0
LINE
8
BLACK
6
CONTINUOUS
10
4.32767
20
-3.12986
11
4.3501
21
-3.11487
0
LINE
8
BLACK
6
CONTINUOUS
10
4.3501
20
-3.11487
11
4.37502
21
-3.10455
0
LINE
8
BLACK
6
CONTINUOUS
10
4.37502
20
-3.10455
11
4.40147
21
-3.09928
0
LINE
8
BLACK
6
CONTINUOUS
10
4.40147
20
-3.09928
11
4.42845
21
-3.09928
0
LINE
8
BLACK
6
CONTINUOUS
10
4.42845
20
-3.09928
11
4.4549
21
-3.10455
0
LINE
8
BLACK
6
CONTINUOUS
10
4.4549
20
-3.10455
11
4.47982
21
-3.11487
0
LINE
8
BLACK
6
CONTINUOUS
10
4.47982
20
-3.11487
11
4.50225
21
-3.12986
0
LINE
8
BLACK
6
CONTINUOUS
10
4.50225
20
-3.12986
11
4.52133
21
-3.14893
0
LINE
8
BLACK
6
CONTINUOUS
10
4.52133
20
-3.14893
11
4.53631
21
-3.17136
0
LINE
8
BLACK
6
CONTINUOUS
10
4.53631
20
-3.17136
11
4.54663
21
-3.19628
0
LINE
8
BLACK
6
CONTINUOUS
10
4.54663
20
-3.19628
11
4.5519
21
-3.22273
0
LINE
8
BLACK
6
CONTINUOUS
10
4.5519
20
-3.22273
11
4.5519
21
-3.24971
0
LINE
8
BLACK
6
CONTINUOUS
10
4.5519
20
-3.24971
11
4.54663
21
-3.27616
0
LINE
8
BLACK
6
CONTINUOUS
10
4.54663
20
-3.27616
11
4.53631
21
-3.30108
0
LINE
8
BLACK
6
CONTINUOUS
10
4.53631
20
-3.30108
11
4.52133
21
-3.32351
0
LINE
8
BLACK
6
CONTINUOUS
10
4.52133
20
-3.32351
11
4.50225
21
-3.34259
0
LINE
8
BLACK
6
CONTINUOUS
10
4.50225
20
-3.34259
11
4.47982
21
-3.35757
0
LINE
8
BLACK
6
CONTINUOUS
10
4.47982
20
-3.35757
11
4.4549
21
-3.36789
0
LINE
8
BLACK
6
CONTINUOUS
10
4.4549
20
-3.36789
11
4.42845
21
-3.37316
0
LINE
8
BLACK
6
CONTINUOUS
10
4.42845
20
-3.37316
11
4.40147
21
-3.37316
0
LINE
8
BLACK
6
CONTINUOUS
10
4.40147
20
-3.37316
11
4.37502
21
-3.36789
0
LINE
8
BLACK
6
CONTINUOUS
10
4.37502
20
-3.36789
11
4.3501
21
-3.35757
0
LINE
8
BLACK
6
CONTINUOUS
10
4.3501
20
-3.35757
11
4.32767
21
-3.34259
0
LINE
8
BLACK
6
CONTINUOUS
10
4.32767
20
-3.34259
11
4.3086
21
-3.32351
0
LINE
8
BLACK
6
CONTINUOUS
10
4.3086
20
-3.32351
11
4.29361
21
-3.30108
0
LINE
8
BLACK
6
CONTINUOUS
10
4.29361
20
-3.30108
11
4.28329
21
-3.27616
0
LINE
8
BLACK
6
CONTINUOUS
10
4.28329
20
-3.27616
11
4.27802
21
-3.24971
0
LINE
8
BLACK
6
CONTINUOUS
10
4.27802
20
-3.24971
11
4.27802
21
-3.22273
0
LINE
8
BLACK
6
CONTINUOUS
10
4.27802
20
-3.22273
11
4.28329
21
-3.19628
0
LINE
8
BLACK
6
CONTINUOUS
10
4.28592
20
-3.27536
11
4.29604
21
-3.29978
0
LINE
8
BLACK
6
CONTINUOUS
10
4.29604
20
-3.29978
11
4.31073
21
-3.32176
0
LINE
8
BLACK
6
CONTINUOUS
10
4.31073
20
-3.32176
11
4.32942
21
-3.34046
0
LINE
8
BLACK
6
CONTINUOUS
10
4.32942
20
-3.34046
11
4.3514
21
-3.35514
0
LINE
8
BLACK
6
CONTINUOUS
10
4.3514
20
-3.35514
11
4.37582
21
-3.36526
0
LINE
8
BLACK
6
CONTINUOUS
10
4.37582
20
-3.36526
11
4.40174
21
-3.37041
0
LINE
8
BLACK
6
CONTINUOUS
10
4.40174
20
-3.37041
11
4.42818
21
-3.37041
0
LINE
8
BLACK
6
CONTINUOUS
10
4.42818
20
-3.37041
11
4.4541
21
-3.36526
0
LINE
8
BLACK
6
CONTINUOUS
10
4.4541
20
-3.36526
11
4.47852
21
-3.35514
0
LINE
8
BLACK
6
CONTINUOUS
10
4.47852
20
-3.35514
11
4.5005
21
-3.34046
0
LINE
8
BLACK
6
CONTINUOUS
10
4.5005
20
-3.34046
11
4.5192
21
-3.32176
0
LINE
8
BLACK
6
CONTINUOUS
10
4.5192
20
-3.32176
11
4.53388
21
-3.29978
0
LINE
8
BLACK
6
CONTINUOUS
10
4.53388
20
-3.29978
11
4.544
21
-3.27536
0
LINE
8
BLACK
6
CONTINUOUS
10
4.544
20
-3.27536
11
4.54915
21
-3.24944
0
LINE
8
BLACK
6
CONTINUOUS
10
4.54915
20
-3.24944
11
4.54915
21
-3.223
0
LINE
8
BLACK
6
CONTINUOUS
10
4.54915
20
-3.223
11
4.544
21
-3.19708
0
LINE
8
BLACK
6
CONTINUOUS
10
4.544
20
-3.19708
11
4.53388
21
-3.17266
0
LINE
8
BLACK
6
CONTINUOUS
10
4.53388
20
-3.17266
11
4.5192
21
-3.15068
0
LINE
8
BLACK
6
CONTINUOUS
10
4.5192
20
-3.15068
11
4.5005
21
-3.13199
0
LINE
8
BLACK
6
CONTINUOUS
10
4.5005
20
-3.13199
11
4.47852
21
-3.1173
0
LINE
8
BLACK
6
CONTINUOUS
10
4.47852
20
-3.1173
11
4.4541
21
-3.10718
0
LINE
8
BLACK
6
CONTINUOUS
10
4.4541
20
-3.10718
11
4.42818
21
-3.10203
0
LINE
8
BLACK
6
CONTINUOUS
10
4.42818
20
-3.10203
11
4.40174
21
-3.10203
0
LINE
8
BLACK
6
CONTINUOUS
10
4.40174
20
-3.10203
11
4.37582
21
-3.10718
0
LINE
8
BLACK
6
CONTINUOUS
10
4.37582
20
-3.10718
11
4.3514
21
-3.1173
0
LINE
8
BLACK
6
CONTINUOUS
10
4.3514
20
-3.1173
11
4.32942
21
-3.13199
0
LINE
8
BLACK
6
CONTINUOUS
10
4.32942
20
-3.13199
11
4.31073
21
-3.15068
0
LINE
8
BLACK
6
CONTINUOUS
10
4.31073
20
-3.15068
11
4.29604
21
-3.17266
0
LINE
8
BLACK
6
CONTINUOUS
10
4.29604
20
-3.17266
11
4.28592
21
-3.19708
0
LINE
8
BLACK
6
CONTINUOUS
10
4.28592
20
-3.19708
11
4.28077
21
-3.223
0
LINE
8
BLACK
6
CONTINUOUS
10
4.28077
20
-3.223
11
4.28077
21
-3.24944
0
LINE
8
BLACK
6
CONTINUOUS
10
4.28077
20
-3.24944
11
4.28592
21
-3.27536
0
LINE
8
BLACK
6
CONTINUOUS
10
4.28863
20
-2.33917
11
4.28878
21
-2.33919
0
LINE
8
BLACK
6
CONTINUOUS
10
4.28878
20
-2.33919
11
4.28896
21
-2.33924
0
LINE
8
BLACK
6
CONTINUOUS
10
4.28896
20
-2.33924
11
4.28913
21
-2.33934
0
LINE
8
BLACK
6
CONTINUOUS
10
4.28913
20
-2.33934
11
4.28928
21
-2.33946
0
LINE
8
BLACK
6
CONTINUOUS
10
4.28928
20
-2.33946
11
4.2894
21
-2.33961
0
LINE
8
BLACK
6
CONTINUOUS
10
4.2894
20
-2.33961
11
4.2895
21
-2.33978
0
LINE
8
BLACK
6
CONTINUOUS
10
4.2895
20
-2.33978
11
4.28955
21
-2.33996
0
LINE
8
BLACK
6
CONTINUOUS
10
4.28955
20
-2.33996
11
4.28957
21
-2.34016
0
LINE
8
BLACK
6
CONTINUOUS
10
4.28957
20
-2.34016
11
4.28957
21
-2.34021
0
LINE
8
BLACK
6
CONTINUOUS
10
4.28957
20
-2.34021
11
4.28957
21
-2.48184
0
LINE
8
BLACK
6
CONTINUOUS
10
4.28957
20
-2.48184
11
4.28957
21
-2.48189
0
LINE
8
BLACK
6
CONTINUOUS
10
4.28957
20
-2.48189
11
4.28955
21
-2.48208
0
LINE
8
BLACK
6
CONTINUOUS
10
4.28955
20
-2.48208
11
4.2895
21
-2.48227
0
LINE
8
BLACK
6
CONTINUOUS
10
4.2895
20
-2.48227
11
4.2894
21
-2.48244
0
LINE
8
BLACK
6
CONTINUOUS
10
4.2894
20
-2.48244
11
4.28928
21
-2.48259
0
LINE
8
BLACK
6
CONTINUOUS
10
4.28928
20
-2.48259
11
4.28913
21
-2.48271
0
LINE
8
BLACK
6
CONTINUOUS
10
4.28913
20
-2.48271
11
4.28896
21
-2.4828
0
LINE
8
BLACK
6
CONTINUOUS
10
4.28896
20
-2.4828
11
4.28878
21
-2.48286
0
LINE
8
BLACK
6
CONTINUOUS
10
4.28878
20
-2.48286
11
4.28863
21
-2.48287
0
LINE
8
BLACK
6
CONTINUOUS
10
4.28863
20
-2.48287
11
4.28863
21
-2.48287
0
LINE
8
BLACK
6
CONTINUOUS
10
4.28863
20
-2.48287
11
4.28858
21
-2.48288
0
LINE
8
BLACK
6
CONTINUOUS
10
4.28858
20
-2.48288
11
4.28853
21
-2.48287
0
LINE
8
BLACK
6
CONTINUOUS
10
4.28853
20
-2.48287
11
3.6469
21
-2.48287
0
LINE
8
BLACK
6
CONTINUOUS
10
3.6469
20
-2.48287
11
3.64685
21
-2.48288
0
LINE
8
BLACK
6
CONTINUOUS
10
3.64685
20
-2.48288
11
3.6468
21
-2.48287
0
LINE
8
BLACK
6
CONTINUOUS
10
3.6468
20
-2.48287
11
3.6468
21
-2.48287
0
LINE
8
BLACK
6
CONTINUOUS
10
3.6468
20
-2.48287
11
3.64666
21
-2.48286
0
LINE
8
BLACK
6
CONTINUOUS
10
3.64666
20
-2.48286
11
3.64647
21
-2.4828
0
LINE
8
BLACK
6
CONTINUOUS
10
3.64647
20
-2.4828
11
3.6463
21
-2.48271
0
LINE
8
BLACK
6
CONTINUOUS
10
3.6463
20
-2.48271
11
3.64615
21
-2.48259
0
LINE
8
BLACK
6
CONTINUOUS
10
3.64615
20
-2.48259
11
3.64603
21
-2.48244
0
LINE
8
BLACK
6
CONTINUOUS
10
3.64603
20
-2.48244
11
3.64594
21
-2.48227
0
LINE
8
BLACK
6
CONTINUOUS
10
3.64594
20
-2.48227
11
3.64588
21
-2.48208
0
LINE
8
BLACK
6
CONTINUOUS
10
3.64588
20
-2.48208
11
3.64586
21
-2.48189
0
LINE
8
BLACK
6
CONTINUOUS
10
3.64586
20
-2.48189
11
3.64587
21
-2.48184
0
LINE
8
BLACK
6
CONTINUOUS
10
3.64587
20
-2.48184
11
3.64587
21
-2.34021
0
LINE
8
BLACK
6
CONTINUOUS
10
3.64587
20
-2.34021
11
3.64586
21
-2.34016
0
LINE
8
BLACK
6
CONTINUOUS
10
3.64586
20
-2.34016
11
3.64588
21
-2.33996
0
LINE
8
BLACK
6
CONTINUOUS
10
3.64588
20
-2.33996
11
3.64594
21
-2.33978
0
LINE
8
BLACK
6
CONTINUOUS
10
3.64594
20
-2.33978
11
3.64603
21
-2.33961
0
LINE
8
BLACK
6
CONTINUOUS
10
3.64603
20
-2.33961
11
3.64615
21
-2.33946
0
LINE
8
BLACK
6
CONTINUOUS
10
3.64615
20
-2.33946
11
3.6463
21
-2.33934
0
LINE
8
BLACK
6
CONTINUOUS
10
3.6463
20
-2.33934
11
3.64647
21
-2.33924
0
LINE
8
BLACK
6
CONTINUOUS
10
3.64647
20
-2.33924
11
3.64666
21
-2.33919
0
LINE
8
BLACK
6
CONTINUOUS
10
3.64666
20
-2.33919
11
3.6468
21
-2.33917
0
LINE
8
BLACK
6
CONTINUOUS
10
3.6468
20
-2.33917
11
3.64685
21
-2.33917
0
LINE
8
BLACK
6
CONTINUOUS
10
3.64685
20
-2.33917
11
3.6469
21
-2.33917
0
LINE
8
BLACK
6
CONTINUOUS
10
3.6469
20
-2.33917
11
4.28853
21
-2.33917
0
LINE
8
BLACK
6
CONTINUOUS
10
4.28853
20
-2.33917
11
4.28858
21
-2.33917
0
LINE
8
BLACK
6
CONTINUOUS
10
4.28858
20
-2.33917
11
4.28863
21
-2.33917
0
LINE
8
BLACK
6
CONTINUOUS
10
3.64783
20
-2.34114
11
3.64783
21
-2.48091
0
LINE
8
BLACK
6
CONTINUOUS
10
3.64783
20
-2.48091
11
4.2876
21
-2.48091
0
LINE
8
BLACK
6
CONTINUOUS
10
4.2876
20
-2.48091
11
4.2876
21
-2.34114
0
LINE
8
BLACK
6
CONTINUOUS
10
4.2876
20
-2.34114
11
3.64783
21
-2.34114
0
LINE
8
BLACK
6
CONTINUOUS
10
3.55517
20
-1.71949
11
3.55531
21
-1.7195
0
LINE
8
BLACK
6
CONTINUOUS
10
3.55531
20
-1.7195
11
3.5555
21
-1.71956
0
LINE
8
BLACK
6
CONTINUOUS
10
3.5555
20
-1.71956
11
3.55567
21
-1.71965
0
LINE
8
BLACK
6
CONTINUOUS
10
3.55567
20
-1.71965
11
3.55582
21
-1.71977
0
LINE
8
BLACK
6
CONTINUOUS
10
3.55582
20
-1.71977
11
3.55594
21
-1.71992
0
LINE
8
BLACK
6
CONTINUOUS
10
3.55594
20
-1.71992
11
3.55603
21
-1.72009
0
LINE
8
BLACK
6
CONTINUOUS
10
3.55603
20
-1.72009
11
3.55609
21
-1.72028
0
LINE
8
BLACK
6
CONTINUOUS
10
3.55609
20
-1.72028
11
3.55611
21
-1.72047
0
LINE
8
BLACK
6
CONTINUOUS
10
3.55611
20
-1.72047
11
3.5561
21
-1.72052
0
LINE
8
BLACK
6
CONTINUOUS
10
3.5561
20
-1.72052
11
3.5561
21
-2.36216
0
LINE
8
BLACK
6
CONTINUOUS
10
3.5561
20
-2.36216
11
3.55611
21
-2.3622
0
LINE
8
BLACK
6
CONTINUOUS
10
3.55611
20
-2.3622
11
3.55609
21
-2.3624
0
LINE
8
BLACK
6
CONTINUOUS
10
3.55609
20
-2.3624
11
3.55603
21
-2.36258
0
LINE
8
BLACK
6
CONTINUOUS
10
3.55603
20
-2.36258
11
3.55594
21
-2.36275
0
LINE
8
BLACK
6
CONTINUOUS
10
3.55594
20
-2.36275
11
3.55582
21
-2.3629
0
LINE
8
BLACK
6
CONTINUOUS
10
3.55582
20
-2.3629
11
3.55567
21
-2.36303
0
LINE
8
BLACK
6
CONTINUOUS
10
3.55567
20
-2.36303
11
3.5555
21
-2.36312
0
LINE
8
BLACK
6
CONTINUOUS
10
3.5555
20
-2.36312
11
3.55531
21
-2.36317
0
LINE
8
BLACK
6
CONTINUOUS
10
3.55531
20
-2.36317
11
3.55517
21
-2.36319
0
LINE
8
BLACK
6
CONTINUOUS
10
3.55517
20
-2.36319
11
3.55517
21
-2.36319
0
LINE
8
BLACK
6
CONTINUOUS
10
3.55517
20
-2.36319
11
3.55512
21
-2.36319
0
LINE
8
BLACK
6
CONTINUOUS
10
3.55512
20
-2.36319
11
3.55507
21
-2.36319
0
LINE
8
BLACK
6
CONTINUOUS
10
3.55507
20
-2.36319
11
3.41343
21
-2.36319
0
LINE
8
BLACK
6
CONTINUOUS
10
3.41343
20
-2.36319
11
3.41339
21
-2.36319
0
LINE
8
BLACK
6
CONTINUOUS
10
3.41339
20
-2.36319
11
3.41334
21
-2.36319
0
LINE
8
BLACK
6
CONTINUOUS
10
3.41334
20
-2.36319
11
3.41334
21
-2.36319
0
LINE
8
BLACK
6
CONTINUOUS
10
3.41334
20
-2.36319
11
3.41319
21
-2.36317
0
LINE
8
BLACK
6
CONTINUOUS
10
3.41319
20
-2.36317
11
3.41301
21
-2.36312
0
LINE
8
BLACK
6
CONTINUOUS
10
3.41301
20
-2.36312
11
3.41284
21
-2.36303
0
LINE
8
BLACK
6
CONTINUOUS
10
3.41284
20
-2.36303
11
3.41269
21
-2.3629
0
LINE
8
BLACK
6
CONTINUOUS
10
3.41269
20
-2.3629
11
3.41256
21
-2.36275
0
LINE
8
BLACK
6
CONTINUOUS
10
3.41256
20
-2.36275
11
3.41247
21
-2.36258
0
LINE
8
BLACK
6
CONTINUOUS
10
3.41247
20
-2.36258
11
3.41242
21
-2.3624
0
LINE
8
BLACK
6
CONTINUOUS
10
3.41242
20
-2.3624
11
3.4124
21
-2.3622
0
LINE
8
BLACK
6
CONTINUOUS
10
3.4124
20
-2.3622
11
3.4124
21
-2.36216
0
LINE
8
BLACK
6
CONTINUOUS
10
3.4124
20
-2.36216
11
3.4124
21
-1.72052
0
LINE
8
BLACK
6
CONTINUOUS
10
3.4124
20
-1.72052
11
3.4124
21
-1.72047
0
LINE
8
BLACK
6
CONTINUOUS
10
3.4124
20
-1.72047
11
3.41242
21
-1.72028
0
LINE
8
BLACK
6
CONTINUOUS
10
3.41242
20
-1.72028
11
3.41247
21
-1.72009
0
LINE
8
BLACK
6
CONTINUOUS
10
3.41247
20
-1.72009
11
3.41256
21
-1.71992
0
LINE
8
BLACK
6
CONTINUOUS
10
3.41256
20
-1.71992
11
3.41269
21
-1.71977
0
LINE
8
BLACK
6
CONTINUOUS
10
3.41269
20
-1.71977
11
3.41284
21
-1.71965
0
LINE
8
BLACK
6
CONTINUOUS
10
3.41284
20
-1.71965
11
3.41301
21
-1.71956
0
LINE
8
BLACK
6
CONTINUOUS
10
3.41301
20
-1.71956
11
3.41319
21
-1.7195
0
LINE
8
BLACK
6
CONTINUOUS
10
3.41319
20
-1.7195
11
3.41334
21
-1.71949
0
LINE
8
BLACK
6
CONTINUOUS
10
3.41334
20
-1.71949
11
3.41339
21
-1.71948
0
LINE
8
BLACK
6
CONTINUOUS
10
3.41339
20
-1.71948
11
3.41343
21
-1.71949
0
LINE
8
BLACK
6
CONTINUOUS
10
3.41343
20
-1.71949
11
3.55507
21
-1.71949
0
LINE
8
BLACK
6
CONTINUOUS
10
3.55507
20
-1.71949
11
3.55512
21
-1.71948
0
LINE
8
BLACK
6
CONTINUOUS
10
3.55512
20
-1.71948
11
3.55517
21
-1.71949
0
LINE
8
BLACK
6
CONTINUOUS
10
3.41437
20
-1.72146
11
3.41437
21
-2.36122
0
LINE
8
BLACK
6
CONTINUOUS
10
3.41437
20
-2.36122
11
3.55413
21
-2.36122
0
LINE
8
BLACK
6
CONTINUOUS
10
3.55413
20
-2.36122
11
3.55413
21
-1.72146
0
LINE
8
BLACK
6
CONTINUOUS
10
3.55413
20
-1.72146
11
3.41437
21
-1.72146
0
LINE
8
BLACK
6
CONTINUOUS
10
3.77328
20
-1.82736
11
3.77342
21
-1.82738
0
LINE
8
BLACK
6
CONTINUOUS
10
3.77342
20
-1.82738
11
3.77361
21
-1.82743
0
LINE
8
BLACK
6
CONTINUOUS
10
3.77361
20
-1.82743
11
3.77378
21
-1.82752
0
LINE
8
BLACK
6
CONTINUOUS
10
3.77378
20
-1.82752
11
3.77393
21
-1.82765
0
LINE
8
BLACK
6
CONTINUOUS
10
3.77393
20
-1.82765
11
3.77405
21
-1.8278
0
LINE
8
BLACK
6
CONTINUOUS
10
3.77405
20
-1.8278
11
3.77414
21
-1.82797
0
LINE
8
BLACK
6
CONTINUOUS
10
3.77414
20
-1.82797
11
3.7742
21
-1.82815
0
LINE
8
BLACK
6
CONTINUOUS
10
3.7742
20
-1.82815
11
3.77422
21
-1.82835
0
LINE
8
BLACK
6
CONTINUOUS
10
3.77422
20
-1.82835
11
3.77421
21
-1.82839
0
LINE
8
BLACK
6
CONTINUOUS
10
3.77421
20
-1.82839
11
3.77421
21
-2.16885
0
LINE
8
BLACK
6
CONTINUOUS
10
3.77421
20
-2.16885
11
3.77422
21
-2.1689
0
LINE
8
BLACK
6
CONTINUOUS
10
3.77422
20
-2.1689
11
3.7742
21
-2.16909
0
LINE
8
BLACK
6
CONTINUOUS
10
3.7742
20
-2.16909
11
3.77414
21
-2.16928
0
LINE
8
BLACK
6
CONTINUOUS
10
3.77414
20
-2.16928
11
3.77405
21
-2.16945
0
LINE
8
BLACK
6
CONTINUOUS
10
3.77405
20
-2.16945
11
3.77393
21
-2.1696
0
LINE
8
BLACK
6
CONTINUOUS
10
3.77393
20
-2.1696
11
3.77378
21
-2.16972
0
LINE
8
BLACK
6
CONTINUOUS
10
3.77378
20
-2.16972
11
3.77361
21
-2.16981
0
LINE
8
BLACK
6
CONTINUOUS
10
3.77361
20
-2.16981
11
3.77342
21
-2.16987
0
LINE
8
BLACK
6
CONTINUOUS
10
3.77342
20
-2.16987
11
3.77328
21
-2.16988
0
LINE
8
BLACK
6
CONTINUOUS
10
3.77328
20
-2.16988
11
3.77328
21
-2.16988
0
LINE
8
BLACK
6
CONTINUOUS
10
3.77328
20
-2.16988
11
3.77323
21
-2.16989
0
LINE
8
BLACK
6
CONTINUOUS
10
3.77323
20
-2.16989
11
3.77318
21
-2.16988
0
LINE
8
BLACK
6
CONTINUOUS
10
3.77318
20
-2.16988
11
3.63154
21
-2.16988
0
LINE
8
BLACK
6
CONTINUOUS
10
3.63154
20
-2.16988
11
3.6315
21
-2.16989
0
LINE
8
BLACK
6
CONTINUOUS
10
3.6315
20
-2.16989
11
3.63145
21
-2.16988
0
LINE
8
BLACK
6
CONTINUOUS
10
3.63145
20
-2.16988
11
3.63145
21
-2.16988
0
LINE
8
BLACK
6
CONTINUOUS
10
3.63145
20
-2.16988
11
3.6313
21
-2.16987
0
LINE
8
BLACK
6
CONTINUOUS
10
3.6313
20
-2.16987
11
3.63112
21
-2.16981
0
LINE
8
BLACK
6
CONTINUOUS
10
3.63112
20
-2.16981
11
3.63095
21
-2.16972
0
LINE
8
BLACK
6
CONTINUOUS
10
3.63095
20
-2.16972
11
3.6308
21
-2.1696
0
LINE
8
BLACK
6
CONTINUOUS
10
3.6308
20
-2.1696
11
3.63067
21
-2.16945
0
LINE
8
BLACK
6
CONTINUOUS
10
3.63067
20
-2.16945
11
3.63058
21
-2.16928
0
LINE
8
BLACK
6
CONTINUOUS
10
3.63058
20
-2.16928
11
3.63053
21
-2.16909
0
LINE
8
BLACK
6
CONTINUOUS
10
3.63053
20
-2.16909
11
3.63051
21
-2.1689
0
LINE
8
BLACK
6
CONTINUOUS
10
3.63051
20
-2.1689
11
3.63051
21
-2.16885
0
LINE
8
BLACK
6
CONTINUOUS
10
3.63051
20
-2.16885
11
3.63051
21
-1.82839
0
LINE
8
BLACK
6
CONTINUOUS
10
3.63051
20
-1.82839
11
3.63051
21
-1.82835
0
LINE
8
BLACK
6
CONTINUOUS
10
3.63051
20
-1.82835
11
3.63053
21
-1.82815
0
LINE
8
BLACK
6
CONTINUOUS
10
3.63053
20
-1.82815
11
3.63058
21
-1.82797
0
LINE
8
BLACK
6
CONTINUOUS
10
3.63058
20
-1.82797
11
3.63067
21
-1.8278
0
LINE
8
BLACK
6
CONTINUOUS
10
3.63067
20
-1.8278
11
3.6308
21
-1.82765
0
LINE
8
BLACK
6
CONTINUOUS
10
3.6308
20
-1.82765
11
3.63095
21
-1.82752
0
LINE
8
BLACK
6
CONTINUOUS
10
3.63095
20
-1.82752
11
3.63112
21
-1.82743
0
LINE
8
BLACK
6
CONTINUOUS
10
3.63112
20
-1.82743
11
3.6313
21
-1.82738
0
LINE
8
BLACK
6
CONTINUOUS
10
3.6313
20
-1.82738
11
3.63145
21
-1.82736
0
LINE
8
BLACK
6
CONTINUOUS
10
3.63145
20
-1.82736
11
3.6315
21
-1.82736
0
LINE
8
BLACK
6
CONTINUOUS
10
3.6315
20
-1.82736
11
3.63154
21
-1.82736
0
LINE
8
BLACK
6
CONTINUOUS
10
3.63154
20
-1.82736
11
3.77318
21
-1.82736
0
LINE
8
BLACK
6
CONTINUOUS
10
3.77318
20
-1.82736
11
3.77323
21
-1.82736
0
LINE
8
BLACK
6
CONTINUOUS
10
3.77323
20
-1.82736
11
3.77328
21
-1.82736
0
LINE
8
BLACK
6
CONTINUOUS
10
3.63248
20
-1.82933
11
3.63248
21
-2.16791
0
LINE
8
BLACK
6
CONTINUOUS
10
3.63248
20
-2.16791
11
3.77224
21
-2.16791
0
LINE
8
BLACK
6
CONTINUOUS
10
3.77224
20
-2.16791
11
3.77224
21
-1.82933
0
LINE
8
BLACK
6
CONTINUOUS
10
3.77224
20
-1.82933
11
3.63248
21
-1.82933
0
LINE
8
BLACK
6
CONTINUOUS
10
3.95635
20
-1.82736
11
3.95649
21
-1.82738
0
LINE
8
BLACK
6
CONTINUOUS
10
3.95649
20
-1.82738
11
3.95668
21
-1.82743
0
LINE
8
BLACK
6
CONTINUOUS
10
3.95668
20
-1.82743
11
3.95685
21
-1.82752
0
LINE
8
BLACK
6
CONTINUOUS
10
3.95685
20
-1.82752
11
3.957
21
-1.82765
0
LINE
8
BLACK
6
CONTINUOUS
10
3.957
20
-1.82765
11
3.95712
21
-1.8278
0
LINE
8
BLACK
6
CONTINUOUS
10
3.95712
20
-1.8278
11
3.95721
21
-1.82797
0
LINE
8
BLACK
6
CONTINUOUS
10
3.95721
20
-1.82797
11
3.95727
21
-1.82815
0
LINE
8
BLACK
6
CONTINUOUS
10
3.95727
20
-1.82815
11
3.95729
21
-1.82835
0
LINE
8
BLACK
6
CONTINUOUS
10
3.95729
20
-1.82835
11
3.95728
21
-1.82839
0
LINE
8
BLACK
6
CONTINUOUS
10
3.95728
20
-1.82839
11
3.95728
21
-2.16885
0
LINE
8
BLACK
6
CONTINUOUS
10
3.95728
20
-2.16885
11
3.95729
21
-2.1689
0
LINE
8
BLACK
6
CONTINUOUS
10
3.95729
20
-2.1689
11
3.95727
21
-2.16909
0
LINE
8
BLACK
6
CONTINUOUS
10
3.95727
20
-2.16909
11
3.95721
21
-2.16928
0
LINE
8
BLACK
6
CONTINUOUS
10
3.95721
20
-2.16928
11
3.95712
21
-2.16945
0
LINE
8
BLACK
6
CONTINUOUS
10
3.95712
20
-2.16945
11
3.957
21
-2.1696
0
LINE
8
BLACK
6
CONTINUOUS
10
3.957
20
-2.1696
11
3.95685
21
-2.16972
0
LINE
8
BLACK
6
CONTINUOUS
10
3.95685
20
-2.16972
11
3.95668
21
-2.16981
0
LINE
8
BLACK
6
CONTINUOUS
10
3.95668
20
-2.16981
11
3.95649
21
-2.16987
0
LINE
8
BLACK
6
CONTINUOUS
10
3.95649
20
-2.16987
11
3.95635
21
-2.16988
0
LINE
8
BLACK
6
CONTINUOUS
10
3.95635
20
-2.16988
11
3.95635
21
-2.16988
0
LINE
8
BLACK
6
CONTINUOUS
10
3.95635
20
-2.16988
11
3.9563
21
-2.16989
0
LINE
8
BLACK
6
CONTINUOUS
10
3.9563
20
-2.16989
11
3.95625
21
-2.16988
0
LINE
8
BLACK
6
CONTINUOUS
10
3.95625
20
-2.16988
11
3.81461
21
-2.16988
0
LINE
8
BLACK
6
CONTINUOUS
10
3.81461
20
-2.16988
11
3.81457
21
-2.16989
0
LINE
8
BLACK
6
CONTINUOUS
10
3.81457
20
-2.16989
11
3.81452
21
-2.16988
0
LINE
8
BLACK
6
CONTINUOUS
10
3.81452
20
-2.16988
11
3.81452
21
-2.16988
0
LINE
8
BLACK
6
CONTINUOUS
10
3.81452
20
-2.16988
11
3.81437
21
-2.16987
0
LINE
8
BLACK
6
CONTINUOUS
10
3.81437
20
-2.16987
11
3.81419
21
-2.16981
0
LINE
8
BLACK
6
CONTINUOUS
10
3.81419
20
-2.16981
11
3.81402
21
-2.16972
0
LINE
8
BLACK
6
CONTINUOUS
10
3.81402
20
-2.16972
11
3.81387
21
-2.1696
0
LINE
8
BLACK
6
CONTINUOUS
10
3.81387
20
-2.1696
11
3.81374
21
-2.16945
0
LINE
8
BLACK
6
CONTINUOUS
10
3.81374
20
-2.16945
11
3.81365
21
-2.16928
0
LINE
8
BLACK
6
CONTINUOUS
10
3.81365
20
-2.16928
11
3.8136
21
-2.16909
0
LINE
8
BLACK
6
CONTINUOUS
10
3.8136
20
-2.16909
11
3.81358
21
-2.1689
0
LINE
8
BLACK
6
CONTINUOUS
10
3.81358
20
-2.1689
11
3.81358
21
-2.16885
0
LINE
8
BLACK
6
CONTINUOUS
10
3.81358
20
-2.16885
11
3.81358
21
-1.82839
0
LINE
8
BLACK
6
CONTINUOUS
10
3.81358
20
-1.82839
11
3.81358
21
-1.82835
0
LINE
8
BLACK
6
CONTINUOUS
10
3.81358
20
-1.82835
11
3.8136
21
-1.82815
0
LINE
8
BLACK
6
CONTINUOUS
10
3.8136
20
-1.82815
11
3.81365
21
-1.82797
0
LINE
8
BLACK
6
CONTINUOUS
10
3.81365
20
-1.82797
11
3.81374
21
-1.8278
0
LINE
8
BLACK
6
CONTINUOUS
10
3.81374
20
-1.8278
11
3.81387
21
-1.82765
0
LINE
8
BLACK
6
CONTINUOUS
10
3.81387
20
-1.82765
11
3.81402
21
-1.82752
0
LINE
8
BLACK
6
CONTINUOUS
10
3.81402
20
-1.82752
11
3.81419
21
-1.82743
0
LINE
8
BLACK
6
CONTINUOUS
10
3.81419
20
-1.82743
11
3.81437
21
-1.82738
0
LINE
8
BLACK
6
CONTINUOUS
10
3.81437
20
-1.82738
11
3.81452
21
-1.82736
0
LINE
8
BLACK
6
CONTINUOUS
10
3.81452
20
-1.82736
11
3.81457
21
-1.82736
0
LINE
8
BLACK
6
CONTINUOUS
10
3.81457
20
-1.82736
11
3.81461
21
-1.82736
0
LINE
8
BLACK
6
CONTINUOUS
10
3.81461
20
-1.82736
11
3.95625
21
-1.82736
0
LINE
8
BLACK
6
CONTINUOUS
10
3.95625
20
-1.82736
11
3.9563
21
-1.82736
0
LINE
8
BLACK
6
CONTINUOUS
10
3.9563
20
-1.82736
11
3.95635
21
-1.82736
0
LINE
8
BLACK
6
CONTINUOUS
10
3.81555
20
-1.82933
11
3.81555
21
-2.16791
0
LINE
8
BLACK
6
CONTINUOUS
10
3.81555
20
-2.16791
11
3.95531
21
-2.16791
0
LINE
8
BLACK
6
CONTINUOUS
10
3.95531
20
-2.16791
11
3.95531
21
-1.82933
0
LINE
8
BLACK
6
CONTINUOUS
10
3.95531
20
-1.82933
11
3.81555
21
-1.82933
0
LINE
8
BLACK
6
CONTINUOUS
10
4.1654
20
-1.49705
11
4.16555
21
-1.49706
0
LINE
8
BLACK
6
CONTINUOUS
10
4.16555
20
-1.49706
11
4.16573
21
-1.49712
0
LINE
8
BLACK
6
CONTINUOUS
10
4.16573
20
-1.49712
11
4.1659
21
-1.49721
0
LINE
8
BLACK
6
CONTINUOUS
10
4.1659
20
-1.49721
11
4.16605
21
-1.49733
0
LINE
8
BLACK
6
CONTINUOUS
10
4.16605
20
-1.49733
11
4.16618
21
-1.49748
0
LINE
8
BLACK
6
CONTINUOUS
10
4.16618
20
-1.49748
11
4.16627
21
-1.49765
0
LINE
8
BLACK
6
CONTINUOUS
10
4.16627
20
-1.49765
11
4.16632
21
-1.49784
0
LINE
8
BLACK
6
CONTINUOUS
10
4.16632
20
-1.49784
11
4.16634
21
-1.49803
0
LINE
8
BLACK
6
CONTINUOUS
10
4.16634
20
-1.49803
11
4.16634
21
-1.49808
0
LINE
8
BLACK
6
CONTINUOUS
10
4.16634
20
-1.49808
11
4.16634
21
-2.13972
0
LINE
8
BLACK
6
CONTINUOUS
10
4.16634
20
-2.13972
11
4.16634
21
-2.13976
0
LINE
8
BLACK
6
CONTINUOUS
10
4.16634
20
-2.13976
11
4.16632
21
-2.13996
0
LINE
8
BLACK
6
CONTINUOUS
10
4.16632
20
-2.13996
11
4.16627
21
-2.14014
0
LINE
8
BLACK
6
CONTINUOUS
10
4.16627
20
-2.14014
11
4.16618
21
-2.14031
0
LINE
8
BLACK
6
CONTINUOUS
10
4.16618
20
-2.14031
11
4.16605
21
-2.14046
0
LINE
8
BLACK
6
CONTINUOUS
10
4.16605
20
-2.14046
11
4.1659
21
-2.14059
0
LINE
8
BLACK
6
CONTINUOUS
10
4.1659
20
-2.14059
11
4.16573
21
-2.14068
0
LINE
8
BLACK
6
CONTINUOUS
10
4.16573
20
-2.14068
11
4.16555
21
-2.14073
0
LINE
8
BLACK
6
CONTINUOUS
10
4.16555
20
-2.14073
11
4.1654
21
-2.14075
0
LINE
8
BLACK
6
CONTINUOUS
10
4.1654
20
-2.14075
11
4.1654
21
-2.14075
0
LINE
8
BLACK
6
CONTINUOUS
10
4.1654
20
-2.14075
11
4.16535
21
-2.14075
0
LINE
8
BLACK
6
CONTINUOUS
10
4.16535
20
-2.14075
11
4.16531
21
-2.14075
0
LINE
8
BLACK
6
CONTINUOUS
10
4.16531
20
-2.14075
11
4.02367
21
-2.14075
0
LINE
8
BLACK
6
CONTINUOUS
10
4.02367
20
-2.14075
11
4.02362
21
-2.14075
0
LINE
8
BLACK
6
CONTINUOUS
10
4.02362
20
-2.14075
11
4.02357
21
-2.14075
0
LINE
8
BLACK
6
CONTINUOUS
10
4.02357
20
-2.14075
11
4.02357
21
-2.14075
0
LINE
8
BLACK
6
CONTINUOUS
10
4.02357
20
-2.14075
11
4.02343
21
-2.14073
0
LINE
8
BLACK
6
CONTINUOUS
10
4.02343
20
-2.14073
11
4.02324
21
-2.14068
0
LINE
8
BLACK
6
CONTINUOUS
10
4.02324
20
-2.14068
11
4.02307
21
-2.14059
0
LINE
8
BLACK
6
CONTINUOUS
10
4.02307
20
-2.14059
11
4.02292
21
-2.14046
0
LINE
8
BLACK
6
CONTINUOUS
10
4.02292
20
-2.14046
11
4.0228
21
-2.14031
0
LINE
8
BLACK
6
CONTINUOUS
10
4.0228
20
-2.14031
11
4.02271
21
-2.14014
0
LINE
8
BLACK
6
CONTINUOUS
10
4.02271
20
-2.14014
11
4.02265
21
-2.13996
0
LINE
8
BLACK
6
CONTINUOUS
10
4.02265
20
-2.13996
11
4.02263
21
-2.13976
0
LINE
8
BLACK
6
CONTINUOUS
10
4.02263
20
-2.13976
11
4.02264
21
-2.13972
0
LINE
8
BLACK
6
CONTINUOUS
10
4.02264
20
-2.13972
11
4.02264
21
-1.49808
0
LINE
8
BLACK
6
CONTINUOUS
10
4.02264
20
-1.49808
11
4.02263
21
-1.49803
0
LINE
8
BLACK
6
CONTINUOUS
10
4.02263
20
-1.49803
11
4.02265
21
-1.49784
0
LINE
8
BLACK
6
CONTINUOUS
10
4.02265
20
-1.49784
11
4.02271
21
-1.49765
0
LINE
8
BLACK
6
CONTINUOUS
10
4.02271
20
-1.49765
11
4.0228
21
-1.49748
0
LINE
8
BLACK
6
CONTINUOUS
10
4.0228
20
-1.49748
11
4.02292
21
-1.49733
0
LINE
8
BLACK
6
CONTINUOUS
10
4.02292
20
-1.49733
11
4.02307
21
-1.49721
0
LINE
8
BLACK
6
CONTINUOUS
10
4.02307
20
-1.49721
11
4.02324
21
-1.49712
0
LINE
8
BLACK
6
CONTINUOUS
10
4.02324
20
-1.49712
11
4.02343
21
-1.49706
0
LINE
8
BLACK
6
CONTINUOUS
10
4.02343
20
-1.49706
11
4.02357
21
-1.49705
0
LINE
8
BLACK
6
CONTINUOUS
10
4.02357
20
-1.49705
11
4.02362
21
-1.49704
0
LINE
8
BLACK
6
CONTINUOUS
10
4.02362
20
-1.49704
11
4.02367
21
-1.49705
0
LINE
8
BLACK
6
CONTINUOUS
10
4.02367
20
-1.49705
11
4.16531
21
-1.49705
0
LINE
8
BLACK
6
CONTINUOUS
10
4.16531
20
-1.49705
11
4.16535
21
-1.49704
0
LINE
8
BLACK
6
CONTINUOUS
10
4.16535
20
-1.49704
11
4.1654
21
-1.49705
0
LINE
8
BLACK
6
CONTINUOUS
10
4.02461
20
-1.49902
11
4.02461
21
-2.13878
0
LINE
8
BLACK
6
CONTINUOUS
10
4.02461
20
-2.13878
11
4.16437
21
-2.13878
0
LINE
8
BLACK
6
CONTINUOUS
10
4.16437
20
-2.13878
11
4.16437
21
-1.49902
0
LINE
8
BLACK
6
CONTINUOUS
10
4.16437
20
-1.49902
11
4.02461
21
-1.49902
0
LINE
8
BLACK
6
CONTINUOUS
10
4.5591
20
-1.49508
11
4.55925
21
-1.49509
0
LINE
8
BLACK
6
CONTINUOUS
10
4.55925
20
-1.49509
11
4.55943
21
-1.49515
0
LINE
8
BLACK
6
CONTINUOUS
10
4.55943
20
-1.49515
11
4.5596
21
-1.49524
0
LINE
8
BLACK
6
CONTINUOUS
10
4.5596
20
-1.49524
11
4.55975
21
-1.49536
0
LINE
8
BLACK
6
CONTINUOUS
10
4.55975
20
-1.49536
11
4.55988
21
-1.49551
0
LINE
8
BLACK
6
CONTINUOUS
10
4.55988
20
-1.49551
11
4.55997
21
-1.49568
0
LINE
8
BLACK
6
CONTINUOUS
10
4.55997
20
-1.49568
11
4.56003
21
-1.49587
0
LINE
8
BLACK
6
CONTINUOUS
10
4.56003
20
-1.49587
11
4.56004
21
-1.49606
0
LINE
8
BLACK
6
CONTINUOUS
10
4.56004
20
-1.49606
11
4.56004
21
-1.49611
0
LINE
8
BLACK
6
CONTINUOUS
10
4.56004
20
-1.49611
11
4.56004
21
-2.13775
0
LINE
8
BLACK
6
CONTINUOUS
10
4.56004
20
-2.13775
11
4.56004
21
-2.1378
0
LINE
8
BLACK
6
CONTINUOUS
10
4.56004
20
-2.1378
11
4.56003
21
-2.13799
0
LINE
8
BLACK
6
CONTINUOUS
10
4.56003
20
-2.13799
11
4.55997
21
-2.13817
0
LINE
8
BLACK
6
CONTINUOUS
10
4.55997
20
-2.13817
11
4.55988
21
-2.13834
0
LINE
8
BLACK
6
CONTINUOUS
10
4.55988
20
-2.13834
11
4.55975
21
-2.13849
0
LINE
8
BLACK
6
CONTINUOUS
10
4.55975
20
-2.13849
11
4.5596
21
-2.13862
0
LINE
8
BLACK
6
CONTINUOUS
10
4.5596
20
-2.13862
11
4.55943
21
-2.13871
0
LINE
8
BLACK
6
CONTINUOUS
10
4.55943
20
-2.13871
11
4.55925
21
-2.13877
0
LINE
8
BLACK
6
CONTINUOUS
10
4.55925
20
-2.13877
11
4.5591
21
-2.13878
0
LINE
8
BLACK
6
CONTINUOUS
10
4.5591
20
-2.13878
11
4.5591
21
-2.13878
0
LINE
8
BLACK
6
CONTINUOUS
10
4.5591
20
-2.13878
11
4.55906
21
-2.13878
0
LINE
8
BLACK
6
CONTINUOUS
10
4.55906
20
-2.13878
11
4.55901
21
-2.13878
0
LINE
8
BLACK
6
CONTINUOUS
10
4.55901
20
-2.13878
11
4.41737
21
-2.13878
0
LINE
8
BLACK
6
CONTINUOUS
10
4.41737
20
-2.13878
11
4.41732
21
-2.13878
0
LINE
8
BLACK
6
CONTINUOUS
10
4.41732
20
-2.13878
11
4.41727
21
-2.13878
0
LINE
8
BLACK
6
CONTINUOUS
10
4.41727
20
-2.13878
11
4.41727
21
-2.13878
0
LINE
8
BLACK
6
CONTINUOUS
10
4.41727
20
-2.13878
11
4.41713
21
-2.13877
0
LINE
8
BLACK
6
CONTINUOUS
10
4.41713
20
-2.13877
11
4.41694
21
-2.13871
0
LINE
8
BLACK
6
CONTINUOUS
10
4.41694
20
-2.13871
11
4.41677
21
-2.13862
0
LINE
8
BLACK
6
CONTINUOUS
10
4.41677
20
-2.13862
11
4.41662
21
-2.13849
0
LINE
8
BLACK
6
CONTINUOUS
10
4.41662
20
-2.13849
11
4.4165
21
-2.13834
0
LINE
8
BLACK
6
CONTINUOUS
10
4.4165
20
-2.13834
11
4.41641
21
-2.13817
0
LINE
8
BLACK
6
CONTINUOUS
10
4.41641
20
-2.13817
11
4.41635
21
-2.13799
0
LINE
8
BLACK
6
CONTINUOUS
10
4.41635
20
-2.13799
11
4.41633
21
-2.1378
0
LINE
8
BLACK
6
CONTINUOUS
10
4.41633
20
-2.1378
11
4.41634
21
-2.13775
0
LINE
8
BLACK
6
CONTINUOUS
10
4.41634
20
-2.13775
11
4.41634
21
-1.49611
0
LINE
8
BLACK
6
CONTINUOUS
10
4.41634
20
-1.49611
11
4.41633
21
-1.49606
0
LINE
8
BLACK
6
CONTINUOUS
10
4.41633
20
-1.49606
11
4.41635
21
-1.49587
0
LINE
8
BLACK
6
CONTINUOUS
10
4.41635
20
-1.49587
11
4.41641
21
-1.49568
0
LINE
8
BLACK
6
CONTINUOUS
10
4.41641
20
-1.49568
11
4.4165
21
-1.49551
0
LINE
8
BLACK
6
CONTINUOUS
10
4.4165
20
-1.49551
11
4.41662
21
-1.49536
0
LINE
8
BLACK
6
CONTINUOUS
10
4.41662
20
-1.49536
11
4.41677
21
-1.49524
0
LINE
8
BLACK
6
CONTINUOUS
10
4.41677
20
-1.49524
11
4.41694
21
-1.49515
0
LINE
8
BLACK
6
CONTINUOUS
10
4.41694
20
-1.49515
11
4.41713
21
-1.49509
0
LINE
8
BLACK
6
CONTINUOUS
10
4.41713
20
-1.49509
11
4.41727
21
-1.49508
0
LINE
8
BLACK
6
CONTINUOUS
10
4.41727
20
-1.49508
11
4.41732
21
-1.49507
0
LINE
8
BLACK
6
CONTINUOUS
10
4.41732
20
-1.49507
11
4.41737
21
-1.49508
0
LINE
8
BLACK
6
CONTINUOUS
10
4.41737
20
-1.49508
11
4.55901
21
-1.49508
0
LINE
8
BLACK
6
CONTINUOUS
10
4.55901
20
-1.49508
11
4.55906
21
-1.49507
0
LINE
8
BLACK
6
CONTINUOUS
10
4.55906
20
-1.49507
11
4.5591
21
-1.49508
0
LINE
8
BLACK
6
CONTINUOUS
10
4.41831
20
-1.49705
11
4.41831
21
-2.13681
0
LINE
8
BLACK
6
CONTINUOUS
10
4.41831
20
-2.13681
11
4.55807
21
-2.13681
0
LINE
8
BLACK
6
CONTINUOUS
10
4.55807
20
-2.13681
11
4.55807
21
-1.49705
0
LINE
8
BLACK
6
CONTINUOUS
10
4.55807
20
-1.49705
11
4.41831
21
-1.49705
0
LINE
8
BLACK
6
CONTINUOUS
10
6.96461
20
-1.27559
11
6.96461
21
-1.27559
0
LINE
8
BLACK
6
CONTINUOUS
10
6.96461
20
-1.27559
11
6.96476
21
-1.2756
0
LINE
8
BLACK
6
CONTINUOUS
10
6.96476
20
-1.2756
11
6.96495
21
-1.27566
0
LINE
8
BLACK
6
CONTINUOUS
10
6.96495
20
-1.27566
11
6.96512
21
-1.27575
0
LINE
8
BLACK
6
CONTINUOUS
10
6.96512
20
-1.27575
11
6.96527
21
-1.27588
0
LINE
8
BLACK
6
CONTINUOUS
10
6.96527
20
-1.27588
11
6.96539
21
-1.27603
0
LINE
8
BLACK
6
CONTINUOUS
10
6.96539
20
-1.27603
11
6.96548
21
-1.2762
0
LINE
8
BLACK
6
CONTINUOUS
10
6.96548
20
-1.2762
11
6.96554
21
-1.27638
0
LINE
8
BLACK
6
CONTINUOUS
10
6.96554
20
-1.27638
11
6.96556
21
-1.27657
0
LINE
8
BLACK
6
CONTINUOUS
10
6.96556
20
-1.27657
11
6.96555
21
-1.27662
0
LINE
8
BLACK
6
CONTINUOUS
10
6.96555
20
-1.27662
11
6.96555
21
-1.51865
0
LINE
8
BLACK
6
CONTINUOUS
10
6.96555
20
-1.51865
11
6.96556
21
-1.5187
0
LINE
8
BLACK
6
CONTINUOUS
10
6.96556
20
-1.5187
11
6.96555
21
-1.51875
0
LINE
8
BLACK
6
CONTINUOUS
10
6.96555
20
-1.51875
11
6.96555
21
-1.51875
0
LINE
8
BLACK
6
CONTINUOUS
10
6.96555
20
-1.51875
11
6.96554
21
-1.51889
0
LINE
8
BLACK
6
CONTINUOUS
10
6.96554
20
-1.51889
11
6.96548
21
-1.51908
0
LINE
8
BLACK
6
CONTINUOUS
10
6.96548
20
-1.51908
11
6.96539
21
-1.51925
0
LINE
8
BLACK
6
CONTINUOUS
10
6.96539
20
-1.51925
11
6.96527
21
-1.5194
0
LINE
8
BLACK
6
CONTINUOUS
10
6.96527
20
-1.5194
11
6.96512
21
-1.51952
0
LINE
8
BLACK
6
CONTINUOUS
10
6.96512
20
-1.51952
11
6.96495
21
-1.51961
0
LINE
8
BLACK
6
CONTINUOUS
10
6.96495
20
-1.51961
11
6.96476
21
-1.51967
0
LINE
8
BLACK
6
CONTINUOUS
10
6.96476
20
-1.51967
11
6.96457
21
-1.51969
0
LINE
8
BLACK
6
CONTINUOUS
10
6.96457
20
-1.51969
11
6.96452
21
-1.51969
0
LINE
8
BLACK
6
CONTINUOUS
10
6.96452
20
-1.51969
11
4.92328
21
-1.51969
0
LINE
8
BLACK
6
CONTINUOUS
10
4.92328
20
-1.51969
11
4.92323
21
-1.51969
0
LINE
8
BLACK
6
CONTINUOUS
10
4.92323
20
-1.51969
11
4.92304
21
-1.51967
0
LINE
8
BLACK
6
CONTINUOUS
10
4.92304
20
-1.51967
11
4.92285
21
-1.51961
0
LINE
8
BLACK
6
CONTINUOUS
10
4.92285
20
-1.51961
11
4.92268
21
-1.51952
0
LINE
8
BLACK
6
CONTINUOUS
10
4.92268
20
-1.51952
11
4.92253
21
-1.5194
0
LINE
8
BLACK
6
CONTINUOUS
10
4.92253
20
-1.5194
11
4.92241
21
-1.51925
0
LINE
8
BLACK
6
CONTINUOUS
10
4.92241
20
-1.51925
11
4.92231
21
-1.51908
0
LINE
8
BLACK
6
CONTINUOUS
10
4.92231
20
-1.51908
11
4.92226
21
-1.51889
0
LINE
8
BLACK
6
CONTINUOUS
10
4.92226
20
-1.51889
11
4.92224
21
-1.5187
0
LINE
8
BLACK
6
CONTINUOUS
10
4.92224
20
-1.5187
11
4.92224
21
-1.51865
0
LINE
8
BLACK
6
CONTINUOUS
10
4.92224
20
-1.51865
11
4.92224
21
-1.27662
0
LINE
8
BLACK
6
CONTINUOUS
10
4.92224
20
-1.27662
11
4.92224
21
-1.27657
0
LINE
8
BLACK
6
CONTINUOUS
10
4.92224
20
-1.27657
11
4.92226
21
-1.27638
0
LINE
8
BLACK
6
CONTINUOUS
10
4.92226
20
-1.27638
11
4.92231
21
-1.2762
0
LINE
8
BLACK
6
CONTINUOUS
10
4.92231
20
-1.2762
11
4.92241
21
-1.27603
0
LINE
8
BLACK
6
CONTINUOUS
10
4.92241
20
-1.27603
11
4.92253
21
-1.27588
0
LINE
8
BLACK
6
CONTINUOUS
10
4.92253
20
-1.27588
11
4.92268
21
-1.27575
0
LINE
8
BLACK
6
CONTINUOUS
10
4.92268
20
-1.27575
11
4.92285
21
-1.27566
0
LINE
8
BLACK
6
CONTINUOUS
10
4.92285
20
-1.27566
11
4.92304
21
-1.2756
0
LINE
8
BLACK
6
CONTINUOUS
10
4.92304
20
-1.2756
11
4.92318
21
-1.27559
0
LINE
8
BLACK
6
CONTINUOUS
10
4.92318
20
-1.27559
11
4.92318
21
-1.27559
0
LINE
8
BLACK
6
CONTINUOUS
10
4.92318
20
-1.27559
11
4.92323
21
-1.27559
0
LINE
8
BLACK
6
CONTINUOUS
10
4.92323
20
-1.27559
11
4.92328
21
-1.27559
0
LINE
8
BLACK
6
CONTINUOUS
10
4.92328
20
-1.27559
11
6.96452
21
-1.27559
0
LINE
8
BLACK
6
CONTINUOUS
10
6.96452
20
-1.27559
11
6.96457
21
-1.27559
0
LINE
8
BLACK
6
CONTINUOUS
10
6.96457
20
-1.27559
11
6.96461
21
-1.27559
0
LINE
8
BLACK
6
CONTINUOUS
10
4.92421
20
-1.27756
11
4.92421
21
-1.51772
0
LINE
8
BLACK
6
CONTINUOUS
10
4.92421
20
-1.51772
11
6.96358
21
-1.51772
0
LINE
8
BLACK
6
CONTINUOUS
10
6.96358
20
-1.51772
11
6.96358
21
-1.27756
0
LINE
8
BLACK
6
CONTINUOUS
10
6.96358
20
-1.27756
11
4.92421
21
-1.27756
0
LINE
8
BLACK
6
CONTINUOUS
10
6.38486
20
-3.18722
11
6.39518
21
-3.1623
0
LINE
8
BLACK
6
CONTINUOUS
10
6.39518
20
-3.1623
11
6.41017
21
-3.13987
0
LINE
8
BLACK
6
CONTINUOUS
10
6.41017
20
-3.13987
11
6.42924
21
-3.1208
0
LINE
8
BLACK
6
CONTINUOUS
10
6.42924
20
-3.1208
11
6.45167
21
-3.10581
0
LINE
8
BLACK
6
CONTINUOUS
10
6.45167
20
-3.10581
11
6.47659
21
-3.09549
0
LINE
8
BLACK
6
CONTINUOUS
10
6.47659
20
-3.09549
11
6.50305
21
-3.09023
0
LINE
8
BLACK
6
CONTINUOUS
10
6.50305
20
-3.09023
11
6.53002
21
-3.09023
0
LINE
8
BLACK
6
CONTINUOUS
10
6.53002
20
-3.09023
11
6.55648
21
-3.09549
0
LINE
8
BLACK
6
CONTINUOUS
10
6.55648
20
-3.09549
11
6.5814
21
-3.10581
0
LINE
8
BLACK
6
CONTINUOUS
10
6.5814
20
-3.10581
11
6.60383
21
-3.1208
0
LINE
8
BLACK
6
CONTINUOUS
10
6.60383
20
-3.1208
11
6.6229
21
-3.13987
0
LINE
8
BLACK
6
CONTINUOUS
10
6.6229
20
-3.13987
11
6.63789
21
-3.1623
0
LINE
8
BLACK
6
CONTINUOUS
10
6.63789
20
-3.1623
11
6.64821
21
-3.18722
0
LINE
8
BLACK
6
CONTINUOUS
10
6.64821
20
-3.18722
11
6.65347
21
-3.21368
0
LINE
8
BLACK
6
CONTINUOUS
10
6.65347
20
-3.21368
11
6.65347
21
-3.24065
0
LINE
8
BLACK
6
CONTINUOUS
10
6.65347
20
-3.24065
11
6.64821
21
-3.26711
0
LINE
8
BLACK
6
CONTINUOUS
10
6.64821
20
-3.26711
11
6.63789
21
-3.29203
0
LINE
8
BLACK
6
CONTINUOUS
10
6.63789
20
-3.29203
11
6.6229
21
-3.31446
0
LINE
8
BLACK
6
CONTINUOUS
10
6.6229
20
-3.31446
11
6.60383
21
-3.33353
0
LINE
8
BLACK
6
CONTINUOUS
10
6.60383
20
-3.33353
11
6.5814
21
-3.34852
0
LINE
8
BLACK
6
CONTINUOUS
10
6.5814
20
-3.34852
11
6.55648
21
-3.35884
0
LINE
8
BLACK
6
CONTINUOUS
10
6.55648
20
-3.35884
11
6.53002
21
-3.3641
0
LINE
8
BLACK
6
CONTINUOUS
10
6.53002
20
-3.3641
11
6.50305
21
-3.3641
0
LINE
8
BLACK
6
CONTINUOUS
10
6.50305
20
-3.3641
11
6.47659
21
-3.35884
0
LINE
8
BLACK
6
CONTINUOUS
10
6.47659
20
-3.35884
11
6.45167
21
-3.34852
0
LINE
8
BLACK
6
CONTINUOUS
10
6.45167
20
-3.34852
11
6.42924
21
-3.33353
0
LINE
8
BLACK
6
CONTINUOUS
10
6.42924
20
-3.33353
11
6.41017
21
-3.31446
0
LINE
8
BLACK
6
CONTINUOUS
10
6.41017
20
-3.31446
11
6.39518
21
-3.29203
0
LINE
8
BLACK
6
CONTINUOUS
10
6.39518
20
-3.29203
11
6.38486
21
-3.26711
0
LINE
8
BLACK
6
CONTINUOUS
10
6.38486
20
-3.26711
11
6.3796
21
-3.24065
0
LINE
8
BLACK
6
CONTINUOUS
10
6.3796
20
-3.24065
11
6.3796
21
-3.21368
0
LINE
8
BLACK
6
CONTINUOUS
10
6.3796
20
-3.21368
11
6.38486
21
-3.18722
0
LINE
8
BLACK
6
CONTINUOUS
10
6.3875
20
-3.26631
11
6.39761
21
-3.29073
0
LINE
8
BLACK
6
CONTINUOUS
10
6.39761
20
-3.29073
11
6.4123
21
-3.31271
0
LINE
8
BLACK
6
CONTINUOUS
10
6.4123
20
-3.31271
11
6.43099
21
-3.3314
0
LINE
8
BLACK
6
CONTINUOUS
10
6.43099
20
-3.3314
11
6.45297
21
-3.34609
0
LINE
8
BLACK
6
CONTINUOUS
10
6.45297
20
-3.34609
11
6.47739
21
-3.3562
0
LINE
8
BLACK
6
CONTINUOUS
10
6.47739
20
-3.3562
11
6.50332
21
-3.36136
0
LINE
8
BLACK
6
CONTINUOUS
10
6.50332
20
-3.36136
11
6.52975
21
-3.36136
0
LINE
8
BLACK
6
CONTINUOUS
10
6.52975
20
-3.36136
11
6.55568
21
-3.3562
0
LINE
8
BLACK
6
CONTINUOUS
10
6.55568
20
-3.3562
11
6.5801
21
-3.34609
0
LINE
8
BLACK
6
CONTINUOUS
10
6.5801
20
-3.34609
11
6.60208
21
-3.3314
0
LINE
8
BLACK
6
CONTINUOUS
10
6.60208
20
-3.3314
11
6.62077
21
-3.31271
0
LINE
8
BLACK
6
CONTINUOUS
10
6.62077
20
-3.31271
11
6.63546
21
-3.29073
0
LINE
8
BLACK
6
CONTINUOUS
10
6.63546
20
-3.29073
11
6.64557
21
-3.26631
0
LINE
8
BLACK
6
CONTINUOUS
10
6.64557
20
-3.26631
11
6.65073
21
-3.24038
0
LINE
8
BLACK
6
CONTINUOUS
10
6.65073
20
-3.24038
11
6.65073
21
-3.21395
0
LINE
8
BLACK
6
CONTINUOUS
10
6.65073
20
-3.21395
11
6.64557
21
-3.18802
0
LINE
8
BLACK
6
CONTINUOUS
10
6.64557
20
-3.18802
11
6.63546
21
-3.1636
0
LINE
8
BLACK
6
CONTINUOUS
10
6.63546
20
-3.1636
11
6.62077
21
-3.14162
0
LINE
8
BLACK
6
CONTINUOUS
10
6.62077
20
-3.14162
11
6.60208
21
-3.12293
0
LINE
8
BLACK
6
CONTINUOUS
10
6.60208
20
-3.12293
11
6.5801
21
-3.10824
0
LINE
8
BLACK
6
CONTINUOUS
10
6.5801
20
-3.10824
11
6.55568
21
-3.09813
0
LINE
8
BLACK
6
CONTINUOUS
10
6.55568
20
-3.09813
11
6.52975
21
-3.09297
0
LINE
8
BLACK
6
CONTINUOUS
10
6.52975
20
-3.09297
11
6.50332
21
-3.09297
0
LINE
8
BLACK
6
CONTINUOUS
10
6.50332
20
-3.09297
11
6.47739
21
-3.09813
0
LINE
8
BLACK
6
CONTINUOUS
10
6.47739
20
-3.09813
11
6.45297
21
-3.10824
0
LINE
8
BLACK
6
CONTINUOUS
10
6.45297
20
-3.10824
11
6.43099
21
-3.12293
0
LINE
8
BLACK
6
CONTINUOUS
10
6.43099
20
-3.12293
11
6.4123
21
-3.14162
0
LINE
8
BLACK
6
CONTINUOUS
10
6.4123
20
-3.14162
11
6.39761
21
-3.1636
0
LINE
8
BLACK
6
CONTINUOUS
10
6.39761
20
-3.1636
11
6.3875
21
-3.18802
0
LINE
8
BLACK
6
CONTINUOUS
10
6.3875
20
-3.18802
11
6.38234
21
-3.21395
0
LINE
8
BLACK
6
CONTINUOUS
10
6.38234
20
-3.21395
11
6.38234
21
-3.24038
0
LINE
8
BLACK
6
CONTINUOUS
10
6.38234
20
-3.24038
11
6.3875
21
-3.26631
0
LINE
8
BLACK
6
CONTINUOUS
10
3.39212
20
-2.60446
11
3.40481
21
-2.57383
0
LINE
8
BLACK
6
CONTINUOUS
10
3.40481
20
-2.57383
11
3.42323
21
-2.54627
0
LINE
8
BLACK
6
CONTINUOUS
10
3.42323
20
-2.54627
11
3.44666
21
-2.52283
0
LINE
8
BLACK
6
CONTINUOUS
10
3.44666
20
-2.52283
11
3.47423
21
-2.50442
0
LINE
8
BLACK
6
CONTINUOUS
10
3.47423
20
-2.50442
11
3.50485
21
-2.49173
0
LINE
8
BLACK
6
CONTINUOUS
10
3.50485
20
-2.49173
11
3.53736
21
-2.48526
0
LINE
8
BLACK
6
CONTINUOUS
10
3.53736
20
-2.48526
11
3.57051
21
-2.48526
0
LINE
8
BLACK
6
CONTINUOUS
10
3.57051
20
-2.48526
11
3.60302
21
-2.49173
0
LINE
8
BLACK
6
CONTINUOUS
10
3.60302
20
-2.49173
11
3.63365
21
-2.50442
0
LINE
8
BLACK
6
CONTINUOUS
10
3.63365
20
-2.50442
11
3.66121
21
-2.52283
0
LINE
8
BLACK
6
CONTINUOUS
10
3.66121
20
-2.52283
11
3.68465
21
-2.54627
0
LINE
8
BLACK
6
CONTINUOUS
10
3.68465
20
-2.54627
11
3.70307
21
-2.57383
0
LINE
8
BLACK
6
CONTINUOUS
10
3.70307
20
-2.57383
11
3.71575
21
-2.60446
0
LINE
8
BLACK
6
CONTINUOUS
10
3.71575
20
-2.60446
11
3.72222
21
-2.63697
0
LINE
8
BLACK
6
CONTINUOUS
10
3.72222
20
-2.63697
11
3.72222
21
-2.67012
0
LINE
8
BLACK
6
CONTINUOUS
10
3.72222
20
-2.67012
11
3.71575
21
-2.70263
0
LINE
8
BLACK
6
CONTINUOUS
10
3.71575
20
-2.70263
11
3.70307
21
-2.73325
0
LINE
8
BLACK
6
CONTINUOUS
10
3.70307
20
-2.73325
11
3.68465
21
-2.76082
0
LINE
8
BLACK
6
CONTINUOUS
10
3.68465
20
-2.76082
11
3.66121
21
-2.78426
0
LINE
8
BLACK
6
CONTINUOUS
10
3.66121
20
-2.78426
11
3.63365
21
-2.80267
0
LINE
8
BLACK
6
CONTINUOUS
10
3.63365
20
-2.80267
11
3.60302
21
-2.81536
0
LINE
8
BLACK
6
CONTINUOUS
10
3.60302
20
-2.81536
11
3.57051
21
-2.82182
0
LINE
8
BLACK
6
CONTINUOUS
10
3.57051
20
-2.82182
11
3.53736
21
-2.82182
0
LINE
8
BLACK
6
CONTINUOUS
10
3.53736
20
-2.82182
11
3.50485
21
-2.81536
0
LINE
8
BLACK
6
CONTINUOUS
10
3.50485
20
-2.81536
11
3.47423
21
-2.80267
0
LINE
8
BLACK
6
CONTINUOUS
10
3.47423
20
-2.80267
11
3.44666
21
-2.78426
0
LINE
8
BLACK
6
CONTINUOUS
10
3.44666
20
-2.78426
11
3.42323
21
-2.76082
0
LINE
8
BLACK
6
CONTINUOUS
10
3.42323
20
-2.76082
11
3.40481
21
-2.73325
0
LINE
8
BLACK
6
CONTINUOUS
10
3.40481
20
-2.73325
11
3.39212
21
-2.70263
0
LINE
8
BLACK
6
CONTINUOUS
10
3.39212
20
-2.70263
11
3.38566
21
-2.67012
0
LINE
8
BLACK
6
CONTINUOUS
10
3.38566
20
-2.67012
11
3.38566
21
-2.63697
0
LINE
8
BLACK
6
CONTINUOUS
10
3.38566
20
-2.63697
11
3.39212
21
-2.60446
0
LINE
8
BLACK
6
CONTINUOUS
10
3.39476
20
-2.70183
11
3.40724
21
-2.73195
0
LINE
8
BLACK
6
CONTINUOUS
10
3.40724
20
-2.73195
11
3.42536
21
-2.75907
0
LINE
8
BLACK
6
CONTINUOUS
10
3.42536
20
-2.75907
11
3.44841
21
-2.78212
0
LINE
8
BLACK
6
CONTINUOUS
10
3.44841
20
-2.78212
11
3.47553
21
-2.80024
0
LINE
8
BLACK
6
CONTINUOUS
10
3.47553
20
-2.80024
11
3.50565
21
-2.81272
0
LINE
8
BLACK
6
CONTINUOUS
10
3.50565
20
-2.81272
11
3.53763
21
-2.81908
0
LINE
8
BLACK
6
CONTINUOUS
10
3.53763
20
-2.81908
11
3.57024
21
-2.81908
0
LINE
8
BLACK
6
CONTINUOUS
10
3.57024
20
-2.81908
11
3.60222
21
-2.81272
0
LINE
8
BLACK
6
CONTINUOUS
10
3.60222
20
-2.81272
11
3.63235
21
-2.80024
0
LINE
8
BLACK
6
CONTINUOUS
10
3.63235
20
-2.80024
11
3.65946
21
-2.78212
0
LINE
8
BLACK
6
CONTINUOUS
10
3.65946
20
-2.78212
11
3.68252
21
-2.75907
0
LINE
8
BLACK
6
CONTINUOUS
10
3.68252
20
-2.75907
11
3.70063
21
-2.73195
0
LINE
8
BLACK
6
CONTINUOUS
10
3.70063
20
-2.73195
11
3.71311
21
-2.70183
0
LINE
8
BLACK
6
CONTINUOUS
10
3.71311
20
-2.70183
11
3.71947
21
-2.66985
0
LINE
8
BLACK
6
CONTINUOUS
10
3.71947
20
-2.66985
11
3.71947
21
-2.63724
0
LINE
8
BLACK
6
CONTINUOUS
10
3.71947
20
-2.63724
11
3.71311
21
-2.60526
0
LINE
8
BLACK
6
CONTINUOUS
10
3.71311
20
-2.60526
11
3.70063
21
-2.57513
0
LINE
8
BLACK
6
CONTINUOUS
10
3.70063
20
-2.57513
11
3.68252
21
-2.54802
0
LINE
8
BLACK
6
CONTINUOUS
10
3.68252
20
-2.54802
11
3.65946
21
-2.52496
0
LINE
8
BLACK
6
CONTINUOUS
10
3.65946
20
-2.52496
11
3.63235
21
-2.50685
0
LINE
8
BLACK
6
CONTINUOUS
10
3.63235
20
-2.50685
11
3.60222
21
-2.49437
0
LINE
8
BLACK
6
CONTINUOUS
10
3.60222
20
-2.49437
11
3.57024
21
-2.48801
0
LINE
8
BLACK
6
CONTINUOUS
10
3.57024
20
-2.48801
11
3.53763
21
-2.48801
0
LINE
8
BLACK
6
CONTINUOUS
10
3.53763
20
-2.48801
11
3.50565
21
-2.49437
0
LINE
8
BLACK
6
CONTINUOUS
10
3.50565
20
-2.49437
11
3.47553
21
-2.50685
0
LINE
8
BLACK
6
CONTINUOUS
10
3.47553
20
-2.50685
11
3.44841
21
-2.52496
0
LINE
8
BLACK
6
CONTINUOUS
10
3.44841
20
-2.52496
11
3.42536
21
-2.54802
0
LINE
8
BLACK
6
CONTINUOUS
10
3.42536
20
-2.54802
11
3.40724
21
-2.57513
0
LINE
8
BLACK
6
CONTINUOUS
10
3.40724
20
-2.57513
11
3.39476
21
-2.60526
0
LINE
8
BLACK
6
CONTINUOUS
10
3.39476
20
-2.60526
11
3.3884
21
-2.63724
0
LINE
8
BLACK
6
CONTINUOUS
10
3.3884
20
-2.63724
11
3.3884
21
-2.66985
0
LINE
8
BLACK
6
CONTINUOUS
10
3.3884
20
-2.66985
11
3.39476
21
-2.70183
0
LINE
8
BLACK
6
CONTINUOUS
10
5.62699
20
-2.60573
11
5.63731
21
-2.58081
0
LINE
8
BLACK
6
CONTINUOUS
10
5.63731
20
-2.58081
11
5.6523
21
-2.55838
0
LINE
8
BLACK
6
CONTINUOUS
10
5.6523
20
-2.55838
11
5.67137
21
-2.5393
0
LINE
8
BLACK
6
CONTINUOUS
10
5.67137
20
-2.5393
11
5.6938
21
-2.52432
0
LINE
8
BLACK
6
CONTINUOUS
10
5.6938
20
-2.52432
11
5.71872
21
-2.514
0
LINE
8
BLACK
6
CONTINUOUS
10
5.71872
20
-2.514
11
5.74517
21
-2.50873
0
LINE
8
BLACK
6
CONTINUOUS
10
5.74517
20
-2.50873
11
5.77215
21
-2.50873
0
LINE
8
BLACK
6
CONTINUOUS
10
5.77215
20
-2.50873
11
5.7986
21
-2.514
0
LINE
8
BLACK
6
CONTINUOUS
10
5.7986
20
-2.514
11
5.82352
21
-2.52432
0
LINE
8
BLACK
6
CONTINUOUS
10
5.82352
20
-2.52432
11
5.84595
21
-2.5393
0
LINE
8
BLACK
6
CONTINUOUS
10
5.84595
20
-2.5393
11
5.86503
21
-2.55838
0
LINE
8
BLACK
6
CONTINUOUS
10
5.86503
20
-2.55838
11
5.88001
21
-2.58081
0
LINE
8
BLACK
6
CONTINUOUS
10
5.88001
20
-2.58081
11
5.89033
21
-2.60573
0
LINE
8
BLACK
6
CONTINUOUS
10
5.89033
20
-2.60573
11
5.8956
21
-2.63218
0
LINE
8
BLACK
6
CONTINUOUS
10
5.8956
20
-2.63218
11
5.8956
21
-2.65916
0
LINE
8
BLACK
6
CONTINUOUS
10
5.8956
20
-2.65916
11
5.89033
21
-2.68561
0
LINE
8
BLACK
6
CONTINUOUS
10
5.89033
20
-2.68561
11
5.88001
21
-2.71053
0
LINE
8
BLACK
6
CONTINUOUS
10
5.88001
20
-2.71053
11
5.87613
21
-2.71634
0
LINE
8
BLACK
6
CONTINUOUS
10
5.87613
20
-2.71634
11
7.14916
21
-2.71634
0
LINE
8
BLACK
6
CONTINUOUS
10
7.14916
20
-2.71634
11
7.14921
21
-2.71633
0
LINE
8
BLACK
6
CONTINUOUS
10
7.14921
20
-2.71633
11
7.14926
21
-2.71634
0
LINE
8
BLACK
6
CONTINUOUS
10
7.14926
20
-2.71634
11
7.14941
21
-2.71635
0
LINE
8
BLACK
6
CONTINUOUS
10
7.14941
20
-2.71635
11
7.14959
21
-2.71641
0
LINE
8
BLACK
6
CONTINUOUS
10
7.14959
20
-2.71641
11
7.14976
21
-2.7165
0
LINE
8
BLACK
6
CONTINUOUS
10
7.14976
20
-2.7165
11
7.14991
21
-2.71662
0
LINE
8
BLACK
6
CONTINUOUS
10
7.14991
20
-2.71662
11
7.15003
21
-2.71677
0
LINE
8
BLACK
6
CONTINUOUS
10
7.15003
20
-2.71677
11
7.15013
21
-2.71694
0
LINE
8
BLACK
6
CONTINUOUS
10
7.15013
20
-2.71694
11
7.15018
21
-2.71713
0
LINE
8
BLACK
6
CONTINUOUS
10
7.15018
20
-2.71713
11
7.1502
21
-2.71732
0
LINE
8
BLACK
6
CONTINUOUS
10
7.1502
20
-2.71732
11
7.1502
21
-2.71737
0
LINE
8
BLACK
6
CONTINUOUS
10
7.1502
20
-2.71737
11
7.1502
21
-2.85901
0
LINE
8
BLACK
6
CONTINUOUS
10
7.1502
20
-2.85901
11
7.1502
21
-2.85906
0
LINE
8
BLACK
6
CONTINUOUS
10
7.1502
20
-2.85906
11
7.15018
21
-2.85925
0
LINE
8
BLACK
6
CONTINUOUS
10
7.15018
20
-2.85925
11
7.15013
21
-2.85943
0
LINE
8
BLACK
6
CONTINUOUS
10
7.15013
20
-2.85943
11
7.15003
21
-2.8596
0
LINE
8
BLACK
6
CONTINUOUS
10
7.15003
20
-2.8596
11
7.14991
21
-2.85975
0
LINE
8
BLACK
6
CONTINUOUS
10
7.14991
20
-2.85975
11
7.14976
21
-2.85988
0
LINE
8
BLACK
6
CONTINUOUS
10
7.14976
20
-2.85988
11
7.14959
21
-2.85997
0
LINE
8
BLACK
6
CONTINUOUS
10
7.14959
20
-2.85997
11
7.14941
21
-2.86003
0
LINE
8
BLACK
6
CONTINUOUS
10
7.14941
20
-2.86003
11
7.14926
21
-2.86004
0
LINE
8
BLACK
6
CONTINUOUS
10
7.14926
20
-2.86004
11
7.14926
21
-2.86004
0
LINE
8
BLACK
6
CONTINUOUS
10
7.14926
20
-2.86004
11
7.14921
21
-2.86004
0
LINE
8
BLACK
6
CONTINUOUS
10
7.14921
20
-2.86004
11
7.14916
21
-2.86004
0
LINE
8
BLACK
6
CONTINUOUS
10
7.14916
20
-2.86004
11
5.50753
21
-2.86004
0
LINE
8
BLACK
6
CONTINUOUS
10
5.50753
20
-2.86004
11
5.50748
21
-2.86004
0
LINE
8
BLACK
6
CONTINUOUS
10
5.50748
20
-2.86004
11
5.50743
21
-2.86004
0
LINE
8
BLACK
6
CONTINUOUS
10
5.50743
20
-2.86004
11
5.50743
21
-2.86004
0
LINE
8
BLACK
6
CONTINUOUS
10
5.50743
20
-2.86004
11
5.50729
21
-2.86003
0
LINE
8
BLACK
6
CONTINUOUS
10
5.50729
20
-2.86003
11
5.5071
21
-2.85997
0
LINE
8
BLACK
6
CONTINUOUS
10
5.5071
20
-2.85997
11
5.50693
21
-2.85988
0
LINE
8
BLACK
6
CONTINUOUS
10
5.50693
20
-2.85988
11
5.50678
21
-2.85975
0
LINE
8
BLACK
6
CONTINUOUS
10
5.50678
20
-2.85975
11
5.50666
21
-2.8596
0
LINE
8
BLACK
6
CONTINUOUS
10
5.50666
20
-2.8596
11
5.50657
21
-2.85943
0
LINE
8
BLACK
6
CONTINUOUS
10
5.50657
20
-2.85943
11
5.50651
21
-2.85925
0
LINE
8
BLACK
6
CONTINUOUS
10
5.50651
20
-2.85925
11
5.50649
21
-2.85906
0
LINE
8
BLACK
6
CONTINUOUS
10
5.50649
20
-2.85906
11
5.5065
21
-2.85901
0
LINE
8
BLACK
6
CONTINUOUS
10
5.5065
20
-2.85901
11
5.5065
21
-2.71737
0
LINE
8
BLACK
6
CONTINUOUS
10
5.5065
20
-2.71737
11
5.50649
21
-2.71732
0
LINE
8
BLACK
6
CONTINUOUS
10
5.50649
20
-2.71732
11
5.50651
21
-2.71713
0
LINE
8
BLACK
6
CONTINUOUS
10
5.50651
20
-2.71713
11
5.50657
21
-2.71694
0
LINE
8
BLACK
6
CONTINUOUS
10
5.50657
20
-2.71694
11
5.50666
21
-2.71677
0
LINE
8
BLACK
6
CONTINUOUS
10
5.50666
20
-2.71677
11
5.50678
21
-2.71662
0
LINE
8
BLACK
6
CONTINUOUS
10
5.50678
20
-2.71662
11
5.50693
21
-2.7165
0
LINE
8
BLACK
6
CONTINUOUS
10
5.50693
20
-2.7165
11
5.5071
21
-2.71641
0
LINE
8
BLACK
6
CONTINUOUS
10
5.5071
20
-2.71641
11
5.50729
21
-2.71635
0
LINE
8
BLACK
6
CONTINUOUS
10
5.50729
20
-2.71635
11
5.50743
21
-2.71634
0
LINE
8
BLACK
6
CONTINUOUS
10
5.50743
20
-2.71634
11
5.50748
21
-2.71633
0
LINE
8
BLACK
6
CONTINUOUS
10
5.50748
20
-2.71633
11
5.50753
21
-2.71634
0
LINE
8
BLACK
6
CONTINUOUS
10
5.50753
20
-2.71634
11
5.64119
21
-2.71634
0
LINE
8
BLACK
6
CONTINUOUS
10
5.64119
20
-2.71634
11
5.63731
21
-2.71053
0
LINE
8
BLACK
6
CONTINUOUS
10
5.63731
20
-2.71053
11
5.62699
21
-2.68561
0
LINE
8
BLACK
6
CONTINUOUS
10
5.62699
20
-2.68561
11
5.62173
21
-2.65916
0
LINE
8
BLACK
6
CONTINUOUS
10
5.62173
20
-2.65916
11
5.62173
21
-2.63218
0
LINE
8
BLACK
6
CONTINUOUS
10
5.62173
20
-2.63218
11
5.62699
21
-2.60573
0
LINE
8
BLACK
6
CONTINUOUS
10
5.62963
20
-2.68481
11
5.63974
21
-2.70923
0
LINE
8
BLACK
6
CONTINUOUS
10
5.63974
20
-2.70923
11
5.64449
21
-2.71634
0
LINE
8
BLACK
6
CONTINUOUS
10
5.64449
20
-2.71634
11
5.87283
21
-2.71634
0
LINE
8
BLACK
6
CONTINUOUS
10
5.87283
20
-2.71634
11
5.87758
21
-2.70923
0
LINE
8
BLACK
6
CONTINUOUS
10
5.87758
20
-2.70923
11
5.8877
21
-2.68481
0
LINE
8
BLACK
6
CONTINUOUS
10
5.8877
20
-2.68481
11
5.89285
21
-2.65889
0
LINE
8
BLACK
6
CONTINUOUS
10
5.89285
20
-2.65889
11
5.89285
21
-2.63245
0
LINE
8
BLACK
6
CONTINUOUS
10
5.89285
20
-2.63245
11
5.8877
21
-2.60653
0
LINE
8
BLACK
6
CONTINUOUS
10
5.8877
20
-2.60653
11
5.87758
21
-2.5821
0
LINE
8
BLACK
6
CONTINUOUS
10
5.87758
20
-2.5821
11
5.8629
21
-2.56013
0
LINE
8
BLACK
6
CONTINUOUS
10
5.8629
20
-2.56013
11
5.8442
21
-2.54143
0
LINE
8
BLACK
6
CONTINUOUS
10
5.8442
20
-2.54143
11
5.82223
21
-2.52675
0
LINE
8
BLACK
6
CONTINUOUS
10
5.82223
20
-2.52675
11
5.7978
21
-2.51663
0
LINE
8
BLACK
6
CONTINUOUS
10
5.7978
20
-2.51663
11
5.77188
21
-2.51148
0
LINE
8
BLACK
6
CONTINUOUS
10
5.77188
20
-2.51148
11
5.74544
21
-2.51148
0
LINE
8
BLACK
6
CONTINUOUS
10
5.74544
20
-2.51148
11
5.71952
21
-2.51663
0
LINE
8
BLACK
6
CONTINUOUS
10
5.71952
20
-2.51663
11
5.6951
21
-2.52675
0
LINE
8
BLACK
6
CONTINUOUS
10
5.6951
20
-2.52675
11
5.67312
21
-2.54143
0
LINE
8
BLACK
6
CONTINUOUS
10
5.67312
20
-2.54143
11
5.65443
21
-2.56013
0
LINE
8
BLACK
6
CONTINUOUS
10
5.65443
20
-2.56013
11
5.63974
21
-2.5821
0
LINE
8
BLACK
6
CONTINUOUS
10
5.63974
20
-2.5821
11
5.62963
21
-2.60653
0
LINE
8
BLACK
6
CONTINUOUS
10
5.62963
20
-2.60653
11
5.62447
21
-2.63245
0
LINE
8
BLACK
6
CONTINUOUS
10
5.62447
20
-2.63245
11
5.62447
21
-2.65889
0
LINE
8
BLACK
6
CONTINUOUS
10
5.62447
20
-2.65889
11
5.62963
21
-2.68481
0
LINE
8
BLACK
6
CONTINUOUS
10
5.87482
20
-2.71831
11
5.86503
21
-2.73296
0
LINE
8
BLACK
6
CONTINUOUS
10
5.86503
20
-2.73296
11
5.84595
21
-2.75203
0
LINE
8
BLACK
6
CONTINUOUS
10
5.84595
20
-2.75203
11
5.82352
21
-2.76702
0
LINE
8
BLACK
6
CONTINUOUS
10
5.82352
20
-2.76702
11
5.7986
21
-2.77734
0
LINE
8
BLACK
6
CONTINUOUS
10
5.7986
20
-2.77734
11
5.77215
21
-2.78261
0
LINE
8
BLACK
6
CONTINUOUS
10
5.77215
20
-2.78261
11
5.74517
21
-2.78261
0
LINE
8
BLACK
6
CONTINUOUS
10
5.74517
20
-2.78261
11
5.71872
21
-2.77734
0
LINE
8
BLACK
6
CONTINUOUS
10
5.71872
20
-2.77734
11
5.6938
21
-2.76702
0
LINE
8
BLACK
6
CONTINUOUS
10
5.6938
20
-2.76702
11
5.67137
21
-2.75203
0
LINE
8
BLACK
6
CONTINUOUS
10
5.67137
20
-2.75203
11
5.6523
21
-2.73296
0
LINE
8
BLACK
6
CONTINUOUS
10
5.6523
20
-2.73296
11
5.64251
21
-2.71831
0
LINE
8
BLACK
6
CONTINUOUS
10
5.64251
20
-2.71831
11
5.50846
21
-2.71831
0
LINE
8
BLACK
6
CONTINUOUS
10
5.50846
20
-2.71831
11
5.50846
21
-2.85807
0
LINE
8
BLACK
6
CONTINUOUS
10
5.50846
20
-2.85807
11
7.14823
21
-2.85807
0
LINE
8
BLACK
6
CONTINUOUS
10
7.14823
20
-2.85807
11
7.14823
21
-2.71831
0
LINE
8
BLACK
6
CONTINUOUS
10
7.14823
20
-2.71831
11
5.87482
21
-2.71831
0
LINE
8
BLACK
6
CONTINUOUS
10
5.6458
20
-2.71831
11
5.65443
21
-2.73121
0
LINE
8
BLACK
6
CONTINUOUS
10
5.65443
20
-2.73121
11
5.67312
21
-2.7499
0
LINE
8
BLACK
6
CONTINUOUS
10
5.67312
20
-2.7499
11
5.6951
21
-2.76459
0
LINE
8
BLACK
6
CONTINUOUS
10
5.6951
20
-2.76459
11
5.71952
21
-2.77471
0
LINE
8
BLACK
6
CONTINUOUS
10
5.71952
20
-2.77471
11
5.74544
21
-2.77986
0
LINE
8
BLACK
6
CONTINUOUS
10
5.74544
20
-2.77986
11
5.77188
21
-2.77986
0
LINE
8
BLACK
6
CONTINUOUS
10
5.77188
20
-2.77986
11
5.7978
21
-2.77471
0
LINE
8
BLACK
6
CONTINUOUS
10
5.7978
20
-2.77471
11
5.82223
21
-2.76459
0
LINE
8
BLACK
6
CONTINUOUS
10
5.82223
20
-2.76459
11
5.8442
21
-2.7499
0
LINE
8
BLACK
6
CONTINUOUS
10
5.8442
20
-2.7499
11
5.8629
21
-2.73121
0
LINE
8
BLACK
6
CONTINUOUS
10
5.8629
20
-2.73121
11
5.87152
21
-2.71831
0
LINE
8
BLACK
6
CONTINUOUS
10
5.87152
20
-2.71831
11
5.6458
21
-2.71831
0
LINE
8
BLACK
6
CONTINUOUS
10
5.30494
20
-2.35494
11
5.31526
21
-2.33002
0
LINE
8
BLACK
6
CONTINUOUS
10
5.31526
20
-2.33002
11
5.33025
21
-2.30759
0
LINE
8
BLACK
6
CONTINUOUS
10
5.33025
20
-2.30759
11
5.34932
21
-2.28852
0
LINE
8
BLACK
6
CONTINUOUS
10
5.34932
20
-2.28852
11
5.37175
21
-2.27353
0
LINE
8
BLACK
6
CONTINUOUS
10
5.37175
20
-2.27353
11
5.39667
21
-2.26321
0
LINE
8
BLACK
6
CONTINUOUS
10
5.39667
20
-2.26321
11
5.42313
21
-2.25795
0
LINE
8
BLACK
6
CONTINUOUS
10
5.42313
20
-2.25795
11
5.4501
21
-2.25795
0
LINE
8
BLACK
6
CONTINUOUS
10
5.4501
20
-2.25795
11
5.47656
21
-2.26321
0
LINE
8
BLACK
6
CONTINUOUS
10
5.47656
20
-2.26321
11
5.50148
21
-2.27353
0
LINE
8
BLACK
6
CONTINUOUS
10
5.50148
20
-2.27353
11
5.52391
21
-2.28852
0
LINE
8
BLACK
6
CONTINUOUS
10
5.52391
20
-2.28852
11
5.54298
21
-2.30759
0
LINE
8
BLACK
6
CONTINUOUS
10
5.54298
20
-2.30759
11
5.55797
21
-2.33002
0
LINE
8
BLACK
6
CONTINUOUS
10
5.55797
20
-2.33002
11
5.56829
21
-2.35494
0
LINE
8
BLACK
6
CONTINUOUS
10
5.56829
20
-2.35494
11
5.57355
21
-2.38139
0
LINE
8
BLACK
6
CONTINUOUS
10
5.57355
20
-2.38139
11
5.57355
21
-2.40837
0
LINE
8
BLACK
6
CONTINUOUS
10
5.57355
20
-2.40837
11
5.56829
21
-2.43482
0
LINE
8
BLACK
6
CONTINUOUS
10
5.56829
20
-2.43482
11
5.55797
21
-2.45975
0
LINE
8
BLACK
6
CONTINUOUS
10
5.55797
20
-2.45975
11
5.54298
21
-2.48217
0
LINE
8
BLACK
6
CONTINUOUS
10
5.54298
20
-2.48217
11
5.52391
21
-2.50125
0
LINE
8
BLACK
6
CONTINUOUS
10
5.52391
20
-2.50125
11
5.50148
21
-2.51623
0
LINE
8
BLACK
6
CONTINUOUS
10
5.50148
20
-2.51623
11
5.47656
21
-2.52656
0
LINE
8
BLACK
6
CONTINUOUS
10
5.47656
20
-2.52656
11
5.4501
21
-2.53182
0
LINE
8
BLACK
6
CONTINUOUS
10
5.4501
20
-2.53182
11
5.42313
21
-2.53182
0
LINE
8
BLACK
6
CONTINUOUS
10
5.42313
20
-2.53182
11
5.39667
21
-2.52656
0
LINE
8
BLACK
6
CONTINUOUS
10
5.39667
20
-2.52656
11
5.37175
21
-2.51623
0
LINE
8
BLACK
6
CONTINUOUS
10
5.37175
20
-2.51623
11
5.34932
21
-2.50125
0
LINE
8
BLACK
6
CONTINUOUS
10
5.34932
20
-2.50125
11
5.33025
21
-2.48217
0
LINE
8
BLACK
6
CONTINUOUS
10
5.33025
20
-2.48217
11
5.31526
21
-2.45975
0
LINE
8
BLACK
6
CONTINUOUS
10
5.31526
20
-2.45975
11
5.30494
21
-2.43482
0
LINE
8
BLACK
6
CONTINUOUS
10
5.30494
20
-2.43482
11
5.29968
21
-2.40837
0
LINE
8
BLACK
6
CONTINUOUS
10
5.29968
20
-2.40837
11
5.29968
21
-2.38139
0
LINE
8
BLACK
6
CONTINUOUS
10
5.29968
20
-2.38139
11
5.30494
21
-2.35494
0
LINE
8
BLACK
6
CONTINUOUS
10
5.30758
20
-2.43402
11
5.31769
21
-2.45845
0
LINE
8
BLACK
6
CONTINUOUS
10
5.31769
20
-2.45845
11
5.33238
21
-2.48043
0
LINE
8
BLACK
6
CONTINUOUS
10
5.33238
20
-2.48043
11
5.35107
21
-2.49912
0
LINE
8
BLACK
6
CONTINUOUS
10
5.35107
20
-2.49912
11
5.37305
21
-2.5138
0
LINE
8
BLACK
6
CONTINUOUS
10
5.37305
20
-2.5138
11
5.39747
21
-2.52392
0
LINE
8
BLACK
6
CONTINUOUS
10
5.39747
20
-2.52392
11
5.4234
21
-2.52908
0
LINE
8
BLACK
6
CONTINUOUS
10
5.4234
20
-2.52908
11
5.44983
21
-2.52908
0
LINE
8
BLACK
6
CONTINUOUS
10
5.44983
20
-2.52908
11
5.47576
21
-2.52392
0
LINE
8
BLACK
6
CONTINUOUS
10
5.47576
20
-2.52392
11
5.50018
21
-2.5138
0
LINE
8
BLACK
6
CONTINUOUS
10
5.50018
20
-2.5138
11
5.52216
21
-2.49912
0
LINE
8
BLACK
6
CONTINUOUS
10
5.52216
20
-2.49912
11
5.54085
21
-2.48043
0
LINE
8
BLACK
6
CONTINUOUS
10
5.54085
20
-2.48043
11
5.55553
21
-2.45845
0
LINE
8
BLACK
6
CONTINUOUS
10
5.55553
20
-2.45845
11
5.56565
21
-2.43402
0
LINE
8
BLACK
6
CONTINUOUS
10
5.56565
20
-2.43402
11
5.57081
21
-2.4081
0
LINE
8
BLACK
6
CONTINUOUS
10
5.57081
20
-2.4081
11
5.57081
21
-2.38166
0
LINE
8
BLACK
6
CONTINUOUS
10
5.57081
20
-2.38166
11
5.56565
21
-2.35574
0
LINE
8
BLACK
6
CONTINUOUS
10
5.56565
20
-2.35574
11
5.55553
21
-2.33132
0
LINE
8
BLACK
6
CONTINUOUS
10
5.55553
20
-2.33132
11
5.54085
21
-2.30934
0
LINE
8
BLACK
6
CONTINUOUS
10
5.54085
20
-2.30934
11
5.52216
21
-2.29065
0
LINE
8
BLACK
6
CONTINUOUS
10
5.52216
20
-2.29065
11
5.50018
21
-2.27596
0
LINE
8
BLACK
6
CONTINUOUS
10
5.50018
20
-2.27596
11
5.47576
21
-2.26585
0
LINE
8
BLACK
6
CONTINUOUS
10
5.47576
20
-2.26585
11
5.44983
21
-2.26069
0
LINE
8
BLACK
6
CONTINUOUS
10
5.44983
20
-2.26069
11
5.4234
21
-2.26069
0
LINE
8
BLACK
6
CONTINUOUS
10
5.4234
20
-2.26069
11
5.39747
21
-2.26585
0
LINE
8
BLACK
6
CONTINUOUS
10
5.39747
20
-2.26585
11
5.37305
21
-2.27596
0
LINE
8
BLACK
6
CONTINUOUS
10
5.37305
20
-2.27596
11
5.35107
21
-2.29065
0
LINE
8
BLACK
6
CONTINUOUS
10
5.35107
20
-2.29065
11
5.33238
21
-2.30934
0
LINE
8
BLACK
6
CONTINUOUS
10
5.33238
20
-2.30934
11
5.31769
21
-2.33132
0
LINE
8
BLACK
6
CONTINUOUS
10
5.31769
20
-2.33132
11
5.30758
21
-2.35574
0
LINE
8
BLACK
6
CONTINUOUS
10
5.30758
20
-2.35574
11
5.30242
21
-2.38166
0
LINE
8
BLACK
6
CONTINUOUS
10
5.30242
20
-2.38166
11
5.30242
21
-2.4081
0
LINE
8
BLACK
6
CONTINUOUS
10
5.30242
20
-2.4081
11
5.30758
21
-2.43402
  0
ENDSEC
  0
EOF
