M48
METRIC,TZ
T1C0.800
T2C1.000
T3C1.520
%
G90
G05
T1
X165130Y-191130
X168630Y-191130
X186080Y-211460
X189580Y-211460
T2
X71165Y-154795
X71165Y-157335
X71165Y-159875
X71165Y-162415
X71165Y-164955
X71165Y-167495
X71290Y-187160
X71290Y-189660
X73830Y-187160
X73830Y-189660
X74540Y-194510
X74900Y-161700
X76370Y-187160
X76370Y-189660
X78200Y-184230
X78910Y-187160
X78910Y-189660
X79720Y-179740
X80780Y-184370
X81420Y-193000
X81450Y-187160
X81450Y-189660
X82700Y-178080
X83370Y-184430
X83990Y-187160
X83990Y-189660
X84040Y-195700
X85700Y-176460
X88420Y-203130
X90280Y-205030
X92620Y-199310
X93470Y-177270
X93490Y-191420
X93490Y-206660
X95620Y-198480
X96030Y-191420
X96030Y-206660
X97320Y-188540
X98570Y-191420
X98570Y-206660
X101110Y-191420
X101110Y-206660
X103540Y-136350
X103650Y-191420
X103650Y-206660
X103650Y-209400
X106080Y-136350
X106190Y-191420
X106190Y-206660
X107380Y-147330
X107590Y-174560
X107750Y-183880
X107760Y-177580
X108580Y-204250
X108620Y-136350
X108730Y-191420
X108730Y-206660
X109590Y-143770
X110040Y-184930
X111160Y-136350
X111270Y-191420
X111270Y-206660
X111380Y-188820
X111650Y-148380
X111650Y-150920
X111650Y-153460
X111650Y-156000
X111650Y-158540
X111650Y-161080
X111650Y-163620
X111650Y-166160
X111650Y-168700
X111650Y-171240
X111650Y-173780
X112640Y-141320
X113700Y-136350
X113810Y-191420
X113810Y-206660
X114630Y-159070
X114660Y-161870
X114830Y-188660
X115150Y-146190
X116240Y-136350
X116350Y-191420
X116350Y-206660
X117430Y-159080
X118130Y-143890
X118890Y-191420
X118890Y-206660
X118980Y-169160
X119080Y-203770
X119150Y-154510
X121430Y-191420
X121430Y-206660
X121990Y-148040
X121990Y-150580
X121990Y-153120
X121990Y-155660
X121990Y-158200
X121990Y-160740
X121990Y-163280
X121990Y-165820
X121990Y-168360
X121990Y-170900
X121990Y-173440
X121990Y-175980
X121990Y-178520
X121990Y-181060
X121990Y-183600
X123970Y-191420
X123970Y-206660
X124310Y-180750
X125280Y-166650
X125610Y-178530
X126340Y-153110
X126510Y-191420
X126510Y-206660
X126770Y-183210
X126870Y-136660
X126920Y-175980
X127900Y-140580
X128420Y-218630
X128440Y-215850
X128620Y-181540
X129010Y-146300
X129050Y-191420
X129050Y-206660
X129410Y-136660
X130960Y-218630
X130980Y-215850
X131730Y-213230
X131950Y-136660
X132530Y-147440
X133500Y-218630
X133520Y-215850
X133540Y-177620
X134490Y-136660
X136290Y-142340
X136750Y-215740
X136960Y-139670
X137030Y-136660
X137230Y-148040
X137230Y-150580
X137230Y-153120
X137230Y-155660
X137230Y-158200
X137230Y-160740
X137230Y-163280
X137230Y-165820
X137230Y-168360
X137230Y-170900
X137230Y-173440
X137230Y-175980
X137230Y-178520
X137230Y-181060
X137230Y-183600
X139570Y-136660
X139950Y-196660
X140200Y-151730
X140310Y-148110
X140720Y-183660
X140940Y-174990
X141940Y-220795
X142490Y-196660
X144260Y-133190
X144280Y-181760
X144480Y-220795
X144930Y-210160
X145030Y-161230
X145030Y-196660
X145050Y-163930
X145380Y-177710
X146330Y-136660
X146430Y-216470
X147020Y-220795
X147510Y-208610
X147990Y-150120
X147990Y-152660
X147990Y-155200
X147990Y-157740
X147990Y-160280
X147990Y-162820
X147990Y-165360
X147990Y-167900
X147990Y-170440
X147990Y-172980
X147990Y-175520
X148870Y-136660
X149560Y-220795
X150030Y-139910
X151410Y-136660
X151545Y-196660
X151890Y-160870
X151940Y-169000
X152020Y-133300
X152100Y-220795
X153130Y-215160
X153950Y-136660
X154085Y-196660
X154640Y-220795
X154740Y-212460
X155330Y-140360
X155600Y-144710
X156490Y-136660
X156625Y-196660
X156770Y-168880
X156850Y-160930
X159030Y-136660
X160250Y-170390
X162040Y-172950
X162520Y-195270
X163940Y-175370
X164980Y-144760
X165950Y-177760
X166160Y-212350
X166320Y-197840
X166330Y-215660
X168850Y-136190
X168860Y-197840
X168870Y-215660
X170150Y-185680
X170590Y-181000
X171390Y-136190
X171490Y-160510
X171640Y-163890
X172580Y-167180
X173930Y-136190
X173930Y-138850
X174590Y-169230
X176390Y-171210
X176470Y-136190
X176480Y-197840
X176490Y-215660
X178370Y-194070
X178490Y-173110
X179010Y-136190
X179030Y-197880
X179040Y-215710
X179840Y-191860
X180910Y-210880
X180910Y-213700
X181550Y-136190
X184910Y-162860
X188475Y-156405
X188475Y-158945
X188475Y-161485
X188475Y-164025
X188475Y-166565
X188475Y-169105
X188620Y-204100
T3
X185490Y-188660
X185490Y-193740
T0
M30
