M48
; DRILL file {KiCad (5.1.10)-1} date 01/06/22 12:38:58
; FORMAT={-:-/ absolute / metric / decimal}
; #@! TF.CreationDate,2022-01-06T12:38:58+00:00
; #@! TF.GenerationSoftware,Kicad,Pcbnew,(5.1.10)-1
FMAT,2
METRIC
T1C1.000
T2C1.520
T3C3.200
%
G90
G05
T1
X71.165Y-154.795
X71.165Y-157.335
X71.165Y-159.875
X71.165Y-162.415
X71.165Y-164.955
X71.165Y-167.495
X71.29Y-187.16
X71.29Y-189.66
X73.83Y-187.16
X73.83Y-189.66
X74.54Y-194.51
X74.9Y-161.7
X76.37Y-187.16
X76.37Y-189.66
X78.2Y-184.23
X78.91Y-187.16
X78.91Y-189.66
X79.72Y-179.74
X80.78Y-184.37
X81.42Y-193.0
X81.45Y-187.16
X81.45Y-189.66
X82.7Y-178.08
X83.37Y-184.43
X83.99Y-187.16
X83.99Y-189.66
X84.04Y-195.7
X85.7Y-176.46
X88.42Y-203.13
X90.28Y-205.03
X92.62Y-199.31
X93.47Y-177.27
X93.49Y-191.42
X93.49Y-206.66
X95.62Y-198.48
X96.03Y-191.42
X96.03Y-206.66
X97.32Y-188.54
X98.57Y-191.42
X98.57Y-206.66
X101.11Y-191.42
X101.11Y-206.66
X103.54Y-136.35
X103.65Y-191.42
X103.65Y-206.66
X103.65Y-209.4
X106.08Y-136.35
X106.19Y-191.42
X106.19Y-206.66
X107.38Y-147.33
X107.59Y-174.56
X107.75Y-183.88
X107.76Y-177.58
X108.58Y-204.25
X108.62Y-136.35
X108.73Y-191.42
X108.73Y-206.66
X109.59Y-143.77
X110.04Y-184.93
X111.16Y-136.35
X111.27Y-191.42
X111.27Y-206.66
X111.38Y-188.82
X111.65Y-148.38
X111.65Y-150.92
X111.65Y-153.46
X111.65Y-156.0
X111.65Y-158.54
X111.65Y-161.08
X111.65Y-163.62
X111.65Y-166.16
X111.65Y-168.7
X111.65Y-171.24
X111.65Y-173.78
X112.64Y-141.32
X113.7Y-136.35
X113.81Y-191.42
X113.81Y-206.66
X114.63Y-159.07
X114.66Y-161.87
X114.83Y-188.66
X115.15Y-146.19
X116.24Y-136.35
X116.35Y-191.42
X116.35Y-206.66
X117.43Y-159.08
X118.13Y-143.89
X118.89Y-191.42
X118.89Y-206.66
X118.98Y-169.16
X119.08Y-203.77
X119.15Y-154.51
X121.43Y-191.42
X121.43Y-206.66
X121.99Y-148.04
X121.99Y-150.58
X121.99Y-153.12
X121.99Y-155.66
X121.99Y-158.2
X121.99Y-160.74
X121.99Y-163.28
X121.99Y-165.82
X121.99Y-168.36
X121.99Y-170.9
X121.99Y-173.44
X121.99Y-175.98
X121.99Y-178.52
X121.99Y-181.06
X121.99Y-183.6
X123.97Y-191.42
X123.97Y-206.66
X124.31Y-180.75
X125.28Y-166.65
X125.61Y-178.53
X126.34Y-153.11
X126.51Y-191.42
X126.51Y-206.66
X126.77Y-183.21
X126.87Y-136.66
X126.92Y-175.98
X127.9Y-140.58
X128.42Y-218.63
X128.44Y-215.85
X128.62Y-181.54
X129.01Y-146.3
X129.05Y-191.42
X129.05Y-206.66
X129.41Y-136.66
X130.96Y-218.63
X130.98Y-215.85
X131.73Y-213.23
X131.95Y-136.66
X132.53Y-147.44
X133.5Y-218.63
X133.52Y-215.85
X133.54Y-177.62
X134.49Y-136.66
X136.29Y-142.34
X136.75Y-215.74
X136.96Y-139.67
X137.03Y-136.66
X137.23Y-148.04
X137.23Y-150.58
X137.23Y-153.12
X137.23Y-155.66
X137.23Y-158.2
X137.23Y-160.74
X137.23Y-163.28
X137.23Y-165.82
X137.23Y-168.36
X137.23Y-170.9
X137.23Y-173.44
X137.23Y-175.98
X137.23Y-178.52
X137.23Y-181.06
X137.23Y-183.6
X139.57Y-136.66
X139.95Y-196.66
X140.2Y-151.73
X140.31Y-148.11
X140.72Y-183.66
X140.94Y-174.99
X141.94Y-220.795
X142.49Y-196.66
X144.26Y-133.19
X144.28Y-181.76
X144.48Y-220.795
X144.93Y-210.16
X145.03Y-161.23
X145.03Y-196.66
X145.05Y-163.93
X145.38Y-177.71
X146.33Y-136.66
X146.43Y-216.47
X147.02Y-220.795
X147.51Y-208.61
X147.99Y-150.12
X147.99Y-152.66
X147.99Y-155.2
X147.99Y-157.74
X147.99Y-160.28
X147.99Y-162.82
X147.99Y-165.36
X147.99Y-167.9
X147.99Y-170.44
X147.99Y-172.98
X147.99Y-175.52
X148.87Y-136.66
X149.56Y-220.795
X150.03Y-139.91
X151.41Y-136.66
X151.545Y-196.66
X151.89Y-160.87
X151.94Y-169.0
X152.02Y-133.3
X152.1Y-220.795
X153.13Y-215.16
X153.95Y-136.66
X154.085Y-196.66
X154.64Y-220.795
X154.74Y-212.46
X155.33Y-140.36
X155.6Y-144.71
X156.49Y-136.66
X156.625Y-196.66
X156.77Y-168.88
X156.85Y-160.93
X159.03Y-136.66
X160.25Y-170.39
X162.04Y-172.95
X162.52Y-195.27
X163.94Y-175.37
X164.98Y-144.76
X165.13Y-191.13
X165.95Y-177.76
X166.16Y-212.35
X166.32Y-197.84
X166.33Y-215.66
X168.63Y-191.13
X168.85Y-136.19
X168.86Y-197.84
X168.87Y-215.66
X170.15Y-185.68
X170.59Y-181.0
X171.39Y-136.19
X171.49Y-160.51
X171.64Y-163.89
X172.58Y-167.18
X173.93Y-136.19
X173.93Y-138.85
X174.59Y-169.23
X176.39Y-171.21
X176.47Y-136.19
X176.48Y-197.84
X176.49Y-215.66
X178.37Y-194.07
X178.49Y-173.11
X179.01Y-136.19
X179.03Y-197.88
X179.04Y-215.71
X179.84Y-191.86
X180.91Y-210.88
X180.91Y-213.7
X181.55Y-136.19
X184.91Y-162.86
X186.08Y-211.46
X188.475Y-156.405
X188.475Y-158.945
X188.475Y-161.485
X188.475Y-164.025
X188.475Y-166.565
X188.475Y-169.105
X188.62Y-204.1
X189.58Y-211.46
T2
X185.49Y-188.66
X185.49Y-193.74
T3
X79.01Y-144.28
X92.76Y-157.26
X186.07Y-175.1
X186.87Y-144.15
T0
M30
