%TF.GenerationSoftware,KiCad,Pcbnew,(5.1.10)-1*%
%TF.CreationDate,2022-01-06T12:38:47+00:00*%
%TF.ProjectId,mike_pcb_motors,6d696b65-5f70-4636-925f-6d6f746f7273,rev?*%
%TF.SameCoordinates,Original*%
%TF.FileFunction,Copper,L2,Bot*%
%TF.FilePolarity,Positive*%
%FSLAX46Y46*%
G04 Gerber Fmt 4.6, Leading zero omitted, Abs format (unit mm)*
G04 Created by KiCad (PCBNEW (5.1.10)-1) date 2022-01-06 12:38:47*
%MOMM*%
%LPD*%
G01*
G04 APERTURE LIST*
%TA.AperFunction,ComponentPad*%
%ADD10O,2.000000X2.000000*%
%TD*%
%TA.AperFunction,ComponentPad*%
%ADD11R,2.000000X2.000000*%
%TD*%
%TA.AperFunction,ComponentPad*%
%ADD12C,2.000000*%
%TD*%
%TA.AperFunction,ComponentPad*%
%ADD13C,3.000000*%
%TD*%
%TA.AperFunction,ComponentPad*%
%ADD14R,3.000000X3.000000*%
%TD*%
%TA.AperFunction,ComponentPad*%
%ADD15O,1.700000X2.700000*%
%TD*%
%TA.AperFunction,ComponentPad*%
%ADD16R,1.700000X2.700000*%
%TD*%
%TA.AperFunction,ComponentPad*%
%ADD17O,2.700000X1.700000*%
%TD*%
%TA.AperFunction,ComponentPad*%
%ADD18O,2.600000X2.000000*%
%TD*%
%TA.AperFunction,ComponentPad*%
%ADD19O,2.700000X2.000000*%
%TD*%
%TA.AperFunction,ComponentPad*%
%ADD20R,2.700000X2.000000*%
%TD*%
%TA.AperFunction,ViaPad*%
%ADD21C,2.100000*%
%TD*%
%TA.AperFunction,Conductor*%
%ADD22C,0.500000*%
%TD*%
%TA.AperFunction,Conductor*%
%ADD23C,1.000000*%
%TD*%
%TA.AperFunction,Conductor*%
%ADD24C,2.000000*%
%TD*%
%TA.AperFunction,Conductor*%
%ADD25C,1.500000*%
%TD*%
%TA.AperFunction,Conductor*%
%ADD26C,0.050000*%
%TD*%
%TA.AperFunction,Conductor*%
%ADD27C,0.100000*%
%TD*%
G04 APERTURE END LIST*
D10*
%TO.P,J9,3*%
%TO.N,GND*%
X133520000Y-215850000D03*
%TO.P,J9,2*%
%TO.N,+5V*%
X130980000Y-215850000D03*
D11*
%TO.P,J9,1*%
%TO.N,Servo_PWM2*%
X128440000Y-215850000D03*
%TD*%
D10*
%TO.P,J8,3*%
%TO.N,GND*%
X133500000Y-218630000D03*
%TO.P,J8,2*%
%TO.N,+5V*%
X130960000Y-218630000D03*
D11*
%TO.P,J8,1*%
%TO.N,Servo_PWM1*%
X128420000Y-218630000D03*
%TD*%
D12*
%TO.P,C2,2*%
%TO.N,+5V*%
X186080000Y-211460000D03*
%TO.P,C2,1*%
%TO.N,GND*%
X189580000Y-211460000D03*
%TD*%
%TO.P,C1,2*%
%TO.N,VCC*%
X168630000Y-191130000D03*
%TO.P,C1,1*%
%TO.N,GND*%
X165130000Y-191130000D03*
%TD*%
D10*
%TO.P,U5,4*%
%TO.N,GND*%
X179040000Y-215710000D03*
%TO.P,U5,8*%
%TO.N,VCC*%
X166320000Y-197840000D03*
%TO.P,U5,6*%
%TO.N,GND*%
X176480000Y-197840000D03*
%TO.P,U5,7*%
%TO.N,VCC*%
X168860000Y-197840000D03*
%TO.P,U5,2*%
%TO.N,+5V*%
X168870000Y-215660000D03*
%TO.P,U5,1*%
X166330000Y-215660000D03*
%TO.P,U5,3*%
%TO.N,GND*%
X176490000Y-215660000D03*
%TO.P,U5,5*%
X179030000Y-197880000D03*
%TD*%
%TO.P,U2,16*%
%TO.N,Motor1_PWM2*%
X188475000Y-166565000D03*
%TO.P,U2,15*%
%TO.N,Net-(U2-Pad15)*%
X188475000Y-164025000D03*
%TO.P,U2,14*%
%TO.N,GND*%
X188475000Y-161485000D03*
%TO.P,U2,13*%
%TO.N,Motor2_PWM1*%
X188475000Y-158945000D03*
%TO.P,U2,12*%
%TO.N,Motor2_PWM2*%
X188475000Y-156405000D03*
D11*
%TO.P,U2,17*%
%TO.N,Motor1_PWM1*%
X188475000Y-169105000D03*
D10*
%TO.P,U2,11*%
%TO.N,Motor2_M2*%
X147990000Y-150120000D03*
%TO.P,U2,10*%
%TO.N,Net-(U2-Pad10)*%
X147990000Y-152660000D03*
%TO.P,U2,9*%
%TO.N,Motor2_M1*%
X147990000Y-155200000D03*
%TO.P,U2,8*%
%TO.N,Net-(U2-Pad8)*%
X147990000Y-157740000D03*
%TO.P,U2,7*%
%TO.N,GND*%
X147990000Y-160280000D03*
%TO.P,U2,6*%
%TO.N,Net-(U2-Pad6)*%
X147990000Y-162820000D03*
%TO.P,U2,5*%
%TO.N,VCC*%
X147990000Y-165360000D03*
%TO.P,U2,4*%
%TO.N,Net-(U2-Pad4)*%
X147990000Y-167900000D03*
%TO.P,U2,3*%
%TO.N,Motor1_M2*%
X147990000Y-170440000D03*
%TO.P,U2,2*%
%TO.N,Net-(U2-Pad2)*%
X147990000Y-172980000D03*
D11*
%TO.P,U2,1*%
%TO.N,Motor1_M1*%
X147990000Y-175520000D03*
%TD*%
D10*
%TO.P,U1,16*%
%TO.N,Motor3_PWM2*%
X71165000Y-157335000D03*
%TO.P,U1,15*%
%TO.N,Net-(U1-Pad15)*%
X71165000Y-159875000D03*
%TO.P,U1,14*%
%TO.N,GND*%
X71165000Y-162415000D03*
%TO.P,U1,13*%
%TO.N,Net-(U1-Pad13)*%
X71165000Y-164955000D03*
%TO.P,U1,12*%
%TO.N,Net-(U1-Pad12)*%
X71165000Y-167495000D03*
D11*
%TO.P,U1,17*%
%TO.N,Motor3_PWM1*%
X71165000Y-154795000D03*
D10*
%TO.P,U1,11*%
%TO.N,Net-(U1-Pad11)*%
X111650000Y-173780000D03*
%TO.P,U1,10*%
%TO.N,Net-(U1-Pad10)*%
X111650000Y-171240000D03*
%TO.P,U1,9*%
%TO.N,Net-(U1-Pad9)*%
X111650000Y-168700000D03*
%TO.P,U1,8*%
%TO.N,Net-(U1-Pad8)*%
X111650000Y-166160000D03*
%TO.P,U1,7*%
%TO.N,GND*%
X111650000Y-163620000D03*
%TO.P,U1,6*%
%TO.N,Net-(U1-Pad6)*%
X111650000Y-161080000D03*
%TO.P,U1,5*%
%TO.N,VCC*%
X111650000Y-158540000D03*
%TO.P,U1,4*%
%TO.N,Net-(U1-Pad4)*%
X111650000Y-156000000D03*
%TO.P,U1,3*%
%TO.N,Motor3_M2*%
X111650000Y-153460000D03*
%TO.P,U1,2*%
%TO.N,Net-(U1-Pad2)*%
X111650000Y-150920000D03*
D11*
%TO.P,U1,1*%
%TO.N,Motor3_M1*%
X111650000Y-148380000D03*
%TD*%
D10*
%TO.P,U3,5*%
%TO.N,CraneMotor1_PWM2*%
X154640000Y-220795000D03*
%TO.P,U3,8*%
%TO.N,GND*%
X147020000Y-220795000D03*
%TO.P,U3,7*%
%TO.N,VCC*%
X149560000Y-220795000D03*
%TO.P,U3,6*%
%TO.N,CraneMotor1_PWM1*%
X152100000Y-220795000D03*
%TO.P,U3,*%
%TO.N,*%
X154085000Y-196660000D03*
D12*
%TO.P,U3,10*%
%TO.N,CraneMotor2_PWM1*%
X141940000Y-220795000D03*
D10*
%TO.P,U3,9*%
%TO.N,CraneMotor2_PWM2*%
X144480000Y-220795000D03*
%TO.P,U3,*%
%TO.N,*%
X142490000Y-196660000D03*
D12*
%TO.P,U3,1*%
%TO.N,CraneMotor2_M1*%
X139950000Y-196660000D03*
D10*
%TO.P,U3,4*%
%TO.N,CraneMotor1_M2*%
X156625000Y-196660000D03*
%TO.P,U3,3*%
%TO.N,CraneMotor1_M1*%
X151545000Y-196660000D03*
%TO.P,U3,2*%
%TO.N,CraneMotor2_M2*%
X145030000Y-196660000D03*
%TD*%
%TO.P,J7,6*%
%TO.N,+5V*%
X168850000Y-136190000D03*
%TO.P,J7,5*%
X171390000Y-136190000D03*
%TO.P,J7,4*%
%TO.N,GND*%
X173930000Y-136190000D03*
%TO.P,J7,3*%
X176470000Y-136190000D03*
%TO.P,J7,2*%
%TO.N,SDA_5V*%
X179010000Y-136190000D03*
D11*
%TO.P,J7,1*%
%TO.N,SCL_5V*%
X181550000Y-136190000D03*
%TD*%
D10*
%TO.P,J6,6*%
%TO.N,CraneMotor2_M2*%
X71290000Y-189660000D03*
%TO.P,J6,5*%
%TO.N,+5V*%
X73830000Y-189660000D03*
%TO.P,J6,4*%
%TO.N,CraneMotor2_A*%
X76370000Y-189660000D03*
%TO.P,J6,3*%
%TO.N,CraneMotor2_B*%
X78910000Y-189660000D03*
%TO.P,J6,2*%
%TO.N,GND*%
X81450000Y-189660000D03*
D11*
%TO.P,J6,1*%
%TO.N,CraneMotor2_M1*%
X83990000Y-189660000D03*
%TD*%
D10*
%TO.P,J4,6*%
%TO.N,CraneMotor1_M2*%
X71290000Y-187160000D03*
%TO.P,J4,5*%
%TO.N,+5V*%
X73830000Y-187160000D03*
%TO.P,J4,4*%
%TO.N,CraneMotor1_A*%
X76370000Y-187160000D03*
%TO.P,J4,3*%
%TO.N,CraneMotor1_B*%
X78910000Y-187160000D03*
%TO.P,J4,2*%
%TO.N,GND*%
X81450000Y-187160000D03*
D11*
%TO.P,J4,1*%
%TO.N,CraneMotor1_M1*%
X83990000Y-187160000D03*
%TD*%
D10*
%TO.P,A2,16*%
%TO.N,Net-(A2-Pad16)*%
X129050000Y-191420000D03*
%TO.P,A2,15*%
%TO.N,CraneMotor2_B*%
X129050000Y-206660000D03*
%TO.P,A2,30*%
%TO.N,+5V*%
X93490000Y-191420000D03*
%TO.P,A2,14*%
%TO.N,CraneMotor1_PWM2*%
X126510000Y-206660000D03*
%TO.P,A2,29*%
%TO.N,GND*%
X96030000Y-191420000D03*
%TO.P,A2,13*%
%TO.N,CraneMotor1_PWM1*%
X123970000Y-206660000D03*
%TO.P,A2,28*%
%TO.N,Net-(A2-Pad28)*%
X98570000Y-191420000D03*
%TO.P,A2,12*%
%TO.N,CraneMotor2_PWM2*%
X121430000Y-206660000D03*
%TO.P,A2,27*%
%TO.N,Net-(A2-Pad27)*%
X101110000Y-191420000D03*
%TO.P,A2,11*%
%TO.N,CraneMotor1_B*%
X118890000Y-206660000D03*
%TO.P,A2,26*%
%TO.N,Net-(A2-Pad26)*%
X103650000Y-191420000D03*
%TO.P,A2,10*%
%TO.N,Net-(A2-Pad10)*%
X116350000Y-206660000D03*
%TO.P,A2,25*%
%TO.N,Net-(A2-Pad25)*%
X106190000Y-191420000D03*
%TO.P,A2,9*%
%TO.N,CraneMotor2_PWM1*%
X113810000Y-206660000D03*
%TO.P,A2,24*%
%TO.N,SCL_5V*%
X108730000Y-191420000D03*
%TO.P,A2,8*%
%TO.N,Servo_PWM2*%
X111270000Y-206660000D03*
%TO.P,A2,23*%
%TO.N,SDA_5V*%
X111270000Y-191420000D03*
%TO.P,A2,7*%
%TO.N,CraneMotor2_A*%
X108730000Y-206660000D03*
%TO.P,A2,22*%
%TO.N,Net-(A2-Pad22)*%
X113810000Y-191420000D03*
%TO.P,A2,6*%
%TO.N,Servo_PWM1*%
X106190000Y-206660000D03*
%TO.P,A2,21*%
%TO.N,Net-(A2-Pad21)*%
X116350000Y-191420000D03*
%TO.P,A2,5*%
%TO.N,CraneMotor1_A*%
X103650000Y-206660000D03*
%TO.P,A2,20*%
%TO.N,Net-(A2-Pad20)*%
X118890000Y-191420000D03*
%TO.P,A2,4*%
%TO.N,GND*%
X101110000Y-206660000D03*
%TO.P,A2,19*%
%TO.N,Net-(A2-Pad19)*%
X121430000Y-191420000D03*
%TO.P,A2,3*%
%TO.N,Net-(A2-Pad3)*%
X98570000Y-206660000D03*
%TO.P,A2,18*%
%TO.N,Net-(A2-Pad18)*%
X123970000Y-191420000D03*
%TO.P,A2,2*%
%TO.N,Net-(A2-Pad2)*%
X96030000Y-206660000D03*
%TO.P,A2,17*%
%TO.N,Net-(A2-Pad17)*%
X126510000Y-191420000D03*
D11*
%TO.P,A2,1*%
%TO.N,Net-(A2-Pad1)*%
X93490000Y-206660000D03*
%TD*%
D13*
%TO.P,J5,2*%
%TO.N,GND*%
X185490000Y-193740000D03*
D14*
%TO.P,J5,1*%
%TO.N,VCC*%
X185490000Y-188660000D03*
%TD*%
D15*
%TO.P,J3,6*%
%TO.N,Motor3_M2*%
X103540000Y-136350000D03*
%TO.P,J3,5*%
%TO.N,+5V*%
X106080000Y-135850000D03*
%TO.P,J3,4*%
%TO.N,Motor3_A*%
X108620000Y-136850000D03*
%TO.P,J3,3*%
%TO.N,Motor3_B*%
X111160000Y-136350000D03*
%TO.P,J3,2*%
%TO.N,GND*%
X113700000Y-136850000D03*
D16*
%TO.P,J3,1*%
%TO.N,Motor3_M1*%
X116240000Y-136850000D03*
%TD*%
D15*
%TO.P,J2,6*%
%TO.N,Motor2_M2*%
X126870000Y-137160000D03*
%TO.P,J2,5*%
%TO.N,+5V*%
X129410000Y-137160000D03*
%TO.P,J2,4*%
%TO.N,Motor2_A*%
X131950000Y-137160000D03*
%TO.P,J2,3*%
%TO.N,Motor2_B*%
X134490000Y-137160000D03*
%TO.P,J2,2*%
%TO.N,GND*%
X137030000Y-136660000D03*
D16*
%TO.P,J2,1*%
%TO.N,Motor2_M1*%
X139570000Y-137160000D03*
%TD*%
D15*
%TO.P,J1,6*%
%TO.N,Motor1_M2*%
X146330000Y-137160000D03*
%TO.P,J1,5*%
%TO.N,+5V*%
X148870000Y-136660000D03*
%TO.P,J1,4*%
%TO.N,Motor1_A*%
X151410000Y-136660000D03*
%TO.P,J1,3*%
%TO.N,Motor1_B*%
X153950000Y-136660000D03*
%TO.P,J1,2*%
%TO.N,GND*%
X156490000Y-136660000D03*
D16*
%TO.P,J1,1*%
%TO.N,Motor1_M1*%
X159030000Y-136660000D03*
%TD*%
D17*
%TO.P,A1,16*%
%TO.N,Motor3_B*%
X137230000Y-183600000D03*
%TO.P,A1,15*%
%TO.N,Motor2_B*%
X121490000Y-183600000D03*
D18*
%TO.P,A1,30*%
%TO.N,+5V*%
X137230000Y-148040000D03*
D17*
%TO.P,A1,14*%
%TO.N,Motor1_PWM2*%
X121490000Y-181060000D03*
D18*
%TO.P,A1,29*%
%TO.N,GND*%
X137230000Y-150580000D03*
D17*
%TO.P,A1,13*%
%TO.N,Motor1_PWM1*%
X121490000Y-178520000D03*
%TO.P,A1,28*%
%TO.N,Net-(A1-Pad28)*%
X137230000Y-153120000D03*
%TO.P,A1,12*%
%TO.N,Motor2_PWM2*%
X121490000Y-175980000D03*
%TO.P,A1,27*%
%TO.N,Net-(A1-Pad27)*%
X137230000Y-155660000D03*
%TO.P,A1,11*%
%TO.N,Motor1_B*%
X122490000Y-173440000D03*
%TO.P,A1,26*%
%TO.N,Net-(A1-Pad26)*%
X137230000Y-158200000D03*
%TO.P,A1,10*%
%TO.N,Motor3_A*%
X121490000Y-170900000D03*
%TO.P,A1,25*%
%TO.N,Net-(A1-Pad25)*%
X137230000Y-160740000D03*
%TO.P,A1,9*%
%TO.N,Motor2_PWM1*%
X121990000Y-168360000D03*
D18*
%TO.P,A1,24*%
%TO.N,SCL_5V*%
X137730000Y-163280000D03*
D17*
%TO.P,A1,8*%
%TO.N,Motor3_PWM2*%
X121990000Y-165820000D03*
D18*
%TO.P,A1,23*%
%TO.N,SDA_5V*%
X137730000Y-165820000D03*
D19*
%TO.P,A1,7*%
%TO.N,Motor2_A*%
X121990000Y-163280000D03*
%TO.P,A1,22*%
%TO.N,Net-(A1-Pad22)*%
X137230000Y-168360000D03*
%TO.P,A1,6*%
%TO.N,Motor3_PWM1*%
X121490000Y-160740000D03*
%TO.P,A1,21*%
%TO.N,Net-(A1-Pad21)*%
X137230000Y-170900000D03*
%TO.P,A1,5*%
%TO.N,Motor1_A*%
X121990000Y-158200000D03*
%TO.P,A1,20*%
%TO.N,Net-(A1-Pad20)*%
X137230000Y-173440000D03*
%TO.P,A1,4*%
%TO.N,GND*%
X121990000Y-155660000D03*
%TO.P,A1,19*%
%TO.N,Net-(A1-Pad19)*%
X137230000Y-175980000D03*
%TO.P,A1,3*%
%TO.N,Net-(A1-Pad3)*%
X121990000Y-153120000D03*
%TO.P,A1,18*%
%TO.N,Net-(A1-Pad18)*%
X137230000Y-178520000D03*
%TO.P,A1,2*%
%TO.N,Net-(A1-Pad2)*%
X121990000Y-150580000D03*
%TO.P,A1,17*%
%TO.N,Net-(A1-Pad17)*%
X137230000Y-181060000D03*
D20*
%TO.P,A1,1*%
%TO.N,Net-(A1-Pad1)*%
X121990000Y-148040000D03*
%TD*%
D21*
%TO.N,Motor3_B*%
X109590000Y-143770000D03*
X118130000Y-143890000D03*
X126340000Y-153110000D03*
X133540000Y-177620000D03*
%TO.N,+5V*%
X150030000Y-139910000D03*
X140310000Y-148110000D03*
X85700000Y-176460000D03*
X93470000Y-177270000D03*
X155600000Y-144710000D03*
X164980000Y-144760000D03*
X136290000Y-142340000D03*
X127900000Y-140580000D03*
X166160000Y-212350000D03*
X131730000Y-213230000D03*
%TO.N,Motor1_PWM2*%
X176390000Y-171210000D03*
X170150000Y-185680000D03*
X124310000Y-180750000D03*
X126770000Y-183210000D03*
%TO.N,GND*%
X155330000Y-140360000D03*
X146430000Y-216470000D03*
X81420000Y-193000000D03*
X80780000Y-184370000D03*
X97320000Y-188540000D03*
X173930000Y-138850000D03*
X140200000Y-151730000D03*
X136960000Y-139670000D03*
X112640000Y-141320000D03*
X178370000Y-194070000D03*
X179840000Y-191860000D03*
X188620000Y-204100000D03*
X162520000Y-195270000D03*
X184910000Y-162860000D03*
X114660000Y-161870000D03*
X74900000Y-161700000D03*
X145030000Y-161230000D03*
X145050000Y-163930000D03*
X114630000Y-159070000D03*
X103650000Y-209400000D03*
X119150000Y-154510000D03*
X136750000Y-215740000D03*
X180910000Y-213700000D03*
X180910000Y-210880000D03*
%TO.N,Motor1_PWM1*%
X178490000Y-173110000D03*
X125610000Y-178530000D03*
X170590000Y-181000000D03*
X128620000Y-181540000D03*
%TO.N,Motor2_PWM2*%
X172580000Y-167180000D03*
X163940000Y-175370000D03*
X144280000Y-181760000D03*
X126920000Y-175980000D03*
%TO.N,Motor1_B*%
X152020000Y-133299998D03*
X132530000Y-147440000D03*
%TO.N,Motor3_A*%
X118980000Y-169160000D03*
X117430000Y-159080000D03*
X115150000Y-146190000D03*
X107380000Y-147330000D03*
%TO.N,Motor2_PWM1*%
X174590000Y-169230000D03*
X165950000Y-177760000D03*
X125280000Y-166650000D03*
X140720000Y-183660000D03*
%TO.N,Motor1_A*%
X144260000Y-133190000D03*
X129010000Y-146300000D03*
%TO.N,Motor1_M2*%
X151940000Y-169000000D03*
X151890000Y-160870000D03*
%TO.N,Motor1_M1*%
X156770000Y-168880000D03*
X156850000Y-160929998D03*
%TO.N,VCC*%
X107760000Y-177580000D03*
X107750000Y-183880000D03*
X107590000Y-174560000D03*
X110039999Y-184929999D03*
%TO.N,SCL_5V*%
X171640000Y-163890000D03*
X162040000Y-172950000D03*
X114830000Y-188660000D03*
%TO.N,SDA_5V*%
X171490000Y-160510000D03*
X160250000Y-170390000D03*
X145380000Y-177710000D03*
X140940000Y-174990000D03*
X111380000Y-188820000D03*
%TO.N,CraneMotor2_B*%
X88420000Y-203130000D03*
X119080000Y-203770000D03*
%TO.N,CraneMotor1_PWM2*%
X154740000Y-212460000D03*
X147510000Y-208610001D03*
%TO.N,CraneMotor1_PWM1*%
X153130000Y-215160000D03*
X144930000Y-210159998D03*
%TO.N,CraneMotor1_B*%
X79720000Y-179740000D03*
X78200000Y-184230000D03*
%TO.N,CraneMotor2_A*%
X108580000Y-204250000D03*
X90280000Y-205030000D03*
%TO.N,CraneMotor1_M1*%
X83370000Y-184430000D03*
X82700000Y-178080000D03*
%TO.N,CraneMotor2_M2*%
X74540000Y-194510000D03*
X92620000Y-199310000D03*
%TO.N,CraneMotor2_M1*%
X84040000Y-195700000D03*
X95620000Y-198480000D03*
%TD*%
D22*
%TO.N,Motor3_B*%
X111160000Y-136350000D02*
X111160000Y-139050000D01*
X109590000Y-140620000D02*
X109590000Y-143770000D01*
X111160000Y-139050000D02*
X109590000Y-140620000D01*
X118130000Y-143890000D02*
X124100000Y-143890000D01*
X126340000Y-146130000D02*
X126340000Y-153110000D01*
X124100000Y-143890000D02*
X126340000Y-146130000D01*
X133540000Y-177620000D02*
X133540000Y-182750000D01*
X134390000Y-183600000D02*
X137230000Y-183600000D01*
X133540000Y-182750000D02*
X134390000Y-183600000D01*
%TO.N,Motor2_B*%
X123980000Y-183600000D02*
X121990000Y-183600000D01*
X134490000Y-173090000D02*
X123980000Y-183600000D01*
X134490000Y-136660000D02*
X134490000Y-173090000D01*
%TO.N,+5V*%
X148870000Y-138750000D02*
X150030000Y-139910000D01*
X148870000Y-136660000D02*
X148870000Y-138750000D01*
D23*
X137300000Y-148110000D02*
X137230000Y-148040000D01*
X140310000Y-148110000D02*
X137300000Y-148110000D01*
D24*
X168850000Y-136190000D02*
X171390000Y-136190000D01*
X168850000Y-167300000D02*
X184820000Y-183270000D01*
X184820000Y-183270000D02*
X187410000Y-183270000D01*
X187410000Y-183270000D02*
X189150000Y-185010000D01*
X189150000Y-185010000D02*
X189150000Y-197530000D01*
X171020000Y-215660000D02*
X166330000Y-215660000D01*
D23*
X129410000Y-136660000D02*
X129410000Y-139070000D01*
X129410000Y-139070000D02*
X127900000Y-140580000D01*
X127900000Y-140580000D02*
X121190000Y-140580000D01*
X106910000Y-133070000D02*
X106080000Y-133900000D01*
X116560000Y-133070000D02*
X106910000Y-133070000D01*
X118390000Y-134900000D02*
X116560000Y-133070000D01*
X118390000Y-137780000D02*
X118390000Y-134900000D01*
X121190000Y-140580000D02*
X118390000Y-137780000D01*
D22*
X106080000Y-133900000D02*
X106080000Y-136350000D01*
X73830000Y-189660000D02*
X73830000Y-187160000D01*
X73830000Y-187160000D02*
X73830000Y-182630000D01*
X80000000Y-176460000D02*
X85700000Y-176460000D01*
X73830000Y-182630000D02*
X80000000Y-176460000D01*
D23*
X93470000Y-191400000D02*
X93490000Y-191420000D01*
X93470000Y-177270000D02*
X93470000Y-191400000D01*
X150800000Y-139910000D02*
X155600000Y-144710000D01*
X150030000Y-139910000D02*
X150800000Y-139910000D01*
X168220000Y-144760000D02*
X168850000Y-145390000D01*
D24*
X168850000Y-145390000D02*
X168850000Y-167300000D01*
D23*
X164980000Y-144760000D02*
X168220000Y-144760000D01*
D24*
X168850000Y-136190000D02*
X168850000Y-145390000D01*
D23*
X140310000Y-146360000D02*
X136290000Y-142340000D01*
X140310000Y-148110000D02*
X140310000Y-146360000D01*
D24*
X180925000Y-206305000D02*
X180375000Y-206305000D01*
X186080000Y-211460000D02*
X180925000Y-206305000D01*
X180375000Y-206305000D02*
X171020000Y-215660000D01*
X189150000Y-197530000D02*
X180375000Y-206305000D01*
X166160000Y-215490000D02*
X166330000Y-215660000D01*
X130960000Y-215870000D02*
X130980000Y-215850000D01*
X130960000Y-218630000D02*
X130960000Y-215870000D01*
D23*
X105250000Y-133070000D02*
X106080000Y-133900000D01*
X76190000Y-133070000D02*
X105250000Y-133070000D01*
X68500000Y-140760000D02*
X76190000Y-133070000D01*
X68500000Y-169750000D02*
X68500000Y-140760000D01*
X70080000Y-171330000D02*
X68500000Y-169750000D01*
X87530000Y-171330000D02*
X70080000Y-171330000D01*
X93470000Y-177270000D02*
X87530000Y-171330000D01*
D24*
X166160000Y-212350000D02*
X166160000Y-215490000D01*
X130980000Y-215850000D02*
X130980000Y-213980000D01*
X130980000Y-213980000D02*
X131730000Y-213230000D01*
D22*
%TO.N,Motor1_PWM2*%
X181035000Y-166565000D02*
X176390000Y-171210000D01*
X188475000Y-166565000D02*
X181035000Y-166565000D01*
X122300000Y-180750000D02*
X121990000Y-181060000D01*
X124310000Y-180750000D02*
X122300000Y-180750000D01*
X170150000Y-185680000D02*
X169070000Y-186760000D01*
X169070000Y-186760000D02*
X130320000Y-186760000D01*
X130320000Y-186760000D02*
X126770000Y-183210000D01*
%TO.N,GND*%
X156490000Y-139200000D02*
X155330000Y-140360000D01*
X156490000Y-136660000D02*
X156490000Y-139200000D01*
D24*
X147020000Y-217060000D02*
X146430000Y-216470000D01*
X147020000Y-220795000D02*
X147020000Y-217060000D01*
D22*
X81450000Y-192970000D02*
X81420000Y-193000000D01*
X81450000Y-189660000D02*
X81450000Y-192970000D01*
X81450000Y-185040000D02*
X80780000Y-184370000D01*
X81450000Y-187160000D02*
X81450000Y-185040000D01*
X96030000Y-191420000D02*
X96030000Y-189890000D01*
X97320000Y-188600000D02*
X97320000Y-188540000D01*
X96030000Y-189890000D02*
X97320000Y-188600000D01*
D24*
X176470000Y-136190000D02*
X173930000Y-136190000D01*
X173930000Y-136190000D02*
X173930000Y-138850000D01*
D23*
X137230000Y-150580000D02*
X139050000Y-150580000D01*
X139050000Y-150580000D02*
X140200000Y-151730000D01*
D22*
X137030000Y-136660000D02*
X137030000Y-139600000D01*
X137030000Y-139600000D02*
X136960000Y-139670000D01*
X113700000Y-136350000D02*
X113700000Y-140260000D01*
X113700000Y-140260000D02*
X112640000Y-141320000D01*
D24*
X176520000Y-197880000D02*
X176480000Y-197840000D01*
X179030000Y-197880000D02*
X176520000Y-197880000D01*
X176480000Y-195960000D02*
X178370000Y-194070000D01*
X176480000Y-197840000D02*
X176480000Y-195960000D01*
X181720000Y-193740000D02*
X179840000Y-191860000D01*
X185490000Y-193740000D02*
X181720000Y-193740000D01*
X179840000Y-192600000D02*
X178370000Y-194070000D01*
X179840000Y-191860000D02*
X179840000Y-192600000D01*
X189580000Y-205060000D02*
X188620000Y-204100000D01*
X189580000Y-211460000D02*
X189580000Y-205060000D01*
X165130000Y-192660000D02*
X162520000Y-195270000D01*
X165130000Y-191130000D02*
X165130000Y-192660000D01*
X188475000Y-161485000D02*
X186285000Y-161485000D01*
X186285000Y-161485000D02*
X184910000Y-162860000D01*
X112910000Y-163620000D02*
X114660000Y-161870000D01*
X111650000Y-163620000D02*
X112910000Y-163620000D01*
X74185000Y-162415000D02*
X74900000Y-161700000D01*
X71165000Y-162415000D02*
X74185000Y-162415000D01*
X145980000Y-160280000D02*
X145030000Y-161230000D01*
X147990000Y-160280000D02*
X145980000Y-160280000D01*
X145030000Y-163910000D02*
X145050000Y-163930000D01*
X145030000Y-161230000D02*
X145030000Y-163910000D01*
X114660000Y-159100000D02*
X114630000Y-159070000D01*
X114660000Y-161870000D02*
X114660000Y-159100000D01*
D22*
X101110000Y-206860000D02*
X103650000Y-209400000D01*
X101110000Y-206660000D02*
X101110000Y-206860000D01*
X120300000Y-155660000D02*
X119150000Y-154510000D01*
X121990000Y-155660000D02*
X120300000Y-155660000D01*
D24*
X133500000Y-215870000D02*
X133520000Y-215850000D01*
X133500000Y-218630000D02*
X133500000Y-215870000D01*
X136640000Y-215850000D02*
X136750000Y-215740000D01*
X133520000Y-215850000D02*
X136640000Y-215850000D01*
X178990000Y-215660000D02*
X179040000Y-215710000D01*
X176490000Y-215660000D02*
X178990000Y-215660000D01*
X179040000Y-215570000D02*
X180910000Y-213700000D01*
X179040000Y-215710000D02*
X179040000Y-215570000D01*
X180910000Y-213700000D02*
X180910000Y-210880000D01*
D22*
%TO.N,Motor1_PWM1*%
X182495000Y-169105000D02*
X178490000Y-173110000D01*
X188475000Y-169105000D02*
X182495000Y-169105000D01*
X122000000Y-178530000D02*
X121990000Y-178520000D01*
X125610000Y-178530000D02*
X122000000Y-178530000D01*
X170590000Y-181000000D02*
X166090000Y-185500000D01*
X166090000Y-185500000D02*
X132580000Y-185500000D01*
X132580000Y-185500000D02*
X128620000Y-181540000D01*
%TO.N,Motor2_PWM2*%
X183355000Y-156405000D02*
X172580000Y-167180000D01*
X188475000Y-156405000D02*
X183355000Y-156405000D01*
X163940000Y-175370000D02*
X158260000Y-181050000D01*
X144990000Y-181050000D02*
X144280000Y-181760000D01*
X158260000Y-181050000D02*
X144990000Y-181050000D01*
X126920000Y-175980000D02*
X121990000Y-175980000D01*
%TO.N,Motor1_B*%
X153950000Y-136660000D02*
X153950000Y-134810000D01*
X153950000Y-134810000D02*
X152439998Y-133299998D01*
X152439998Y-133299998D02*
X152020000Y-133299998D01*
X132530000Y-165000000D02*
X132530000Y-147440000D01*
X124090000Y-173440000D02*
X132530000Y-165000000D01*
X121990000Y-173440000D02*
X124090000Y-173440000D01*
%TO.N,Motor3_A*%
X117430000Y-148470000D02*
X115150000Y-146190000D01*
X117430000Y-159080000D02*
X117430000Y-148470000D01*
X107380000Y-147330000D02*
X107380000Y-140340000D01*
X108620000Y-139100000D02*
X108620000Y-136350000D01*
X107380000Y-140340000D02*
X108620000Y-139100000D01*
X118980000Y-169890000D02*
X118980000Y-169160000D01*
X119990000Y-170900000D02*
X118980000Y-169890000D01*
X121990000Y-170900000D02*
X119990000Y-170900000D01*
%TO.N,Motor2_PWM1*%
X184875000Y-158945000D02*
X174590000Y-169230000D01*
X188475000Y-158945000D02*
X184875000Y-158945000D01*
X123570000Y-168360000D02*
X125280000Y-166650000D01*
X121990000Y-168360000D02*
X123570000Y-168360000D01*
X160050000Y-183660000D02*
X140720000Y-183660000D01*
X165950000Y-177760000D02*
X160050000Y-183660000D01*
%TO.N,Motor3_PWM2*%
X117220000Y-167810000D02*
X119210000Y-165820000D01*
X119210000Y-165820000D02*
X121990000Y-165820000D01*
X117220000Y-176760000D02*
X117220000Y-167810000D01*
X112320001Y-181659999D02*
X117220000Y-176760000D01*
X105649999Y-181659999D02*
X112320001Y-181659999D01*
X86630000Y-168150000D02*
X92140000Y-168150000D01*
X92140000Y-168150000D02*
X105649999Y-181659999D01*
X75815000Y-157335000D02*
X86630000Y-168150000D01*
X71165000Y-157335000D02*
X75815000Y-157335000D01*
%TO.N,Motor2_A*%
X131950000Y-138900000D02*
X131950000Y-136660000D01*
X130820000Y-140030000D02*
X131950000Y-138900000D01*
X123260000Y-163280000D02*
X130820000Y-155720000D01*
X130820000Y-155720000D02*
X130820000Y-140030000D01*
X121990000Y-163280000D02*
X123260000Y-163280000D01*
%TO.N,Motor3_PWM1*%
X115510000Y-164010000D02*
X118780000Y-160740000D01*
X111050000Y-180360000D02*
X115510000Y-175900000D01*
X107030000Y-180360000D02*
X111050000Y-180360000D01*
X92870000Y-166200000D02*
X107030000Y-180360000D01*
X87960000Y-166200000D02*
X92870000Y-166200000D01*
X118780000Y-160740000D02*
X121990000Y-160740000D01*
X76555000Y-154795000D02*
X87960000Y-166200000D01*
X115510000Y-175900000D02*
X115510000Y-164010000D01*
X71165000Y-154795000D02*
X76555000Y-154795000D01*
%TO.N,Motor1_A*%
X148440000Y-133190000D02*
X144260000Y-133190000D01*
X151410000Y-136160000D02*
X148440000Y-133190000D01*
X151410000Y-136660000D02*
X151410000Y-136160000D01*
X121990000Y-158200000D02*
X123840000Y-158200000D01*
X123840000Y-158200000D02*
X129010000Y-153030000D01*
X129010000Y-153030000D02*
X129010000Y-146300000D01*
D24*
%TO.N,Motor1_M2*%
X150500000Y-170440000D02*
X147990000Y-170440000D01*
X151940000Y-169000000D02*
X150500000Y-170440000D01*
X151890000Y-145560000D02*
X151890000Y-160870000D01*
X146330000Y-136660000D02*
X146330000Y-140000000D01*
X146330000Y-140000000D02*
X151890000Y-145560000D01*
%TO.N,Motor1_M1*%
X147990000Y-175520000D02*
X152780000Y-175520000D01*
X156770000Y-171530000D02*
X156770000Y-168880000D01*
X152780000Y-175520000D02*
X156770000Y-171530000D01*
X159030000Y-158749998D02*
X156850000Y-160929998D01*
X159030000Y-136660000D02*
X159030000Y-158749998D01*
%TO.N,Motor2_M2*%
X147990000Y-146500000D02*
X147990000Y-150120000D01*
X126870000Y-136660000D02*
X126870000Y-134940000D01*
X142780000Y-135520004D02*
X142780000Y-141290000D01*
X140499996Y-133240000D02*
X142780000Y-135520004D01*
X128570000Y-133240000D02*
X140499996Y-133240000D01*
X126870000Y-134940000D02*
X128570000Y-133240000D01*
X142780000Y-141290000D02*
X147990000Y-146500000D01*
%TO.N,Motor2_M1*%
X146030000Y-155200000D02*
X147990000Y-155200000D01*
X144980000Y-147830000D02*
X144980000Y-154150000D01*
X139570000Y-142420000D02*
X144980000Y-147830000D01*
X144980000Y-154150000D02*
X146030000Y-155200000D01*
X139570000Y-136660000D02*
X139570000Y-142420000D01*
%TO.N,Motor3_M2*%
X103540000Y-136350000D02*
X103540000Y-150500000D01*
X106500000Y-153460000D02*
X111650000Y-153460000D01*
X103540000Y-150500000D02*
X106500000Y-153460000D01*
%TO.N,Motor3_M1*%
X116240000Y-141390000D02*
X116240000Y-136350000D01*
X111650000Y-145980000D02*
X116240000Y-141390000D01*
X111650000Y-148380000D02*
X111650000Y-145980000D01*
%TO.N,VCC*%
X111650000Y-158540000D02*
X109280000Y-158540000D01*
X109280000Y-158540000D02*
X107590000Y-160230000D01*
X107590000Y-177410000D02*
X107760000Y-177580000D01*
X147990000Y-165360000D02*
X159630000Y-165360000D01*
X178040000Y-188660000D02*
X168860000Y-197840000D01*
X185490000Y-188660000D02*
X178040000Y-188660000D01*
X168860000Y-197840000D02*
X166320000Y-197840000D01*
X178040000Y-183770000D02*
X159630000Y-165360000D01*
X178040000Y-188660000D02*
X178040000Y-183770000D01*
X166320000Y-197840000D02*
X164840000Y-197840000D01*
X149560000Y-213120000D02*
X149560000Y-220795000D01*
X164840000Y-197840000D02*
X149560000Y-213120000D01*
X108799999Y-184929999D02*
X107750000Y-183880000D01*
X119370000Y-188660000D02*
X115639999Y-184929999D01*
X168630000Y-188760000D02*
X168730000Y-188660000D01*
X168630000Y-191130000D02*
X168630000Y-188760000D01*
X168730000Y-188660000D02*
X119370000Y-188660000D01*
X178040000Y-188660000D02*
X168730000Y-188660000D01*
X107590000Y-174560000D02*
X107590000Y-177410000D01*
X107590000Y-160230000D02*
X107590000Y-174560000D01*
X110039999Y-184929999D02*
X108799999Y-184929999D01*
X115639999Y-184929999D02*
X110039999Y-184929999D01*
D22*
%TO.N,SCL_5V*%
X181550000Y-153980000D02*
X171640000Y-163890000D01*
X181550000Y-136190000D02*
X181550000Y-153980000D01*
X143110000Y-166660000D02*
X139730000Y-163280000D01*
X143110000Y-178150000D02*
X143110000Y-166660000D01*
X139730000Y-163280000D02*
X137230000Y-163280000D01*
X157490000Y-179550000D02*
X144510000Y-179550000D01*
X162040000Y-175000000D02*
X157490000Y-179550000D01*
X144510000Y-179550000D02*
X143110000Y-178150000D01*
X162040000Y-172950000D02*
X162040000Y-175000000D01*
X108730000Y-191420000D02*
X108730000Y-187720000D01*
X108730000Y-187720000D02*
X109570000Y-186880000D01*
X113050000Y-186880000D02*
X114830000Y-188660000D01*
X109570000Y-186880000D02*
X113050000Y-186880000D01*
%TO.N,SDA_5V*%
X179010000Y-152990000D02*
X171490000Y-160510000D01*
X179010000Y-136190000D02*
X179010000Y-152990000D01*
X160250000Y-170390000D02*
X159970000Y-170390000D01*
X159970000Y-170390000D02*
X159580000Y-170780000D01*
X159580000Y-170780000D02*
X159580000Y-174710000D01*
X156580000Y-177710000D02*
X145380000Y-177710000D01*
X159580000Y-174710000D02*
X156580000Y-177710000D01*
X140940000Y-174990000D02*
X140940000Y-167550000D01*
X139210000Y-165820000D02*
X137230000Y-165820000D01*
X140940000Y-167550000D02*
X139210000Y-165820000D01*
X111270000Y-188930000D02*
X111380000Y-188820000D01*
X111270000Y-191420000D02*
X111270000Y-188930000D01*
%TO.N,CraneMotor2_B*%
X78910000Y-189660000D02*
X78910000Y-193620000D01*
X78910000Y-193620000D02*
X88420000Y-203130000D01*
X129050000Y-206660000D02*
X126160000Y-203770000D01*
X126160000Y-203770000D02*
X119080000Y-203770000D01*
%TO.N,CraneMotor1_PWM2*%
X154640000Y-220795000D02*
X154640000Y-217710000D01*
X154640000Y-217710000D02*
X156070000Y-216280000D01*
X156070000Y-213790000D02*
X154740000Y-212460000D01*
X156070000Y-216280000D02*
X156070000Y-213790000D01*
X127519998Y-208539998D02*
X147439997Y-208539998D01*
X147439997Y-208539998D02*
X147510000Y-208610001D01*
X126510000Y-207530000D02*
X127519998Y-208539998D01*
X126510000Y-206660000D02*
X126510000Y-207530000D01*
%TO.N,CraneMotor1_PWM1*%
X152100000Y-216190000D02*
X153130000Y-215160000D01*
X152100000Y-220795000D02*
X152100000Y-216190000D01*
X125920000Y-209590000D02*
X144360002Y-209590000D01*
X123970000Y-206660000D02*
X123970000Y-207640000D01*
X123970000Y-207640000D02*
X125920000Y-209590000D01*
X144360002Y-209590000D02*
X144930000Y-210159998D01*
%TO.N,CraneMotor2_PWM2*%
X124570000Y-210560000D02*
X121430000Y-207420000D01*
X142100000Y-210560000D02*
X124570000Y-210560000D01*
X144480000Y-212940000D02*
X142100000Y-210560000D01*
X144480000Y-220795000D02*
X144480000Y-212940000D01*
X121430000Y-207420000D02*
X121430000Y-206660000D01*
%TO.N,CraneMotor1_B*%
X78910000Y-187160000D02*
X78910000Y-184940000D01*
X78910000Y-184940000D02*
X78200000Y-184230000D01*
X84539999Y-180789999D02*
X80769999Y-180789999D01*
X86940000Y-183190000D02*
X84539999Y-180789999D01*
X86940000Y-196340000D02*
X86940000Y-183190000D01*
X80769999Y-180789999D02*
X79720000Y-179740000D01*
X92980000Y-202380000D02*
X86940000Y-196340000D01*
X114610000Y-202380000D02*
X92980000Y-202380000D01*
X118890000Y-206660000D02*
X114610000Y-202380000D01*
%TO.N,CraneMotor2_PWM1*%
X117700000Y-211600000D02*
X140130000Y-211600000D01*
X141940000Y-213410000D02*
X141940000Y-220795000D01*
X113810000Y-206660000D02*
X113810000Y-207710000D01*
X113810000Y-207710000D02*
X117700000Y-211600000D01*
X140130000Y-211600000D02*
X141940000Y-213410000D01*
%TO.N,CraneMotor2_A*%
X108730000Y-206660000D02*
X108730000Y-204400000D01*
X108730000Y-204400000D02*
X108580000Y-204250000D01*
X87710000Y-205030000D02*
X90280000Y-205030000D01*
X76370000Y-193690000D02*
X87710000Y-205030000D01*
X76370000Y-189660000D02*
X76370000Y-193690000D01*
%TO.N,CraneMotor1_A*%
X77840000Y-182050000D02*
X76370000Y-183520000D01*
X76370000Y-183520000D02*
X76370000Y-187160000D01*
X85790000Y-183800000D02*
X84040000Y-182050000D01*
X85790000Y-197690000D02*
X85790000Y-183800000D01*
X84040000Y-182050000D02*
X77840000Y-182050000D01*
X91770000Y-203670000D02*
X85790000Y-197690000D01*
X103650000Y-204580000D02*
X102740000Y-203670000D01*
X102740000Y-203670000D02*
X91770000Y-203670000D01*
X103650000Y-206660000D02*
X103650000Y-204580000D01*
D25*
%TO.N,CraneMotor1_M2*%
X71290000Y-177940000D02*
X71290000Y-187160000D01*
X75390000Y-173840000D02*
X71290000Y-177940000D01*
X86900000Y-173840000D02*
X75390000Y-173840000D01*
X92370000Y-193790000D02*
X91220000Y-192640000D01*
X91220000Y-178160000D02*
X86900000Y-173840000D01*
X132480000Y-192020000D02*
X130710000Y-193790000D01*
X130710000Y-193790000D02*
X92370000Y-193790000D01*
X153399213Y-192020000D02*
X132480000Y-192020000D01*
X91220000Y-192640000D02*
X91220000Y-178160000D01*
X156625000Y-195245787D02*
X153399213Y-192020000D01*
X156625000Y-196660000D02*
X156625000Y-195245787D01*
%TO.N,CraneMotor1_M1*%
X83990000Y-187160000D02*
X83990000Y-185050000D01*
X83990000Y-185050000D02*
X83370000Y-184430000D01*
X83749999Y-179129999D02*
X82700000Y-178080000D01*
X134260000Y-194080000D02*
X132330000Y-196010000D01*
X132330000Y-196010000D02*
X90910000Y-196010000D01*
X151545000Y-196660000D02*
X148965000Y-194080000D01*
X148965000Y-194080000D02*
X134260000Y-194080000D01*
X90910000Y-196010000D02*
X88750000Y-193850000D01*
X88750000Y-193850000D02*
X88750000Y-180810000D01*
X88750000Y-180810000D02*
X87069999Y-179129999D01*
X87069999Y-179129999D02*
X83749999Y-179129999D01*
%TO.N,CraneMotor2_M2*%
X71290000Y-191260000D02*
X74540000Y-194510000D01*
X71290000Y-189660000D02*
X71290000Y-191260000D01*
X92620000Y-199310000D02*
X94240000Y-200930000D01*
X94240000Y-200930000D02*
X143720000Y-200930000D01*
X145030000Y-199620000D02*
X145030000Y-196660000D01*
X143720000Y-200930000D02*
X145030000Y-199620000D01*
%TO.N,CraneMotor2_M1*%
X83990000Y-195650000D02*
X84040000Y-195700000D01*
X83990000Y-189660000D02*
X83990000Y-195650000D01*
X95620000Y-198480000D02*
X138540000Y-198480000D01*
X139950000Y-197070000D02*
X139950000Y-196660000D01*
X138540000Y-198480000D02*
X139950000Y-197070000D01*
D22*
%TO.N,Servo_PWM2*%
X111270000Y-208050000D02*
X111270000Y-206660000D01*
X115840000Y-212620000D02*
X111270000Y-208050000D01*
X125920000Y-212620000D02*
X115840000Y-212620000D01*
X128440000Y-215140000D02*
X125920000Y-212620000D01*
X128440000Y-215850000D02*
X128440000Y-215140000D01*
%TO.N,Servo_PWM1*%
X106190000Y-208010000D02*
X106190000Y-206660000D01*
X111970000Y-213790000D02*
X106190000Y-208010000D01*
X121840000Y-213790000D02*
X111970000Y-213790000D01*
X126680000Y-218630000D02*
X121840000Y-213790000D01*
X128420000Y-218630000D02*
X126680000Y-218630000D01*
%TD*%
D26*
%TO.N,Net-(U1-Pad4)*%
X102278814Y-134588813D02*
X102057002Y-134859092D01*
X101892180Y-135167450D01*
X101790683Y-135502039D01*
X101786204Y-135547514D01*
X101752927Y-135609771D01*
X101642853Y-135972635D01*
X101615000Y-136255434D01*
X101615001Y-150405425D01*
X101605686Y-150500000D01*
X101642854Y-150877365D01*
X101752927Y-151240229D01*
X101931677Y-151574647D01*
X102056985Y-151727335D01*
X102172234Y-151867767D01*
X102245692Y-151928052D01*
X105071947Y-154754308D01*
X105132233Y-154827767D01*
X105244340Y-154919770D01*
X105425352Y-155068323D01*
X105541839Y-155130586D01*
X105759770Y-155247073D01*
X106122634Y-155357147D01*
X106405433Y-155385000D01*
X106405434Y-155385000D01*
X106499999Y-155394314D01*
X106594564Y-155385000D01*
X110251515Y-155385000D01*
X110188686Y-155536696D01*
X110269109Y-155771000D01*
X111421000Y-155771000D01*
X111421000Y-155751000D01*
X111879000Y-155751000D01*
X111879000Y-155771000D01*
X113030891Y-155771000D01*
X113111314Y-155536696D01*
X113010917Y-155294296D01*
X112847091Y-155042354D01*
X112807500Y-155001761D01*
X112877116Y-154955245D01*
X112944309Y-154888052D01*
X113017767Y-154827767D01*
X113078052Y-154754309D01*
X113145245Y-154687116D01*
X113198041Y-154608102D01*
X113258323Y-154534647D01*
X113303116Y-154450845D01*
X113355913Y-154371829D01*
X113392279Y-154284033D01*
X113437073Y-154200230D01*
X113464658Y-154109296D01*
X113501023Y-154021502D01*
X113519562Y-153928303D01*
X113547147Y-153837366D01*
X113556461Y-153742796D01*
X113575000Y-153649596D01*
X113575000Y-153554567D01*
X113584314Y-153460000D01*
X113575000Y-153365433D01*
X113575000Y-153270404D01*
X113556461Y-153177204D01*
X113547147Y-153082634D01*
X113519562Y-152991697D01*
X113501023Y-152898498D01*
X113464658Y-152810704D01*
X113437073Y-152719770D01*
X113392279Y-152635967D01*
X113355913Y-152548171D01*
X113303116Y-152469155D01*
X113258323Y-152385353D01*
X113198041Y-152311898D01*
X113145245Y-152232884D01*
X113102361Y-152190000D01*
X113145245Y-152147116D01*
X113355913Y-151831829D01*
X113501023Y-151481502D01*
X113575000Y-151109596D01*
X113575000Y-150730404D01*
X113501023Y-150358498D01*
X113355913Y-150008171D01*
X113344774Y-149991500D01*
X113422830Y-149896389D01*
X113508723Y-149735695D01*
X113561615Y-149561332D01*
X113579475Y-149380000D01*
X113579475Y-147394450D01*
X113615917Y-147448989D01*
X113891011Y-147724083D01*
X114214487Y-147940222D01*
X114573914Y-148089102D01*
X114955479Y-148165000D01*
X115344521Y-148165000D01*
X115443593Y-148145293D01*
X116255001Y-148956702D01*
X116255000Y-157489797D01*
X116171011Y-157545917D01*
X116035000Y-157681928D01*
X115888989Y-157535917D01*
X115565513Y-157319778D01*
X115206086Y-157170898D01*
X114824521Y-157095000D01*
X114435479Y-157095000D01*
X114053914Y-157170898D01*
X113694487Y-157319778D01*
X113371011Y-157535917D01*
X113325009Y-157581919D01*
X113303116Y-157549155D01*
X113258323Y-157465353D01*
X113198041Y-157391898D01*
X113145245Y-157312884D01*
X113078052Y-157245691D01*
X113017767Y-157172233D01*
X112944309Y-157111948D01*
X112877116Y-157044755D01*
X112807500Y-156998239D01*
X112847091Y-156957646D01*
X113010917Y-156705704D01*
X113111314Y-156463304D01*
X113030891Y-156229000D01*
X111879000Y-156229000D01*
X111879000Y-156249000D01*
X111421000Y-156249000D01*
X111421000Y-156229000D01*
X110269109Y-156229000D01*
X110188686Y-156463304D01*
X110251515Y-156615000D01*
X109374565Y-156615000D01*
X109280000Y-156605686D01*
X109185435Y-156615000D01*
X109185433Y-156615000D01*
X108902634Y-156642853D01*
X108539770Y-156752927D01*
X108205352Y-156931677D01*
X108091638Y-157025000D01*
X107912233Y-157172233D01*
X107851947Y-157245692D01*
X106295697Y-158801943D01*
X106222233Y-158862233D01*
X105981677Y-159155353D01*
X105802927Y-159489771D01*
X105692853Y-159852635D01*
X105670061Y-160084047D01*
X105655686Y-160230000D01*
X105665000Y-160324565D01*
X105665001Y-174114107D01*
X105615000Y-174365479D01*
X105615000Y-174754521D01*
X105665000Y-175005889D01*
X105665001Y-177315426D01*
X105663398Y-177331697D01*
X93741667Y-165409967D01*
X93704870Y-165365130D01*
X93525953Y-165218296D01*
X93321829Y-165109189D01*
X93100340Y-165042002D01*
X92927720Y-165025000D01*
X92927712Y-165025000D01*
X92870000Y-165019316D01*
X92812288Y-165025000D01*
X88446701Y-165025000D01*
X80433010Y-157011309D01*
X90235000Y-157011309D01*
X90235000Y-157508691D01*
X90332035Y-157996515D01*
X90522374Y-158456036D01*
X90798705Y-158869593D01*
X91150407Y-159221295D01*
X91563964Y-159497626D01*
X92023485Y-159687965D01*
X92511309Y-159785000D01*
X93008691Y-159785000D01*
X93496515Y-159687965D01*
X93956036Y-159497626D01*
X94369593Y-159221295D01*
X94721295Y-158869593D01*
X94997626Y-158456036D01*
X95187965Y-157996515D01*
X95285000Y-157508691D01*
X95285000Y-157011309D01*
X95187965Y-156523485D01*
X94997626Y-156063964D01*
X94721295Y-155650407D01*
X94369593Y-155298705D01*
X93956036Y-155022374D01*
X93496515Y-154832035D01*
X93008691Y-154735000D01*
X92511309Y-154735000D01*
X92023485Y-154832035D01*
X91563964Y-155022374D01*
X91150407Y-155298705D01*
X90798705Y-155650407D01*
X90522374Y-156063964D01*
X90332035Y-156523485D01*
X90235000Y-157011309D01*
X80433010Y-157011309D01*
X77426667Y-154004967D01*
X77389870Y-153960130D01*
X77210953Y-153813296D01*
X77006829Y-153704189D01*
X76785340Y-153637002D01*
X76612720Y-153620000D01*
X76612712Y-153620000D01*
X76555000Y-153614316D01*
X76497288Y-153620000D01*
X73077239Y-153620000D01*
X73076615Y-153613668D01*
X73023723Y-153439305D01*
X72937830Y-153278611D01*
X72822238Y-153137762D01*
X72681389Y-153022170D01*
X72520695Y-152936277D01*
X72346332Y-152883385D01*
X72165000Y-152865525D01*
X70165000Y-152865525D01*
X69983668Y-152883385D01*
X69925000Y-152901182D01*
X69925000Y-144031309D01*
X76485000Y-144031309D01*
X76485000Y-144528691D01*
X76582035Y-145016515D01*
X76772374Y-145476036D01*
X77048705Y-145889593D01*
X77400407Y-146241295D01*
X77813964Y-146517626D01*
X78273485Y-146707965D01*
X78761309Y-146805000D01*
X79258691Y-146805000D01*
X79746515Y-146707965D01*
X80206036Y-146517626D01*
X80619593Y-146241295D01*
X80971295Y-145889593D01*
X81247626Y-145476036D01*
X81437965Y-145016515D01*
X81535000Y-144528691D01*
X81535000Y-144031309D01*
X81437965Y-143543485D01*
X81247626Y-143083964D01*
X80971295Y-142670407D01*
X80619593Y-142318705D01*
X80206036Y-142042374D01*
X79746515Y-141852035D01*
X79258691Y-141755000D01*
X78761309Y-141755000D01*
X78273485Y-141852035D01*
X77813964Y-142042374D01*
X77400407Y-142318705D01*
X77048705Y-142670407D01*
X76772374Y-143083964D01*
X76582035Y-143543485D01*
X76485000Y-144031309D01*
X69925000Y-144031309D01*
X69925000Y-141350253D01*
X76780255Y-134495000D01*
X102393126Y-134495000D01*
X102278814Y-134588813D01*
%TA.AperFunction,Conductor*%
D27*
G36*
X102278814Y-134588813D02*
G01*
X102057002Y-134859092D01*
X101892180Y-135167450D01*
X101790683Y-135502039D01*
X101786204Y-135547514D01*
X101752927Y-135609771D01*
X101642853Y-135972635D01*
X101615000Y-136255434D01*
X101615001Y-150405425D01*
X101605686Y-150500000D01*
X101642854Y-150877365D01*
X101752927Y-151240229D01*
X101931677Y-151574647D01*
X102056985Y-151727335D01*
X102172234Y-151867767D01*
X102245692Y-151928052D01*
X105071947Y-154754308D01*
X105132233Y-154827767D01*
X105244340Y-154919770D01*
X105425352Y-155068323D01*
X105541839Y-155130586D01*
X105759770Y-155247073D01*
X106122634Y-155357147D01*
X106405433Y-155385000D01*
X106405434Y-155385000D01*
X106499999Y-155394314D01*
X106594564Y-155385000D01*
X110251515Y-155385000D01*
X110188686Y-155536696D01*
X110269109Y-155771000D01*
X111421000Y-155771000D01*
X111421000Y-155751000D01*
X111879000Y-155751000D01*
X111879000Y-155771000D01*
X113030891Y-155771000D01*
X113111314Y-155536696D01*
X113010917Y-155294296D01*
X112847091Y-155042354D01*
X112807500Y-155001761D01*
X112877116Y-154955245D01*
X112944309Y-154888052D01*
X113017767Y-154827767D01*
X113078052Y-154754309D01*
X113145245Y-154687116D01*
X113198041Y-154608102D01*
X113258323Y-154534647D01*
X113303116Y-154450845D01*
X113355913Y-154371829D01*
X113392279Y-154284033D01*
X113437073Y-154200230D01*
X113464658Y-154109296D01*
X113501023Y-154021502D01*
X113519562Y-153928303D01*
X113547147Y-153837366D01*
X113556461Y-153742796D01*
X113575000Y-153649596D01*
X113575000Y-153554567D01*
X113584314Y-153460000D01*
X113575000Y-153365433D01*
X113575000Y-153270404D01*
X113556461Y-153177204D01*
X113547147Y-153082634D01*
X113519562Y-152991697D01*
X113501023Y-152898498D01*
X113464658Y-152810704D01*
X113437073Y-152719770D01*
X113392279Y-152635967D01*
X113355913Y-152548171D01*
X113303116Y-152469155D01*
X113258323Y-152385353D01*
X113198041Y-152311898D01*
X113145245Y-152232884D01*
X113102361Y-152190000D01*
X113145245Y-152147116D01*
X113355913Y-151831829D01*
X113501023Y-151481502D01*
X113575000Y-151109596D01*
X113575000Y-150730404D01*
X113501023Y-150358498D01*
X113355913Y-150008171D01*
X113344774Y-149991500D01*
X113422830Y-149896389D01*
X113508723Y-149735695D01*
X113561615Y-149561332D01*
X113579475Y-149380000D01*
X113579475Y-147394450D01*
X113615917Y-147448989D01*
X113891011Y-147724083D01*
X114214487Y-147940222D01*
X114573914Y-148089102D01*
X114955479Y-148165000D01*
X115344521Y-148165000D01*
X115443593Y-148145293D01*
X116255001Y-148956702D01*
X116255000Y-157489797D01*
X116171011Y-157545917D01*
X116035000Y-157681928D01*
X115888989Y-157535917D01*
X115565513Y-157319778D01*
X115206086Y-157170898D01*
X114824521Y-157095000D01*
X114435479Y-157095000D01*
X114053914Y-157170898D01*
X113694487Y-157319778D01*
X113371011Y-157535917D01*
X113325009Y-157581919D01*
X113303116Y-157549155D01*
X113258323Y-157465353D01*
X113198041Y-157391898D01*
X113145245Y-157312884D01*
X113078052Y-157245691D01*
X113017767Y-157172233D01*
X112944309Y-157111948D01*
X112877116Y-157044755D01*
X112807500Y-156998239D01*
X112847091Y-156957646D01*
X113010917Y-156705704D01*
X113111314Y-156463304D01*
X113030891Y-156229000D01*
X111879000Y-156229000D01*
X111879000Y-156249000D01*
X111421000Y-156249000D01*
X111421000Y-156229000D01*
X110269109Y-156229000D01*
X110188686Y-156463304D01*
X110251515Y-156615000D01*
X109374565Y-156615000D01*
X109280000Y-156605686D01*
X109185435Y-156615000D01*
X109185433Y-156615000D01*
X108902634Y-156642853D01*
X108539770Y-156752927D01*
X108205352Y-156931677D01*
X108091638Y-157025000D01*
X107912233Y-157172233D01*
X107851947Y-157245692D01*
X106295697Y-158801943D01*
X106222233Y-158862233D01*
X105981677Y-159155353D01*
X105802927Y-159489771D01*
X105692853Y-159852635D01*
X105670061Y-160084047D01*
X105655686Y-160230000D01*
X105665000Y-160324565D01*
X105665001Y-174114107D01*
X105615000Y-174365479D01*
X105615000Y-174754521D01*
X105665000Y-175005889D01*
X105665001Y-177315426D01*
X105663398Y-177331697D01*
X93741667Y-165409967D01*
X93704870Y-165365130D01*
X93525953Y-165218296D01*
X93321829Y-165109189D01*
X93100340Y-165042002D01*
X92927720Y-165025000D01*
X92927712Y-165025000D01*
X92870000Y-165019316D01*
X92812288Y-165025000D01*
X88446701Y-165025000D01*
X80433010Y-157011309D01*
X90235000Y-157011309D01*
X90235000Y-157508691D01*
X90332035Y-157996515D01*
X90522374Y-158456036D01*
X90798705Y-158869593D01*
X91150407Y-159221295D01*
X91563964Y-159497626D01*
X92023485Y-159687965D01*
X92511309Y-159785000D01*
X93008691Y-159785000D01*
X93496515Y-159687965D01*
X93956036Y-159497626D01*
X94369593Y-159221295D01*
X94721295Y-158869593D01*
X94997626Y-158456036D01*
X95187965Y-157996515D01*
X95285000Y-157508691D01*
X95285000Y-157011309D01*
X95187965Y-156523485D01*
X94997626Y-156063964D01*
X94721295Y-155650407D01*
X94369593Y-155298705D01*
X93956036Y-155022374D01*
X93496515Y-154832035D01*
X93008691Y-154735000D01*
X92511309Y-154735000D01*
X92023485Y-154832035D01*
X91563964Y-155022374D01*
X91150407Y-155298705D01*
X90798705Y-155650407D01*
X90522374Y-156063964D01*
X90332035Y-156523485D01*
X90235000Y-157011309D01*
X80433010Y-157011309D01*
X77426667Y-154004967D01*
X77389870Y-153960130D01*
X77210953Y-153813296D01*
X77006829Y-153704189D01*
X76785340Y-153637002D01*
X76612720Y-153620000D01*
X76612712Y-153620000D01*
X76555000Y-153614316D01*
X76497288Y-153620000D01*
X73077239Y-153620000D01*
X73076615Y-153613668D01*
X73023723Y-153439305D01*
X72937830Y-153278611D01*
X72822238Y-153137762D01*
X72681389Y-153022170D01*
X72520695Y-152936277D01*
X72346332Y-152883385D01*
X72165000Y-152865525D01*
X70165000Y-152865525D01*
X69983668Y-152883385D01*
X69925000Y-152901182D01*
X69925000Y-144031309D01*
X76485000Y-144031309D01*
X76485000Y-144528691D01*
X76582035Y-145016515D01*
X76772374Y-145476036D01*
X77048705Y-145889593D01*
X77400407Y-146241295D01*
X77813964Y-146517626D01*
X78273485Y-146707965D01*
X78761309Y-146805000D01*
X79258691Y-146805000D01*
X79746515Y-146707965D01*
X80206036Y-146517626D01*
X80619593Y-146241295D01*
X80971295Y-145889593D01*
X81247626Y-145476036D01*
X81437965Y-145016515D01*
X81535000Y-144528691D01*
X81535000Y-144031309D01*
X81437965Y-143543485D01*
X81247626Y-143083964D01*
X80971295Y-142670407D01*
X80619593Y-142318705D01*
X80206036Y-142042374D01*
X79746515Y-141852035D01*
X79258691Y-141755000D01*
X78761309Y-141755000D01*
X78273485Y-141852035D01*
X77813964Y-142042374D01*
X77400407Y-142318705D01*
X77048705Y-142670407D01*
X76772374Y-143083964D01*
X76582035Y-143543485D01*
X76485000Y-144031309D01*
X69925000Y-144031309D01*
X69925000Y-141350253D01*
X76780255Y-134495000D01*
X102393126Y-134495000D01*
X102278814Y-134588813D01*
G37*
%TD.AperFunction*%
%TD*%
D26*
%TO.N,Net-(U2-Pad6)*%
X190517273Y-183641828D02*
X190444308Y-183581947D01*
X188838057Y-181975697D01*
X188777767Y-181902233D01*
X188484647Y-181661677D01*
X188150230Y-181482927D01*
X187787366Y-181372853D01*
X187504567Y-181345000D01*
X187504565Y-181345000D01*
X187410000Y-181335686D01*
X187315435Y-181345000D01*
X185617361Y-181345000D01*
X179218380Y-174946020D01*
X179425513Y-174860222D01*
X179438852Y-174851309D01*
X183545000Y-174851309D01*
X183545000Y-175348691D01*
X183642035Y-175836515D01*
X183832374Y-176296036D01*
X184108705Y-176709593D01*
X184460407Y-177061295D01*
X184873964Y-177337626D01*
X185333485Y-177527965D01*
X185821309Y-177625000D01*
X186318691Y-177625000D01*
X186806515Y-177527965D01*
X187266036Y-177337626D01*
X187679593Y-177061295D01*
X188031295Y-176709593D01*
X188307626Y-176296036D01*
X188497965Y-175836515D01*
X188595000Y-175348691D01*
X188595000Y-174851309D01*
X188497965Y-174363485D01*
X188307626Y-173903964D01*
X188031295Y-173490407D01*
X187679593Y-173138705D01*
X187266036Y-172862374D01*
X186806515Y-172672035D01*
X186318691Y-172575000D01*
X185821309Y-172575000D01*
X185333485Y-172672035D01*
X184873964Y-172862374D01*
X184460407Y-173138705D01*
X184108705Y-173490407D01*
X183832374Y-173903964D01*
X183642035Y-174363485D01*
X183545000Y-174851309D01*
X179438852Y-174851309D01*
X179748989Y-174644083D01*
X180024083Y-174368989D01*
X180240222Y-174045513D01*
X180389102Y-173686086D01*
X180465000Y-173304521D01*
X180465000Y-172915479D01*
X180445293Y-172816407D01*
X182981701Y-170280000D01*
X186562761Y-170280000D01*
X186563385Y-170286332D01*
X186616277Y-170460695D01*
X186702170Y-170621389D01*
X186817762Y-170762238D01*
X186958611Y-170877830D01*
X187119305Y-170963723D01*
X187293668Y-171016615D01*
X187475000Y-171034475D01*
X189475000Y-171034475D01*
X189656332Y-171016615D01*
X189830695Y-170963723D01*
X189991389Y-170877830D01*
X190132238Y-170762238D01*
X190247830Y-170621389D01*
X190333723Y-170460695D01*
X190386615Y-170286332D01*
X190404475Y-170105000D01*
X190404475Y-168105000D01*
X190386615Y-167923668D01*
X190333723Y-167749305D01*
X190247830Y-167588611D01*
X190169774Y-167493500D01*
X190180913Y-167476829D01*
X190326023Y-167126502D01*
X190400000Y-166754596D01*
X190400000Y-166375404D01*
X190326023Y-166003498D01*
X190180913Y-165653171D01*
X189970245Y-165337884D01*
X189927361Y-165295000D01*
X189970245Y-165252116D01*
X190180913Y-164936829D01*
X190326023Y-164586502D01*
X190400000Y-164214596D01*
X190400000Y-163835404D01*
X190326023Y-163463498D01*
X190180913Y-163113171D01*
X189970245Y-162797884D01*
X189927361Y-162755000D01*
X189970245Y-162712116D01*
X190023041Y-162633102D01*
X190083323Y-162559647D01*
X190128116Y-162475845D01*
X190180913Y-162396829D01*
X190217279Y-162309033D01*
X190262073Y-162225230D01*
X190289658Y-162134296D01*
X190326023Y-162046502D01*
X190344562Y-161953303D01*
X190372147Y-161862366D01*
X190381461Y-161767796D01*
X190400000Y-161674596D01*
X190400000Y-161579567D01*
X190409314Y-161485000D01*
X190400000Y-161390433D01*
X190400000Y-161295404D01*
X190381461Y-161202204D01*
X190372147Y-161107634D01*
X190344562Y-161016697D01*
X190326023Y-160923498D01*
X190289658Y-160835704D01*
X190262073Y-160744770D01*
X190217279Y-160660967D01*
X190180913Y-160573171D01*
X190128116Y-160494155D01*
X190083323Y-160410353D01*
X190023041Y-160336898D01*
X189970245Y-160257884D01*
X189927361Y-160215000D01*
X189970245Y-160172116D01*
X190180913Y-159856829D01*
X190326023Y-159506502D01*
X190400000Y-159134596D01*
X190400000Y-158755404D01*
X190326023Y-158383498D01*
X190180913Y-158033171D01*
X189970245Y-157717884D01*
X189927361Y-157675000D01*
X189970245Y-157632116D01*
X190180913Y-157316829D01*
X190326023Y-156966502D01*
X190400000Y-156594596D01*
X190400000Y-156215404D01*
X190326023Y-155843498D01*
X190180913Y-155493171D01*
X189970245Y-155177884D01*
X189702116Y-154909755D01*
X189386829Y-154699087D01*
X189036502Y-154553977D01*
X188664596Y-154480000D01*
X188285404Y-154480000D01*
X187913498Y-154553977D01*
X187563171Y-154699087D01*
X187247884Y-154909755D01*
X186979755Y-155177884D01*
X186944932Y-155230000D01*
X183412711Y-155230000D01*
X183354999Y-155224316D01*
X183297287Y-155230000D01*
X183297280Y-155230000D01*
X183146017Y-155244898D01*
X183124659Y-155247002D01*
X182910259Y-155312039D01*
X182903171Y-155314189D01*
X182699047Y-155423296D01*
X182520130Y-155570130D01*
X182483338Y-155614961D01*
X173473262Y-164625038D01*
X173539102Y-164466086D01*
X173615000Y-164084521D01*
X173615000Y-163695479D01*
X173595293Y-163596407D01*
X182340039Y-154851662D01*
X182384870Y-154814870D01*
X182531704Y-154635953D01*
X182640811Y-154431829D01*
X182697616Y-154244567D01*
X182707998Y-154210342D01*
X182711904Y-154170685D01*
X182725000Y-154037720D01*
X182725000Y-154037713D01*
X182730684Y-153980001D01*
X182725000Y-153922289D01*
X182725000Y-143901309D01*
X184345000Y-143901309D01*
X184345000Y-144398691D01*
X184442035Y-144886515D01*
X184632374Y-145346036D01*
X184908705Y-145759593D01*
X185260407Y-146111295D01*
X185673964Y-146387626D01*
X186133485Y-146577965D01*
X186621309Y-146675000D01*
X187118691Y-146675000D01*
X187606515Y-146577965D01*
X188066036Y-146387626D01*
X188479593Y-146111295D01*
X188831295Y-145759593D01*
X189107626Y-145346036D01*
X189297965Y-144886515D01*
X189395000Y-144398691D01*
X189395000Y-143901309D01*
X189297965Y-143413485D01*
X189107626Y-142953964D01*
X188831295Y-142540407D01*
X188479593Y-142188705D01*
X188066036Y-141912374D01*
X187606515Y-141722035D01*
X187118691Y-141625000D01*
X186621309Y-141625000D01*
X186133485Y-141722035D01*
X185673964Y-141912374D01*
X185260407Y-142188705D01*
X184908705Y-142540407D01*
X184632374Y-142953964D01*
X184442035Y-143413485D01*
X184345000Y-143901309D01*
X182725000Y-143901309D01*
X182725000Y-138102239D01*
X182731332Y-138101615D01*
X182905695Y-138048723D01*
X183066389Y-137962830D01*
X183207238Y-137847238D01*
X183322830Y-137706389D01*
X183408723Y-137545695D01*
X183461615Y-137371332D01*
X183479475Y-137190000D01*
X183479475Y-135190000D01*
X183461615Y-135008668D01*
X183408723Y-134834305D01*
X183322830Y-134673611D01*
X183207238Y-134532762D01*
X183066389Y-134417170D01*
X182905695Y-134331277D01*
X182731332Y-134278385D01*
X182550000Y-134260525D01*
X180550000Y-134260525D01*
X180368668Y-134278385D01*
X180194305Y-134331277D01*
X180033611Y-134417170D01*
X179938500Y-134495226D01*
X179921829Y-134484087D01*
X179571502Y-134338977D01*
X179199596Y-134265000D01*
X178820404Y-134265000D01*
X178448498Y-134338977D01*
X178098171Y-134484087D01*
X177782884Y-134694755D01*
X177740000Y-134737639D01*
X177697116Y-134694755D01*
X177618102Y-134641959D01*
X177544647Y-134581677D01*
X177460845Y-134536884D01*
X177381829Y-134484087D01*
X177294033Y-134447721D01*
X177210230Y-134402927D01*
X177119296Y-134375342D01*
X177031502Y-134338977D01*
X176938303Y-134320438D01*
X176847366Y-134292853D01*
X176752797Y-134283539D01*
X176659596Y-134265000D01*
X174024567Y-134265000D01*
X173930000Y-134255686D01*
X173835433Y-134265000D01*
X173740404Y-134265000D01*
X173647203Y-134283539D01*
X173552634Y-134292853D01*
X173461697Y-134320438D01*
X173368498Y-134338977D01*
X173280704Y-134375342D01*
X173189770Y-134402927D01*
X173105967Y-134447721D01*
X173018171Y-134484087D01*
X172939155Y-134536884D01*
X172855353Y-134581677D01*
X172781898Y-134641959D01*
X172702884Y-134694755D01*
X172660000Y-134737639D01*
X172617116Y-134694755D01*
X172538102Y-134641959D01*
X172464647Y-134581677D01*
X172380845Y-134536884D01*
X172301829Y-134484087D01*
X172214033Y-134447721D01*
X172130230Y-134402927D01*
X172039296Y-134375342D01*
X171951502Y-134338977D01*
X171858303Y-134320438D01*
X171767366Y-134292853D01*
X171672797Y-134283539D01*
X171579596Y-134265000D01*
X168944567Y-134265000D01*
X168850000Y-134255686D01*
X168755433Y-134265000D01*
X168660404Y-134265000D01*
X168567203Y-134283539D01*
X168472634Y-134292853D01*
X168381697Y-134320438D01*
X168288498Y-134338977D01*
X168200704Y-134375342D01*
X168109770Y-134402927D01*
X168025967Y-134447721D01*
X167938171Y-134484087D01*
X167859155Y-134536884D01*
X167775353Y-134581677D01*
X167701898Y-134641959D01*
X167622884Y-134694755D01*
X167555691Y-134761948D01*
X167482233Y-134822233D01*
X167421948Y-134895691D01*
X167354755Y-134962884D01*
X167301959Y-135041898D01*
X167241677Y-135115353D01*
X167196884Y-135199155D01*
X167144087Y-135278171D01*
X167107721Y-135365967D01*
X167062927Y-135449770D01*
X167035342Y-135540704D01*
X166998977Y-135628498D01*
X166980438Y-135721697D01*
X166952853Y-135812634D01*
X166943539Y-135907204D01*
X166925000Y-136000404D01*
X166925000Y-136095433D01*
X166915686Y-136190000D01*
X166925000Y-136284568D01*
X166925001Y-143335000D01*
X166348072Y-143335000D01*
X166238989Y-143225917D01*
X165915513Y-143009778D01*
X165556086Y-142860898D01*
X165174521Y-142785000D01*
X164785479Y-142785000D01*
X164403914Y-142860898D01*
X164044487Y-143009778D01*
X163721011Y-143225917D01*
X163445917Y-143501011D01*
X163229778Y-143824487D01*
X163080898Y-144183914D01*
X163005000Y-144565479D01*
X163005000Y-144954521D01*
X163080898Y-145336086D01*
X163229778Y-145695513D01*
X163445917Y-146018989D01*
X163721011Y-146294083D01*
X164044487Y-146510222D01*
X164403914Y-146659102D01*
X164785479Y-146735000D01*
X165174521Y-146735000D01*
X165556086Y-146659102D01*
X165915513Y-146510222D01*
X166238989Y-146294083D01*
X166348072Y-146185000D01*
X166925000Y-146185000D01*
X166925001Y-167205425D01*
X166915686Y-167300000D01*
X166948369Y-167631828D01*
X166952854Y-167677366D01*
X166971854Y-167740000D01*
X167062927Y-168040229D01*
X167241677Y-168374647D01*
X167356862Y-168515000D01*
X167482234Y-168667767D01*
X167555692Y-168728052D01*
X183391948Y-184564309D01*
X183452233Y-184637767D01*
X183598736Y-184757998D01*
X183745352Y-184878323D01*
X183991703Y-185010000D01*
X184079770Y-185057073D01*
X184442634Y-185167147D01*
X184725433Y-185195000D01*
X184725435Y-185195000D01*
X184820000Y-185204314D01*
X184914565Y-185195000D01*
X186612640Y-185195000D01*
X187225000Y-185807361D01*
X187225000Y-186264665D01*
X187171332Y-186248385D01*
X186990000Y-186230525D01*
X183990000Y-186230525D01*
X183808668Y-186248385D01*
X183634305Y-186301277D01*
X183473611Y-186387170D01*
X183332762Y-186502762D01*
X183217170Y-186643611D01*
X183168321Y-186735000D01*
X179965000Y-186735000D01*
X179965000Y-183864565D01*
X179974314Y-183770000D01*
X179963480Y-183660000D01*
X179937147Y-183392634D01*
X179827073Y-183029770D01*
X179781253Y-182944047D01*
X179648323Y-182695352D01*
X179495543Y-182509189D01*
X179407767Y-182402233D01*
X179334309Y-182341948D01*
X161058057Y-164065697D01*
X160997767Y-163992233D01*
X160704647Y-163751677D01*
X160370230Y-163572927D01*
X160007366Y-163462853D01*
X159724567Y-163435000D01*
X159724565Y-163435000D01*
X159630000Y-163425686D01*
X159535435Y-163435000D01*
X149388485Y-163435000D01*
X149451314Y-163283304D01*
X149370891Y-163049000D01*
X148219000Y-163049000D01*
X148219000Y-163069000D01*
X147761000Y-163069000D01*
X147761000Y-163049000D01*
X147741000Y-163049000D01*
X147741000Y-162591000D01*
X147761000Y-162591000D01*
X147761000Y-162571000D01*
X148219000Y-162571000D01*
X148219000Y-162591000D01*
X149370891Y-162591000D01*
X149451314Y-162356696D01*
X149350917Y-162114296D01*
X149187091Y-161862354D01*
X149147500Y-161821761D01*
X149217116Y-161775245D01*
X149284309Y-161708052D01*
X149357767Y-161647767D01*
X149418052Y-161574309D01*
X149485245Y-161507116D01*
X149538041Y-161428102D01*
X149598323Y-161354647D01*
X149643116Y-161270845D01*
X149695913Y-161191829D01*
X149732279Y-161104033D01*
X149777073Y-161020230D01*
X149804658Y-160929296D01*
X149841023Y-160841502D01*
X149859562Y-160748303D01*
X149887147Y-160657366D01*
X149896461Y-160562796D01*
X149915000Y-160469596D01*
X149915000Y-160374567D01*
X149924314Y-160280000D01*
X149915000Y-160185433D01*
X149915000Y-160090404D01*
X149896461Y-159997204D01*
X149887147Y-159902634D01*
X149859562Y-159811697D01*
X149841023Y-159718498D01*
X149804658Y-159630704D01*
X149777073Y-159539770D01*
X149732279Y-159455967D01*
X149695913Y-159368171D01*
X149643116Y-159289155D01*
X149598323Y-159205353D01*
X149538041Y-159131898D01*
X149485245Y-159052884D01*
X149442361Y-159010000D01*
X149485245Y-158967116D01*
X149695913Y-158651829D01*
X149841023Y-158301502D01*
X149915000Y-157929596D01*
X149915000Y-157550404D01*
X149841023Y-157178498D01*
X149695913Y-156828171D01*
X149485245Y-156512884D01*
X149442361Y-156470000D01*
X149485245Y-156427116D01*
X149538041Y-156348102D01*
X149598323Y-156274647D01*
X149643116Y-156190845D01*
X149695913Y-156111829D01*
X149732279Y-156024033D01*
X149777073Y-155940230D01*
X149804658Y-155849296D01*
X149841023Y-155761502D01*
X149859562Y-155668303D01*
X149887147Y-155577366D01*
X149896461Y-155482796D01*
X149915000Y-155389596D01*
X149915000Y-155294567D01*
X149924314Y-155200000D01*
X149915000Y-155105433D01*
X149915000Y-155010404D01*
X149896461Y-154917204D01*
X149887147Y-154822634D01*
X149859562Y-154731697D01*
X149841023Y-154638498D01*
X149804658Y-154550704D01*
X149777073Y-154459770D01*
X149732279Y-154375967D01*
X149695913Y-154288171D01*
X149643116Y-154209155D01*
X149598323Y-154125353D01*
X149538041Y-154051898D01*
X149485245Y-153972884D01*
X149442361Y-153930000D01*
X149485245Y-153887116D01*
X149695913Y-153571829D01*
X149841023Y-153221502D01*
X149915000Y-152849596D01*
X149915000Y-152470404D01*
X149841023Y-152098498D01*
X149695913Y-151748171D01*
X149485245Y-151432884D01*
X149442361Y-151390000D01*
X149485245Y-151347116D01*
X149538041Y-151268102D01*
X149598323Y-151194647D01*
X149643116Y-151110845D01*
X149695913Y-151031829D01*
X149732279Y-150944033D01*
X149777073Y-150860230D01*
X149804658Y-150769296D01*
X149841023Y-150681502D01*
X149859562Y-150588303D01*
X149887147Y-150497366D01*
X149896461Y-150402797D01*
X149915000Y-150309596D01*
X149915000Y-146594565D01*
X149924314Y-146500000D01*
X149904285Y-146296646D01*
X149965000Y-146357361D01*
X149965001Y-160424107D01*
X149915000Y-160675479D01*
X149915000Y-161064521D01*
X149990898Y-161446086D01*
X150139778Y-161805513D01*
X150355917Y-162128989D01*
X150631011Y-162404083D01*
X150954487Y-162620222D01*
X151313914Y-162769102D01*
X151695479Y-162845000D01*
X152084521Y-162845000D01*
X152466086Y-162769102D01*
X152825513Y-162620222D01*
X153148989Y-162404083D01*
X153424083Y-162128989D01*
X153640222Y-161805513D01*
X153789102Y-161446086D01*
X153865000Y-161064521D01*
X153865000Y-160675479D01*
X153815000Y-160424112D01*
X153815000Y-145654561D01*
X153822401Y-145579420D01*
X153849778Y-145645513D01*
X154065917Y-145968989D01*
X154341011Y-146244083D01*
X154664487Y-146460222D01*
X155023914Y-146609102D01*
X155405479Y-146685000D01*
X155794521Y-146685000D01*
X156176086Y-146609102D01*
X156535513Y-146460222D01*
X156858989Y-146244083D01*
X157105000Y-145998072D01*
X157105001Y-157952636D01*
X155804112Y-159253526D01*
X155591011Y-159395915D01*
X155315917Y-159671009D01*
X155099778Y-159994485D01*
X154950898Y-160353912D01*
X154875000Y-160735477D01*
X154875000Y-161124519D01*
X154950898Y-161506084D01*
X155099778Y-161865511D01*
X155315917Y-162188987D01*
X155591011Y-162464081D01*
X155914487Y-162680220D01*
X156273914Y-162829100D01*
X156655479Y-162904998D01*
X157044521Y-162904998D01*
X157426086Y-162829100D01*
X157785513Y-162680220D01*
X158108989Y-162464081D01*
X158384083Y-162188987D01*
X158526472Y-161975886D01*
X160324308Y-160178051D01*
X160397767Y-160117765D01*
X160554566Y-159926704D01*
X160638323Y-159824646D01*
X160817073Y-159490228D01*
X160820536Y-159478813D01*
X160927147Y-159127364D01*
X160955000Y-158844565D01*
X160955000Y-158844563D01*
X160964314Y-158749998D01*
X160955000Y-158655433D01*
X160955000Y-136565433D01*
X160927147Y-136282634D01*
X160817073Y-135919770D01*
X160809475Y-135905555D01*
X160809475Y-135310000D01*
X160791615Y-135128668D01*
X160738723Y-134954305D01*
X160652830Y-134793611D01*
X160537238Y-134652762D01*
X160396389Y-134537170D01*
X160235695Y-134451277D01*
X160061332Y-134398385D01*
X159880000Y-134380525D01*
X158180000Y-134380525D01*
X157998668Y-134398385D01*
X157824305Y-134451277D01*
X157663611Y-134537170D01*
X157522762Y-134652762D01*
X157494031Y-134687771D01*
X157480908Y-134677001D01*
X157172550Y-134512180D01*
X156837961Y-134410683D01*
X156490000Y-134376412D01*
X156142040Y-134410683D01*
X155807451Y-134512180D01*
X155499093Y-134677001D01*
X155228814Y-134898813D01*
X155220001Y-134909552D01*
X155211187Y-134898813D01*
X155128611Y-134831045D01*
X155130684Y-134809999D01*
X155125000Y-134752287D01*
X155125000Y-134752280D01*
X155107998Y-134579660D01*
X155040811Y-134358171D01*
X154931704Y-134154047D01*
X154784870Y-133975130D01*
X154740039Y-133938338D01*
X153995000Y-133193300D01*
X153995000Y-133105477D01*
X153919102Y-132723912D01*
X153871918Y-132610000D01*
X190539585Y-132610000D01*
X190517273Y-183641828D01*
%TA.AperFunction,Conductor*%
D27*
G36*
X190517273Y-183641828D02*
G01*
X190444308Y-183581947D01*
X188838057Y-181975697D01*
X188777767Y-181902233D01*
X188484647Y-181661677D01*
X188150230Y-181482927D01*
X187787366Y-181372853D01*
X187504567Y-181345000D01*
X187504565Y-181345000D01*
X187410000Y-181335686D01*
X187315435Y-181345000D01*
X185617361Y-181345000D01*
X179218380Y-174946020D01*
X179425513Y-174860222D01*
X179438852Y-174851309D01*
X183545000Y-174851309D01*
X183545000Y-175348691D01*
X183642035Y-175836515D01*
X183832374Y-176296036D01*
X184108705Y-176709593D01*
X184460407Y-177061295D01*
X184873964Y-177337626D01*
X185333485Y-177527965D01*
X185821309Y-177625000D01*
X186318691Y-177625000D01*
X186806515Y-177527965D01*
X187266036Y-177337626D01*
X187679593Y-177061295D01*
X188031295Y-176709593D01*
X188307626Y-176296036D01*
X188497965Y-175836515D01*
X188595000Y-175348691D01*
X188595000Y-174851309D01*
X188497965Y-174363485D01*
X188307626Y-173903964D01*
X188031295Y-173490407D01*
X187679593Y-173138705D01*
X187266036Y-172862374D01*
X186806515Y-172672035D01*
X186318691Y-172575000D01*
X185821309Y-172575000D01*
X185333485Y-172672035D01*
X184873964Y-172862374D01*
X184460407Y-173138705D01*
X184108705Y-173490407D01*
X183832374Y-173903964D01*
X183642035Y-174363485D01*
X183545000Y-174851309D01*
X179438852Y-174851309D01*
X179748989Y-174644083D01*
X180024083Y-174368989D01*
X180240222Y-174045513D01*
X180389102Y-173686086D01*
X180465000Y-173304521D01*
X180465000Y-172915479D01*
X180445293Y-172816407D01*
X182981701Y-170280000D01*
X186562761Y-170280000D01*
X186563385Y-170286332D01*
X186616277Y-170460695D01*
X186702170Y-170621389D01*
X186817762Y-170762238D01*
X186958611Y-170877830D01*
X187119305Y-170963723D01*
X187293668Y-171016615D01*
X187475000Y-171034475D01*
X189475000Y-171034475D01*
X189656332Y-171016615D01*
X189830695Y-170963723D01*
X189991389Y-170877830D01*
X190132238Y-170762238D01*
X190247830Y-170621389D01*
X190333723Y-170460695D01*
X190386615Y-170286332D01*
X190404475Y-170105000D01*
X190404475Y-168105000D01*
X190386615Y-167923668D01*
X190333723Y-167749305D01*
X190247830Y-167588611D01*
X190169774Y-167493500D01*
X190180913Y-167476829D01*
X190326023Y-167126502D01*
X190400000Y-166754596D01*
X190400000Y-166375404D01*
X190326023Y-166003498D01*
X190180913Y-165653171D01*
X189970245Y-165337884D01*
X189927361Y-165295000D01*
X189970245Y-165252116D01*
X190180913Y-164936829D01*
X190326023Y-164586502D01*
X190400000Y-164214596D01*
X190400000Y-163835404D01*
X190326023Y-163463498D01*
X190180913Y-163113171D01*
X189970245Y-162797884D01*
X189927361Y-162755000D01*
X189970245Y-162712116D01*
X190023041Y-162633102D01*
X190083323Y-162559647D01*
X190128116Y-162475845D01*
X190180913Y-162396829D01*
X190217279Y-162309033D01*
X190262073Y-162225230D01*
X190289658Y-162134296D01*
X190326023Y-162046502D01*
X190344562Y-161953303D01*
X190372147Y-161862366D01*
X190381461Y-161767796D01*
X190400000Y-161674596D01*
X190400000Y-161579567D01*
X190409314Y-161485000D01*
X190400000Y-161390433D01*
X190400000Y-161295404D01*
X190381461Y-161202204D01*
X190372147Y-161107634D01*
X190344562Y-161016697D01*
X190326023Y-160923498D01*
X190289658Y-160835704D01*
X190262073Y-160744770D01*
X190217279Y-160660967D01*
X190180913Y-160573171D01*
X190128116Y-160494155D01*
X190083323Y-160410353D01*
X190023041Y-160336898D01*
X189970245Y-160257884D01*
X189927361Y-160215000D01*
X189970245Y-160172116D01*
X190180913Y-159856829D01*
X190326023Y-159506502D01*
X190400000Y-159134596D01*
X190400000Y-158755404D01*
X190326023Y-158383498D01*
X190180913Y-158033171D01*
X189970245Y-157717884D01*
X189927361Y-157675000D01*
X189970245Y-157632116D01*
X190180913Y-157316829D01*
X190326023Y-156966502D01*
X190400000Y-156594596D01*
X190400000Y-156215404D01*
X190326023Y-155843498D01*
X190180913Y-155493171D01*
X189970245Y-155177884D01*
X189702116Y-154909755D01*
X189386829Y-154699087D01*
X189036502Y-154553977D01*
X188664596Y-154480000D01*
X188285404Y-154480000D01*
X187913498Y-154553977D01*
X187563171Y-154699087D01*
X187247884Y-154909755D01*
X186979755Y-155177884D01*
X186944932Y-155230000D01*
X183412711Y-155230000D01*
X183354999Y-155224316D01*
X183297287Y-155230000D01*
X183297280Y-155230000D01*
X183146017Y-155244898D01*
X183124659Y-155247002D01*
X182910259Y-155312039D01*
X182903171Y-155314189D01*
X182699047Y-155423296D01*
X182520130Y-155570130D01*
X182483338Y-155614961D01*
X173473262Y-164625038D01*
X173539102Y-164466086D01*
X173615000Y-164084521D01*
X173615000Y-163695479D01*
X173595293Y-163596407D01*
X182340039Y-154851662D01*
X182384870Y-154814870D01*
X182531704Y-154635953D01*
X182640811Y-154431829D01*
X182697616Y-154244567D01*
X182707998Y-154210342D01*
X182711904Y-154170685D01*
X182725000Y-154037720D01*
X182725000Y-154037713D01*
X182730684Y-153980001D01*
X182725000Y-153922289D01*
X182725000Y-143901309D01*
X184345000Y-143901309D01*
X184345000Y-144398691D01*
X184442035Y-144886515D01*
X184632374Y-145346036D01*
X184908705Y-145759593D01*
X185260407Y-146111295D01*
X185673964Y-146387626D01*
X186133485Y-146577965D01*
X186621309Y-146675000D01*
X187118691Y-146675000D01*
X187606515Y-146577965D01*
X188066036Y-146387626D01*
X188479593Y-146111295D01*
X188831295Y-145759593D01*
X189107626Y-145346036D01*
X189297965Y-144886515D01*
X189395000Y-144398691D01*
X189395000Y-143901309D01*
X189297965Y-143413485D01*
X189107626Y-142953964D01*
X188831295Y-142540407D01*
X188479593Y-142188705D01*
X188066036Y-141912374D01*
X187606515Y-141722035D01*
X187118691Y-141625000D01*
X186621309Y-141625000D01*
X186133485Y-141722035D01*
X185673964Y-141912374D01*
X185260407Y-142188705D01*
X184908705Y-142540407D01*
X184632374Y-142953964D01*
X184442035Y-143413485D01*
X184345000Y-143901309D01*
X182725000Y-143901309D01*
X182725000Y-138102239D01*
X182731332Y-138101615D01*
X182905695Y-138048723D01*
X183066389Y-137962830D01*
X183207238Y-137847238D01*
X183322830Y-137706389D01*
X183408723Y-137545695D01*
X183461615Y-137371332D01*
X183479475Y-137190000D01*
X183479475Y-135190000D01*
X183461615Y-135008668D01*
X183408723Y-134834305D01*
X183322830Y-134673611D01*
X183207238Y-134532762D01*
X183066389Y-134417170D01*
X182905695Y-134331277D01*
X182731332Y-134278385D01*
X182550000Y-134260525D01*
X180550000Y-134260525D01*
X180368668Y-134278385D01*
X180194305Y-134331277D01*
X180033611Y-134417170D01*
X179938500Y-134495226D01*
X179921829Y-134484087D01*
X179571502Y-134338977D01*
X179199596Y-134265000D01*
X178820404Y-134265000D01*
X178448498Y-134338977D01*
X178098171Y-134484087D01*
X177782884Y-134694755D01*
X177740000Y-134737639D01*
X177697116Y-134694755D01*
X177618102Y-134641959D01*
X177544647Y-134581677D01*
X177460845Y-134536884D01*
X177381829Y-134484087D01*
X177294033Y-134447721D01*
X177210230Y-134402927D01*
X177119296Y-134375342D01*
X177031502Y-134338977D01*
X176938303Y-134320438D01*
X176847366Y-134292853D01*
X176752797Y-134283539D01*
X176659596Y-134265000D01*
X174024567Y-134265000D01*
X173930000Y-134255686D01*
X173835433Y-134265000D01*
X173740404Y-134265000D01*
X173647203Y-134283539D01*
X173552634Y-134292853D01*
X173461697Y-134320438D01*
X173368498Y-134338977D01*
X173280704Y-134375342D01*
X173189770Y-134402927D01*
X173105967Y-134447721D01*
X173018171Y-134484087D01*
X172939155Y-134536884D01*
X172855353Y-134581677D01*
X172781898Y-134641959D01*
X172702884Y-134694755D01*
X172660000Y-134737639D01*
X172617116Y-134694755D01*
X172538102Y-134641959D01*
X172464647Y-134581677D01*
X172380845Y-134536884D01*
X172301829Y-134484087D01*
X172214033Y-134447721D01*
X172130230Y-134402927D01*
X172039296Y-134375342D01*
X171951502Y-134338977D01*
X171858303Y-134320438D01*
X171767366Y-134292853D01*
X171672797Y-134283539D01*
X171579596Y-134265000D01*
X168944567Y-134265000D01*
X168850000Y-134255686D01*
X168755433Y-134265000D01*
X168660404Y-134265000D01*
X168567203Y-134283539D01*
X168472634Y-134292853D01*
X168381697Y-134320438D01*
X168288498Y-134338977D01*
X168200704Y-134375342D01*
X168109770Y-134402927D01*
X168025967Y-134447721D01*
X167938171Y-134484087D01*
X167859155Y-134536884D01*
X167775353Y-134581677D01*
X167701898Y-134641959D01*
X167622884Y-134694755D01*
X167555691Y-134761948D01*
X167482233Y-134822233D01*
X167421948Y-134895691D01*
X167354755Y-134962884D01*
X167301959Y-135041898D01*
X167241677Y-135115353D01*
X167196884Y-135199155D01*
X167144087Y-135278171D01*
X167107721Y-135365967D01*
X167062927Y-135449770D01*
X167035342Y-135540704D01*
X166998977Y-135628498D01*
X166980438Y-135721697D01*
X166952853Y-135812634D01*
X166943539Y-135907204D01*
X166925000Y-136000404D01*
X166925000Y-136095433D01*
X166915686Y-136190000D01*
X166925000Y-136284568D01*
X166925001Y-143335000D01*
X166348072Y-143335000D01*
X166238989Y-143225917D01*
X165915513Y-143009778D01*
X165556086Y-142860898D01*
X165174521Y-142785000D01*
X164785479Y-142785000D01*
X164403914Y-142860898D01*
X164044487Y-143009778D01*
X163721011Y-143225917D01*
X163445917Y-143501011D01*
X163229778Y-143824487D01*
X163080898Y-144183914D01*
X163005000Y-144565479D01*
X163005000Y-144954521D01*
X163080898Y-145336086D01*
X163229778Y-145695513D01*
X163445917Y-146018989D01*
X163721011Y-146294083D01*
X164044487Y-146510222D01*
X164403914Y-146659102D01*
X164785479Y-146735000D01*
X165174521Y-146735000D01*
X165556086Y-146659102D01*
X165915513Y-146510222D01*
X166238989Y-146294083D01*
X166348072Y-146185000D01*
X166925000Y-146185000D01*
X166925001Y-167205425D01*
X166915686Y-167300000D01*
X166948369Y-167631828D01*
X166952854Y-167677366D01*
X166971854Y-167740000D01*
X167062927Y-168040229D01*
X167241677Y-168374647D01*
X167356862Y-168515000D01*
X167482234Y-168667767D01*
X167555692Y-168728052D01*
X183391948Y-184564309D01*
X183452233Y-184637767D01*
X183598736Y-184757998D01*
X183745352Y-184878323D01*
X183991703Y-185010000D01*
X184079770Y-185057073D01*
X184442634Y-185167147D01*
X184725433Y-185195000D01*
X184725435Y-185195000D01*
X184820000Y-185204314D01*
X184914565Y-185195000D01*
X186612640Y-185195000D01*
X187225000Y-185807361D01*
X187225000Y-186264665D01*
X187171332Y-186248385D01*
X186990000Y-186230525D01*
X183990000Y-186230525D01*
X183808668Y-186248385D01*
X183634305Y-186301277D01*
X183473611Y-186387170D01*
X183332762Y-186502762D01*
X183217170Y-186643611D01*
X183168321Y-186735000D01*
X179965000Y-186735000D01*
X179965000Y-183864565D01*
X179974314Y-183770000D01*
X179963480Y-183660000D01*
X179937147Y-183392634D01*
X179827073Y-183029770D01*
X179781253Y-182944047D01*
X179648323Y-182695352D01*
X179495543Y-182509189D01*
X179407767Y-182402233D01*
X179334309Y-182341948D01*
X161058057Y-164065697D01*
X160997767Y-163992233D01*
X160704647Y-163751677D01*
X160370230Y-163572927D01*
X160007366Y-163462853D01*
X159724567Y-163435000D01*
X159724565Y-163435000D01*
X159630000Y-163425686D01*
X159535435Y-163435000D01*
X149388485Y-163435000D01*
X149451314Y-163283304D01*
X149370891Y-163049000D01*
X148219000Y-163049000D01*
X148219000Y-163069000D01*
X147761000Y-163069000D01*
X147761000Y-163049000D01*
X147741000Y-163049000D01*
X147741000Y-162591000D01*
X147761000Y-162591000D01*
X147761000Y-162571000D01*
X148219000Y-162571000D01*
X148219000Y-162591000D01*
X149370891Y-162591000D01*
X149451314Y-162356696D01*
X149350917Y-162114296D01*
X149187091Y-161862354D01*
X149147500Y-161821761D01*
X149217116Y-161775245D01*
X149284309Y-161708052D01*
X149357767Y-161647767D01*
X149418052Y-161574309D01*
X149485245Y-161507116D01*
X149538041Y-161428102D01*
X149598323Y-161354647D01*
X149643116Y-161270845D01*
X149695913Y-161191829D01*
X149732279Y-161104033D01*
X149777073Y-161020230D01*
X149804658Y-160929296D01*
X149841023Y-160841502D01*
X149859562Y-160748303D01*
X149887147Y-160657366D01*
X149896461Y-160562796D01*
X149915000Y-160469596D01*
X149915000Y-160374567D01*
X149924314Y-160280000D01*
X149915000Y-160185433D01*
X149915000Y-160090404D01*
X149896461Y-159997204D01*
X149887147Y-159902634D01*
X149859562Y-159811697D01*
X149841023Y-159718498D01*
X149804658Y-159630704D01*
X149777073Y-159539770D01*
X149732279Y-159455967D01*
X149695913Y-159368171D01*
X149643116Y-159289155D01*
X149598323Y-159205353D01*
X149538041Y-159131898D01*
X149485245Y-159052884D01*
X149442361Y-159010000D01*
X149485245Y-158967116D01*
X149695913Y-158651829D01*
X149841023Y-158301502D01*
X149915000Y-157929596D01*
X149915000Y-157550404D01*
X149841023Y-157178498D01*
X149695913Y-156828171D01*
X149485245Y-156512884D01*
X149442361Y-156470000D01*
X149485245Y-156427116D01*
X149538041Y-156348102D01*
X149598323Y-156274647D01*
X149643116Y-156190845D01*
X149695913Y-156111829D01*
X149732279Y-156024033D01*
X149777073Y-155940230D01*
X149804658Y-155849296D01*
X149841023Y-155761502D01*
X149859562Y-155668303D01*
X149887147Y-155577366D01*
X149896461Y-155482796D01*
X149915000Y-155389596D01*
X149915000Y-155294567D01*
X149924314Y-155200000D01*
X149915000Y-155105433D01*
X149915000Y-155010404D01*
X149896461Y-154917204D01*
X149887147Y-154822634D01*
X149859562Y-154731697D01*
X149841023Y-154638498D01*
X149804658Y-154550704D01*
X149777073Y-154459770D01*
X149732279Y-154375967D01*
X149695913Y-154288171D01*
X149643116Y-154209155D01*
X149598323Y-154125353D01*
X149538041Y-154051898D01*
X149485245Y-153972884D01*
X149442361Y-153930000D01*
X149485245Y-153887116D01*
X149695913Y-153571829D01*
X149841023Y-153221502D01*
X149915000Y-152849596D01*
X149915000Y-152470404D01*
X149841023Y-152098498D01*
X149695913Y-151748171D01*
X149485245Y-151432884D01*
X149442361Y-151390000D01*
X149485245Y-151347116D01*
X149538041Y-151268102D01*
X149598323Y-151194647D01*
X149643116Y-151110845D01*
X149695913Y-151031829D01*
X149732279Y-150944033D01*
X149777073Y-150860230D01*
X149804658Y-150769296D01*
X149841023Y-150681502D01*
X149859562Y-150588303D01*
X149887147Y-150497366D01*
X149896461Y-150402797D01*
X149915000Y-150309596D01*
X149915000Y-146594565D01*
X149924314Y-146500000D01*
X149904285Y-146296646D01*
X149965000Y-146357361D01*
X149965001Y-160424107D01*
X149915000Y-160675479D01*
X149915000Y-161064521D01*
X149990898Y-161446086D01*
X150139778Y-161805513D01*
X150355917Y-162128989D01*
X150631011Y-162404083D01*
X150954487Y-162620222D01*
X151313914Y-162769102D01*
X151695479Y-162845000D01*
X152084521Y-162845000D01*
X152466086Y-162769102D01*
X152825513Y-162620222D01*
X153148989Y-162404083D01*
X153424083Y-162128989D01*
X153640222Y-161805513D01*
X153789102Y-161446086D01*
X153865000Y-161064521D01*
X153865000Y-160675479D01*
X153815000Y-160424112D01*
X153815000Y-145654561D01*
X153822401Y-145579420D01*
X153849778Y-145645513D01*
X154065917Y-145968989D01*
X154341011Y-146244083D01*
X154664487Y-146460222D01*
X155023914Y-146609102D01*
X155405479Y-146685000D01*
X155794521Y-146685000D01*
X156176086Y-146609102D01*
X156535513Y-146460222D01*
X156858989Y-146244083D01*
X157105000Y-145998072D01*
X157105001Y-157952636D01*
X155804112Y-159253526D01*
X155591011Y-159395915D01*
X155315917Y-159671009D01*
X155099778Y-159994485D01*
X154950898Y-160353912D01*
X154875000Y-160735477D01*
X154875000Y-161124519D01*
X154950898Y-161506084D01*
X155099778Y-161865511D01*
X155315917Y-162188987D01*
X155591011Y-162464081D01*
X155914487Y-162680220D01*
X156273914Y-162829100D01*
X156655479Y-162904998D01*
X157044521Y-162904998D01*
X157426086Y-162829100D01*
X157785513Y-162680220D01*
X158108989Y-162464081D01*
X158384083Y-162188987D01*
X158526472Y-161975886D01*
X160324308Y-160178051D01*
X160397767Y-160117765D01*
X160554566Y-159926704D01*
X160638323Y-159824646D01*
X160817073Y-159490228D01*
X160820536Y-159478813D01*
X160927147Y-159127364D01*
X160955000Y-158844565D01*
X160955000Y-158844563D01*
X160964314Y-158749998D01*
X160955000Y-158655433D01*
X160955000Y-136565433D01*
X160927147Y-136282634D01*
X160817073Y-135919770D01*
X160809475Y-135905555D01*
X160809475Y-135310000D01*
X160791615Y-135128668D01*
X160738723Y-134954305D01*
X160652830Y-134793611D01*
X160537238Y-134652762D01*
X160396389Y-134537170D01*
X160235695Y-134451277D01*
X160061332Y-134398385D01*
X159880000Y-134380525D01*
X158180000Y-134380525D01*
X157998668Y-134398385D01*
X157824305Y-134451277D01*
X157663611Y-134537170D01*
X157522762Y-134652762D01*
X157494031Y-134687771D01*
X157480908Y-134677001D01*
X157172550Y-134512180D01*
X156837961Y-134410683D01*
X156490000Y-134376412D01*
X156142040Y-134410683D01*
X155807451Y-134512180D01*
X155499093Y-134677001D01*
X155228814Y-134898813D01*
X155220001Y-134909552D01*
X155211187Y-134898813D01*
X155128611Y-134831045D01*
X155130684Y-134809999D01*
X155125000Y-134752287D01*
X155125000Y-134752280D01*
X155107998Y-134579660D01*
X155040811Y-134358171D01*
X154931704Y-134154047D01*
X154784870Y-133975130D01*
X154740039Y-133938338D01*
X153995000Y-133193300D01*
X153995000Y-133105477D01*
X153919102Y-132723912D01*
X153871918Y-132610000D01*
X190539585Y-132610000D01*
X190517273Y-183641828D01*
G37*
%TD.AperFunction*%
%TD*%
M02*
