%TF.GenerationSoftware,KiCad,Pcbnew,(5.1.10)-1*%
%TF.CreationDate,2021-09-16T12:18:45+00:00*%
%TF.ProjectId,LMR,4c4d522e-6b69-4636-9164-5f7063625858,rev?*%
%TF.SameCoordinates,Original*%
%TF.FileFunction,Soldermask,Bot*%
%TF.FilePolarity,Negative*%
%FSLAX46Y46*%
G04 Gerber Fmt 4.6, Leading zero omitted, Abs format (unit mm)*
G04 Created by KiCad (PCBNEW (5.1.10)-1) date 2021-09-16 12:18:45*
%MOMM*%
%LPD*%
G01*
G04 APERTURE LIST*
%ADD10C,3.000000*%
%ADD11R,3.000000X3.000000*%
%ADD12O,1.700000X2.700000*%
%ADD13R,1.700000X2.700000*%
%ADD14O,2.700000X1.700000*%
%ADD15R,2.700000X1.700000*%
%ADD16O,1.600000X1.600000*%
%ADD17O,2.600000X1.600000*%
%ADD18R,2.600000X1.600000*%
G04 APERTURE END LIST*
D10*
%TO.C,J5*%
X9880000Y-102200000D03*
D11*
X4800000Y-102200000D03*
%TD*%
D12*
%TO.C,J4*%
X-55610000Y-104060000D03*
X-55610000Y-107600000D03*
X-53070000Y-104060000D03*
X-53070000Y-107600000D03*
X-50530000Y-104060000D03*
X-50530000Y-107600000D03*
X-47990000Y-104060000D03*
X-47990000Y-107600000D03*
X-45450000Y-104060000D03*
X-45450000Y-107600000D03*
X-42910000Y-104060000D03*
X-42910000Y-107600000D03*
X-40370000Y-104060000D03*
X-40370000Y-107600000D03*
X-37830000Y-104060000D03*
X-37830000Y-107600000D03*
X-35290000Y-104060000D03*
X-35290000Y-107600000D03*
X-32750000Y-104060000D03*
X-32750000Y-107600000D03*
X-30210000Y-104060000D03*
X-30210000Y-107600000D03*
X-27670000Y-104060000D03*
X-27670000Y-107600000D03*
X-25130000Y-104060000D03*
X-25130000Y-107600000D03*
X-22590000Y-104060000D03*
X-22590000Y-107600000D03*
X-20050000Y-104060000D03*
X-20050000Y-107600000D03*
X-17510000Y-104060000D03*
X-17510000Y-107600000D03*
X-14970000Y-104060000D03*
X-14970000Y-107600000D03*
X-12430000Y-104060000D03*
X-12430000Y-107600000D03*
X-9890000Y-104060000D03*
X-9890000Y-107600000D03*
X-7350000Y-104060000D03*
D13*
X-7350000Y-107600000D03*
%TD*%
D14*
%TO.C,U5*%
X-3718320Y-94031400D03*
X14151680Y-81311400D03*
X14151680Y-91471400D03*
X14151680Y-83851400D03*
X-3668320Y-83861400D03*
X-3668320Y-81321400D03*
X-3668320Y-91481400D03*
X14111680Y-94021400D03*
%TD*%
%TO.C,U4*%
X18200000Y-59140000D03*
X18200000Y-56600000D03*
X18200000Y-38820000D03*
X18200000Y-41360000D03*
X18200000Y-33740000D03*
X18200000Y-54060000D03*
X18200000Y-36280000D03*
X18200000Y-51520000D03*
X18200000Y-64220000D03*
D15*
X18200000Y-31200000D03*
D14*
X18200000Y-61680000D03*
X18200000Y-46440000D03*
X17700000Y-69300000D03*
X18200000Y-48980000D03*
X18200000Y-43900000D03*
X18200000Y-66760000D03*
X-1800000Y-69300000D03*
X-1800000Y-66760000D03*
X-1800000Y-64220000D03*
X-1800000Y-61680000D03*
X-1800000Y-59140000D03*
X-1800000Y-56600000D03*
X-1800000Y-54060000D03*
X-1800000Y-51520000D03*
X-1800000Y-48980000D03*
X-1800000Y-46440000D03*
X-1800000Y-43900000D03*
X-1800000Y-41360000D03*
X-1800000Y-38820000D03*
X-1800000Y-36280000D03*
X-1800000Y-33740000D03*
D15*
X-1800000Y-31200000D03*
%TD*%
D14*
%TO.C,U3*%
X-13709120Y-91842120D03*
X-13709120Y-94382120D03*
X-13709120Y-86762120D03*
X-13709120Y-84222120D03*
X-13709120Y-89302120D03*
D15*
X-13709120Y-81682120D03*
D14*
X-23709120Y-94432120D03*
X-23709120Y-91892120D03*
X-23709120Y-89352120D03*
X-23709120Y-86812120D03*
X-23709120Y-84272120D03*
D15*
X-23709120Y-81732120D03*
%TD*%
D12*
%TO.C,U2*%
X-81975000Y-17575000D03*
X-84515000Y-17575000D03*
X-87055000Y-17575000D03*
X-89595000Y-17575000D03*
X-92135000Y-17575000D03*
D13*
X-79435000Y-17575000D03*
D12*
X-98420000Y-57560000D03*
X-95880000Y-58560000D03*
X-93340000Y-57560000D03*
X-90800000Y-58560000D03*
X-88260000Y-57560000D03*
X-85720000Y-58560000D03*
X-83180000Y-58560000D03*
X-80640000Y-58560000D03*
X-78100000Y-57560000D03*
X-75560000Y-58560000D03*
D13*
X-73020000Y-57560000D03*
%TD*%
D12*
%TO.C,U1*%
X-89225000Y-108925000D03*
X-86685000Y-109425000D03*
X-84145000Y-109425000D03*
X-81605000Y-109425000D03*
X-79065000Y-109425000D03*
D13*
X-91765000Y-108925000D03*
D12*
X-72780000Y-68440000D03*
X-75320000Y-68440000D03*
X-77860000Y-68440000D03*
X-80400000Y-68440000D03*
X-82940000Y-69440000D03*
X-85480000Y-68440000D03*
X-88020000Y-68440000D03*
X-90560000Y-68440000D03*
X-93100000Y-69440000D03*
X-95640000Y-68440000D03*
D13*
X-98180000Y-69440000D03*
%TD*%
D14*
%TO.C,J3*%
X-63101600Y-81600200D03*
X-63601600Y-79060200D03*
X-62601600Y-76520200D03*
X-63101600Y-73980200D03*
X-62601600Y-71440200D03*
D15*
X-62601600Y-68900200D03*
%TD*%
D14*
%TO.C,J2*%
X-62439040Y-62768640D03*
X-62439040Y-60228640D03*
X-62439040Y-57688640D03*
X-62439040Y-55148640D03*
X-62939040Y-52608640D03*
D15*
X-62439040Y-50068640D03*
%TD*%
D14*
%TO.C,J1*%
X-62352680Y-43987880D03*
X-62852680Y-41447880D03*
X-62852680Y-38907880D03*
X-62852680Y-36367880D03*
X-62852680Y-33827880D03*
D15*
X-62852680Y-31287880D03*
%TD*%
D16*
%TO.C,A2*%
X-8845040Y-67487800D03*
X-24085040Y-67487800D03*
D17*
X-8845040Y-31927800D03*
D16*
X-24085040Y-64947800D03*
D17*
X-8845040Y-34467800D03*
D16*
X-24085040Y-62407800D03*
X-8845040Y-37007800D03*
X-24085040Y-59867800D03*
X-8845040Y-39547800D03*
X-24085040Y-57327800D03*
X-8845040Y-42087800D03*
X-24085040Y-54787800D03*
X-8845040Y-44627800D03*
X-24085040Y-52247800D03*
D17*
X-8845040Y-47167800D03*
D16*
X-24085040Y-49707800D03*
D17*
X-8845040Y-49707800D03*
D16*
X-24085040Y-47167800D03*
X-8845040Y-52247800D03*
X-24085040Y-44627800D03*
X-8845040Y-54787800D03*
X-24085040Y-42087800D03*
X-8845040Y-57327800D03*
D17*
X-24085040Y-39547800D03*
D16*
X-8845040Y-59867800D03*
X-24085040Y-37007800D03*
X-8845040Y-62407800D03*
D17*
X-24085040Y-34467800D03*
X-8845040Y-64947800D03*
D18*
X-24085040Y-31927800D03*
%TD*%
D14*
%TO.C,A1*%
X-32858800Y-80129600D03*
X-48598800Y-80129600D03*
D17*
X-32858800Y-44569600D03*
D14*
X-48598800Y-77589600D03*
D17*
X-32858800Y-47109600D03*
D14*
X-48598800Y-75049600D03*
X-32858800Y-49649600D03*
X-48598800Y-72509600D03*
X-32858800Y-52189600D03*
X-47598800Y-69969600D03*
X-32858800Y-54729600D03*
X-48598800Y-67429600D03*
X-32858800Y-57269600D03*
X-48598800Y-64889600D03*
D17*
X-32358800Y-59809600D03*
D14*
X-48598800Y-62349600D03*
D17*
X-32358800Y-62349600D03*
D14*
X-47598800Y-59809600D03*
X-32858800Y-64889600D03*
X-48598800Y-57269600D03*
X-32858800Y-67429600D03*
X-48098800Y-54729600D03*
X-32858800Y-69969600D03*
X-48098800Y-52189600D03*
X-32858800Y-72509600D03*
X-48098800Y-49649600D03*
X-32858800Y-75049600D03*
X-48098800Y-47109600D03*
X-32858800Y-77589600D03*
D15*
X-48098800Y-44569600D03*
%TD*%
M02*
