M48
; DRILL file {KiCad (5.1.10)-1} date 09/16/21 12:18:42
; FORMAT={-:-/ absolute / metric / decimal}
; #@! TF.CreationDate,2021-09-16T12:18:42+00:00
; #@! TF.GenerationSoftware,Kicad,Pcbnew,(5.1.10)-1
; #@! TF.FileFunction,Plated,1,2,PTH
FMAT,2
METRIC
T1C0.960
T2C1.000
T3C1.520
T4C3.000
%
G90
G05
T1
X-96.5Y-52.6
X-95.7Y-74.7
X-92.3Y-63.7
X-92.0Y-50.0
X-88.2Y-55.2
X-87.1Y-20.8
X-84.1Y-106.4
X-82.9Y-72.3
X-76.5Y-44.0
X-66.5Y-33.9
X-66.2Y-44.0
X-66.0Y-62.8
X-65.9Y-50.069
X-65.9Y-68.9
X-59.5Y-52.7
X-59.0Y-74.1
X-58.9Y-71.5
X-58.8Y-41.448
X-53.3Y-77.1
X-53.3Y-57.5
X-51.3Y-52.1
X-48.0Y-100.9
X-45.3Y-66.2
X-45.2Y-57.2
X-45.2Y-62.4
X-44.8Y-72.5
X-43.4Y-81.6
X-42.9Y-100.8
X-42.2Y-89.4
X-40.6Y-78.4
X-37.3Y-57.2
X-35.9Y-44.5
X-35.5Y-63.6
X-29.7Y-47.1
X-27.0Y-97.6
X-20.9Y-39.6
X-10.4Y-100.4
X-9.4Y-89.3
X-9.3Y-97.0
X-7.4Y-100.4
X-5.5Y-32.6
X-0.2Y-91.5
X2.0Y-39.0
X7.7Y-76.8
X9.64Y-76.8
X14.2Y-102.3
X17.7Y-91.4
T2
X-98.42Y-58.06
X-98.18Y-68.94
X-95.88Y-58.06
X-95.64Y-68.94
X-93.34Y-58.06
X-93.1Y-68.94
X-92.135Y-17.575
X-91.765Y-109.425
X-90.8Y-58.06
X-90.56Y-68.94
X-89.595Y-17.575
X-89.225Y-109.425
X-88.26Y-58.06
X-88.02Y-68.94
X-87.055Y-17.575
X-86.685Y-109.425
X-85.72Y-58.06
X-85.48Y-68.94
X-84.515Y-17.575
X-84.145Y-109.425
X-83.18Y-58.06
X-82.94Y-68.94
X-81.975Y-17.575
X-81.605Y-109.425
X-80.64Y-58.06
X-80.4Y-68.94
X-79.435Y-17.575
X-79.065Y-109.425
X-78.1Y-58.06
X-77.86Y-68.94
X-75.56Y-58.06
X-75.32Y-68.94
X-73.02Y-58.06
X-72.78Y-68.94
X-63.102Y-68.9
X-63.102Y-71.44
X-63.102Y-73.98
X-63.102Y-76.52
X-63.102Y-79.06
X-63.102Y-81.6
X-62.939Y-50.069
X-62.939Y-52.609
X-62.939Y-55.149
X-62.939Y-57.689
X-62.939Y-60.229
X-62.939Y-62.769
X-62.853Y-31.288
X-62.853Y-33.828
X-62.853Y-36.368
X-62.853Y-38.908
X-62.853Y-41.448
X-62.853Y-43.988
X-55.61Y-104.56
X-55.61Y-107.1
X-53.07Y-104.56
X-53.07Y-107.1
X-50.53Y-104.56
X-50.53Y-107.1
X-48.099Y-44.57
X-48.099Y-47.11
X-48.099Y-49.65
X-48.099Y-52.19
X-48.099Y-54.73
X-48.099Y-57.27
X-48.099Y-59.81
X-48.099Y-62.35
X-48.099Y-64.89
X-48.099Y-67.43
X-48.099Y-69.97
X-48.099Y-72.51
X-48.099Y-75.05
X-48.099Y-77.59
X-48.099Y-80.13
X-47.99Y-104.56
X-47.99Y-107.1
X-45.45Y-104.56
X-45.45Y-107.1
X-42.91Y-104.56
X-42.91Y-107.1
X-40.37Y-104.56
X-40.37Y-107.1
X-37.83Y-104.56
X-37.83Y-107.1
X-35.29Y-104.56
X-35.29Y-107.1
X-32.859Y-44.57
X-32.859Y-47.11
X-32.859Y-49.65
X-32.859Y-52.19
X-32.859Y-54.73
X-32.859Y-57.27
X-32.859Y-59.81
X-32.859Y-62.35
X-32.859Y-64.89
X-32.859Y-67.43
X-32.859Y-69.97
X-32.859Y-72.51
X-32.859Y-75.05
X-32.859Y-77.59
X-32.859Y-80.13
X-32.75Y-104.56
X-32.75Y-107.1
X-30.21Y-104.56
X-30.21Y-107.1
X-27.67Y-104.56
X-27.67Y-107.1
X-25.13Y-104.56
X-25.13Y-107.1
X-24.085Y-31.928
X-24.085Y-34.468
X-24.085Y-37.008
X-24.085Y-39.548
X-24.085Y-42.088
X-24.085Y-44.628
X-24.085Y-47.168
X-24.085Y-49.708
X-24.085Y-52.248
X-24.085Y-54.788
X-24.085Y-57.328
X-24.085Y-59.868
X-24.085Y-62.408
X-24.085Y-64.948
X-24.085Y-67.488
X-23.709Y-81.732
X-23.709Y-84.272
X-23.709Y-86.812
X-23.709Y-89.352
X-23.709Y-91.892
X-23.709Y-94.432
X-22.59Y-104.56
X-22.59Y-107.1
X-20.05Y-104.56
X-20.05Y-107.1
X-17.51Y-104.56
X-17.51Y-107.1
X-14.97Y-104.56
X-14.97Y-107.1
X-13.709Y-81.682
X-13.709Y-84.222
X-13.709Y-86.762
X-13.709Y-89.302
X-13.709Y-91.842
X-13.709Y-94.382
X-12.43Y-104.56
X-12.43Y-107.1
X-9.89Y-104.56
X-9.89Y-107.1
X-8.845Y-31.928
X-8.845Y-34.468
X-8.845Y-37.008
X-8.845Y-39.548
X-8.845Y-42.088
X-8.845Y-44.628
X-8.845Y-47.168
X-8.845Y-49.708
X-8.845Y-52.248
X-8.845Y-54.788
X-8.845Y-57.328
X-8.845Y-59.868
X-8.845Y-62.408
X-8.845Y-64.948
X-8.845Y-67.488
X-7.35Y-104.56
X-7.35Y-107.1
X-3.718Y-94.031
X-3.668Y-81.321
X-3.668Y-83.861
X-3.668Y-91.481
X-1.8Y-31.2
X-1.8Y-33.74
X-1.8Y-36.28
X-1.8Y-38.82
X-1.8Y-41.36
X-1.8Y-43.9
X-1.8Y-46.44
X-1.8Y-48.98
X-1.8Y-51.52
X-1.8Y-54.06
X-1.8Y-56.6
X-1.8Y-59.14
X-1.8Y-61.68
X-1.8Y-64.22
X-1.8Y-66.76
X-1.8Y-69.3
X14.112Y-94.021
X14.152Y-81.311
X14.152Y-83.851
X14.152Y-91.471
X18.2Y-31.2
X18.2Y-33.74
X18.2Y-36.28
X18.2Y-38.82
X18.2Y-41.36
X18.2Y-43.9
X18.2Y-46.44
X18.2Y-48.98
X18.2Y-51.52
X18.2Y-54.06
X18.2Y-56.6
X18.2Y-59.14
X18.2Y-61.68
X18.2Y-64.22
X18.2Y-66.76
X18.2Y-69.3
T3
X4.8Y-102.2
X9.88Y-102.2
T4
X-61.5Y-90.2
X-44.2Y-20.2
X-18.8Y-18.2
X7.8Y-90.2
T0
M30
