%TF.GenerationSoftware,KiCad,Pcbnew,(5.1.10)-1*%
%TF.CreationDate,2022-01-26T12:47:26+00:00*%
%TF.ProjectId,mike_pcb_control,6d696b65-5f70-4636-925f-636f6e74726f,rev?*%
%TF.SameCoordinates,Original*%
%TF.FileFunction,Copper,L1,Top*%
%TF.FilePolarity,Positive*%
%FSLAX46Y46*%
G04 Gerber Fmt 4.6, Leading zero omitted, Abs format (unit mm)*
G04 Created by KiCad (PCBNEW (5.1.10)-1) date 2022-01-26 12:47:26*
%MOMM*%
%LPD*%
G01*
G04 APERTURE LIST*
%TA.AperFunction,ComponentPad*%
%ADD10C,2.000000*%
%TD*%
%TA.AperFunction,ComponentPad*%
%ADD11O,2.000000X2.000000*%
%TD*%
%TA.AperFunction,ComponentPad*%
%ADD12R,2.000000X2.000000*%
%TD*%
%TA.AperFunction,ComponentPad*%
%ADD13O,2.000000X2.600000*%
%TD*%
%TA.AperFunction,ComponentPad*%
%ADD14R,2.000000X2.600000*%
%TD*%
%TA.AperFunction,ViaPad*%
%ADD15C,2.100000*%
%TD*%
%TA.AperFunction,Conductor*%
%ADD16C,0.500000*%
%TD*%
%TA.AperFunction,Conductor*%
%ADD17C,0.254000*%
%TD*%
%TA.AperFunction,Conductor*%
%ADD18C,0.100000*%
%TD*%
G04 APERTURE END LIST*
D10*
%TO.P,C1,2*%
%TO.N,GND*%
X90050000Y-37510000D03*
%TO.P,C1,1*%
%TO.N,+5V*%
X90050000Y-34010000D03*
%TD*%
D11*
%TO.P,J5,3*%
%TO.N,+5V*%
X93820000Y-16570000D03*
%TO.P,J5,2*%
%TO.N,GND*%
X93820000Y-19110000D03*
D12*
%TO.P,J5,1*%
%TO.N,A0*%
X93820000Y-21650000D03*
%TD*%
D11*
%TO.P,J3,3*%
%TO.N,+5V*%
X98470000Y-16570000D03*
%TO.P,J3,2*%
%TO.N,GND*%
X98470000Y-19110000D03*
D12*
%TO.P,J3,1*%
%TO.N,A1*%
X98470000Y-21650000D03*
%TD*%
D11*
%TO.P,J2,6*%
%TO.N,+5V*%
X88280000Y-26560000D03*
%TO.P,J2,5*%
X88280000Y-24020000D03*
%TO.P,J2,4*%
%TO.N,GND*%
X88280000Y-21480000D03*
%TO.P,J2,3*%
X88280000Y-18940000D03*
%TO.P,J2,2*%
%TO.N,TX5V*%
X88280000Y-16400000D03*
D12*
%TO.P,J2,1*%
%TO.N,TX-RX_link*%
X88280000Y-13860000D03*
%TD*%
D11*
%TO.P,J4,40*%
%TO.N,Net-(J4-Pad40)*%
X126620000Y-2595000D03*
%TO.P,J4,39*%
%TO.N,GND*%
X126620000Y-5135000D03*
%TO.P,J4,38*%
%TO.N,Net-(J4-Pad38)*%
X129160000Y-2595000D03*
%TO.P,J4,37*%
%TO.N,Net-(J4-Pad37)*%
X129160000Y-5135000D03*
%TO.P,J4,36*%
%TO.N,Net-(J4-Pad36)*%
X131700000Y-2595000D03*
%TO.P,J4,35*%
%TO.N,Net-(J4-Pad35)*%
X131700000Y-5135000D03*
%TO.P,J4,34*%
%TO.N,GND*%
X134240000Y-2595000D03*
%TO.P,J4,33*%
%TO.N,Net-(J4-Pad33)*%
X134240000Y-5135000D03*
%TO.P,J4,32*%
%TO.N,Net-(J4-Pad32)*%
X136780000Y-2595000D03*
%TO.P,J4,31*%
%TO.N,Net-(J4-Pad31)*%
X136780000Y-5135000D03*
%TO.P,J4,30*%
%TO.N,GND*%
X139320000Y-2595000D03*
%TO.P,J4,29*%
%TO.N,Net-(J4-Pad29)*%
X139320000Y-5135000D03*
%TO.P,J4,28*%
%TO.N,Net-(J4-Pad28)*%
X141860000Y-2595000D03*
%TO.P,J4,27*%
%TO.N,Net-(J4-Pad27)*%
X141860000Y-5135000D03*
%TO.P,J4,26*%
%TO.N,Net-(J4-Pad26)*%
X144400000Y-2595000D03*
%TO.P,J4,25*%
%TO.N,GND*%
X144400000Y-5135000D03*
%TO.P,J4,24*%
%TO.N,Net-(J4-Pad24)*%
X146940000Y-2595000D03*
%TO.P,J4,23*%
%TO.N,Net-(J4-Pad23)*%
X146940000Y-5135000D03*
%TO.P,J4,22*%
%TO.N,Net-(J4-Pad22)*%
X149480000Y-2595000D03*
%TO.P,J4,21*%
%TO.N,Net-(J4-Pad21)*%
X149480000Y-5135000D03*
%TO.P,J4,20*%
%TO.N,GND*%
X152020000Y-2595000D03*
%TO.P,J4,19*%
%TO.N,Net-(J4-Pad19)*%
X152020000Y-5135000D03*
%TO.P,J4,18*%
%TO.N,Net-(J4-Pad18)*%
X154560000Y-2595000D03*
%TO.P,J4,17*%
%TO.N,+3V3*%
X154560000Y-5135000D03*
%TO.P,J4,16*%
%TO.N,Net-(J4-Pad16)*%
X157100000Y-2595000D03*
%TO.P,J4,15*%
%TO.N,Net-(J4-Pad15)*%
X157100000Y-5135000D03*
%TO.P,J4,14*%
%TO.N,GND*%
X159640000Y-2595000D03*
%TO.P,J4,13*%
%TO.N,Net-(J4-Pad13)*%
X159640000Y-5135000D03*
%TO.P,J4,12*%
%TO.N,Net-(J4-Pad12)*%
X162180000Y-2595000D03*
%TO.P,J4,11*%
%TO.N,Net-(J4-Pad11)*%
X162180000Y-5135000D03*
%TO.P,J4,10*%
%TO.N,RX3V3*%
X164720000Y-2595000D03*
%TO.P,J4,9*%
%TO.N,GND*%
X164720000Y-5135000D03*
%TO.P,J4,8*%
%TO.N,TX3V3*%
X167260000Y-2595000D03*
%TO.P,J4,7*%
%TO.N,Net-(J4-Pad7)*%
X167260000Y-5135000D03*
%TO.P,J4,6*%
%TO.N,GND*%
X169800000Y-2595000D03*
%TO.P,J4,5*%
%TO.N,SCL3V3*%
X169800000Y-5135000D03*
%TO.P,J4,4*%
%TO.N,+5V*%
X172340000Y-2595000D03*
%TO.P,J4,3*%
%TO.N,SDA3V3*%
X172340000Y-5135000D03*
%TO.P,J4,2*%
%TO.N,+5V*%
X174880000Y-2595000D03*
D12*
%TO.P,J4,1*%
%TO.N,+3V3*%
X174880000Y-5135000D03*
%TD*%
D11*
%TO.P,U4,21*%
%TO.N,Net-(U4-Pad21)*%
X169410000Y-39180000D03*
%TO.P,U4,22*%
%TO.N,Net-(U4-Pad22)*%
X166870000Y-39180000D03*
%TO.P,U4,29*%
%TO.N,Net-(U4-Pad29)*%
X149090000Y-39180000D03*
%TO.P,U4,28*%
%TO.N,Net-(U4-Pad28)*%
X151630000Y-39180000D03*
%TO.P,U4,31*%
%TO.N,Net-(U4-Pad31)*%
X144010000Y-39180000D03*
%TO.P,U4,23*%
%TO.N,Net-(U4-Pad23)*%
X164330000Y-39180000D03*
%TO.P,U4,30*%
%TO.N,Net-(U4-Pad30)*%
X146550000Y-39180000D03*
%TO.P,U4,24*%
%TO.N,Net-(U4-Pad24)*%
X161790000Y-39180000D03*
%TO.P,U4,19*%
%TO.N,Net-(U4-Pad19)*%
X174490000Y-39180000D03*
D12*
%TO.P,U4,32*%
%TO.N,Net-(U4-Pad32)*%
X141470000Y-39180000D03*
D11*
%TO.P,U4,20*%
%TO.N,Net-(U4-Pad20)*%
X171950000Y-39180000D03*
%TO.P,U4,26*%
%TO.N,Net-(U4-Pad26)*%
X156710000Y-39180000D03*
%TO.P,U4,17*%
%TO.N,SDA_IMU*%
X179570000Y-39180000D03*
%TO.P,U4,25*%
%TO.N,Net-(U4-Pad25)*%
X159250000Y-39180000D03*
%TO.P,U4,27*%
%TO.N,Net-(U4-Pad27)*%
X154170000Y-39180000D03*
%TO.P,U4,18*%
%TO.N,SCL_IMU*%
X177030000Y-39180000D03*
%TO.P,U4,16*%
%TO.N,Net-(U4-Pad16)*%
X179570000Y-59180000D03*
%TO.P,U4,15*%
%TO.N,Net-(U4-Pad15)*%
X177030000Y-59180000D03*
%TO.P,U4,14*%
%TO.N,Net-(U4-Pad14)*%
X174490000Y-59180000D03*
%TO.P,U4,13*%
%TO.N,Net-(U4-Pad13)*%
X171950000Y-59180000D03*
%TO.P,U4,12*%
%TO.N,Net-(U4-Pad12)*%
X169410000Y-59180000D03*
%TO.P,U4,11*%
%TO.N,Net-(U4-Pad11)*%
X166870000Y-59180000D03*
%TO.P,U4,10*%
%TO.N,Net-(U4-Pad10)*%
X164330000Y-59180000D03*
%TO.P,U4,9*%
%TO.N,Net-(U4-Pad9)*%
X161790000Y-59180000D03*
%TO.P,U4,8*%
%TO.N,Net-(U4-Pad8)*%
X159250000Y-59180000D03*
%TO.P,U4,7*%
%TO.N,Net-(U4-Pad7)*%
X156710000Y-59180000D03*
%TO.P,U4,6*%
%TO.N,Net-(U4-Pad6)*%
X154170000Y-59180000D03*
%TO.P,U4,5*%
%TO.N,Net-(U4-Pad5)*%
X151630000Y-59180000D03*
%TO.P,U4,4*%
%TO.N,GND*%
X149090000Y-59180000D03*
%TO.P,U4,3*%
%TO.N,Net-(U4-Pad3)*%
X146550000Y-59180000D03*
%TO.P,U4,2*%
%TO.N,+3.3VA*%
X144010000Y-59180000D03*
D12*
%TO.P,U4,1*%
%TO.N,Net-(U4-Pad1)*%
X141470000Y-59180000D03*
%TD*%
D11*
%TO.P,U3,8*%
%TO.N,RX5V*%
X103780000Y-10750000D03*
%TO.P,U3,7*%
%TO.N,TX5V*%
X103780000Y-8210000D03*
%TO.P,U3,10*%
%TO.N,+5V*%
X103780000Y-15830000D03*
%TO.P,U3,11*%
%TO.N,SDA5V*%
X103780000Y-18370000D03*
%TO.P,U3,9*%
%TO.N,GND*%
X103780000Y-13290000D03*
D12*
%TO.P,U3,12*%
%TO.N,SCL5V*%
X103780000Y-20910000D03*
D11*
%TO.P,U3,6*%
%TO.N,RX3V3*%
X113780000Y-8160000D03*
%TO.P,U3,5*%
%TO.N,TX3V3*%
X113780000Y-10700000D03*
%TO.P,U3,4*%
%TO.N,GND*%
X113780000Y-13240000D03*
%TO.P,U3,3*%
%TO.N,+3V3*%
X113780000Y-15780000D03*
%TO.P,U3,2*%
%TO.N,SDA3V3*%
X113780000Y-18320000D03*
D12*
%TO.P,U3,1*%
%TO.N,SCL3V3*%
X113780000Y-20860000D03*
%TD*%
D11*
%TO.P,J1,6*%
%TO.N,+5V*%
X94210000Y-29600000D03*
%TO.P,J1,5*%
X96750000Y-29600000D03*
%TO.P,J1,4*%
%TO.N,GND*%
X99290000Y-29600000D03*
%TO.P,J1,3*%
X101830000Y-29600000D03*
%TO.P,J1,2*%
%TO.N,SDA5V*%
X104370000Y-29600000D03*
D12*
%TO.P,J1,1*%
%TO.N,SCL5V*%
X106910000Y-29600000D03*
%TD*%
D11*
%TO.P,A2,16*%
%TO.N,Net-(A2-Pad16)*%
X129140000Y-42200000D03*
%TO.P,A2,15*%
%TO.N,Net-(A2-Pad15)*%
X129140000Y-57440000D03*
D13*
%TO.P,A2,30*%
%TO.N,+5V*%
X93580000Y-42200000D03*
D11*
%TO.P,A2,14*%
%TO.N,Net-(A2-Pad14)*%
X126600000Y-57440000D03*
D13*
%TO.P,A2,29*%
%TO.N,GND*%
X96120000Y-42200000D03*
D11*
%TO.P,A2,13*%
%TO.N,Net-(A2-Pad13)*%
X124060000Y-57440000D03*
%TO.P,A2,28*%
%TO.N,Net-(A2-Pad28)*%
X98660000Y-42200000D03*
%TO.P,A2,12*%
%TO.N,Net-(A2-Pad12)*%
X121520000Y-57440000D03*
%TO.P,A2,27*%
%TO.N,Net-(A2-Pad27)*%
X101200000Y-42200000D03*
%TO.P,A2,11*%
%TO.N,Net-(A2-Pad11)*%
X118980000Y-57440000D03*
%TO.P,A2,26*%
%TO.N,Net-(A2-Pad26)*%
X103740000Y-42200000D03*
%TO.P,A2,10*%
%TO.N,Net-(A2-Pad10)*%
X116440000Y-57440000D03*
%TO.P,A2,25*%
%TO.N,Net-(A2-Pad25)*%
X106280000Y-42200000D03*
%TO.P,A2,9*%
%TO.N,Net-(A2-Pad9)*%
X113900000Y-57440000D03*
D13*
%TO.P,A2,24*%
%TO.N,SCL_IMU*%
X108820000Y-42200000D03*
D11*
%TO.P,A2,8*%
%TO.N,Net-(A2-Pad8)*%
X111360000Y-57440000D03*
D13*
%TO.P,A2,23*%
%TO.N,SDA_IMU*%
X111360000Y-42200000D03*
D11*
%TO.P,A2,7*%
%TO.N,Net-(A2-Pad7)*%
X108820000Y-57440000D03*
%TO.P,A2,22*%
%TO.N,Net-(A2-Pad22)*%
X113900000Y-42200000D03*
%TO.P,A2,6*%
%TO.N,Net-(A2-Pad6)*%
X106280000Y-57440000D03*
%TO.P,A2,21*%
%TO.N,Net-(A2-Pad21)*%
X116440000Y-42200000D03*
%TO.P,A2,5*%
%TO.N,Net-(A2-Pad5)*%
X103740000Y-57440000D03*
%TO.P,A2,20*%
%TO.N,A1*%
X118980000Y-42200000D03*
D13*
%TO.P,A2,4*%
%TO.N,GND*%
X101200000Y-57440000D03*
D11*
%TO.P,A2,19*%
%TO.N,A0*%
X121520000Y-42200000D03*
%TO.P,A2,3*%
%TO.N,Net-(A2-Pad3)*%
X98660000Y-57440000D03*
%TO.P,A2,18*%
%TO.N,Net-(A2-Pad18)*%
X124060000Y-42200000D03*
D13*
%TO.P,A2,2*%
%TO.N,RX5V*%
X96120000Y-57440000D03*
%TO.P,A2,17*%
%TO.N,+3.3VA*%
X126600000Y-42200000D03*
D14*
%TO.P,A2,1*%
%TO.N,TX-RX_link*%
X93580000Y-57440000D03*
%TD*%
D15*
%TO.N,GND*%
X108500000Y-13280000D03*
X144420000Y-8160000D03*
X126610000Y-7970000D03*
X164710000Y-7970000D03*
X150340000Y-56090000D03*
X96110000Y-14450002D03*
X101200000Y-49151000D03*
X95978000Y-26840000D03*
X93438000Y-26687000D03*
%TO.N,RX5V*%
X91025000Y-49801000D03*
X98899000Y-10685000D03*
%TO.N,A1*%
X101550000Y-23420000D03*
X118838000Y-36974000D03*
%TO.N,A0*%
X99650000Y-25149998D03*
X121505002Y-38879000D03*
%TO.N,TX-RX_link*%
X90390000Y-52976000D03*
%TD*%
D16*
%TO.N,RX5V*%
X91025000Y-49801000D02*
X87469000Y-46245000D01*
X87469000Y-46245000D02*
X87469000Y-31005000D01*
X87469000Y-31005000D02*
X90644000Y-27830000D01*
X90644000Y-27830000D02*
X90644000Y-13479000D01*
X93438000Y-10685000D02*
X98899000Y-10685000D01*
X90644000Y-13479000D02*
X93438000Y-10685000D01*
%TO.N,A1*%
X112742000Y-29354000D02*
X112742000Y-30878000D01*
X112742000Y-30878000D02*
X118838000Y-36974000D01*
X106808000Y-23420000D02*
X112742000Y-29354000D01*
X101550000Y-23420000D02*
X106808000Y-23420000D01*
%TO.N,A0*%
X118203000Y-38879000D02*
X121505002Y-38879000D01*
X110964000Y-31640000D02*
X118203000Y-38879000D01*
X110964000Y-29608000D02*
X110964000Y-31640000D01*
X106505998Y-25149998D02*
X110964000Y-29608000D01*
X99650000Y-25149998D02*
X106505998Y-25149998D01*
%TO.N,TX-RX_link*%
X90390000Y-52976000D02*
X85691000Y-48277000D01*
X85691000Y-16449000D02*
X88280000Y-13860000D01*
X85691000Y-48277000D02*
X85691000Y-16449000D01*
%TD*%
D17*
%TO.N,GND*%
X149602361Y6275633D02*
X153862828Y6085280D01*
X158114037Y5746359D01*
X162350807Y5259280D01*
X166568052Y4624628D01*
X170760510Y3843197D01*
X174923209Y2915912D01*
X179050967Y1843928D01*
X183139980Y628188D01*
X185757999Y-237228D01*
X185758001Y-65338000D01*
X84800421Y-65338000D01*
X84772556Y-56140000D01*
X92080596Y-56140000D01*
X92080596Y-58740000D01*
X92090192Y-58837429D01*
X92118611Y-58931114D01*
X92164761Y-59017454D01*
X92226868Y-59093132D01*
X92302546Y-59155239D01*
X92388886Y-59201389D01*
X92482571Y-59229808D01*
X92580000Y-59239404D01*
X94580000Y-59239404D01*
X94677429Y-59229808D01*
X94771114Y-59201389D01*
X94857454Y-59155239D01*
X94933132Y-59093132D01*
X94995239Y-59017454D01*
X95041389Y-58931114D01*
X95069808Y-58837429D01*
X95071878Y-58816412D01*
X95284288Y-58990732D01*
X95544352Y-59129739D01*
X95826538Y-59215339D01*
X96120000Y-59244243D01*
X96413463Y-59215339D01*
X96695649Y-59129739D01*
X96955713Y-58990732D01*
X97183660Y-58803660D01*
X97370732Y-58575713D01*
X97480817Y-58369758D01*
X97497204Y-58394282D01*
X97705718Y-58602796D01*
X97950905Y-58766624D01*
X98223341Y-58879471D01*
X98512558Y-58937000D01*
X98807442Y-58937000D01*
X99096659Y-58879471D01*
X99369095Y-58766624D01*
X99614282Y-58602796D01*
X99822796Y-58394282D01*
X99986624Y-58149095D01*
X100099471Y-57876659D01*
X100157000Y-57587442D01*
X100157000Y-57292558D01*
X102243000Y-57292558D01*
X102243000Y-57587442D01*
X102300529Y-57876659D01*
X102413376Y-58149095D01*
X102577204Y-58394282D01*
X102785718Y-58602796D01*
X103030905Y-58766624D01*
X103303341Y-58879471D01*
X103592558Y-58937000D01*
X103887442Y-58937000D01*
X104176659Y-58879471D01*
X104449095Y-58766624D01*
X104694282Y-58602796D01*
X104902796Y-58394282D01*
X105010000Y-58233839D01*
X105117204Y-58394282D01*
X105325718Y-58602796D01*
X105570905Y-58766624D01*
X105843341Y-58879471D01*
X106132558Y-58937000D01*
X106427442Y-58937000D01*
X106716659Y-58879471D01*
X106989095Y-58766624D01*
X107234282Y-58602796D01*
X107442796Y-58394282D01*
X107550000Y-58233839D01*
X107657204Y-58394282D01*
X107865718Y-58602796D01*
X108110905Y-58766624D01*
X108383341Y-58879471D01*
X108672558Y-58937000D01*
X108967442Y-58937000D01*
X109256659Y-58879471D01*
X109529095Y-58766624D01*
X109774282Y-58602796D01*
X109982796Y-58394282D01*
X110090000Y-58233839D01*
X110197204Y-58394282D01*
X110405718Y-58602796D01*
X110650905Y-58766624D01*
X110923341Y-58879471D01*
X111212558Y-58937000D01*
X111507442Y-58937000D01*
X111796659Y-58879471D01*
X112069095Y-58766624D01*
X112314282Y-58602796D01*
X112522796Y-58394282D01*
X112630000Y-58233839D01*
X112737204Y-58394282D01*
X112945718Y-58602796D01*
X113190905Y-58766624D01*
X113463341Y-58879471D01*
X113752558Y-58937000D01*
X114047442Y-58937000D01*
X114336659Y-58879471D01*
X114609095Y-58766624D01*
X114854282Y-58602796D01*
X115062796Y-58394282D01*
X115170000Y-58233839D01*
X115277204Y-58394282D01*
X115485718Y-58602796D01*
X115730905Y-58766624D01*
X116003341Y-58879471D01*
X116292558Y-58937000D01*
X116587442Y-58937000D01*
X116876659Y-58879471D01*
X117149095Y-58766624D01*
X117394282Y-58602796D01*
X117602796Y-58394282D01*
X117710000Y-58233839D01*
X117817204Y-58394282D01*
X118025718Y-58602796D01*
X118270905Y-58766624D01*
X118543341Y-58879471D01*
X118832558Y-58937000D01*
X119127442Y-58937000D01*
X119416659Y-58879471D01*
X119689095Y-58766624D01*
X119934282Y-58602796D01*
X120142796Y-58394282D01*
X120250000Y-58233839D01*
X120357204Y-58394282D01*
X120565718Y-58602796D01*
X120810905Y-58766624D01*
X121083341Y-58879471D01*
X121372558Y-58937000D01*
X121667442Y-58937000D01*
X121956659Y-58879471D01*
X122229095Y-58766624D01*
X122474282Y-58602796D01*
X122682796Y-58394282D01*
X122790000Y-58233839D01*
X122897204Y-58394282D01*
X123105718Y-58602796D01*
X123350905Y-58766624D01*
X123623341Y-58879471D01*
X123912558Y-58937000D01*
X124207442Y-58937000D01*
X124496659Y-58879471D01*
X124769095Y-58766624D01*
X125014282Y-58602796D01*
X125222796Y-58394282D01*
X125330000Y-58233839D01*
X125437204Y-58394282D01*
X125645718Y-58602796D01*
X125890905Y-58766624D01*
X126163341Y-58879471D01*
X126452558Y-58937000D01*
X126747442Y-58937000D01*
X127036659Y-58879471D01*
X127309095Y-58766624D01*
X127554282Y-58602796D01*
X127762796Y-58394282D01*
X127870000Y-58233839D01*
X127977204Y-58394282D01*
X128185718Y-58602796D01*
X128430905Y-58766624D01*
X128703341Y-58879471D01*
X128992558Y-58937000D01*
X129287442Y-58937000D01*
X129576659Y-58879471D01*
X129849095Y-58766624D01*
X130094282Y-58602796D01*
X130302796Y-58394282D01*
X130445974Y-58180000D01*
X139970596Y-58180000D01*
X139970596Y-60180000D01*
X139980192Y-60277429D01*
X140008611Y-60371114D01*
X140054761Y-60457454D01*
X140116868Y-60533132D01*
X140192546Y-60595239D01*
X140278886Y-60641389D01*
X140372571Y-60669808D01*
X140470000Y-60679404D01*
X142470000Y-60679404D01*
X142567429Y-60669808D01*
X142661114Y-60641389D01*
X142747454Y-60595239D01*
X142823132Y-60533132D01*
X142885239Y-60457454D01*
X142931389Y-60371114D01*
X142959808Y-60277429D01*
X142962547Y-60249625D01*
X143055718Y-60342796D01*
X143300905Y-60506624D01*
X143573341Y-60619471D01*
X143862558Y-60677000D01*
X144157442Y-60677000D01*
X144446659Y-60619471D01*
X144719095Y-60506624D01*
X144964282Y-60342796D01*
X145172796Y-60134282D01*
X145280000Y-59973839D01*
X145387204Y-60134282D01*
X145595718Y-60342796D01*
X145840905Y-60506624D01*
X146113341Y-60619471D01*
X146402558Y-60677000D01*
X146697442Y-60677000D01*
X146986659Y-60619471D01*
X147259095Y-60506624D01*
X147504282Y-60342796D01*
X147712796Y-60134282D01*
X147876624Y-59889095D01*
X147989471Y-59616659D01*
X148047000Y-59327442D01*
X148047000Y-59032558D01*
X150133000Y-59032558D01*
X150133000Y-59327442D01*
X150190529Y-59616659D01*
X150303376Y-59889095D01*
X150467204Y-60134282D01*
X150675718Y-60342796D01*
X150920905Y-60506624D01*
X151193341Y-60619471D01*
X151482558Y-60677000D01*
X151777442Y-60677000D01*
X152066659Y-60619471D01*
X152339095Y-60506624D01*
X152584282Y-60342796D01*
X152792796Y-60134282D01*
X152900000Y-59973839D01*
X153007204Y-60134282D01*
X153215718Y-60342796D01*
X153460905Y-60506624D01*
X153733341Y-60619471D01*
X154022558Y-60677000D01*
X154317442Y-60677000D01*
X154606659Y-60619471D01*
X154879095Y-60506624D01*
X155124282Y-60342796D01*
X155332796Y-60134282D01*
X155440000Y-59973839D01*
X155547204Y-60134282D01*
X155755718Y-60342796D01*
X156000905Y-60506624D01*
X156273341Y-60619471D01*
X156562558Y-60677000D01*
X156857442Y-60677000D01*
X157146659Y-60619471D01*
X157419095Y-60506624D01*
X157664282Y-60342796D01*
X157872796Y-60134282D01*
X157980000Y-59973839D01*
X158087204Y-60134282D01*
X158295718Y-60342796D01*
X158540905Y-60506624D01*
X158813341Y-60619471D01*
X159102558Y-60677000D01*
X159397442Y-60677000D01*
X159686659Y-60619471D01*
X159959095Y-60506624D01*
X160204282Y-60342796D01*
X160412796Y-60134282D01*
X160520000Y-59973839D01*
X160627204Y-60134282D01*
X160835718Y-60342796D01*
X161080905Y-60506624D01*
X161353341Y-60619471D01*
X161642558Y-60677000D01*
X161937442Y-60677000D01*
X162226659Y-60619471D01*
X162499095Y-60506624D01*
X162744282Y-60342796D01*
X162952796Y-60134282D01*
X163060000Y-59973839D01*
X163167204Y-60134282D01*
X163375718Y-60342796D01*
X163620905Y-60506624D01*
X163893341Y-60619471D01*
X164182558Y-60677000D01*
X164477442Y-60677000D01*
X164766659Y-60619471D01*
X165039095Y-60506624D01*
X165284282Y-60342796D01*
X165492796Y-60134282D01*
X165600000Y-59973839D01*
X165707204Y-60134282D01*
X165915718Y-60342796D01*
X166160905Y-60506624D01*
X166433341Y-60619471D01*
X166722558Y-60677000D01*
X167017442Y-60677000D01*
X167306659Y-60619471D01*
X167579095Y-60506624D01*
X167824282Y-60342796D01*
X168032796Y-60134282D01*
X168140000Y-59973839D01*
X168247204Y-60134282D01*
X168455718Y-60342796D01*
X168700905Y-60506624D01*
X168973341Y-60619471D01*
X169262558Y-60677000D01*
X169557442Y-60677000D01*
X169846659Y-60619471D01*
X170119095Y-60506624D01*
X170364282Y-60342796D01*
X170572796Y-60134282D01*
X170680000Y-59973839D01*
X170787204Y-60134282D01*
X170995718Y-60342796D01*
X171240905Y-60506624D01*
X171513341Y-60619471D01*
X171802558Y-60677000D01*
X172097442Y-60677000D01*
X172386659Y-60619471D01*
X172659095Y-60506624D01*
X172904282Y-60342796D01*
X173112796Y-60134282D01*
X173220000Y-59973839D01*
X173327204Y-60134282D01*
X173535718Y-60342796D01*
X173780905Y-60506624D01*
X174053341Y-60619471D01*
X174342558Y-60677000D01*
X174637442Y-60677000D01*
X174926659Y-60619471D01*
X175199095Y-60506624D01*
X175444282Y-60342796D01*
X175652796Y-60134282D01*
X175760000Y-59973839D01*
X175867204Y-60134282D01*
X176075718Y-60342796D01*
X176320905Y-60506624D01*
X176593341Y-60619471D01*
X176882558Y-60677000D01*
X177177442Y-60677000D01*
X177466659Y-60619471D01*
X177739095Y-60506624D01*
X177984282Y-60342796D01*
X178192796Y-60134282D01*
X178300000Y-59973839D01*
X178407204Y-60134282D01*
X178615718Y-60342796D01*
X178860905Y-60506624D01*
X179133341Y-60619471D01*
X179422558Y-60677000D01*
X179717442Y-60677000D01*
X180006659Y-60619471D01*
X180279095Y-60506624D01*
X180524282Y-60342796D01*
X180732796Y-60134282D01*
X180896624Y-59889095D01*
X181009471Y-59616659D01*
X181067000Y-59327442D01*
X181067000Y-59032558D01*
X181009471Y-58743341D01*
X180896624Y-58470905D01*
X180732796Y-58225718D01*
X180524282Y-58017204D01*
X180279095Y-57853376D01*
X180006659Y-57740529D01*
X179717442Y-57683000D01*
X179422558Y-57683000D01*
X179133341Y-57740529D01*
X178860905Y-57853376D01*
X178615718Y-58017204D01*
X178407204Y-58225718D01*
X178300000Y-58386161D01*
X178192796Y-58225718D01*
X177984282Y-58017204D01*
X177739095Y-57853376D01*
X177466659Y-57740529D01*
X177177442Y-57683000D01*
X176882558Y-57683000D01*
X176593341Y-57740529D01*
X176320905Y-57853376D01*
X176075718Y-58017204D01*
X175867204Y-58225718D01*
X175760000Y-58386161D01*
X175652796Y-58225718D01*
X175444282Y-58017204D01*
X175199095Y-57853376D01*
X174926659Y-57740529D01*
X174637442Y-57683000D01*
X174342558Y-57683000D01*
X174053341Y-57740529D01*
X173780905Y-57853376D01*
X173535718Y-58017204D01*
X173327204Y-58225718D01*
X173220000Y-58386161D01*
X173112796Y-58225718D01*
X172904282Y-58017204D01*
X172659095Y-57853376D01*
X172386659Y-57740529D01*
X172097442Y-57683000D01*
X171802558Y-57683000D01*
X171513341Y-57740529D01*
X171240905Y-57853376D01*
X170995718Y-58017204D01*
X170787204Y-58225718D01*
X170680000Y-58386161D01*
X170572796Y-58225718D01*
X170364282Y-58017204D01*
X170119095Y-57853376D01*
X169846659Y-57740529D01*
X169557442Y-57683000D01*
X169262558Y-57683000D01*
X168973341Y-57740529D01*
X168700905Y-57853376D01*
X168455718Y-58017204D01*
X168247204Y-58225718D01*
X168140000Y-58386161D01*
X168032796Y-58225718D01*
X167824282Y-58017204D01*
X167579095Y-57853376D01*
X167306659Y-57740529D01*
X167017442Y-57683000D01*
X166722558Y-57683000D01*
X166433341Y-57740529D01*
X166160905Y-57853376D01*
X165915718Y-58017204D01*
X165707204Y-58225718D01*
X165600000Y-58386161D01*
X165492796Y-58225718D01*
X165284282Y-58017204D01*
X165039095Y-57853376D01*
X164766659Y-57740529D01*
X164477442Y-57683000D01*
X164182558Y-57683000D01*
X163893341Y-57740529D01*
X163620905Y-57853376D01*
X163375718Y-58017204D01*
X163167204Y-58225718D01*
X163060000Y-58386161D01*
X162952796Y-58225718D01*
X162744282Y-58017204D01*
X162499095Y-57853376D01*
X162226659Y-57740529D01*
X161937442Y-57683000D01*
X161642558Y-57683000D01*
X161353341Y-57740529D01*
X161080905Y-57853376D01*
X160835718Y-58017204D01*
X160627204Y-58225718D01*
X160520000Y-58386161D01*
X160412796Y-58225718D01*
X160204282Y-58017204D01*
X159959095Y-57853376D01*
X159686659Y-57740529D01*
X159397442Y-57683000D01*
X159102558Y-57683000D01*
X158813341Y-57740529D01*
X158540905Y-57853376D01*
X158295718Y-58017204D01*
X158087204Y-58225718D01*
X157980000Y-58386161D01*
X157872796Y-58225718D01*
X157664282Y-58017204D01*
X157419095Y-57853376D01*
X157146659Y-57740529D01*
X156857442Y-57683000D01*
X156562558Y-57683000D01*
X156273341Y-57740529D01*
X156000905Y-57853376D01*
X155755718Y-58017204D01*
X155547204Y-58225718D01*
X155440000Y-58386161D01*
X155332796Y-58225718D01*
X155124282Y-58017204D01*
X154879095Y-57853376D01*
X154606659Y-57740529D01*
X154317442Y-57683000D01*
X154022558Y-57683000D01*
X153733341Y-57740529D01*
X153460905Y-57853376D01*
X153215718Y-58017204D01*
X153007204Y-58225718D01*
X152900000Y-58386161D01*
X152792796Y-58225718D01*
X152584282Y-58017204D01*
X152339095Y-57853376D01*
X152066659Y-57740529D01*
X151777442Y-57683000D01*
X151482558Y-57683000D01*
X151193341Y-57740529D01*
X150920905Y-57853376D01*
X150675718Y-58017204D01*
X150467204Y-58225718D01*
X150303376Y-58470905D01*
X150190529Y-58743341D01*
X150133000Y-59032558D01*
X148047000Y-59032558D01*
X147989471Y-58743341D01*
X147876624Y-58470905D01*
X147712796Y-58225718D01*
X147504282Y-58017204D01*
X147259095Y-57853376D01*
X146986659Y-57740529D01*
X146697442Y-57683000D01*
X146402558Y-57683000D01*
X146113341Y-57740529D01*
X145840905Y-57853376D01*
X145595718Y-58017204D01*
X145387204Y-58225718D01*
X145280000Y-58386161D01*
X145172796Y-58225718D01*
X144964282Y-58017204D01*
X144719095Y-57853376D01*
X144446659Y-57740529D01*
X144157442Y-57683000D01*
X143862558Y-57683000D01*
X143573341Y-57740529D01*
X143300905Y-57853376D01*
X143055718Y-58017204D01*
X142962547Y-58110375D01*
X142959808Y-58082571D01*
X142931389Y-57988886D01*
X142885239Y-57902546D01*
X142823132Y-57826868D01*
X142747454Y-57764761D01*
X142661114Y-57718611D01*
X142567429Y-57690192D01*
X142470000Y-57680596D01*
X140470000Y-57680596D01*
X140372571Y-57690192D01*
X140278886Y-57718611D01*
X140192546Y-57764761D01*
X140116868Y-57826868D01*
X140054761Y-57902546D01*
X140008611Y-57988886D01*
X139980192Y-58082571D01*
X139970596Y-58180000D01*
X130445974Y-58180000D01*
X130466624Y-58149095D01*
X130579471Y-57876659D01*
X130637000Y-57587442D01*
X130637000Y-57292558D01*
X130579471Y-57003341D01*
X130466624Y-56730905D01*
X130302796Y-56485718D01*
X130094282Y-56277204D01*
X129849095Y-56113376D01*
X129576659Y-56000529D01*
X129287442Y-55943000D01*
X128992558Y-55943000D01*
X128703341Y-56000529D01*
X128430905Y-56113376D01*
X128185718Y-56277204D01*
X127977204Y-56485718D01*
X127870000Y-56646161D01*
X127762796Y-56485718D01*
X127554282Y-56277204D01*
X127309095Y-56113376D01*
X127036659Y-56000529D01*
X126747442Y-55943000D01*
X126452558Y-55943000D01*
X126163341Y-56000529D01*
X125890905Y-56113376D01*
X125645718Y-56277204D01*
X125437204Y-56485718D01*
X125330000Y-56646161D01*
X125222796Y-56485718D01*
X125014282Y-56277204D01*
X124769095Y-56113376D01*
X124496659Y-56000529D01*
X124207442Y-55943000D01*
X123912558Y-55943000D01*
X123623341Y-56000529D01*
X123350905Y-56113376D01*
X123105718Y-56277204D01*
X122897204Y-56485718D01*
X122790000Y-56646161D01*
X122682796Y-56485718D01*
X122474282Y-56277204D01*
X122229095Y-56113376D01*
X121956659Y-56000529D01*
X121667442Y-55943000D01*
X121372558Y-55943000D01*
X121083341Y-56000529D01*
X120810905Y-56113376D01*
X120565718Y-56277204D01*
X120357204Y-56485718D01*
X120250000Y-56646161D01*
X120142796Y-56485718D01*
X119934282Y-56277204D01*
X119689095Y-56113376D01*
X119416659Y-56000529D01*
X119127442Y-55943000D01*
X118832558Y-55943000D01*
X118543341Y-56000529D01*
X118270905Y-56113376D01*
X118025718Y-56277204D01*
X117817204Y-56485718D01*
X117710000Y-56646161D01*
X117602796Y-56485718D01*
X117394282Y-56277204D01*
X117149095Y-56113376D01*
X116876659Y-56000529D01*
X116587442Y-55943000D01*
X116292558Y-55943000D01*
X116003341Y-56000529D01*
X115730905Y-56113376D01*
X115485718Y-56277204D01*
X115277204Y-56485718D01*
X115170000Y-56646161D01*
X115062796Y-56485718D01*
X114854282Y-56277204D01*
X114609095Y-56113376D01*
X114336659Y-56000529D01*
X114047442Y-55943000D01*
X113752558Y-55943000D01*
X113463341Y-56000529D01*
X113190905Y-56113376D01*
X112945718Y-56277204D01*
X112737204Y-56485718D01*
X112630000Y-56646161D01*
X112522796Y-56485718D01*
X112314282Y-56277204D01*
X112069095Y-56113376D01*
X111796659Y-56000529D01*
X111507442Y-55943000D01*
X111212558Y-55943000D01*
X110923341Y-56000529D01*
X110650905Y-56113376D01*
X110405718Y-56277204D01*
X110197204Y-56485718D01*
X110090000Y-56646161D01*
X109982796Y-56485718D01*
X109774282Y-56277204D01*
X109529095Y-56113376D01*
X109256659Y-56000529D01*
X108967442Y-55943000D01*
X108672558Y-55943000D01*
X108383341Y-56000529D01*
X108110905Y-56113376D01*
X107865718Y-56277204D01*
X107657204Y-56485718D01*
X107550000Y-56646161D01*
X107442796Y-56485718D01*
X107234282Y-56277204D01*
X106989095Y-56113376D01*
X106716659Y-56000529D01*
X106427442Y-55943000D01*
X106132558Y-55943000D01*
X105843341Y-56000529D01*
X105570905Y-56113376D01*
X105325718Y-56277204D01*
X105117204Y-56485718D01*
X105010000Y-56646161D01*
X104902796Y-56485718D01*
X104694282Y-56277204D01*
X104449095Y-56113376D01*
X104176659Y-56000529D01*
X103887442Y-55943000D01*
X103592558Y-55943000D01*
X103303341Y-56000529D01*
X103030905Y-56113376D01*
X102785718Y-56277204D01*
X102577204Y-56485718D01*
X102413376Y-56730905D01*
X102300529Y-57003341D01*
X102243000Y-57292558D01*
X100157000Y-57292558D01*
X100099471Y-57003341D01*
X99986624Y-56730905D01*
X99822796Y-56485718D01*
X99614282Y-56277204D01*
X99369095Y-56113376D01*
X99096659Y-56000529D01*
X98807442Y-55943000D01*
X98512558Y-55943000D01*
X98223341Y-56000529D01*
X97950905Y-56113376D01*
X97705718Y-56277204D01*
X97497204Y-56485718D01*
X97480817Y-56510242D01*
X97370732Y-56304287D01*
X97183660Y-56076340D01*
X96955712Y-55889268D01*
X96695648Y-55750261D01*
X96413462Y-55664661D01*
X96120000Y-55635757D01*
X95826537Y-55664661D01*
X95544351Y-55750261D01*
X95284287Y-55889268D01*
X95071878Y-56063588D01*
X95069808Y-56042571D01*
X95041389Y-55948886D01*
X94995239Y-55862546D01*
X94933132Y-55786868D01*
X94857454Y-55724761D01*
X94771114Y-55678611D01*
X94677429Y-55650192D01*
X94580000Y-55640596D01*
X92580000Y-55640596D01*
X92482571Y-55650192D01*
X92388886Y-55678611D01*
X92302546Y-55724761D01*
X92226868Y-55786868D01*
X92164761Y-55862546D01*
X92118611Y-55948886D01*
X92090192Y-56042571D01*
X92080596Y-56140000D01*
X84772556Y-56140000D01*
X84652310Y-16449000D01*
X84940387Y-16449000D01*
X84944001Y-16485696D01*
X84944000Y-48240315D01*
X84940387Y-48277000D01*
X84944000Y-48313685D01*
X84944000Y-48313692D01*
X84954809Y-48423437D01*
X84997523Y-48564247D01*
X85066887Y-48694018D01*
X85160236Y-48807764D01*
X85188745Y-48831161D01*
X88899114Y-52541531D01*
X88843000Y-52823634D01*
X88843000Y-53128366D01*
X88902451Y-53427243D01*
X89019067Y-53708779D01*
X89188367Y-53962155D01*
X89403845Y-54177633D01*
X89657221Y-54346933D01*
X89938757Y-54463549D01*
X90237634Y-54523000D01*
X90542366Y-54523000D01*
X90841243Y-54463549D01*
X91122779Y-54346933D01*
X91376155Y-54177633D01*
X91591633Y-53962155D01*
X91760933Y-53708779D01*
X91877549Y-53427243D01*
X91937000Y-53128366D01*
X91937000Y-52823634D01*
X91877549Y-52524757D01*
X91760933Y-52243221D01*
X91591633Y-51989845D01*
X91376155Y-51774367D01*
X91122779Y-51605067D01*
X90841243Y-51488451D01*
X90542366Y-51429000D01*
X90237634Y-51429000D01*
X89955531Y-51485114D01*
X86438000Y-47967584D01*
X86438000Y-31005000D01*
X86718387Y-31005000D01*
X86722001Y-31041696D01*
X86722000Y-46208315D01*
X86718387Y-46245000D01*
X86722000Y-46281685D01*
X86722000Y-46281692D01*
X86732809Y-46391437D01*
X86775523Y-46532247D01*
X86844887Y-46662018D01*
X86938236Y-46775764D01*
X86966745Y-46799161D01*
X89534114Y-49366532D01*
X89478000Y-49648634D01*
X89478000Y-49953366D01*
X89537451Y-50252243D01*
X89654067Y-50533779D01*
X89823367Y-50787155D01*
X90038845Y-51002633D01*
X90292221Y-51171933D01*
X90573757Y-51288549D01*
X90872634Y-51348000D01*
X91177366Y-51348000D01*
X91476243Y-51288549D01*
X91757779Y-51171933D01*
X92011155Y-51002633D01*
X92226633Y-50787155D01*
X92395933Y-50533779D01*
X92512549Y-50252243D01*
X92572000Y-49953366D01*
X92572000Y-49648634D01*
X92512549Y-49349757D01*
X92395933Y-49068221D01*
X92226633Y-48814845D01*
X92011155Y-48599367D01*
X91757779Y-48430067D01*
X91476243Y-48313451D01*
X91177366Y-48254000D01*
X90872634Y-48254000D01*
X90590532Y-48310114D01*
X88216000Y-45935584D01*
X88216000Y-41826463D01*
X92083000Y-41826463D01*
X92083000Y-42573538D01*
X92104661Y-42793463D01*
X92190261Y-43075649D01*
X92329268Y-43335713D01*
X92516340Y-43563660D01*
X92744288Y-43750732D01*
X93004352Y-43889739D01*
X93286538Y-43975339D01*
X93580000Y-44004243D01*
X93873463Y-43975339D01*
X94155649Y-43889739D01*
X94415713Y-43750732D01*
X94643660Y-43563660D01*
X94830732Y-43335713D01*
X94969739Y-43075649D01*
X95055339Y-42793462D01*
X95077000Y-42573537D01*
X95077000Y-42052558D01*
X97163000Y-42052558D01*
X97163000Y-42347442D01*
X97220529Y-42636659D01*
X97333376Y-42909095D01*
X97497204Y-43154282D01*
X97705718Y-43362796D01*
X97950905Y-43526624D01*
X98223341Y-43639471D01*
X98512558Y-43697000D01*
X98807442Y-43697000D01*
X99096659Y-43639471D01*
X99369095Y-43526624D01*
X99614282Y-43362796D01*
X99822796Y-43154282D01*
X99930000Y-42993839D01*
X100037204Y-43154282D01*
X100245718Y-43362796D01*
X100490905Y-43526624D01*
X100763341Y-43639471D01*
X101052558Y-43697000D01*
X101347442Y-43697000D01*
X101636659Y-43639471D01*
X101909095Y-43526624D01*
X102154282Y-43362796D01*
X102362796Y-43154282D01*
X102470000Y-42993839D01*
X102577204Y-43154282D01*
X102785718Y-43362796D01*
X103030905Y-43526624D01*
X103303341Y-43639471D01*
X103592558Y-43697000D01*
X103887442Y-43697000D01*
X104176659Y-43639471D01*
X104449095Y-43526624D01*
X104694282Y-43362796D01*
X104902796Y-43154282D01*
X105010000Y-42993839D01*
X105117204Y-43154282D01*
X105325718Y-43362796D01*
X105570905Y-43526624D01*
X105843341Y-43639471D01*
X106132558Y-43697000D01*
X106427442Y-43697000D01*
X106716659Y-43639471D01*
X106989095Y-43526624D01*
X107234282Y-43362796D01*
X107442796Y-43154282D01*
X107459183Y-43129758D01*
X107569268Y-43335713D01*
X107756340Y-43563660D01*
X107984288Y-43750732D01*
X108244352Y-43889739D01*
X108526538Y-43975339D01*
X108820000Y-44004243D01*
X109113463Y-43975339D01*
X109395649Y-43889739D01*
X109655713Y-43750732D01*
X109883660Y-43563660D01*
X110070732Y-43335713D01*
X110090000Y-43299665D01*
X110109268Y-43335713D01*
X110296340Y-43563660D01*
X110524288Y-43750732D01*
X110784352Y-43889739D01*
X111066538Y-43975339D01*
X111360000Y-44004243D01*
X111653463Y-43975339D01*
X111935649Y-43889739D01*
X112195713Y-43750732D01*
X112423660Y-43563660D01*
X112610732Y-43335713D01*
X112720817Y-43129758D01*
X112737204Y-43154282D01*
X112945718Y-43362796D01*
X113190905Y-43526624D01*
X113463341Y-43639471D01*
X113752558Y-43697000D01*
X114047442Y-43697000D01*
X114336659Y-43639471D01*
X114609095Y-43526624D01*
X114854282Y-43362796D01*
X115062796Y-43154282D01*
X115170000Y-42993839D01*
X115277204Y-43154282D01*
X115485718Y-43362796D01*
X115730905Y-43526624D01*
X116003341Y-43639471D01*
X116292558Y-43697000D01*
X116587442Y-43697000D01*
X116876659Y-43639471D01*
X117149095Y-43526624D01*
X117394282Y-43362796D01*
X117602796Y-43154282D01*
X117710000Y-42993839D01*
X117817204Y-43154282D01*
X118025718Y-43362796D01*
X118270905Y-43526624D01*
X118543341Y-43639471D01*
X118832558Y-43697000D01*
X119127442Y-43697000D01*
X119416659Y-43639471D01*
X119689095Y-43526624D01*
X119934282Y-43362796D01*
X120142796Y-43154282D01*
X120250000Y-42993839D01*
X120357204Y-43154282D01*
X120565718Y-43362796D01*
X120810905Y-43526624D01*
X121083341Y-43639471D01*
X121372558Y-43697000D01*
X121667442Y-43697000D01*
X121956659Y-43639471D01*
X122229095Y-43526624D01*
X122474282Y-43362796D01*
X122682796Y-43154282D01*
X122790000Y-42993839D01*
X122897204Y-43154282D01*
X123105718Y-43362796D01*
X123350905Y-43526624D01*
X123623341Y-43639471D01*
X123912558Y-43697000D01*
X124207442Y-43697000D01*
X124496659Y-43639471D01*
X124769095Y-43526624D01*
X125014282Y-43362796D01*
X125222796Y-43154282D01*
X125239183Y-43129758D01*
X125349268Y-43335713D01*
X125536340Y-43563660D01*
X125764288Y-43750732D01*
X126024352Y-43889739D01*
X126306538Y-43975339D01*
X126600000Y-44004243D01*
X126893463Y-43975339D01*
X127175649Y-43889739D01*
X127435713Y-43750732D01*
X127663660Y-43563660D01*
X127850732Y-43335713D01*
X127960817Y-43129758D01*
X127977204Y-43154282D01*
X128185718Y-43362796D01*
X128430905Y-43526624D01*
X128703341Y-43639471D01*
X128992558Y-43697000D01*
X129287442Y-43697000D01*
X129576659Y-43639471D01*
X129849095Y-43526624D01*
X130094282Y-43362796D01*
X130302796Y-43154282D01*
X130466624Y-42909095D01*
X130579471Y-42636659D01*
X130637000Y-42347442D01*
X130637000Y-42052558D01*
X130579471Y-41763341D01*
X130466624Y-41490905D01*
X130302796Y-41245718D01*
X130094282Y-41037204D01*
X129849095Y-40873376D01*
X129576659Y-40760529D01*
X129287442Y-40703000D01*
X128992558Y-40703000D01*
X128703341Y-40760529D01*
X128430905Y-40873376D01*
X128185718Y-41037204D01*
X127977204Y-41245718D01*
X127960817Y-41270242D01*
X127850732Y-41064287D01*
X127663660Y-40836340D01*
X127435712Y-40649268D01*
X127175648Y-40510261D01*
X126893462Y-40424661D01*
X126600000Y-40395757D01*
X126306537Y-40424661D01*
X126024351Y-40510261D01*
X125764287Y-40649268D01*
X125536340Y-40836340D01*
X125349268Y-41064288D01*
X125239183Y-41270243D01*
X125222796Y-41245718D01*
X125014282Y-41037204D01*
X124769095Y-40873376D01*
X124496659Y-40760529D01*
X124207442Y-40703000D01*
X123912558Y-40703000D01*
X123623341Y-40760529D01*
X123350905Y-40873376D01*
X123105718Y-41037204D01*
X122897204Y-41245718D01*
X122790000Y-41406161D01*
X122682796Y-41245718D01*
X122474282Y-41037204D01*
X122229095Y-40873376D01*
X121956659Y-40760529D01*
X121667442Y-40703000D01*
X121372558Y-40703000D01*
X121083341Y-40760529D01*
X120810905Y-40873376D01*
X120565718Y-41037204D01*
X120357204Y-41245718D01*
X120250000Y-41406161D01*
X120142796Y-41245718D01*
X119934282Y-41037204D01*
X119689095Y-40873376D01*
X119416659Y-40760529D01*
X119127442Y-40703000D01*
X118832558Y-40703000D01*
X118543341Y-40760529D01*
X118270905Y-40873376D01*
X118025718Y-41037204D01*
X117817204Y-41245718D01*
X117710000Y-41406161D01*
X117602796Y-41245718D01*
X117394282Y-41037204D01*
X117149095Y-40873376D01*
X116876659Y-40760529D01*
X116587442Y-40703000D01*
X116292558Y-40703000D01*
X116003341Y-40760529D01*
X115730905Y-40873376D01*
X115485718Y-41037204D01*
X115277204Y-41245718D01*
X115170000Y-41406161D01*
X115062796Y-41245718D01*
X114854282Y-41037204D01*
X114609095Y-40873376D01*
X114336659Y-40760529D01*
X114047442Y-40703000D01*
X113752558Y-40703000D01*
X113463341Y-40760529D01*
X113190905Y-40873376D01*
X112945718Y-41037204D01*
X112737204Y-41245718D01*
X112720817Y-41270242D01*
X112610732Y-41064287D01*
X112423660Y-40836340D01*
X112195712Y-40649268D01*
X111935648Y-40510261D01*
X111653462Y-40424661D01*
X111360000Y-40395757D01*
X111066537Y-40424661D01*
X110784351Y-40510261D01*
X110524287Y-40649268D01*
X110296340Y-40836340D01*
X110109268Y-41064288D01*
X110090000Y-41100335D01*
X110070732Y-41064287D01*
X109883660Y-40836340D01*
X109655712Y-40649268D01*
X109395648Y-40510261D01*
X109113462Y-40424661D01*
X108820000Y-40395757D01*
X108526537Y-40424661D01*
X108244351Y-40510261D01*
X107984287Y-40649268D01*
X107756340Y-40836340D01*
X107569268Y-41064288D01*
X107459183Y-41270243D01*
X107442796Y-41245718D01*
X107234282Y-41037204D01*
X106989095Y-40873376D01*
X106716659Y-40760529D01*
X106427442Y-40703000D01*
X106132558Y-40703000D01*
X105843341Y-40760529D01*
X105570905Y-40873376D01*
X105325718Y-41037204D01*
X105117204Y-41245718D01*
X105010000Y-41406161D01*
X104902796Y-41245718D01*
X104694282Y-41037204D01*
X104449095Y-40873376D01*
X104176659Y-40760529D01*
X103887442Y-40703000D01*
X103592558Y-40703000D01*
X103303341Y-40760529D01*
X103030905Y-40873376D01*
X102785718Y-41037204D01*
X102577204Y-41245718D01*
X102470000Y-41406161D01*
X102362796Y-41245718D01*
X102154282Y-41037204D01*
X101909095Y-40873376D01*
X101636659Y-40760529D01*
X101347442Y-40703000D01*
X101052558Y-40703000D01*
X100763341Y-40760529D01*
X100490905Y-40873376D01*
X100245718Y-41037204D01*
X100037204Y-41245718D01*
X99930000Y-41406161D01*
X99822796Y-41245718D01*
X99614282Y-41037204D01*
X99369095Y-40873376D01*
X99096659Y-40760529D01*
X98807442Y-40703000D01*
X98512558Y-40703000D01*
X98223341Y-40760529D01*
X97950905Y-40873376D01*
X97705718Y-41037204D01*
X97497204Y-41245718D01*
X97333376Y-41490905D01*
X97220529Y-41763341D01*
X97163000Y-42052558D01*
X95077000Y-42052558D01*
X95077000Y-41826462D01*
X95055339Y-41606537D01*
X94969739Y-41324351D01*
X94830732Y-41064287D01*
X94643660Y-40836340D01*
X94415712Y-40649268D01*
X94155648Y-40510261D01*
X93873462Y-40424661D01*
X93580000Y-40395757D01*
X93286537Y-40424661D01*
X93004351Y-40510261D01*
X92744287Y-40649268D01*
X92516340Y-40836340D01*
X92329268Y-41064288D01*
X92190261Y-41324352D01*
X92104661Y-41606538D01*
X92083000Y-41826463D01*
X88216000Y-41826463D01*
X88216000Y-33862558D01*
X88553000Y-33862558D01*
X88553000Y-34157442D01*
X88610529Y-34446659D01*
X88723376Y-34719095D01*
X88887204Y-34964282D01*
X89095718Y-35172796D01*
X89340905Y-35336624D01*
X89613341Y-35449471D01*
X89902558Y-35507000D01*
X90197442Y-35507000D01*
X90486659Y-35449471D01*
X90759095Y-35336624D01*
X91004282Y-35172796D01*
X91212796Y-34964282D01*
X91376624Y-34719095D01*
X91489471Y-34446659D01*
X91547000Y-34157442D01*
X91547000Y-33862558D01*
X91489471Y-33573341D01*
X91376624Y-33300905D01*
X91212796Y-33055718D01*
X91004282Y-32847204D01*
X90759095Y-32683376D01*
X90486659Y-32570529D01*
X90197442Y-32513000D01*
X89902558Y-32513000D01*
X89613341Y-32570529D01*
X89340905Y-32683376D01*
X89095718Y-32847204D01*
X88887204Y-33055718D01*
X88723376Y-33300905D01*
X88610529Y-33573341D01*
X88553000Y-33862558D01*
X88216000Y-33862558D01*
X88216000Y-31314416D01*
X90077858Y-29452558D01*
X92713000Y-29452558D01*
X92713000Y-29747442D01*
X92770529Y-30036659D01*
X92883376Y-30309095D01*
X93047204Y-30554282D01*
X93255718Y-30762796D01*
X93500905Y-30926624D01*
X93773341Y-31039471D01*
X94062558Y-31097000D01*
X94357442Y-31097000D01*
X94646659Y-31039471D01*
X94919095Y-30926624D01*
X95164282Y-30762796D01*
X95372796Y-30554282D01*
X95480000Y-30393839D01*
X95587204Y-30554282D01*
X95795718Y-30762796D01*
X96040905Y-30926624D01*
X96313341Y-31039471D01*
X96602558Y-31097000D01*
X96897442Y-31097000D01*
X97186659Y-31039471D01*
X97459095Y-30926624D01*
X97704282Y-30762796D01*
X97912796Y-30554282D01*
X98076624Y-30309095D01*
X98189471Y-30036659D01*
X98247000Y-29747442D01*
X98247000Y-29452558D01*
X102873000Y-29452558D01*
X102873000Y-29747442D01*
X102930529Y-30036659D01*
X103043376Y-30309095D01*
X103207204Y-30554282D01*
X103415718Y-30762796D01*
X103660905Y-30926624D01*
X103933341Y-31039471D01*
X104222558Y-31097000D01*
X104517442Y-31097000D01*
X104806659Y-31039471D01*
X105079095Y-30926624D01*
X105324282Y-30762796D01*
X105417453Y-30669625D01*
X105420192Y-30697429D01*
X105448611Y-30791114D01*
X105494761Y-30877454D01*
X105556868Y-30953132D01*
X105632546Y-31015239D01*
X105718886Y-31061389D01*
X105812571Y-31089808D01*
X105910000Y-31099404D01*
X107910000Y-31099404D01*
X108007429Y-31089808D01*
X108101114Y-31061389D01*
X108187454Y-31015239D01*
X108263132Y-30953132D01*
X108325239Y-30877454D01*
X108371389Y-30791114D01*
X108399808Y-30697429D01*
X108409404Y-30600000D01*
X108409404Y-28600000D01*
X108399808Y-28502571D01*
X108371389Y-28408886D01*
X108325239Y-28322546D01*
X108263132Y-28246868D01*
X108187454Y-28184761D01*
X108101114Y-28138611D01*
X108007429Y-28110192D01*
X107910000Y-28100596D01*
X105910000Y-28100596D01*
X105812571Y-28110192D01*
X105718886Y-28138611D01*
X105632546Y-28184761D01*
X105556868Y-28246868D01*
X105494761Y-28322546D01*
X105448611Y-28408886D01*
X105420192Y-28502571D01*
X105417453Y-28530375D01*
X105324282Y-28437204D01*
X105079095Y-28273376D01*
X104806659Y-28160529D01*
X104517442Y-28103000D01*
X104222558Y-28103000D01*
X103933341Y-28160529D01*
X103660905Y-28273376D01*
X103415718Y-28437204D01*
X103207204Y-28645718D01*
X103043376Y-28890905D01*
X102930529Y-29163341D01*
X102873000Y-29452558D01*
X98247000Y-29452558D01*
X98189471Y-29163341D01*
X98076624Y-28890905D01*
X97912796Y-28645718D01*
X97704282Y-28437204D01*
X97459095Y-28273376D01*
X97186659Y-28160529D01*
X96897442Y-28103000D01*
X96602558Y-28103000D01*
X96313341Y-28160529D01*
X96040905Y-28273376D01*
X95795718Y-28437204D01*
X95587204Y-28645718D01*
X95480000Y-28806161D01*
X95372796Y-28645718D01*
X95164282Y-28437204D01*
X94919095Y-28273376D01*
X94646659Y-28160529D01*
X94357442Y-28103000D01*
X94062558Y-28103000D01*
X93773341Y-28160529D01*
X93500905Y-28273376D01*
X93255718Y-28437204D01*
X93047204Y-28645718D01*
X92883376Y-28890905D01*
X92770529Y-29163341D01*
X92713000Y-29452558D01*
X90077858Y-29452558D01*
X91146262Y-28384155D01*
X91174764Y-28360764D01*
X91268113Y-28247019D01*
X91337477Y-28117248D01*
X91380191Y-27976438D01*
X91391000Y-27866693D01*
X91391000Y-27866686D01*
X91394613Y-27830001D01*
X91391000Y-27793315D01*
X91391000Y-24997632D01*
X98103000Y-24997632D01*
X98103000Y-25302364D01*
X98162451Y-25601241D01*
X98279067Y-25882777D01*
X98448367Y-26136153D01*
X98663845Y-26351631D01*
X98917221Y-26520931D01*
X99198757Y-26637547D01*
X99497634Y-26696998D01*
X99802366Y-26696998D01*
X100101243Y-26637547D01*
X100382779Y-26520931D01*
X100636155Y-26351631D01*
X100851633Y-26136153D01*
X101011431Y-25896998D01*
X106196582Y-25896998D01*
X110217000Y-29917417D01*
X110217001Y-31603305D01*
X110213387Y-31640000D01*
X110227809Y-31786437D01*
X110270523Y-31927247D01*
X110270524Y-31927248D01*
X110339888Y-32057019D01*
X110433237Y-32170764D01*
X110461740Y-32194156D01*
X117648844Y-39381261D01*
X117672236Y-39409764D01*
X117785981Y-39503113D01*
X117915752Y-39572477D01*
X118056562Y-39615191D01*
X118166307Y-39626000D01*
X118166314Y-39626000D01*
X118203000Y-39629613D01*
X118239685Y-39626000D01*
X120143571Y-39626000D01*
X120303369Y-39865155D01*
X120518847Y-40080633D01*
X120772223Y-40249933D01*
X121053759Y-40366549D01*
X121352636Y-40426000D01*
X121657368Y-40426000D01*
X121956245Y-40366549D01*
X122237781Y-40249933D01*
X122491157Y-40080633D01*
X122706635Y-39865155D01*
X122875935Y-39611779D01*
X122992551Y-39330243D01*
X123052002Y-39031366D01*
X123052002Y-38726634D01*
X122992551Y-38427757D01*
X122889927Y-38180000D01*
X139970596Y-38180000D01*
X139970596Y-40180000D01*
X139980192Y-40277429D01*
X140008611Y-40371114D01*
X140054761Y-40457454D01*
X140116868Y-40533132D01*
X140192546Y-40595239D01*
X140278886Y-40641389D01*
X140372571Y-40669808D01*
X140470000Y-40679404D01*
X142470000Y-40679404D01*
X142567429Y-40669808D01*
X142661114Y-40641389D01*
X142747454Y-40595239D01*
X142823132Y-40533132D01*
X142885239Y-40457454D01*
X142931389Y-40371114D01*
X142959808Y-40277429D01*
X142962547Y-40249625D01*
X143055718Y-40342796D01*
X143300905Y-40506624D01*
X143573341Y-40619471D01*
X143862558Y-40677000D01*
X144157442Y-40677000D01*
X144446659Y-40619471D01*
X144719095Y-40506624D01*
X144964282Y-40342796D01*
X145172796Y-40134282D01*
X145280000Y-39973839D01*
X145387204Y-40134282D01*
X145595718Y-40342796D01*
X145840905Y-40506624D01*
X146113341Y-40619471D01*
X146402558Y-40677000D01*
X146697442Y-40677000D01*
X146986659Y-40619471D01*
X147259095Y-40506624D01*
X147504282Y-40342796D01*
X147712796Y-40134282D01*
X147820000Y-39973839D01*
X147927204Y-40134282D01*
X148135718Y-40342796D01*
X148380905Y-40506624D01*
X148653341Y-40619471D01*
X148942558Y-40677000D01*
X149237442Y-40677000D01*
X149526659Y-40619471D01*
X149799095Y-40506624D01*
X150044282Y-40342796D01*
X150252796Y-40134282D01*
X150360000Y-39973839D01*
X150467204Y-40134282D01*
X150675718Y-40342796D01*
X150920905Y-40506624D01*
X151193341Y-40619471D01*
X151482558Y-40677000D01*
X151777442Y-40677000D01*
X152066659Y-40619471D01*
X152339095Y-40506624D01*
X152584282Y-40342796D01*
X152792796Y-40134282D01*
X152900000Y-39973839D01*
X153007204Y-40134282D01*
X153215718Y-40342796D01*
X153460905Y-40506624D01*
X153733341Y-40619471D01*
X154022558Y-40677000D01*
X154317442Y-40677000D01*
X154606659Y-40619471D01*
X154879095Y-40506624D01*
X155124282Y-40342796D01*
X155332796Y-40134282D01*
X155440000Y-39973839D01*
X155547204Y-40134282D01*
X155755718Y-40342796D01*
X156000905Y-40506624D01*
X156273341Y-40619471D01*
X156562558Y-40677000D01*
X156857442Y-40677000D01*
X157146659Y-40619471D01*
X157419095Y-40506624D01*
X157664282Y-40342796D01*
X157872796Y-40134282D01*
X157980000Y-39973839D01*
X158087204Y-40134282D01*
X158295718Y-40342796D01*
X158540905Y-40506624D01*
X158813341Y-40619471D01*
X159102558Y-40677000D01*
X159397442Y-40677000D01*
X159686659Y-40619471D01*
X159959095Y-40506624D01*
X160204282Y-40342796D01*
X160412796Y-40134282D01*
X160520000Y-39973839D01*
X160627204Y-40134282D01*
X160835718Y-40342796D01*
X161080905Y-40506624D01*
X161353341Y-40619471D01*
X161642558Y-40677000D01*
X161937442Y-40677000D01*
X162226659Y-40619471D01*
X162499095Y-40506624D01*
X162744282Y-40342796D01*
X162952796Y-40134282D01*
X163060000Y-39973839D01*
X163167204Y-40134282D01*
X163375718Y-40342796D01*
X163620905Y-40506624D01*
X163893341Y-40619471D01*
X164182558Y-40677000D01*
X164477442Y-40677000D01*
X164766659Y-40619471D01*
X165039095Y-40506624D01*
X165284282Y-40342796D01*
X165492796Y-40134282D01*
X165600000Y-39973839D01*
X165707204Y-40134282D01*
X165915718Y-40342796D01*
X166160905Y-40506624D01*
X166433341Y-40619471D01*
X166722558Y-40677000D01*
X167017442Y-40677000D01*
X167306659Y-40619471D01*
X167579095Y-40506624D01*
X167824282Y-40342796D01*
X168032796Y-40134282D01*
X168140000Y-39973839D01*
X168247204Y-40134282D01*
X168455718Y-40342796D01*
X168700905Y-40506624D01*
X168973341Y-40619471D01*
X169262558Y-40677000D01*
X169557442Y-40677000D01*
X169846659Y-40619471D01*
X170119095Y-40506624D01*
X170364282Y-40342796D01*
X170572796Y-40134282D01*
X170680000Y-39973839D01*
X170787204Y-40134282D01*
X170995718Y-40342796D01*
X171240905Y-40506624D01*
X171513341Y-40619471D01*
X171802558Y-40677000D01*
X172097442Y-40677000D01*
X172386659Y-40619471D01*
X172659095Y-40506624D01*
X172904282Y-40342796D01*
X173112796Y-40134282D01*
X173220000Y-39973839D01*
X173327204Y-40134282D01*
X173535718Y-40342796D01*
X173780905Y-40506624D01*
X174053341Y-40619471D01*
X174342558Y-40677000D01*
X174637442Y-40677000D01*
X174926659Y-40619471D01*
X175199095Y-40506624D01*
X175444282Y-40342796D01*
X175652796Y-40134282D01*
X175760000Y-39973839D01*
X175867204Y-40134282D01*
X176075718Y-40342796D01*
X176320905Y-40506624D01*
X176593341Y-40619471D01*
X176882558Y-40677000D01*
X177177442Y-40677000D01*
X177466659Y-40619471D01*
X177739095Y-40506624D01*
X177984282Y-40342796D01*
X178192796Y-40134282D01*
X178300000Y-39973839D01*
X178407204Y-40134282D01*
X178615718Y-40342796D01*
X178860905Y-40506624D01*
X179133341Y-40619471D01*
X179422558Y-40677000D01*
X179717442Y-40677000D01*
X180006659Y-40619471D01*
X180279095Y-40506624D01*
X180524282Y-40342796D01*
X180732796Y-40134282D01*
X180896624Y-39889095D01*
X181009471Y-39616659D01*
X181067000Y-39327442D01*
X181067000Y-39032558D01*
X181009471Y-38743341D01*
X180896624Y-38470905D01*
X180732796Y-38225718D01*
X180524282Y-38017204D01*
X180279095Y-37853376D01*
X180006659Y-37740529D01*
X179717442Y-37683000D01*
X179422558Y-37683000D01*
X179133341Y-37740529D01*
X178860905Y-37853376D01*
X178615718Y-38017204D01*
X178407204Y-38225718D01*
X178300000Y-38386161D01*
X178192796Y-38225718D01*
X177984282Y-38017204D01*
X177739095Y-37853376D01*
X177466659Y-37740529D01*
X177177442Y-37683000D01*
X176882558Y-37683000D01*
X176593341Y-37740529D01*
X176320905Y-37853376D01*
X176075718Y-38017204D01*
X175867204Y-38225718D01*
X175760000Y-38386161D01*
X175652796Y-38225718D01*
X175444282Y-38017204D01*
X175199095Y-37853376D01*
X174926659Y-37740529D01*
X174637442Y-37683000D01*
X174342558Y-37683000D01*
X174053341Y-37740529D01*
X173780905Y-37853376D01*
X173535718Y-38017204D01*
X173327204Y-38225718D01*
X173220000Y-38386161D01*
X173112796Y-38225718D01*
X172904282Y-38017204D01*
X172659095Y-37853376D01*
X172386659Y-37740529D01*
X172097442Y-37683000D01*
X171802558Y-37683000D01*
X171513341Y-37740529D01*
X171240905Y-37853376D01*
X170995718Y-38017204D01*
X170787204Y-38225718D01*
X170680000Y-38386161D01*
X170572796Y-38225718D01*
X170364282Y-38017204D01*
X170119095Y-37853376D01*
X169846659Y-37740529D01*
X169557442Y-37683000D01*
X169262558Y-37683000D01*
X168973341Y-37740529D01*
X168700905Y-37853376D01*
X168455718Y-38017204D01*
X168247204Y-38225718D01*
X168140000Y-38386161D01*
X168032796Y-38225718D01*
X167824282Y-38017204D01*
X167579095Y-37853376D01*
X167306659Y-37740529D01*
X167017442Y-37683000D01*
X166722558Y-37683000D01*
X166433341Y-37740529D01*
X166160905Y-37853376D01*
X165915718Y-38017204D01*
X165707204Y-38225718D01*
X165600000Y-38386161D01*
X165492796Y-38225718D01*
X165284282Y-38017204D01*
X165039095Y-37853376D01*
X164766659Y-37740529D01*
X164477442Y-37683000D01*
X164182558Y-37683000D01*
X163893341Y-37740529D01*
X163620905Y-37853376D01*
X163375718Y-38017204D01*
X163167204Y-38225718D01*
X163060000Y-38386161D01*
X162952796Y-38225718D01*
X162744282Y-38017204D01*
X162499095Y-37853376D01*
X162226659Y-37740529D01*
X161937442Y-37683000D01*
X161642558Y-37683000D01*
X161353341Y-37740529D01*
X161080905Y-37853376D01*
X160835718Y-38017204D01*
X160627204Y-38225718D01*
X160520000Y-38386161D01*
X160412796Y-38225718D01*
X160204282Y-38017204D01*
X159959095Y-37853376D01*
X159686659Y-37740529D01*
X159397442Y-37683000D01*
X159102558Y-37683000D01*
X158813341Y-37740529D01*
X158540905Y-37853376D01*
X158295718Y-38017204D01*
X158087204Y-38225718D01*
X157980000Y-38386161D01*
X157872796Y-38225718D01*
X157664282Y-38017204D01*
X157419095Y-37853376D01*
X157146659Y-37740529D01*
X156857442Y-37683000D01*
X156562558Y-37683000D01*
X156273341Y-37740529D01*
X156000905Y-37853376D01*
X155755718Y-38017204D01*
X155547204Y-38225718D01*
X155440000Y-38386161D01*
X155332796Y-38225718D01*
X155124282Y-38017204D01*
X154879095Y-37853376D01*
X154606659Y-37740529D01*
X154317442Y-37683000D01*
X154022558Y-37683000D01*
X153733341Y-37740529D01*
X153460905Y-37853376D01*
X153215718Y-38017204D01*
X153007204Y-38225718D01*
X152900000Y-38386161D01*
X152792796Y-38225718D01*
X152584282Y-38017204D01*
X152339095Y-37853376D01*
X152066659Y-37740529D01*
X151777442Y-37683000D01*
X151482558Y-37683000D01*
X151193341Y-37740529D01*
X150920905Y-37853376D01*
X150675718Y-38017204D01*
X150467204Y-38225718D01*
X150360000Y-38386161D01*
X150252796Y-38225718D01*
X150044282Y-38017204D01*
X149799095Y-37853376D01*
X149526659Y-37740529D01*
X149237442Y-37683000D01*
X148942558Y-37683000D01*
X148653341Y-37740529D01*
X148380905Y-37853376D01*
X148135718Y-38017204D01*
X147927204Y-38225718D01*
X147820000Y-38386161D01*
X147712796Y-38225718D01*
X147504282Y-38017204D01*
X147259095Y-37853376D01*
X146986659Y-37740529D01*
X146697442Y-37683000D01*
X146402558Y-37683000D01*
X146113341Y-37740529D01*
X145840905Y-37853376D01*
X145595718Y-38017204D01*
X145387204Y-38225718D01*
X145280000Y-38386161D01*
X145172796Y-38225718D01*
X144964282Y-38017204D01*
X144719095Y-37853376D01*
X144446659Y-37740529D01*
X144157442Y-37683000D01*
X143862558Y-37683000D01*
X143573341Y-37740529D01*
X143300905Y-37853376D01*
X143055718Y-38017204D01*
X142962547Y-38110375D01*
X142959808Y-38082571D01*
X142931389Y-37988886D01*
X142885239Y-37902546D01*
X142823132Y-37826868D01*
X142747454Y-37764761D01*
X142661114Y-37718611D01*
X142567429Y-37690192D01*
X142470000Y-37680596D01*
X140470000Y-37680596D01*
X140372571Y-37690192D01*
X140278886Y-37718611D01*
X140192546Y-37764761D01*
X140116868Y-37826868D01*
X140054761Y-37902546D01*
X140008611Y-37988886D01*
X139980192Y-38082571D01*
X139970596Y-38180000D01*
X122889927Y-38180000D01*
X122875935Y-38146221D01*
X122706635Y-37892845D01*
X122491157Y-37677367D01*
X122237781Y-37508067D01*
X121956245Y-37391451D01*
X121657368Y-37332000D01*
X121352636Y-37332000D01*
X121053759Y-37391451D01*
X120772223Y-37508067D01*
X120518847Y-37677367D01*
X120303369Y-37892845D01*
X120143571Y-38132000D01*
X119867788Y-38132000D01*
X120039633Y-37960155D01*
X120208933Y-37706779D01*
X120325549Y-37425243D01*
X120385000Y-37126366D01*
X120385000Y-36821634D01*
X120325549Y-36522757D01*
X120208933Y-36241221D01*
X120039633Y-35987845D01*
X119824155Y-35772367D01*
X119570779Y-35603067D01*
X119289243Y-35486451D01*
X118990366Y-35427000D01*
X118685634Y-35427000D01*
X118403531Y-35483114D01*
X113489000Y-30568584D01*
X113489000Y-29390685D01*
X113492613Y-29353999D01*
X113489000Y-29317314D01*
X113489000Y-29317307D01*
X113478191Y-29207562D01*
X113435477Y-29066752D01*
X113366113Y-28936981D01*
X113312627Y-28871809D01*
X113296154Y-28851736D01*
X113296152Y-28851734D01*
X113272764Y-28823236D01*
X113244267Y-28799849D01*
X107362161Y-22917745D01*
X107338764Y-22889236D01*
X107225019Y-22795887D01*
X107095248Y-22726523D01*
X106954438Y-22683809D01*
X106844693Y-22673000D01*
X106844685Y-22673000D01*
X106808000Y-22669387D01*
X106771315Y-22673000D01*
X102911431Y-22673000D01*
X102751633Y-22433845D01*
X102721423Y-22403635D01*
X102780000Y-22409404D01*
X104780000Y-22409404D01*
X104877429Y-22399808D01*
X104971114Y-22371389D01*
X105057454Y-22325239D01*
X105133132Y-22263132D01*
X105195239Y-22187454D01*
X105241389Y-22101114D01*
X105269808Y-22007429D01*
X105279404Y-21910000D01*
X105279404Y-19910000D01*
X105274480Y-19860000D01*
X112280596Y-19860000D01*
X112280596Y-21860000D01*
X112290192Y-21957429D01*
X112318611Y-22051114D01*
X112364761Y-22137454D01*
X112426868Y-22213132D01*
X112502546Y-22275239D01*
X112588886Y-22321389D01*
X112682571Y-22349808D01*
X112780000Y-22359404D01*
X114780000Y-22359404D01*
X114877429Y-22349808D01*
X114971114Y-22321389D01*
X115057454Y-22275239D01*
X115133132Y-22213132D01*
X115195239Y-22137454D01*
X115241389Y-22051114D01*
X115269808Y-21957429D01*
X115279404Y-21860000D01*
X115279404Y-19860000D01*
X115269808Y-19762571D01*
X115241389Y-19668886D01*
X115195239Y-19582546D01*
X115133132Y-19506868D01*
X115057454Y-19444761D01*
X114971114Y-19398611D01*
X114877429Y-19370192D01*
X114849625Y-19367453D01*
X114942796Y-19274282D01*
X115106624Y-19029095D01*
X115219471Y-18756659D01*
X115277000Y-18467442D01*
X115277000Y-18172558D01*
X115219471Y-17883341D01*
X115106624Y-17610905D01*
X114942796Y-17365718D01*
X114734282Y-17157204D01*
X114573839Y-17050000D01*
X114734282Y-16942796D01*
X114942796Y-16734282D01*
X115106624Y-16489095D01*
X115219471Y-16216659D01*
X115277000Y-15927442D01*
X115277000Y-15632558D01*
X115219471Y-15343341D01*
X115106624Y-15070905D01*
X114942796Y-14825718D01*
X114734282Y-14617204D01*
X114489095Y-14453376D01*
X114216659Y-14340529D01*
X113927442Y-14283000D01*
X113632558Y-14283000D01*
X113343341Y-14340529D01*
X113070905Y-14453376D01*
X112825718Y-14617204D01*
X112617204Y-14825718D01*
X112453376Y-15070905D01*
X112340529Y-15343341D01*
X112283000Y-15632558D01*
X112283000Y-15927442D01*
X112340529Y-16216659D01*
X112453376Y-16489095D01*
X112617204Y-16734282D01*
X112825718Y-16942796D01*
X112986161Y-17050000D01*
X112825718Y-17157204D01*
X112617204Y-17365718D01*
X112453376Y-17610905D01*
X112340529Y-17883341D01*
X112283000Y-18172558D01*
X112283000Y-18467442D01*
X112340529Y-18756659D01*
X112453376Y-19029095D01*
X112617204Y-19274282D01*
X112710375Y-19367453D01*
X112682571Y-19370192D01*
X112588886Y-19398611D01*
X112502546Y-19444761D01*
X112426868Y-19506868D01*
X112364761Y-19582546D01*
X112318611Y-19668886D01*
X112290192Y-19762571D01*
X112280596Y-19860000D01*
X105274480Y-19860000D01*
X105269808Y-19812571D01*
X105241389Y-19718886D01*
X105195239Y-19632546D01*
X105133132Y-19556868D01*
X105057454Y-19494761D01*
X104971114Y-19448611D01*
X104877429Y-19420192D01*
X104849625Y-19417453D01*
X104942796Y-19324282D01*
X105106624Y-19079095D01*
X105219471Y-18806659D01*
X105277000Y-18517442D01*
X105277000Y-18222558D01*
X105219471Y-17933341D01*
X105106624Y-17660905D01*
X104942796Y-17415718D01*
X104734282Y-17207204D01*
X104573839Y-17100000D01*
X104734282Y-16992796D01*
X104942796Y-16784282D01*
X105106624Y-16539095D01*
X105219471Y-16266659D01*
X105277000Y-15977442D01*
X105277000Y-15682558D01*
X105219471Y-15393341D01*
X105106624Y-15120905D01*
X104942796Y-14875718D01*
X104734282Y-14667204D01*
X104489095Y-14503376D01*
X104216659Y-14390529D01*
X103927442Y-14333000D01*
X103632558Y-14333000D01*
X103343341Y-14390529D01*
X103070905Y-14503376D01*
X102825718Y-14667204D01*
X102617204Y-14875718D01*
X102453376Y-15120905D01*
X102340529Y-15393341D01*
X102283000Y-15682558D01*
X102283000Y-15977442D01*
X102340529Y-16266659D01*
X102453376Y-16539095D01*
X102617204Y-16784282D01*
X102825718Y-16992796D01*
X102986161Y-17100000D01*
X102825718Y-17207204D01*
X102617204Y-17415718D01*
X102453376Y-17660905D01*
X102340529Y-17933341D01*
X102283000Y-18222558D01*
X102283000Y-18517442D01*
X102340529Y-18806659D01*
X102453376Y-19079095D01*
X102617204Y-19324282D01*
X102710375Y-19417453D01*
X102682571Y-19420192D01*
X102588886Y-19448611D01*
X102502546Y-19494761D01*
X102426868Y-19556868D01*
X102364761Y-19632546D01*
X102318611Y-19718886D01*
X102290192Y-19812571D01*
X102280596Y-19910000D01*
X102280596Y-21910000D01*
X102290192Y-22007429D01*
X102307918Y-22065864D01*
X102282779Y-22049067D01*
X102001243Y-21932451D01*
X101702366Y-21873000D01*
X101397634Y-21873000D01*
X101098757Y-21932451D01*
X100817221Y-22049067D01*
X100563845Y-22218367D01*
X100348367Y-22433845D01*
X100179067Y-22687221D01*
X100062451Y-22968757D01*
X100003000Y-23267634D01*
X100003000Y-23572366D01*
X100017610Y-23645813D01*
X99802366Y-23602998D01*
X99497634Y-23602998D01*
X99198757Y-23662449D01*
X98917221Y-23779065D01*
X98663845Y-23948365D01*
X98448367Y-24163843D01*
X98279067Y-24417219D01*
X98162451Y-24698755D01*
X98103000Y-24997632D01*
X91391000Y-24997632D01*
X91391000Y-20650000D01*
X92320596Y-20650000D01*
X92320596Y-22650000D01*
X92330192Y-22747429D01*
X92358611Y-22841114D01*
X92404761Y-22927454D01*
X92466868Y-23003132D01*
X92542546Y-23065239D01*
X92628886Y-23111389D01*
X92722571Y-23139808D01*
X92820000Y-23149404D01*
X94820000Y-23149404D01*
X94917429Y-23139808D01*
X95011114Y-23111389D01*
X95097454Y-23065239D01*
X95173132Y-23003132D01*
X95235239Y-22927454D01*
X95281389Y-22841114D01*
X95309808Y-22747429D01*
X95319404Y-22650000D01*
X95319404Y-20650000D01*
X96970596Y-20650000D01*
X96970596Y-22650000D01*
X96980192Y-22747429D01*
X97008611Y-22841114D01*
X97054761Y-22927454D01*
X97116868Y-23003132D01*
X97192546Y-23065239D01*
X97278886Y-23111389D01*
X97372571Y-23139808D01*
X97470000Y-23149404D01*
X99470000Y-23149404D01*
X99567429Y-23139808D01*
X99661114Y-23111389D01*
X99747454Y-23065239D01*
X99823132Y-23003132D01*
X99885239Y-22927454D01*
X99931389Y-22841114D01*
X99959808Y-22747429D01*
X99969404Y-22650000D01*
X99969404Y-20650000D01*
X99959808Y-20552571D01*
X99931389Y-20458886D01*
X99885239Y-20372546D01*
X99823132Y-20296868D01*
X99747454Y-20234761D01*
X99661114Y-20188611D01*
X99567429Y-20160192D01*
X99470000Y-20150596D01*
X97470000Y-20150596D01*
X97372571Y-20160192D01*
X97278886Y-20188611D01*
X97192546Y-20234761D01*
X97116868Y-20296868D01*
X97054761Y-20372546D01*
X97008611Y-20458886D01*
X96980192Y-20552571D01*
X96970596Y-20650000D01*
X95319404Y-20650000D01*
X95309808Y-20552571D01*
X95281389Y-20458886D01*
X95235239Y-20372546D01*
X95173132Y-20296868D01*
X95097454Y-20234761D01*
X95011114Y-20188611D01*
X94917429Y-20160192D01*
X94820000Y-20150596D01*
X92820000Y-20150596D01*
X92722571Y-20160192D01*
X92628886Y-20188611D01*
X92542546Y-20234761D01*
X92466868Y-20296868D01*
X92404761Y-20372546D01*
X92358611Y-20458886D01*
X92330192Y-20552571D01*
X92320596Y-20650000D01*
X91391000Y-20650000D01*
X91391000Y-16422558D01*
X92323000Y-16422558D01*
X92323000Y-16717442D01*
X92380529Y-17006659D01*
X92493376Y-17279095D01*
X92657204Y-17524282D01*
X92865718Y-17732796D01*
X93110905Y-17896624D01*
X93383341Y-18009471D01*
X93672558Y-18067000D01*
X93967442Y-18067000D01*
X94256659Y-18009471D01*
X94529095Y-17896624D01*
X94774282Y-17732796D01*
X94982796Y-17524282D01*
X95146624Y-17279095D01*
X95259471Y-17006659D01*
X95317000Y-16717442D01*
X95317000Y-16422558D01*
X96973000Y-16422558D01*
X96973000Y-16717442D01*
X97030529Y-17006659D01*
X97143376Y-17279095D01*
X97307204Y-17524282D01*
X97515718Y-17732796D01*
X97760905Y-17896624D01*
X98033341Y-18009471D01*
X98322558Y-18067000D01*
X98617442Y-18067000D01*
X98906659Y-18009471D01*
X99179095Y-17896624D01*
X99424282Y-17732796D01*
X99632796Y-17524282D01*
X99796624Y-17279095D01*
X99909471Y-17006659D01*
X99967000Y-16717442D01*
X99967000Y-16422558D01*
X99909471Y-16133341D01*
X99796624Y-15860905D01*
X99632796Y-15615718D01*
X99424282Y-15407204D01*
X99179095Y-15243376D01*
X98906659Y-15130529D01*
X98617442Y-15073000D01*
X98322558Y-15073000D01*
X98033341Y-15130529D01*
X97760905Y-15243376D01*
X97515718Y-15407204D01*
X97307204Y-15615718D01*
X97143376Y-15860905D01*
X97030529Y-16133341D01*
X96973000Y-16422558D01*
X95317000Y-16422558D01*
X95259471Y-16133341D01*
X95146624Y-15860905D01*
X94982796Y-15615718D01*
X94774282Y-15407204D01*
X94529095Y-15243376D01*
X94256659Y-15130529D01*
X93967442Y-15073000D01*
X93672558Y-15073000D01*
X93383341Y-15130529D01*
X93110905Y-15243376D01*
X92865718Y-15407204D01*
X92657204Y-15615718D01*
X92493376Y-15860905D01*
X92380529Y-16133341D01*
X92323000Y-16422558D01*
X91391000Y-16422558D01*
X91391000Y-13788416D01*
X93747417Y-11432000D01*
X97537569Y-11432000D01*
X97697367Y-11671155D01*
X97912845Y-11886633D01*
X98166221Y-12055933D01*
X98447757Y-12172549D01*
X98746634Y-12232000D01*
X99051366Y-12232000D01*
X99350243Y-12172549D01*
X99631779Y-12055933D01*
X99885155Y-11886633D01*
X100100633Y-11671155D01*
X100269933Y-11417779D01*
X100386549Y-11136243D01*
X100446000Y-10837366D01*
X100446000Y-10532634D01*
X100386549Y-10233757D01*
X100269933Y-9952221D01*
X100100633Y-9698845D01*
X99885155Y-9483367D01*
X99631779Y-9314067D01*
X99350243Y-9197451D01*
X99051366Y-9138000D01*
X98746634Y-9138000D01*
X98447757Y-9197451D01*
X98166221Y-9314067D01*
X97912845Y-9483367D01*
X97697367Y-9698845D01*
X97537569Y-9938000D01*
X93474685Y-9938000D01*
X93438000Y-9934387D01*
X93401314Y-9938000D01*
X93401307Y-9938000D01*
X93291562Y-9948809D01*
X93150752Y-9991523D01*
X93020981Y-10060887D01*
X92907236Y-10154236D01*
X92883844Y-10182739D01*
X90141740Y-12924844D01*
X90113237Y-12948236D01*
X90019888Y-13061981D01*
X89994549Y-13109387D01*
X89950523Y-13191753D01*
X89907809Y-13332563D01*
X89893387Y-13479000D01*
X89897001Y-13515696D01*
X89897000Y-27520583D01*
X86966740Y-30450844D01*
X86938237Y-30474236D01*
X86844888Y-30587981D01*
X86838464Y-30600000D01*
X86775523Y-30717753D01*
X86732809Y-30858563D01*
X86718387Y-31005000D01*
X86438000Y-31005000D01*
X86438000Y-23872558D01*
X86783000Y-23872558D01*
X86783000Y-24167442D01*
X86840529Y-24456659D01*
X86953376Y-24729095D01*
X87117204Y-24974282D01*
X87325718Y-25182796D01*
X87486161Y-25290000D01*
X87325718Y-25397204D01*
X87117204Y-25605718D01*
X86953376Y-25850905D01*
X86840529Y-26123341D01*
X86783000Y-26412558D01*
X86783000Y-26707442D01*
X86840529Y-26996659D01*
X86953376Y-27269095D01*
X87117204Y-27514282D01*
X87325718Y-27722796D01*
X87570905Y-27886624D01*
X87843341Y-27999471D01*
X88132558Y-28057000D01*
X88427442Y-28057000D01*
X88716659Y-27999471D01*
X88989095Y-27886624D01*
X89234282Y-27722796D01*
X89442796Y-27514282D01*
X89606624Y-27269095D01*
X89719471Y-26996659D01*
X89777000Y-26707442D01*
X89777000Y-26412558D01*
X89719471Y-26123341D01*
X89606624Y-25850905D01*
X89442796Y-25605718D01*
X89234282Y-25397204D01*
X89073839Y-25290000D01*
X89234282Y-25182796D01*
X89442796Y-24974282D01*
X89606624Y-24729095D01*
X89719471Y-24456659D01*
X89777000Y-24167442D01*
X89777000Y-23872558D01*
X89719471Y-23583341D01*
X89606624Y-23310905D01*
X89442796Y-23065718D01*
X89234282Y-22857204D01*
X88989095Y-22693376D01*
X88716659Y-22580529D01*
X88427442Y-22523000D01*
X88132558Y-22523000D01*
X87843341Y-22580529D01*
X87570905Y-22693376D01*
X87325718Y-22857204D01*
X87117204Y-23065718D01*
X86953376Y-23310905D01*
X86840529Y-23583341D01*
X86783000Y-23872558D01*
X86438000Y-23872558D01*
X86438000Y-16758416D01*
X86783000Y-16413416D01*
X86783000Y-16547442D01*
X86840529Y-16836659D01*
X86953376Y-17109095D01*
X87117204Y-17354282D01*
X87325718Y-17562796D01*
X87570905Y-17726624D01*
X87843341Y-17839471D01*
X88132558Y-17897000D01*
X88427442Y-17897000D01*
X88716659Y-17839471D01*
X88989095Y-17726624D01*
X89234282Y-17562796D01*
X89442796Y-17354282D01*
X89606624Y-17109095D01*
X89719471Y-16836659D01*
X89777000Y-16547442D01*
X89777000Y-16252558D01*
X89719471Y-15963341D01*
X89606624Y-15690905D01*
X89442796Y-15445718D01*
X89349625Y-15352547D01*
X89377429Y-15349808D01*
X89471114Y-15321389D01*
X89557454Y-15275239D01*
X89633132Y-15213132D01*
X89695239Y-15137454D01*
X89741389Y-15051114D01*
X89769808Y-14957429D01*
X89779404Y-14860000D01*
X89779404Y-12860000D01*
X89769808Y-12762571D01*
X89741389Y-12668886D01*
X89695239Y-12582546D01*
X89633132Y-12506868D01*
X89557454Y-12444761D01*
X89471114Y-12398611D01*
X89377429Y-12370192D01*
X89280000Y-12360596D01*
X87280000Y-12360596D01*
X87182571Y-12370192D01*
X87088886Y-12398611D01*
X87002546Y-12444761D01*
X86926868Y-12506868D01*
X86864761Y-12582546D01*
X86818611Y-12668886D01*
X86790192Y-12762571D01*
X86780596Y-12860000D01*
X86780596Y-14302987D01*
X85188740Y-15894844D01*
X85160237Y-15918236D01*
X85066888Y-16031981D01*
X85029812Y-16101346D01*
X84997523Y-16161753D01*
X84954809Y-16302563D01*
X84940387Y-16449000D01*
X84652310Y-16449000D01*
X84633913Y-10376668D01*
X88089457Y-8426246D01*
X88789830Y-8062558D01*
X102283000Y-8062558D01*
X102283000Y-8357442D01*
X102340529Y-8646659D01*
X102453376Y-8919095D01*
X102617204Y-9164282D01*
X102825718Y-9372796D01*
X102986161Y-9480000D01*
X102825718Y-9587204D01*
X102617204Y-9795718D01*
X102453376Y-10040905D01*
X102340529Y-10313341D01*
X102283000Y-10602558D01*
X102283000Y-10897442D01*
X102340529Y-11186659D01*
X102453376Y-11459095D01*
X102617204Y-11704282D01*
X102825718Y-11912796D01*
X103070905Y-12076624D01*
X103343341Y-12189471D01*
X103632558Y-12247000D01*
X103927442Y-12247000D01*
X104216659Y-12189471D01*
X104489095Y-12076624D01*
X104734282Y-11912796D01*
X104942796Y-11704282D01*
X105106624Y-11459095D01*
X105219471Y-11186659D01*
X105277000Y-10897442D01*
X105277000Y-10602558D01*
X105219471Y-10313341D01*
X105106624Y-10040905D01*
X104942796Y-9795718D01*
X104734282Y-9587204D01*
X104573839Y-9480000D01*
X104734282Y-9372796D01*
X104942796Y-9164282D01*
X105106624Y-8919095D01*
X105219471Y-8646659D01*
X105277000Y-8357442D01*
X105277000Y-8062558D01*
X105267055Y-8012558D01*
X112283000Y-8012558D01*
X112283000Y-8307442D01*
X112340529Y-8596659D01*
X112453376Y-8869095D01*
X112617204Y-9114282D01*
X112825718Y-9322796D01*
X112986161Y-9430000D01*
X112825718Y-9537204D01*
X112617204Y-9745718D01*
X112453376Y-9990905D01*
X112340529Y-10263341D01*
X112283000Y-10552558D01*
X112283000Y-10847442D01*
X112340529Y-11136659D01*
X112453376Y-11409095D01*
X112617204Y-11654282D01*
X112825718Y-11862796D01*
X113070905Y-12026624D01*
X113343341Y-12139471D01*
X113632558Y-12197000D01*
X113927442Y-12197000D01*
X114216659Y-12139471D01*
X114489095Y-12026624D01*
X114734282Y-11862796D01*
X114942796Y-11654282D01*
X115106624Y-11409095D01*
X115219471Y-11136659D01*
X115277000Y-10847442D01*
X115277000Y-10552558D01*
X115219471Y-10263341D01*
X115106624Y-9990905D01*
X114942796Y-9745718D01*
X114734282Y-9537204D01*
X114573839Y-9430000D01*
X114734282Y-9322796D01*
X114942796Y-9114282D01*
X115106624Y-8869095D01*
X115219471Y-8596659D01*
X115277000Y-8307442D01*
X115277000Y-8012558D01*
X115219471Y-7723341D01*
X115106624Y-7450905D01*
X114942796Y-7205718D01*
X114734282Y-6997204D01*
X114489095Y-6833376D01*
X114216659Y-6720529D01*
X113927442Y-6663000D01*
X113632558Y-6663000D01*
X113343341Y-6720529D01*
X113070905Y-6833376D01*
X112825718Y-6997204D01*
X112617204Y-7205718D01*
X112453376Y-7450905D01*
X112340529Y-7723341D01*
X112283000Y-8012558D01*
X105267055Y-8012558D01*
X105219471Y-7773341D01*
X105106624Y-7500905D01*
X104942796Y-7255718D01*
X104734282Y-7047204D01*
X104489095Y-6883376D01*
X104216659Y-6770529D01*
X103927442Y-6713000D01*
X103632558Y-6713000D01*
X103343341Y-6770529D01*
X103070905Y-6883376D01*
X102825718Y-7047204D01*
X102617204Y-7255718D01*
X102453376Y-7500905D01*
X102340529Y-7773341D01*
X102283000Y-8062558D01*
X88789830Y-8062558D01*
X91874257Y-6460887D01*
X95725364Y-4628801D01*
X99638110Y-2932214D01*
X100872154Y-2447558D01*
X125123000Y-2447558D01*
X125123000Y-2742442D01*
X125180529Y-3031659D01*
X125293376Y-3304095D01*
X125457204Y-3549282D01*
X125665718Y-3757796D01*
X125910905Y-3921624D01*
X126183341Y-4034471D01*
X126472558Y-4092000D01*
X126767442Y-4092000D01*
X127056659Y-4034471D01*
X127329095Y-3921624D01*
X127574282Y-3757796D01*
X127782796Y-3549282D01*
X127890000Y-3388839D01*
X127997204Y-3549282D01*
X128205718Y-3757796D01*
X128366161Y-3865000D01*
X128205718Y-3972204D01*
X127997204Y-4180718D01*
X127833376Y-4425905D01*
X127720529Y-4698341D01*
X127663000Y-4987558D01*
X127663000Y-5282442D01*
X127720529Y-5571659D01*
X127833376Y-5844095D01*
X127997204Y-6089282D01*
X128205718Y-6297796D01*
X128450905Y-6461624D01*
X128723341Y-6574471D01*
X129012558Y-6632000D01*
X129307442Y-6632000D01*
X129596659Y-6574471D01*
X129869095Y-6461624D01*
X130114282Y-6297796D01*
X130322796Y-6089282D01*
X130430000Y-5928839D01*
X130537204Y-6089282D01*
X130745718Y-6297796D01*
X130990905Y-6461624D01*
X131263341Y-6574471D01*
X131552558Y-6632000D01*
X131847442Y-6632000D01*
X132136659Y-6574471D01*
X132409095Y-6461624D01*
X132654282Y-6297796D01*
X132862796Y-6089282D01*
X132970000Y-5928839D01*
X133077204Y-6089282D01*
X133285718Y-6297796D01*
X133530905Y-6461624D01*
X133803341Y-6574471D01*
X134092558Y-6632000D01*
X134387442Y-6632000D01*
X134676659Y-6574471D01*
X134949095Y-6461624D01*
X135194282Y-6297796D01*
X135402796Y-6089282D01*
X135510000Y-5928839D01*
X135617204Y-6089282D01*
X135825718Y-6297796D01*
X136070905Y-6461624D01*
X136343341Y-6574471D01*
X136632558Y-6632000D01*
X136927442Y-6632000D01*
X137216659Y-6574471D01*
X137489095Y-6461624D01*
X137734282Y-6297796D01*
X137942796Y-6089282D01*
X138050000Y-5928839D01*
X138157204Y-6089282D01*
X138365718Y-6297796D01*
X138610905Y-6461624D01*
X138883341Y-6574471D01*
X139172558Y-6632000D01*
X139467442Y-6632000D01*
X139756659Y-6574471D01*
X140029095Y-6461624D01*
X140274282Y-6297796D01*
X140482796Y-6089282D01*
X140590000Y-5928839D01*
X140697204Y-6089282D01*
X140905718Y-6297796D01*
X141150905Y-6461624D01*
X141423341Y-6574471D01*
X141712558Y-6632000D01*
X142007442Y-6632000D01*
X142296659Y-6574471D01*
X142569095Y-6461624D01*
X142814282Y-6297796D01*
X143022796Y-6089282D01*
X143186624Y-5844095D01*
X143299471Y-5571659D01*
X143357000Y-5282442D01*
X143357000Y-4987558D01*
X143299471Y-4698341D01*
X143186624Y-4425905D01*
X143022796Y-4180718D01*
X142814282Y-3972204D01*
X142653839Y-3865000D01*
X142814282Y-3757796D01*
X143022796Y-3549282D01*
X143130000Y-3388839D01*
X143237204Y-3549282D01*
X143445718Y-3757796D01*
X143690905Y-3921624D01*
X143963341Y-4034471D01*
X144252558Y-4092000D01*
X144547442Y-4092000D01*
X144836659Y-4034471D01*
X145109095Y-3921624D01*
X145354282Y-3757796D01*
X145562796Y-3549282D01*
X145670000Y-3388839D01*
X145777204Y-3549282D01*
X145985718Y-3757796D01*
X146146161Y-3865000D01*
X145985718Y-3972204D01*
X145777204Y-4180718D01*
X145613376Y-4425905D01*
X145500529Y-4698341D01*
X145443000Y-4987558D01*
X145443000Y-5282442D01*
X145500529Y-5571659D01*
X145613376Y-5844095D01*
X145777204Y-6089282D01*
X145985718Y-6297796D01*
X146230905Y-6461624D01*
X146503341Y-6574471D01*
X146792558Y-6632000D01*
X147087442Y-6632000D01*
X147376659Y-6574471D01*
X147649095Y-6461624D01*
X147894282Y-6297796D01*
X148102796Y-6089282D01*
X148210000Y-5928839D01*
X148317204Y-6089282D01*
X148525718Y-6297796D01*
X148770905Y-6461624D01*
X149043341Y-6574471D01*
X149332558Y-6632000D01*
X149627442Y-6632000D01*
X149916659Y-6574471D01*
X150189095Y-6461624D01*
X150434282Y-6297796D01*
X150642796Y-6089282D01*
X150750000Y-5928839D01*
X150857204Y-6089282D01*
X151065718Y-6297796D01*
X151310905Y-6461624D01*
X151583341Y-6574471D01*
X151872558Y-6632000D01*
X152167442Y-6632000D01*
X152456659Y-6574471D01*
X152729095Y-6461624D01*
X152974282Y-6297796D01*
X153182796Y-6089282D01*
X153290000Y-5928839D01*
X153397204Y-6089282D01*
X153605718Y-6297796D01*
X153850905Y-6461624D01*
X154123341Y-6574471D01*
X154412558Y-6632000D01*
X154707442Y-6632000D01*
X154996659Y-6574471D01*
X155269095Y-6461624D01*
X155514282Y-6297796D01*
X155722796Y-6089282D01*
X155830000Y-5928839D01*
X155937204Y-6089282D01*
X156145718Y-6297796D01*
X156390905Y-6461624D01*
X156663341Y-6574471D01*
X156952558Y-6632000D01*
X157247442Y-6632000D01*
X157536659Y-6574471D01*
X157809095Y-6461624D01*
X158054282Y-6297796D01*
X158262796Y-6089282D01*
X158370000Y-5928839D01*
X158477204Y-6089282D01*
X158685718Y-6297796D01*
X158930905Y-6461624D01*
X159203341Y-6574471D01*
X159492558Y-6632000D01*
X159787442Y-6632000D01*
X160076659Y-6574471D01*
X160349095Y-6461624D01*
X160594282Y-6297796D01*
X160802796Y-6089282D01*
X160910000Y-5928839D01*
X161017204Y-6089282D01*
X161225718Y-6297796D01*
X161470905Y-6461624D01*
X161743341Y-6574471D01*
X162032558Y-6632000D01*
X162327442Y-6632000D01*
X162616659Y-6574471D01*
X162889095Y-6461624D01*
X163134282Y-6297796D01*
X163342796Y-6089282D01*
X163506624Y-5844095D01*
X163619471Y-5571659D01*
X163677000Y-5282442D01*
X163677000Y-4987558D01*
X163619471Y-4698341D01*
X163506624Y-4425905D01*
X163342796Y-4180718D01*
X163134282Y-3972204D01*
X162973839Y-3865000D01*
X163134282Y-3757796D01*
X163342796Y-3549282D01*
X163450000Y-3388839D01*
X163557204Y-3549282D01*
X163765718Y-3757796D01*
X164010905Y-3921624D01*
X164283341Y-4034471D01*
X164572558Y-4092000D01*
X164867442Y-4092000D01*
X165156659Y-4034471D01*
X165429095Y-3921624D01*
X165674282Y-3757796D01*
X165882796Y-3549282D01*
X165990000Y-3388839D01*
X166097204Y-3549282D01*
X166305718Y-3757796D01*
X166466161Y-3865000D01*
X166305718Y-3972204D01*
X166097204Y-4180718D01*
X165933376Y-4425905D01*
X165820529Y-4698341D01*
X165763000Y-4987558D01*
X165763000Y-5282442D01*
X165820529Y-5571659D01*
X165933376Y-5844095D01*
X166097204Y-6089282D01*
X166305718Y-6297796D01*
X166550905Y-6461624D01*
X166823341Y-6574471D01*
X167112558Y-6632000D01*
X167407442Y-6632000D01*
X167696659Y-6574471D01*
X167969095Y-6461624D01*
X168214282Y-6297796D01*
X168422796Y-6089282D01*
X168530000Y-5928839D01*
X168637204Y-6089282D01*
X168845718Y-6297796D01*
X169090905Y-6461624D01*
X169363341Y-6574471D01*
X169652558Y-6632000D01*
X169947442Y-6632000D01*
X170236659Y-6574471D01*
X170509095Y-6461624D01*
X170754282Y-6297796D01*
X170962796Y-6089282D01*
X171070000Y-5928839D01*
X171177204Y-6089282D01*
X171385718Y-6297796D01*
X171630905Y-6461624D01*
X171903341Y-6574471D01*
X172192558Y-6632000D01*
X172487442Y-6632000D01*
X172776659Y-6574471D01*
X173049095Y-6461624D01*
X173294282Y-6297796D01*
X173387453Y-6204625D01*
X173390192Y-6232429D01*
X173418611Y-6326114D01*
X173464761Y-6412454D01*
X173526868Y-6488132D01*
X173602546Y-6550239D01*
X173688886Y-6596389D01*
X173782571Y-6624808D01*
X173880000Y-6634404D01*
X175880000Y-6634404D01*
X175977429Y-6624808D01*
X176071114Y-6596389D01*
X176157454Y-6550239D01*
X176233132Y-6488132D01*
X176295239Y-6412454D01*
X176341389Y-6326114D01*
X176369808Y-6232429D01*
X176379404Y-6135000D01*
X176379404Y-4135000D01*
X176369808Y-4037571D01*
X176341389Y-3943886D01*
X176295239Y-3857546D01*
X176233132Y-3781868D01*
X176157454Y-3719761D01*
X176071114Y-3673611D01*
X175977429Y-3645192D01*
X175949625Y-3642453D01*
X176042796Y-3549282D01*
X176206624Y-3304095D01*
X176319471Y-3031659D01*
X176377000Y-2742442D01*
X176377000Y-2447558D01*
X176319471Y-2158341D01*
X176206624Y-1885905D01*
X176042796Y-1640718D01*
X175834282Y-1432204D01*
X175589095Y-1268376D01*
X175316659Y-1155529D01*
X175027442Y-1098000D01*
X174732558Y-1098000D01*
X174443341Y-1155529D01*
X174170905Y-1268376D01*
X173925718Y-1432204D01*
X173717204Y-1640718D01*
X173610000Y-1801161D01*
X173502796Y-1640718D01*
X173294282Y-1432204D01*
X173049095Y-1268376D01*
X172776659Y-1155529D01*
X172487442Y-1098000D01*
X172192558Y-1098000D01*
X171903341Y-1155529D01*
X171630905Y-1268376D01*
X171385718Y-1432204D01*
X171177204Y-1640718D01*
X171013376Y-1885905D01*
X170900529Y-2158341D01*
X170843000Y-2447558D01*
X170843000Y-2742442D01*
X170900529Y-3031659D01*
X171013376Y-3304095D01*
X171177204Y-3549282D01*
X171385718Y-3757796D01*
X171546161Y-3865000D01*
X171385718Y-3972204D01*
X171177204Y-4180718D01*
X171070000Y-4341161D01*
X170962796Y-4180718D01*
X170754282Y-3972204D01*
X170509095Y-3808376D01*
X170236659Y-3695529D01*
X169947442Y-3638000D01*
X169652558Y-3638000D01*
X169363341Y-3695529D01*
X169090905Y-3808376D01*
X168845718Y-3972204D01*
X168637204Y-4180718D01*
X168530000Y-4341161D01*
X168422796Y-4180718D01*
X168214282Y-3972204D01*
X168053839Y-3865000D01*
X168214282Y-3757796D01*
X168422796Y-3549282D01*
X168586624Y-3304095D01*
X168699471Y-3031659D01*
X168757000Y-2742442D01*
X168757000Y-2447558D01*
X168699471Y-2158341D01*
X168586624Y-1885905D01*
X168422796Y-1640718D01*
X168214282Y-1432204D01*
X167969095Y-1268376D01*
X167696659Y-1155529D01*
X167407442Y-1098000D01*
X167112558Y-1098000D01*
X166823341Y-1155529D01*
X166550905Y-1268376D01*
X166305718Y-1432204D01*
X166097204Y-1640718D01*
X165990000Y-1801161D01*
X165882796Y-1640718D01*
X165674282Y-1432204D01*
X165429095Y-1268376D01*
X165156659Y-1155529D01*
X164867442Y-1098000D01*
X164572558Y-1098000D01*
X164283341Y-1155529D01*
X164010905Y-1268376D01*
X163765718Y-1432204D01*
X163557204Y-1640718D01*
X163450000Y-1801161D01*
X163342796Y-1640718D01*
X163134282Y-1432204D01*
X162889095Y-1268376D01*
X162616659Y-1155529D01*
X162327442Y-1098000D01*
X162032558Y-1098000D01*
X161743341Y-1155529D01*
X161470905Y-1268376D01*
X161225718Y-1432204D01*
X161017204Y-1640718D01*
X160853376Y-1885905D01*
X160740529Y-2158341D01*
X160683000Y-2447558D01*
X160683000Y-2742442D01*
X160740529Y-3031659D01*
X160853376Y-3304095D01*
X161017204Y-3549282D01*
X161225718Y-3757796D01*
X161386161Y-3865000D01*
X161225718Y-3972204D01*
X161017204Y-4180718D01*
X160910000Y-4341161D01*
X160802796Y-4180718D01*
X160594282Y-3972204D01*
X160349095Y-3808376D01*
X160076659Y-3695529D01*
X159787442Y-3638000D01*
X159492558Y-3638000D01*
X159203341Y-3695529D01*
X158930905Y-3808376D01*
X158685718Y-3972204D01*
X158477204Y-4180718D01*
X158370000Y-4341161D01*
X158262796Y-4180718D01*
X158054282Y-3972204D01*
X157893839Y-3865000D01*
X158054282Y-3757796D01*
X158262796Y-3549282D01*
X158426624Y-3304095D01*
X158539471Y-3031659D01*
X158597000Y-2742442D01*
X158597000Y-2447558D01*
X158539471Y-2158341D01*
X158426624Y-1885905D01*
X158262796Y-1640718D01*
X158054282Y-1432204D01*
X157809095Y-1268376D01*
X157536659Y-1155529D01*
X157247442Y-1098000D01*
X156952558Y-1098000D01*
X156663341Y-1155529D01*
X156390905Y-1268376D01*
X156145718Y-1432204D01*
X155937204Y-1640718D01*
X155830000Y-1801161D01*
X155722796Y-1640718D01*
X155514282Y-1432204D01*
X155269095Y-1268376D01*
X154996659Y-1155529D01*
X154707442Y-1098000D01*
X154412558Y-1098000D01*
X154123341Y-1155529D01*
X153850905Y-1268376D01*
X153605718Y-1432204D01*
X153397204Y-1640718D01*
X153233376Y-1885905D01*
X153120529Y-2158341D01*
X153063000Y-2447558D01*
X153063000Y-2742442D01*
X153120529Y-3031659D01*
X153233376Y-3304095D01*
X153397204Y-3549282D01*
X153605718Y-3757796D01*
X153766161Y-3865000D01*
X153605718Y-3972204D01*
X153397204Y-4180718D01*
X153290000Y-4341161D01*
X153182796Y-4180718D01*
X152974282Y-3972204D01*
X152729095Y-3808376D01*
X152456659Y-3695529D01*
X152167442Y-3638000D01*
X151872558Y-3638000D01*
X151583341Y-3695529D01*
X151310905Y-3808376D01*
X151065718Y-3972204D01*
X150857204Y-4180718D01*
X150750000Y-4341161D01*
X150642796Y-4180718D01*
X150434282Y-3972204D01*
X150273839Y-3865000D01*
X150434282Y-3757796D01*
X150642796Y-3549282D01*
X150806624Y-3304095D01*
X150919471Y-3031659D01*
X150977000Y-2742442D01*
X150977000Y-2447558D01*
X150919471Y-2158341D01*
X150806624Y-1885905D01*
X150642796Y-1640718D01*
X150434282Y-1432204D01*
X150189095Y-1268376D01*
X149916659Y-1155529D01*
X149627442Y-1098000D01*
X149332558Y-1098000D01*
X149043341Y-1155529D01*
X148770905Y-1268376D01*
X148525718Y-1432204D01*
X148317204Y-1640718D01*
X148210000Y-1801161D01*
X148102796Y-1640718D01*
X147894282Y-1432204D01*
X147649095Y-1268376D01*
X147376659Y-1155529D01*
X147087442Y-1098000D01*
X146792558Y-1098000D01*
X146503341Y-1155529D01*
X146230905Y-1268376D01*
X145985718Y-1432204D01*
X145777204Y-1640718D01*
X145670000Y-1801161D01*
X145562796Y-1640718D01*
X145354282Y-1432204D01*
X145109095Y-1268376D01*
X144836659Y-1155529D01*
X144547442Y-1098000D01*
X144252558Y-1098000D01*
X143963341Y-1155529D01*
X143690905Y-1268376D01*
X143445718Y-1432204D01*
X143237204Y-1640718D01*
X143130000Y-1801161D01*
X143022796Y-1640718D01*
X142814282Y-1432204D01*
X142569095Y-1268376D01*
X142296659Y-1155529D01*
X142007442Y-1098000D01*
X141712558Y-1098000D01*
X141423341Y-1155529D01*
X141150905Y-1268376D01*
X140905718Y-1432204D01*
X140697204Y-1640718D01*
X140533376Y-1885905D01*
X140420529Y-2158341D01*
X140363000Y-2447558D01*
X140363000Y-2742442D01*
X140420529Y-3031659D01*
X140533376Y-3304095D01*
X140697204Y-3549282D01*
X140905718Y-3757796D01*
X141066161Y-3865000D01*
X140905718Y-3972204D01*
X140697204Y-4180718D01*
X140590000Y-4341161D01*
X140482796Y-4180718D01*
X140274282Y-3972204D01*
X140029095Y-3808376D01*
X139756659Y-3695529D01*
X139467442Y-3638000D01*
X139172558Y-3638000D01*
X138883341Y-3695529D01*
X138610905Y-3808376D01*
X138365718Y-3972204D01*
X138157204Y-4180718D01*
X138050000Y-4341161D01*
X137942796Y-4180718D01*
X137734282Y-3972204D01*
X137573839Y-3865000D01*
X137734282Y-3757796D01*
X137942796Y-3549282D01*
X138106624Y-3304095D01*
X138219471Y-3031659D01*
X138277000Y-2742442D01*
X138277000Y-2447558D01*
X138219471Y-2158341D01*
X138106624Y-1885905D01*
X137942796Y-1640718D01*
X137734282Y-1432204D01*
X137489095Y-1268376D01*
X137216659Y-1155529D01*
X136927442Y-1098000D01*
X136632558Y-1098000D01*
X136343341Y-1155529D01*
X136070905Y-1268376D01*
X135825718Y-1432204D01*
X135617204Y-1640718D01*
X135453376Y-1885905D01*
X135340529Y-2158341D01*
X135283000Y-2447558D01*
X135283000Y-2742442D01*
X135340529Y-3031659D01*
X135453376Y-3304095D01*
X135617204Y-3549282D01*
X135825718Y-3757796D01*
X135986161Y-3865000D01*
X135825718Y-3972204D01*
X135617204Y-4180718D01*
X135510000Y-4341161D01*
X135402796Y-4180718D01*
X135194282Y-3972204D01*
X134949095Y-3808376D01*
X134676659Y-3695529D01*
X134387442Y-3638000D01*
X134092558Y-3638000D01*
X133803341Y-3695529D01*
X133530905Y-3808376D01*
X133285718Y-3972204D01*
X133077204Y-4180718D01*
X132970000Y-4341161D01*
X132862796Y-4180718D01*
X132654282Y-3972204D01*
X132493839Y-3865000D01*
X132654282Y-3757796D01*
X132862796Y-3549282D01*
X133026624Y-3304095D01*
X133139471Y-3031659D01*
X133197000Y-2742442D01*
X133197000Y-2447558D01*
X133139471Y-2158341D01*
X133026624Y-1885905D01*
X132862796Y-1640718D01*
X132654282Y-1432204D01*
X132409095Y-1268376D01*
X132136659Y-1155529D01*
X131847442Y-1098000D01*
X131552558Y-1098000D01*
X131263341Y-1155529D01*
X130990905Y-1268376D01*
X130745718Y-1432204D01*
X130537204Y-1640718D01*
X130430000Y-1801161D01*
X130322796Y-1640718D01*
X130114282Y-1432204D01*
X129869095Y-1268376D01*
X129596659Y-1155529D01*
X129307442Y-1098000D01*
X129012558Y-1098000D01*
X128723341Y-1155529D01*
X128450905Y-1268376D01*
X128205718Y-1432204D01*
X127997204Y-1640718D01*
X127890000Y-1801161D01*
X127782796Y-1640718D01*
X127574282Y-1432204D01*
X127329095Y-1268376D01*
X127056659Y-1155529D01*
X126767442Y-1098000D01*
X126472558Y-1098000D01*
X126183341Y-1155529D01*
X125910905Y-1268376D01*
X125665718Y-1432204D01*
X125457204Y-1640718D01*
X125293376Y-1885905D01*
X125180529Y-2158341D01*
X125123000Y-2447558D01*
X100872154Y-2447558D01*
X103607627Y-1373235D01*
X107629180Y46276D01*
X111697754Y1324551D01*
X115808507Y2460070D01*
X119956419Y3451441D01*
X124136354Y4297438D01*
X128343265Y4997042D01*
X132572051Y5549403D01*
X136817527Y5953843D01*
X141074509Y6209872D01*
X145337892Y6317180D01*
X149602361Y6275633D01*
%TA.AperFunction,Conductor*%
D18*
G36*
X149602361Y6275633D02*
G01*
X153862828Y6085280D01*
X158114037Y5746359D01*
X162350807Y5259280D01*
X166568052Y4624628D01*
X170760510Y3843197D01*
X174923209Y2915912D01*
X179050967Y1843928D01*
X183139980Y628188D01*
X185757999Y-237228D01*
X185758001Y-65338000D01*
X84800421Y-65338000D01*
X84772556Y-56140000D01*
X92080596Y-56140000D01*
X92080596Y-58740000D01*
X92090192Y-58837429D01*
X92118611Y-58931114D01*
X92164761Y-59017454D01*
X92226868Y-59093132D01*
X92302546Y-59155239D01*
X92388886Y-59201389D01*
X92482571Y-59229808D01*
X92580000Y-59239404D01*
X94580000Y-59239404D01*
X94677429Y-59229808D01*
X94771114Y-59201389D01*
X94857454Y-59155239D01*
X94933132Y-59093132D01*
X94995239Y-59017454D01*
X95041389Y-58931114D01*
X95069808Y-58837429D01*
X95071878Y-58816412D01*
X95284288Y-58990732D01*
X95544352Y-59129739D01*
X95826538Y-59215339D01*
X96120000Y-59244243D01*
X96413463Y-59215339D01*
X96695649Y-59129739D01*
X96955713Y-58990732D01*
X97183660Y-58803660D01*
X97370732Y-58575713D01*
X97480817Y-58369758D01*
X97497204Y-58394282D01*
X97705718Y-58602796D01*
X97950905Y-58766624D01*
X98223341Y-58879471D01*
X98512558Y-58937000D01*
X98807442Y-58937000D01*
X99096659Y-58879471D01*
X99369095Y-58766624D01*
X99614282Y-58602796D01*
X99822796Y-58394282D01*
X99986624Y-58149095D01*
X100099471Y-57876659D01*
X100157000Y-57587442D01*
X100157000Y-57292558D01*
X102243000Y-57292558D01*
X102243000Y-57587442D01*
X102300529Y-57876659D01*
X102413376Y-58149095D01*
X102577204Y-58394282D01*
X102785718Y-58602796D01*
X103030905Y-58766624D01*
X103303341Y-58879471D01*
X103592558Y-58937000D01*
X103887442Y-58937000D01*
X104176659Y-58879471D01*
X104449095Y-58766624D01*
X104694282Y-58602796D01*
X104902796Y-58394282D01*
X105010000Y-58233839D01*
X105117204Y-58394282D01*
X105325718Y-58602796D01*
X105570905Y-58766624D01*
X105843341Y-58879471D01*
X106132558Y-58937000D01*
X106427442Y-58937000D01*
X106716659Y-58879471D01*
X106989095Y-58766624D01*
X107234282Y-58602796D01*
X107442796Y-58394282D01*
X107550000Y-58233839D01*
X107657204Y-58394282D01*
X107865718Y-58602796D01*
X108110905Y-58766624D01*
X108383341Y-58879471D01*
X108672558Y-58937000D01*
X108967442Y-58937000D01*
X109256659Y-58879471D01*
X109529095Y-58766624D01*
X109774282Y-58602796D01*
X109982796Y-58394282D01*
X110090000Y-58233839D01*
X110197204Y-58394282D01*
X110405718Y-58602796D01*
X110650905Y-58766624D01*
X110923341Y-58879471D01*
X111212558Y-58937000D01*
X111507442Y-58937000D01*
X111796659Y-58879471D01*
X112069095Y-58766624D01*
X112314282Y-58602796D01*
X112522796Y-58394282D01*
X112630000Y-58233839D01*
X112737204Y-58394282D01*
X112945718Y-58602796D01*
X113190905Y-58766624D01*
X113463341Y-58879471D01*
X113752558Y-58937000D01*
X114047442Y-58937000D01*
X114336659Y-58879471D01*
X114609095Y-58766624D01*
X114854282Y-58602796D01*
X115062796Y-58394282D01*
X115170000Y-58233839D01*
X115277204Y-58394282D01*
X115485718Y-58602796D01*
X115730905Y-58766624D01*
X116003341Y-58879471D01*
X116292558Y-58937000D01*
X116587442Y-58937000D01*
X116876659Y-58879471D01*
X117149095Y-58766624D01*
X117394282Y-58602796D01*
X117602796Y-58394282D01*
X117710000Y-58233839D01*
X117817204Y-58394282D01*
X118025718Y-58602796D01*
X118270905Y-58766624D01*
X118543341Y-58879471D01*
X118832558Y-58937000D01*
X119127442Y-58937000D01*
X119416659Y-58879471D01*
X119689095Y-58766624D01*
X119934282Y-58602796D01*
X120142796Y-58394282D01*
X120250000Y-58233839D01*
X120357204Y-58394282D01*
X120565718Y-58602796D01*
X120810905Y-58766624D01*
X121083341Y-58879471D01*
X121372558Y-58937000D01*
X121667442Y-58937000D01*
X121956659Y-58879471D01*
X122229095Y-58766624D01*
X122474282Y-58602796D01*
X122682796Y-58394282D01*
X122790000Y-58233839D01*
X122897204Y-58394282D01*
X123105718Y-58602796D01*
X123350905Y-58766624D01*
X123623341Y-58879471D01*
X123912558Y-58937000D01*
X124207442Y-58937000D01*
X124496659Y-58879471D01*
X124769095Y-58766624D01*
X125014282Y-58602796D01*
X125222796Y-58394282D01*
X125330000Y-58233839D01*
X125437204Y-58394282D01*
X125645718Y-58602796D01*
X125890905Y-58766624D01*
X126163341Y-58879471D01*
X126452558Y-58937000D01*
X126747442Y-58937000D01*
X127036659Y-58879471D01*
X127309095Y-58766624D01*
X127554282Y-58602796D01*
X127762796Y-58394282D01*
X127870000Y-58233839D01*
X127977204Y-58394282D01*
X128185718Y-58602796D01*
X128430905Y-58766624D01*
X128703341Y-58879471D01*
X128992558Y-58937000D01*
X129287442Y-58937000D01*
X129576659Y-58879471D01*
X129849095Y-58766624D01*
X130094282Y-58602796D01*
X130302796Y-58394282D01*
X130445974Y-58180000D01*
X139970596Y-58180000D01*
X139970596Y-60180000D01*
X139980192Y-60277429D01*
X140008611Y-60371114D01*
X140054761Y-60457454D01*
X140116868Y-60533132D01*
X140192546Y-60595239D01*
X140278886Y-60641389D01*
X140372571Y-60669808D01*
X140470000Y-60679404D01*
X142470000Y-60679404D01*
X142567429Y-60669808D01*
X142661114Y-60641389D01*
X142747454Y-60595239D01*
X142823132Y-60533132D01*
X142885239Y-60457454D01*
X142931389Y-60371114D01*
X142959808Y-60277429D01*
X142962547Y-60249625D01*
X143055718Y-60342796D01*
X143300905Y-60506624D01*
X143573341Y-60619471D01*
X143862558Y-60677000D01*
X144157442Y-60677000D01*
X144446659Y-60619471D01*
X144719095Y-60506624D01*
X144964282Y-60342796D01*
X145172796Y-60134282D01*
X145280000Y-59973839D01*
X145387204Y-60134282D01*
X145595718Y-60342796D01*
X145840905Y-60506624D01*
X146113341Y-60619471D01*
X146402558Y-60677000D01*
X146697442Y-60677000D01*
X146986659Y-60619471D01*
X147259095Y-60506624D01*
X147504282Y-60342796D01*
X147712796Y-60134282D01*
X147876624Y-59889095D01*
X147989471Y-59616659D01*
X148047000Y-59327442D01*
X148047000Y-59032558D01*
X150133000Y-59032558D01*
X150133000Y-59327442D01*
X150190529Y-59616659D01*
X150303376Y-59889095D01*
X150467204Y-60134282D01*
X150675718Y-60342796D01*
X150920905Y-60506624D01*
X151193341Y-60619471D01*
X151482558Y-60677000D01*
X151777442Y-60677000D01*
X152066659Y-60619471D01*
X152339095Y-60506624D01*
X152584282Y-60342796D01*
X152792796Y-60134282D01*
X152900000Y-59973839D01*
X153007204Y-60134282D01*
X153215718Y-60342796D01*
X153460905Y-60506624D01*
X153733341Y-60619471D01*
X154022558Y-60677000D01*
X154317442Y-60677000D01*
X154606659Y-60619471D01*
X154879095Y-60506624D01*
X155124282Y-60342796D01*
X155332796Y-60134282D01*
X155440000Y-59973839D01*
X155547204Y-60134282D01*
X155755718Y-60342796D01*
X156000905Y-60506624D01*
X156273341Y-60619471D01*
X156562558Y-60677000D01*
X156857442Y-60677000D01*
X157146659Y-60619471D01*
X157419095Y-60506624D01*
X157664282Y-60342796D01*
X157872796Y-60134282D01*
X157980000Y-59973839D01*
X158087204Y-60134282D01*
X158295718Y-60342796D01*
X158540905Y-60506624D01*
X158813341Y-60619471D01*
X159102558Y-60677000D01*
X159397442Y-60677000D01*
X159686659Y-60619471D01*
X159959095Y-60506624D01*
X160204282Y-60342796D01*
X160412796Y-60134282D01*
X160520000Y-59973839D01*
X160627204Y-60134282D01*
X160835718Y-60342796D01*
X161080905Y-60506624D01*
X161353341Y-60619471D01*
X161642558Y-60677000D01*
X161937442Y-60677000D01*
X162226659Y-60619471D01*
X162499095Y-60506624D01*
X162744282Y-60342796D01*
X162952796Y-60134282D01*
X163060000Y-59973839D01*
X163167204Y-60134282D01*
X163375718Y-60342796D01*
X163620905Y-60506624D01*
X163893341Y-60619471D01*
X164182558Y-60677000D01*
X164477442Y-60677000D01*
X164766659Y-60619471D01*
X165039095Y-60506624D01*
X165284282Y-60342796D01*
X165492796Y-60134282D01*
X165600000Y-59973839D01*
X165707204Y-60134282D01*
X165915718Y-60342796D01*
X166160905Y-60506624D01*
X166433341Y-60619471D01*
X166722558Y-60677000D01*
X167017442Y-60677000D01*
X167306659Y-60619471D01*
X167579095Y-60506624D01*
X167824282Y-60342796D01*
X168032796Y-60134282D01*
X168140000Y-59973839D01*
X168247204Y-60134282D01*
X168455718Y-60342796D01*
X168700905Y-60506624D01*
X168973341Y-60619471D01*
X169262558Y-60677000D01*
X169557442Y-60677000D01*
X169846659Y-60619471D01*
X170119095Y-60506624D01*
X170364282Y-60342796D01*
X170572796Y-60134282D01*
X170680000Y-59973839D01*
X170787204Y-60134282D01*
X170995718Y-60342796D01*
X171240905Y-60506624D01*
X171513341Y-60619471D01*
X171802558Y-60677000D01*
X172097442Y-60677000D01*
X172386659Y-60619471D01*
X172659095Y-60506624D01*
X172904282Y-60342796D01*
X173112796Y-60134282D01*
X173220000Y-59973839D01*
X173327204Y-60134282D01*
X173535718Y-60342796D01*
X173780905Y-60506624D01*
X174053341Y-60619471D01*
X174342558Y-60677000D01*
X174637442Y-60677000D01*
X174926659Y-60619471D01*
X175199095Y-60506624D01*
X175444282Y-60342796D01*
X175652796Y-60134282D01*
X175760000Y-59973839D01*
X175867204Y-60134282D01*
X176075718Y-60342796D01*
X176320905Y-60506624D01*
X176593341Y-60619471D01*
X176882558Y-60677000D01*
X177177442Y-60677000D01*
X177466659Y-60619471D01*
X177739095Y-60506624D01*
X177984282Y-60342796D01*
X178192796Y-60134282D01*
X178300000Y-59973839D01*
X178407204Y-60134282D01*
X178615718Y-60342796D01*
X178860905Y-60506624D01*
X179133341Y-60619471D01*
X179422558Y-60677000D01*
X179717442Y-60677000D01*
X180006659Y-60619471D01*
X180279095Y-60506624D01*
X180524282Y-60342796D01*
X180732796Y-60134282D01*
X180896624Y-59889095D01*
X181009471Y-59616659D01*
X181067000Y-59327442D01*
X181067000Y-59032558D01*
X181009471Y-58743341D01*
X180896624Y-58470905D01*
X180732796Y-58225718D01*
X180524282Y-58017204D01*
X180279095Y-57853376D01*
X180006659Y-57740529D01*
X179717442Y-57683000D01*
X179422558Y-57683000D01*
X179133341Y-57740529D01*
X178860905Y-57853376D01*
X178615718Y-58017204D01*
X178407204Y-58225718D01*
X178300000Y-58386161D01*
X178192796Y-58225718D01*
X177984282Y-58017204D01*
X177739095Y-57853376D01*
X177466659Y-57740529D01*
X177177442Y-57683000D01*
X176882558Y-57683000D01*
X176593341Y-57740529D01*
X176320905Y-57853376D01*
X176075718Y-58017204D01*
X175867204Y-58225718D01*
X175760000Y-58386161D01*
X175652796Y-58225718D01*
X175444282Y-58017204D01*
X175199095Y-57853376D01*
X174926659Y-57740529D01*
X174637442Y-57683000D01*
X174342558Y-57683000D01*
X174053341Y-57740529D01*
X173780905Y-57853376D01*
X173535718Y-58017204D01*
X173327204Y-58225718D01*
X173220000Y-58386161D01*
X173112796Y-58225718D01*
X172904282Y-58017204D01*
X172659095Y-57853376D01*
X172386659Y-57740529D01*
X172097442Y-57683000D01*
X171802558Y-57683000D01*
X171513341Y-57740529D01*
X171240905Y-57853376D01*
X170995718Y-58017204D01*
X170787204Y-58225718D01*
X170680000Y-58386161D01*
X170572796Y-58225718D01*
X170364282Y-58017204D01*
X170119095Y-57853376D01*
X169846659Y-57740529D01*
X169557442Y-57683000D01*
X169262558Y-57683000D01*
X168973341Y-57740529D01*
X168700905Y-57853376D01*
X168455718Y-58017204D01*
X168247204Y-58225718D01*
X168140000Y-58386161D01*
X168032796Y-58225718D01*
X167824282Y-58017204D01*
X167579095Y-57853376D01*
X167306659Y-57740529D01*
X167017442Y-57683000D01*
X166722558Y-57683000D01*
X166433341Y-57740529D01*
X166160905Y-57853376D01*
X165915718Y-58017204D01*
X165707204Y-58225718D01*
X165600000Y-58386161D01*
X165492796Y-58225718D01*
X165284282Y-58017204D01*
X165039095Y-57853376D01*
X164766659Y-57740529D01*
X164477442Y-57683000D01*
X164182558Y-57683000D01*
X163893341Y-57740529D01*
X163620905Y-57853376D01*
X163375718Y-58017204D01*
X163167204Y-58225718D01*
X163060000Y-58386161D01*
X162952796Y-58225718D01*
X162744282Y-58017204D01*
X162499095Y-57853376D01*
X162226659Y-57740529D01*
X161937442Y-57683000D01*
X161642558Y-57683000D01*
X161353341Y-57740529D01*
X161080905Y-57853376D01*
X160835718Y-58017204D01*
X160627204Y-58225718D01*
X160520000Y-58386161D01*
X160412796Y-58225718D01*
X160204282Y-58017204D01*
X159959095Y-57853376D01*
X159686659Y-57740529D01*
X159397442Y-57683000D01*
X159102558Y-57683000D01*
X158813341Y-57740529D01*
X158540905Y-57853376D01*
X158295718Y-58017204D01*
X158087204Y-58225718D01*
X157980000Y-58386161D01*
X157872796Y-58225718D01*
X157664282Y-58017204D01*
X157419095Y-57853376D01*
X157146659Y-57740529D01*
X156857442Y-57683000D01*
X156562558Y-57683000D01*
X156273341Y-57740529D01*
X156000905Y-57853376D01*
X155755718Y-58017204D01*
X155547204Y-58225718D01*
X155440000Y-58386161D01*
X155332796Y-58225718D01*
X155124282Y-58017204D01*
X154879095Y-57853376D01*
X154606659Y-57740529D01*
X154317442Y-57683000D01*
X154022558Y-57683000D01*
X153733341Y-57740529D01*
X153460905Y-57853376D01*
X153215718Y-58017204D01*
X153007204Y-58225718D01*
X152900000Y-58386161D01*
X152792796Y-58225718D01*
X152584282Y-58017204D01*
X152339095Y-57853376D01*
X152066659Y-57740529D01*
X151777442Y-57683000D01*
X151482558Y-57683000D01*
X151193341Y-57740529D01*
X150920905Y-57853376D01*
X150675718Y-58017204D01*
X150467204Y-58225718D01*
X150303376Y-58470905D01*
X150190529Y-58743341D01*
X150133000Y-59032558D01*
X148047000Y-59032558D01*
X147989471Y-58743341D01*
X147876624Y-58470905D01*
X147712796Y-58225718D01*
X147504282Y-58017204D01*
X147259095Y-57853376D01*
X146986659Y-57740529D01*
X146697442Y-57683000D01*
X146402558Y-57683000D01*
X146113341Y-57740529D01*
X145840905Y-57853376D01*
X145595718Y-58017204D01*
X145387204Y-58225718D01*
X145280000Y-58386161D01*
X145172796Y-58225718D01*
X144964282Y-58017204D01*
X144719095Y-57853376D01*
X144446659Y-57740529D01*
X144157442Y-57683000D01*
X143862558Y-57683000D01*
X143573341Y-57740529D01*
X143300905Y-57853376D01*
X143055718Y-58017204D01*
X142962547Y-58110375D01*
X142959808Y-58082571D01*
X142931389Y-57988886D01*
X142885239Y-57902546D01*
X142823132Y-57826868D01*
X142747454Y-57764761D01*
X142661114Y-57718611D01*
X142567429Y-57690192D01*
X142470000Y-57680596D01*
X140470000Y-57680596D01*
X140372571Y-57690192D01*
X140278886Y-57718611D01*
X140192546Y-57764761D01*
X140116868Y-57826868D01*
X140054761Y-57902546D01*
X140008611Y-57988886D01*
X139980192Y-58082571D01*
X139970596Y-58180000D01*
X130445974Y-58180000D01*
X130466624Y-58149095D01*
X130579471Y-57876659D01*
X130637000Y-57587442D01*
X130637000Y-57292558D01*
X130579471Y-57003341D01*
X130466624Y-56730905D01*
X130302796Y-56485718D01*
X130094282Y-56277204D01*
X129849095Y-56113376D01*
X129576659Y-56000529D01*
X129287442Y-55943000D01*
X128992558Y-55943000D01*
X128703341Y-56000529D01*
X128430905Y-56113376D01*
X128185718Y-56277204D01*
X127977204Y-56485718D01*
X127870000Y-56646161D01*
X127762796Y-56485718D01*
X127554282Y-56277204D01*
X127309095Y-56113376D01*
X127036659Y-56000529D01*
X126747442Y-55943000D01*
X126452558Y-55943000D01*
X126163341Y-56000529D01*
X125890905Y-56113376D01*
X125645718Y-56277204D01*
X125437204Y-56485718D01*
X125330000Y-56646161D01*
X125222796Y-56485718D01*
X125014282Y-56277204D01*
X124769095Y-56113376D01*
X124496659Y-56000529D01*
X124207442Y-55943000D01*
X123912558Y-55943000D01*
X123623341Y-56000529D01*
X123350905Y-56113376D01*
X123105718Y-56277204D01*
X122897204Y-56485718D01*
X122790000Y-56646161D01*
X122682796Y-56485718D01*
X122474282Y-56277204D01*
X122229095Y-56113376D01*
X121956659Y-56000529D01*
X121667442Y-55943000D01*
X121372558Y-55943000D01*
X121083341Y-56000529D01*
X120810905Y-56113376D01*
X120565718Y-56277204D01*
X120357204Y-56485718D01*
X120250000Y-56646161D01*
X120142796Y-56485718D01*
X119934282Y-56277204D01*
X119689095Y-56113376D01*
X119416659Y-56000529D01*
X119127442Y-55943000D01*
X118832558Y-55943000D01*
X118543341Y-56000529D01*
X118270905Y-56113376D01*
X118025718Y-56277204D01*
X117817204Y-56485718D01*
X117710000Y-56646161D01*
X117602796Y-56485718D01*
X117394282Y-56277204D01*
X117149095Y-56113376D01*
X116876659Y-56000529D01*
X116587442Y-55943000D01*
X116292558Y-55943000D01*
X116003341Y-56000529D01*
X115730905Y-56113376D01*
X115485718Y-56277204D01*
X115277204Y-56485718D01*
X115170000Y-56646161D01*
X115062796Y-56485718D01*
X114854282Y-56277204D01*
X114609095Y-56113376D01*
X114336659Y-56000529D01*
X114047442Y-55943000D01*
X113752558Y-55943000D01*
X113463341Y-56000529D01*
X113190905Y-56113376D01*
X112945718Y-56277204D01*
X112737204Y-56485718D01*
X112630000Y-56646161D01*
X112522796Y-56485718D01*
X112314282Y-56277204D01*
X112069095Y-56113376D01*
X111796659Y-56000529D01*
X111507442Y-55943000D01*
X111212558Y-55943000D01*
X110923341Y-56000529D01*
X110650905Y-56113376D01*
X110405718Y-56277204D01*
X110197204Y-56485718D01*
X110090000Y-56646161D01*
X109982796Y-56485718D01*
X109774282Y-56277204D01*
X109529095Y-56113376D01*
X109256659Y-56000529D01*
X108967442Y-55943000D01*
X108672558Y-55943000D01*
X108383341Y-56000529D01*
X108110905Y-56113376D01*
X107865718Y-56277204D01*
X107657204Y-56485718D01*
X107550000Y-56646161D01*
X107442796Y-56485718D01*
X107234282Y-56277204D01*
X106989095Y-56113376D01*
X106716659Y-56000529D01*
X106427442Y-55943000D01*
X106132558Y-55943000D01*
X105843341Y-56000529D01*
X105570905Y-56113376D01*
X105325718Y-56277204D01*
X105117204Y-56485718D01*
X105010000Y-56646161D01*
X104902796Y-56485718D01*
X104694282Y-56277204D01*
X104449095Y-56113376D01*
X104176659Y-56000529D01*
X103887442Y-55943000D01*
X103592558Y-55943000D01*
X103303341Y-56000529D01*
X103030905Y-56113376D01*
X102785718Y-56277204D01*
X102577204Y-56485718D01*
X102413376Y-56730905D01*
X102300529Y-57003341D01*
X102243000Y-57292558D01*
X100157000Y-57292558D01*
X100099471Y-57003341D01*
X99986624Y-56730905D01*
X99822796Y-56485718D01*
X99614282Y-56277204D01*
X99369095Y-56113376D01*
X99096659Y-56000529D01*
X98807442Y-55943000D01*
X98512558Y-55943000D01*
X98223341Y-56000529D01*
X97950905Y-56113376D01*
X97705718Y-56277204D01*
X97497204Y-56485718D01*
X97480817Y-56510242D01*
X97370732Y-56304287D01*
X97183660Y-56076340D01*
X96955712Y-55889268D01*
X96695648Y-55750261D01*
X96413462Y-55664661D01*
X96120000Y-55635757D01*
X95826537Y-55664661D01*
X95544351Y-55750261D01*
X95284287Y-55889268D01*
X95071878Y-56063588D01*
X95069808Y-56042571D01*
X95041389Y-55948886D01*
X94995239Y-55862546D01*
X94933132Y-55786868D01*
X94857454Y-55724761D01*
X94771114Y-55678611D01*
X94677429Y-55650192D01*
X94580000Y-55640596D01*
X92580000Y-55640596D01*
X92482571Y-55650192D01*
X92388886Y-55678611D01*
X92302546Y-55724761D01*
X92226868Y-55786868D01*
X92164761Y-55862546D01*
X92118611Y-55948886D01*
X92090192Y-56042571D01*
X92080596Y-56140000D01*
X84772556Y-56140000D01*
X84652310Y-16449000D01*
X84940387Y-16449000D01*
X84944001Y-16485696D01*
X84944000Y-48240315D01*
X84940387Y-48277000D01*
X84944000Y-48313685D01*
X84944000Y-48313692D01*
X84954809Y-48423437D01*
X84997523Y-48564247D01*
X85066887Y-48694018D01*
X85160236Y-48807764D01*
X85188745Y-48831161D01*
X88899114Y-52541531D01*
X88843000Y-52823634D01*
X88843000Y-53128366D01*
X88902451Y-53427243D01*
X89019067Y-53708779D01*
X89188367Y-53962155D01*
X89403845Y-54177633D01*
X89657221Y-54346933D01*
X89938757Y-54463549D01*
X90237634Y-54523000D01*
X90542366Y-54523000D01*
X90841243Y-54463549D01*
X91122779Y-54346933D01*
X91376155Y-54177633D01*
X91591633Y-53962155D01*
X91760933Y-53708779D01*
X91877549Y-53427243D01*
X91937000Y-53128366D01*
X91937000Y-52823634D01*
X91877549Y-52524757D01*
X91760933Y-52243221D01*
X91591633Y-51989845D01*
X91376155Y-51774367D01*
X91122779Y-51605067D01*
X90841243Y-51488451D01*
X90542366Y-51429000D01*
X90237634Y-51429000D01*
X89955531Y-51485114D01*
X86438000Y-47967584D01*
X86438000Y-31005000D01*
X86718387Y-31005000D01*
X86722001Y-31041696D01*
X86722000Y-46208315D01*
X86718387Y-46245000D01*
X86722000Y-46281685D01*
X86722000Y-46281692D01*
X86732809Y-46391437D01*
X86775523Y-46532247D01*
X86844887Y-46662018D01*
X86938236Y-46775764D01*
X86966745Y-46799161D01*
X89534114Y-49366532D01*
X89478000Y-49648634D01*
X89478000Y-49953366D01*
X89537451Y-50252243D01*
X89654067Y-50533779D01*
X89823367Y-50787155D01*
X90038845Y-51002633D01*
X90292221Y-51171933D01*
X90573757Y-51288549D01*
X90872634Y-51348000D01*
X91177366Y-51348000D01*
X91476243Y-51288549D01*
X91757779Y-51171933D01*
X92011155Y-51002633D01*
X92226633Y-50787155D01*
X92395933Y-50533779D01*
X92512549Y-50252243D01*
X92572000Y-49953366D01*
X92572000Y-49648634D01*
X92512549Y-49349757D01*
X92395933Y-49068221D01*
X92226633Y-48814845D01*
X92011155Y-48599367D01*
X91757779Y-48430067D01*
X91476243Y-48313451D01*
X91177366Y-48254000D01*
X90872634Y-48254000D01*
X90590532Y-48310114D01*
X88216000Y-45935584D01*
X88216000Y-41826463D01*
X92083000Y-41826463D01*
X92083000Y-42573538D01*
X92104661Y-42793463D01*
X92190261Y-43075649D01*
X92329268Y-43335713D01*
X92516340Y-43563660D01*
X92744288Y-43750732D01*
X93004352Y-43889739D01*
X93286538Y-43975339D01*
X93580000Y-44004243D01*
X93873463Y-43975339D01*
X94155649Y-43889739D01*
X94415713Y-43750732D01*
X94643660Y-43563660D01*
X94830732Y-43335713D01*
X94969739Y-43075649D01*
X95055339Y-42793462D01*
X95077000Y-42573537D01*
X95077000Y-42052558D01*
X97163000Y-42052558D01*
X97163000Y-42347442D01*
X97220529Y-42636659D01*
X97333376Y-42909095D01*
X97497204Y-43154282D01*
X97705718Y-43362796D01*
X97950905Y-43526624D01*
X98223341Y-43639471D01*
X98512558Y-43697000D01*
X98807442Y-43697000D01*
X99096659Y-43639471D01*
X99369095Y-43526624D01*
X99614282Y-43362796D01*
X99822796Y-43154282D01*
X99930000Y-42993839D01*
X100037204Y-43154282D01*
X100245718Y-43362796D01*
X100490905Y-43526624D01*
X100763341Y-43639471D01*
X101052558Y-43697000D01*
X101347442Y-43697000D01*
X101636659Y-43639471D01*
X101909095Y-43526624D01*
X102154282Y-43362796D01*
X102362796Y-43154282D01*
X102470000Y-42993839D01*
X102577204Y-43154282D01*
X102785718Y-43362796D01*
X103030905Y-43526624D01*
X103303341Y-43639471D01*
X103592558Y-43697000D01*
X103887442Y-43697000D01*
X104176659Y-43639471D01*
X104449095Y-43526624D01*
X104694282Y-43362796D01*
X104902796Y-43154282D01*
X105010000Y-42993839D01*
X105117204Y-43154282D01*
X105325718Y-43362796D01*
X105570905Y-43526624D01*
X105843341Y-43639471D01*
X106132558Y-43697000D01*
X106427442Y-43697000D01*
X106716659Y-43639471D01*
X106989095Y-43526624D01*
X107234282Y-43362796D01*
X107442796Y-43154282D01*
X107459183Y-43129758D01*
X107569268Y-43335713D01*
X107756340Y-43563660D01*
X107984288Y-43750732D01*
X108244352Y-43889739D01*
X108526538Y-43975339D01*
X108820000Y-44004243D01*
X109113463Y-43975339D01*
X109395649Y-43889739D01*
X109655713Y-43750732D01*
X109883660Y-43563660D01*
X110070732Y-43335713D01*
X110090000Y-43299665D01*
X110109268Y-43335713D01*
X110296340Y-43563660D01*
X110524288Y-43750732D01*
X110784352Y-43889739D01*
X111066538Y-43975339D01*
X111360000Y-44004243D01*
X111653463Y-43975339D01*
X111935649Y-43889739D01*
X112195713Y-43750732D01*
X112423660Y-43563660D01*
X112610732Y-43335713D01*
X112720817Y-43129758D01*
X112737204Y-43154282D01*
X112945718Y-43362796D01*
X113190905Y-43526624D01*
X113463341Y-43639471D01*
X113752558Y-43697000D01*
X114047442Y-43697000D01*
X114336659Y-43639471D01*
X114609095Y-43526624D01*
X114854282Y-43362796D01*
X115062796Y-43154282D01*
X115170000Y-42993839D01*
X115277204Y-43154282D01*
X115485718Y-43362796D01*
X115730905Y-43526624D01*
X116003341Y-43639471D01*
X116292558Y-43697000D01*
X116587442Y-43697000D01*
X116876659Y-43639471D01*
X117149095Y-43526624D01*
X117394282Y-43362796D01*
X117602796Y-43154282D01*
X117710000Y-42993839D01*
X117817204Y-43154282D01*
X118025718Y-43362796D01*
X118270905Y-43526624D01*
X118543341Y-43639471D01*
X118832558Y-43697000D01*
X119127442Y-43697000D01*
X119416659Y-43639471D01*
X119689095Y-43526624D01*
X119934282Y-43362796D01*
X120142796Y-43154282D01*
X120250000Y-42993839D01*
X120357204Y-43154282D01*
X120565718Y-43362796D01*
X120810905Y-43526624D01*
X121083341Y-43639471D01*
X121372558Y-43697000D01*
X121667442Y-43697000D01*
X121956659Y-43639471D01*
X122229095Y-43526624D01*
X122474282Y-43362796D01*
X122682796Y-43154282D01*
X122790000Y-42993839D01*
X122897204Y-43154282D01*
X123105718Y-43362796D01*
X123350905Y-43526624D01*
X123623341Y-43639471D01*
X123912558Y-43697000D01*
X124207442Y-43697000D01*
X124496659Y-43639471D01*
X124769095Y-43526624D01*
X125014282Y-43362796D01*
X125222796Y-43154282D01*
X125239183Y-43129758D01*
X125349268Y-43335713D01*
X125536340Y-43563660D01*
X125764288Y-43750732D01*
X126024352Y-43889739D01*
X126306538Y-43975339D01*
X126600000Y-44004243D01*
X126893463Y-43975339D01*
X127175649Y-43889739D01*
X127435713Y-43750732D01*
X127663660Y-43563660D01*
X127850732Y-43335713D01*
X127960817Y-43129758D01*
X127977204Y-43154282D01*
X128185718Y-43362796D01*
X128430905Y-43526624D01*
X128703341Y-43639471D01*
X128992558Y-43697000D01*
X129287442Y-43697000D01*
X129576659Y-43639471D01*
X129849095Y-43526624D01*
X130094282Y-43362796D01*
X130302796Y-43154282D01*
X130466624Y-42909095D01*
X130579471Y-42636659D01*
X130637000Y-42347442D01*
X130637000Y-42052558D01*
X130579471Y-41763341D01*
X130466624Y-41490905D01*
X130302796Y-41245718D01*
X130094282Y-41037204D01*
X129849095Y-40873376D01*
X129576659Y-40760529D01*
X129287442Y-40703000D01*
X128992558Y-40703000D01*
X128703341Y-40760529D01*
X128430905Y-40873376D01*
X128185718Y-41037204D01*
X127977204Y-41245718D01*
X127960817Y-41270242D01*
X127850732Y-41064287D01*
X127663660Y-40836340D01*
X127435712Y-40649268D01*
X127175648Y-40510261D01*
X126893462Y-40424661D01*
X126600000Y-40395757D01*
X126306537Y-40424661D01*
X126024351Y-40510261D01*
X125764287Y-40649268D01*
X125536340Y-40836340D01*
X125349268Y-41064288D01*
X125239183Y-41270243D01*
X125222796Y-41245718D01*
X125014282Y-41037204D01*
X124769095Y-40873376D01*
X124496659Y-40760529D01*
X124207442Y-40703000D01*
X123912558Y-40703000D01*
X123623341Y-40760529D01*
X123350905Y-40873376D01*
X123105718Y-41037204D01*
X122897204Y-41245718D01*
X122790000Y-41406161D01*
X122682796Y-41245718D01*
X122474282Y-41037204D01*
X122229095Y-40873376D01*
X121956659Y-40760529D01*
X121667442Y-40703000D01*
X121372558Y-40703000D01*
X121083341Y-40760529D01*
X120810905Y-40873376D01*
X120565718Y-41037204D01*
X120357204Y-41245718D01*
X120250000Y-41406161D01*
X120142796Y-41245718D01*
X119934282Y-41037204D01*
X119689095Y-40873376D01*
X119416659Y-40760529D01*
X119127442Y-40703000D01*
X118832558Y-40703000D01*
X118543341Y-40760529D01*
X118270905Y-40873376D01*
X118025718Y-41037204D01*
X117817204Y-41245718D01*
X117710000Y-41406161D01*
X117602796Y-41245718D01*
X117394282Y-41037204D01*
X117149095Y-40873376D01*
X116876659Y-40760529D01*
X116587442Y-40703000D01*
X116292558Y-40703000D01*
X116003341Y-40760529D01*
X115730905Y-40873376D01*
X115485718Y-41037204D01*
X115277204Y-41245718D01*
X115170000Y-41406161D01*
X115062796Y-41245718D01*
X114854282Y-41037204D01*
X114609095Y-40873376D01*
X114336659Y-40760529D01*
X114047442Y-40703000D01*
X113752558Y-40703000D01*
X113463341Y-40760529D01*
X113190905Y-40873376D01*
X112945718Y-41037204D01*
X112737204Y-41245718D01*
X112720817Y-41270242D01*
X112610732Y-41064287D01*
X112423660Y-40836340D01*
X112195712Y-40649268D01*
X111935648Y-40510261D01*
X111653462Y-40424661D01*
X111360000Y-40395757D01*
X111066537Y-40424661D01*
X110784351Y-40510261D01*
X110524287Y-40649268D01*
X110296340Y-40836340D01*
X110109268Y-41064288D01*
X110090000Y-41100335D01*
X110070732Y-41064287D01*
X109883660Y-40836340D01*
X109655712Y-40649268D01*
X109395648Y-40510261D01*
X109113462Y-40424661D01*
X108820000Y-40395757D01*
X108526537Y-40424661D01*
X108244351Y-40510261D01*
X107984287Y-40649268D01*
X107756340Y-40836340D01*
X107569268Y-41064288D01*
X107459183Y-41270243D01*
X107442796Y-41245718D01*
X107234282Y-41037204D01*
X106989095Y-40873376D01*
X106716659Y-40760529D01*
X106427442Y-40703000D01*
X106132558Y-40703000D01*
X105843341Y-40760529D01*
X105570905Y-40873376D01*
X105325718Y-41037204D01*
X105117204Y-41245718D01*
X105010000Y-41406161D01*
X104902796Y-41245718D01*
X104694282Y-41037204D01*
X104449095Y-40873376D01*
X104176659Y-40760529D01*
X103887442Y-40703000D01*
X103592558Y-40703000D01*
X103303341Y-40760529D01*
X103030905Y-40873376D01*
X102785718Y-41037204D01*
X102577204Y-41245718D01*
X102470000Y-41406161D01*
X102362796Y-41245718D01*
X102154282Y-41037204D01*
X101909095Y-40873376D01*
X101636659Y-40760529D01*
X101347442Y-40703000D01*
X101052558Y-40703000D01*
X100763341Y-40760529D01*
X100490905Y-40873376D01*
X100245718Y-41037204D01*
X100037204Y-41245718D01*
X99930000Y-41406161D01*
X99822796Y-41245718D01*
X99614282Y-41037204D01*
X99369095Y-40873376D01*
X99096659Y-40760529D01*
X98807442Y-40703000D01*
X98512558Y-40703000D01*
X98223341Y-40760529D01*
X97950905Y-40873376D01*
X97705718Y-41037204D01*
X97497204Y-41245718D01*
X97333376Y-41490905D01*
X97220529Y-41763341D01*
X97163000Y-42052558D01*
X95077000Y-42052558D01*
X95077000Y-41826462D01*
X95055339Y-41606537D01*
X94969739Y-41324351D01*
X94830732Y-41064287D01*
X94643660Y-40836340D01*
X94415712Y-40649268D01*
X94155648Y-40510261D01*
X93873462Y-40424661D01*
X93580000Y-40395757D01*
X93286537Y-40424661D01*
X93004351Y-40510261D01*
X92744287Y-40649268D01*
X92516340Y-40836340D01*
X92329268Y-41064288D01*
X92190261Y-41324352D01*
X92104661Y-41606538D01*
X92083000Y-41826463D01*
X88216000Y-41826463D01*
X88216000Y-33862558D01*
X88553000Y-33862558D01*
X88553000Y-34157442D01*
X88610529Y-34446659D01*
X88723376Y-34719095D01*
X88887204Y-34964282D01*
X89095718Y-35172796D01*
X89340905Y-35336624D01*
X89613341Y-35449471D01*
X89902558Y-35507000D01*
X90197442Y-35507000D01*
X90486659Y-35449471D01*
X90759095Y-35336624D01*
X91004282Y-35172796D01*
X91212796Y-34964282D01*
X91376624Y-34719095D01*
X91489471Y-34446659D01*
X91547000Y-34157442D01*
X91547000Y-33862558D01*
X91489471Y-33573341D01*
X91376624Y-33300905D01*
X91212796Y-33055718D01*
X91004282Y-32847204D01*
X90759095Y-32683376D01*
X90486659Y-32570529D01*
X90197442Y-32513000D01*
X89902558Y-32513000D01*
X89613341Y-32570529D01*
X89340905Y-32683376D01*
X89095718Y-32847204D01*
X88887204Y-33055718D01*
X88723376Y-33300905D01*
X88610529Y-33573341D01*
X88553000Y-33862558D01*
X88216000Y-33862558D01*
X88216000Y-31314416D01*
X90077858Y-29452558D01*
X92713000Y-29452558D01*
X92713000Y-29747442D01*
X92770529Y-30036659D01*
X92883376Y-30309095D01*
X93047204Y-30554282D01*
X93255718Y-30762796D01*
X93500905Y-30926624D01*
X93773341Y-31039471D01*
X94062558Y-31097000D01*
X94357442Y-31097000D01*
X94646659Y-31039471D01*
X94919095Y-30926624D01*
X95164282Y-30762796D01*
X95372796Y-30554282D01*
X95480000Y-30393839D01*
X95587204Y-30554282D01*
X95795718Y-30762796D01*
X96040905Y-30926624D01*
X96313341Y-31039471D01*
X96602558Y-31097000D01*
X96897442Y-31097000D01*
X97186659Y-31039471D01*
X97459095Y-30926624D01*
X97704282Y-30762796D01*
X97912796Y-30554282D01*
X98076624Y-30309095D01*
X98189471Y-30036659D01*
X98247000Y-29747442D01*
X98247000Y-29452558D01*
X102873000Y-29452558D01*
X102873000Y-29747442D01*
X102930529Y-30036659D01*
X103043376Y-30309095D01*
X103207204Y-30554282D01*
X103415718Y-30762796D01*
X103660905Y-30926624D01*
X103933341Y-31039471D01*
X104222558Y-31097000D01*
X104517442Y-31097000D01*
X104806659Y-31039471D01*
X105079095Y-30926624D01*
X105324282Y-30762796D01*
X105417453Y-30669625D01*
X105420192Y-30697429D01*
X105448611Y-30791114D01*
X105494761Y-30877454D01*
X105556868Y-30953132D01*
X105632546Y-31015239D01*
X105718886Y-31061389D01*
X105812571Y-31089808D01*
X105910000Y-31099404D01*
X107910000Y-31099404D01*
X108007429Y-31089808D01*
X108101114Y-31061389D01*
X108187454Y-31015239D01*
X108263132Y-30953132D01*
X108325239Y-30877454D01*
X108371389Y-30791114D01*
X108399808Y-30697429D01*
X108409404Y-30600000D01*
X108409404Y-28600000D01*
X108399808Y-28502571D01*
X108371389Y-28408886D01*
X108325239Y-28322546D01*
X108263132Y-28246868D01*
X108187454Y-28184761D01*
X108101114Y-28138611D01*
X108007429Y-28110192D01*
X107910000Y-28100596D01*
X105910000Y-28100596D01*
X105812571Y-28110192D01*
X105718886Y-28138611D01*
X105632546Y-28184761D01*
X105556868Y-28246868D01*
X105494761Y-28322546D01*
X105448611Y-28408886D01*
X105420192Y-28502571D01*
X105417453Y-28530375D01*
X105324282Y-28437204D01*
X105079095Y-28273376D01*
X104806659Y-28160529D01*
X104517442Y-28103000D01*
X104222558Y-28103000D01*
X103933341Y-28160529D01*
X103660905Y-28273376D01*
X103415718Y-28437204D01*
X103207204Y-28645718D01*
X103043376Y-28890905D01*
X102930529Y-29163341D01*
X102873000Y-29452558D01*
X98247000Y-29452558D01*
X98189471Y-29163341D01*
X98076624Y-28890905D01*
X97912796Y-28645718D01*
X97704282Y-28437204D01*
X97459095Y-28273376D01*
X97186659Y-28160529D01*
X96897442Y-28103000D01*
X96602558Y-28103000D01*
X96313341Y-28160529D01*
X96040905Y-28273376D01*
X95795718Y-28437204D01*
X95587204Y-28645718D01*
X95480000Y-28806161D01*
X95372796Y-28645718D01*
X95164282Y-28437204D01*
X94919095Y-28273376D01*
X94646659Y-28160529D01*
X94357442Y-28103000D01*
X94062558Y-28103000D01*
X93773341Y-28160529D01*
X93500905Y-28273376D01*
X93255718Y-28437204D01*
X93047204Y-28645718D01*
X92883376Y-28890905D01*
X92770529Y-29163341D01*
X92713000Y-29452558D01*
X90077858Y-29452558D01*
X91146262Y-28384155D01*
X91174764Y-28360764D01*
X91268113Y-28247019D01*
X91337477Y-28117248D01*
X91380191Y-27976438D01*
X91391000Y-27866693D01*
X91391000Y-27866686D01*
X91394613Y-27830001D01*
X91391000Y-27793315D01*
X91391000Y-24997632D01*
X98103000Y-24997632D01*
X98103000Y-25302364D01*
X98162451Y-25601241D01*
X98279067Y-25882777D01*
X98448367Y-26136153D01*
X98663845Y-26351631D01*
X98917221Y-26520931D01*
X99198757Y-26637547D01*
X99497634Y-26696998D01*
X99802366Y-26696998D01*
X100101243Y-26637547D01*
X100382779Y-26520931D01*
X100636155Y-26351631D01*
X100851633Y-26136153D01*
X101011431Y-25896998D01*
X106196582Y-25896998D01*
X110217000Y-29917417D01*
X110217001Y-31603305D01*
X110213387Y-31640000D01*
X110227809Y-31786437D01*
X110270523Y-31927247D01*
X110270524Y-31927248D01*
X110339888Y-32057019D01*
X110433237Y-32170764D01*
X110461740Y-32194156D01*
X117648844Y-39381261D01*
X117672236Y-39409764D01*
X117785981Y-39503113D01*
X117915752Y-39572477D01*
X118056562Y-39615191D01*
X118166307Y-39626000D01*
X118166314Y-39626000D01*
X118203000Y-39629613D01*
X118239685Y-39626000D01*
X120143571Y-39626000D01*
X120303369Y-39865155D01*
X120518847Y-40080633D01*
X120772223Y-40249933D01*
X121053759Y-40366549D01*
X121352636Y-40426000D01*
X121657368Y-40426000D01*
X121956245Y-40366549D01*
X122237781Y-40249933D01*
X122491157Y-40080633D01*
X122706635Y-39865155D01*
X122875935Y-39611779D01*
X122992551Y-39330243D01*
X123052002Y-39031366D01*
X123052002Y-38726634D01*
X122992551Y-38427757D01*
X122889927Y-38180000D01*
X139970596Y-38180000D01*
X139970596Y-40180000D01*
X139980192Y-40277429D01*
X140008611Y-40371114D01*
X140054761Y-40457454D01*
X140116868Y-40533132D01*
X140192546Y-40595239D01*
X140278886Y-40641389D01*
X140372571Y-40669808D01*
X140470000Y-40679404D01*
X142470000Y-40679404D01*
X142567429Y-40669808D01*
X142661114Y-40641389D01*
X142747454Y-40595239D01*
X142823132Y-40533132D01*
X142885239Y-40457454D01*
X142931389Y-40371114D01*
X142959808Y-40277429D01*
X142962547Y-40249625D01*
X143055718Y-40342796D01*
X143300905Y-40506624D01*
X143573341Y-40619471D01*
X143862558Y-40677000D01*
X144157442Y-40677000D01*
X144446659Y-40619471D01*
X144719095Y-40506624D01*
X144964282Y-40342796D01*
X145172796Y-40134282D01*
X145280000Y-39973839D01*
X145387204Y-40134282D01*
X145595718Y-40342796D01*
X145840905Y-40506624D01*
X146113341Y-40619471D01*
X146402558Y-40677000D01*
X146697442Y-40677000D01*
X146986659Y-40619471D01*
X147259095Y-40506624D01*
X147504282Y-40342796D01*
X147712796Y-40134282D01*
X147820000Y-39973839D01*
X147927204Y-40134282D01*
X148135718Y-40342796D01*
X148380905Y-40506624D01*
X148653341Y-40619471D01*
X148942558Y-40677000D01*
X149237442Y-40677000D01*
X149526659Y-40619471D01*
X149799095Y-40506624D01*
X150044282Y-40342796D01*
X150252796Y-40134282D01*
X150360000Y-39973839D01*
X150467204Y-40134282D01*
X150675718Y-40342796D01*
X150920905Y-40506624D01*
X151193341Y-40619471D01*
X151482558Y-40677000D01*
X151777442Y-40677000D01*
X152066659Y-40619471D01*
X152339095Y-40506624D01*
X152584282Y-40342796D01*
X152792796Y-40134282D01*
X152900000Y-39973839D01*
X153007204Y-40134282D01*
X153215718Y-40342796D01*
X153460905Y-40506624D01*
X153733341Y-40619471D01*
X154022558Y-40677000D01*
X154317442Y-40677000D01*
X154606659Y-40619471D01*
X154879095Y-40506624D01*
X155124282Y-40342796D01*
X155332796Y-40134282D01*
X155440000Y-39973839D01*
X155547204Y-40134282D01*
X155755718Y-40342796D01*
X156000905Y-40506624D01*
X156273341Y-40619471D01*
X156562558Y-40677000D01*
X156857442Y-40677000D01*
X157146659Y-40619471D01*
X157419095Y-40506624D01*
X157664282Y-40342796D01*
X157872796Y-40134282D01*
X157980000Y-39973839D01*
X158087204Y-40134282D01*
X158295718Y-40342796D01*
X158540905Y-40506624D01*
X158813341Y-40619471D01*
X159102558Y-40677000D01*
X159397442Y-40677000D01*
X159686659Y-40619471D01*
X159959095Y-40506624D01*
X160204282Y-40342796D01*
X160412796Y-40134282D01*
X160520000Y-39973839D01*
X160627204Y-40134282D01*
X160835718Y-40342796D01*
X161080905Y-40506624D01*
X161353341Y-40619471D01*
X161642558Y-40677000D01*
X161937442Y-40677000D01*
X162226659Y-40619471D01*
X162499095Y-40506624D01*
X162744282Y-40342796D01*
X162952796Y-40134282D01*
X163060000Y-39973839D01*
X163167204Y-40134282D01*
X163375718Y-40342796D01*
X163620905Y-40506624D01*
X163893341Y-40619471D01*
X164182558Y-40677000D01*
X164477442Y-40677000D01*
X164766659Y-40619471D01*
X165039095Y-40506624D01*
X165284282Y-40342796D01*
X165492796Y-40134282D01*
X165600000Y-39973839D01*
X165707204Y-40134282D01*
X165915718Y-40342796D01*
X166160905Y-40506624D01*
X166433341Y-40619471D01*
X166722558Y-40677000D01*
X167017442Y-40677000D01*
X167306659Y-40619471D01*
X167579095Y-40506624D01*
X167824282Y-40342796D01*
X168032796Y-40134282D01*
X168140000Y-39973839D01*
X168247204Y-40134282D01*
X168455718Y-40342796D01*
X168700905Y-40506624D01*
X168973341Y-40619471D01*
X169262558Y-40677000D01*
X169557442Y-40677000D01*
X169846659Y-40619471D01*
X170119095Y-40506624D01*
X170364282Y-40342796D01*
X170572796Y-40134282D01*
X170680000Y-39973839D01*
X170787204Y-40134282D01*
X170995718Y-40342796D01*
X171240905Y-40506624D01*
X171513341Y-40619471D01*
X171802558Y-40677000D01*
X172097442Y-40677000D01*
X172386659Y-40619471D01*
X172659095Y-40506624D01*
X172904282Y-40342796D01*
X173112796Y-40134282D01*
X173220000Y-39973839D01*
X173327204Y-40134282D01*
X173535718Y-40342796D01*
X173780905Y-40506624D01*
X174053341Y-40619471D01*
X174342558Y-40677000D01*
X174637442Y-40677000D01*
X174926659Y-40619471D01*
X175199095Y-40506624D01*
X175444282Y-40342796D01*
X175652796Y-40134282D01*
X175760000Y-39973839D01*
X175867204Y-40134282D01*
X176075718Y-40342796D01*
X176320905Y-40506624D01*
X176593341Y-40619471D01*
X176882558Y-40677000D01*
X177177442Y-40677000D01*
X177466659Y-40619471D01*
X177739095Y-40506624D01*
X177984282Y-40342796D01*
X178192796Y-40134282D01*
X178300000Y-39973839D01*
X178407204Y-40134282D01*
X178615718Y-40342796D01*
X178860905Y-40506624D01*
X179133341Y-40619471D01*
X179422558Y-40677000D01*
X179717442Y-40677000D01*
X180006659Y-40619471D01*
X180279095Y-40506624D01*
X180524282Y-40342796D01*
X180732796Y-40134282D01*
X180896624Y-39889095D01*
X181009471Y-39616659D01*
X181067000Y-39327442D01*
X181067000Y-39032558D01*
X181009471Y-38743341D01*
X180896624Y-38470905D01*
X180732796Y-38225718D01*
X180524282Y-38017204D01*
X180279095Y-37853376D01*
X180006659Y-37740529D01*
X179717442Y-37683000D01*
X179422558Y-37683000D01*
X179133341Y-37740529D01*
X178860905Y-37853376D01*
X178615718Y-38017204D01*
X178407204Y-38225718D01*
X178300000Y-38386161D01*
X178192796Y-38225718D01*
X177984282Y-38017204D01*
X177739095Y-37853376D01*
X177466659Y-37740529D01*
X177177442Y-37683000D01*
X176882558Y-37683000D01*
X176593341Y-37740529D01*
X176320905Y-37853376D01*
X176075718Y-38017204D01*
X175867204Y-38225718D01*
X175760000Y-38386161D01*
X175652796Y-38225718D01*
X175444282Y-38017204D01*
X175199095Y-37853376D01*
X174926659Y-37740529D01*
X174637442Y-37683000D01*
X174342558Y-37683000D01*
X174053341Y-37740529D01*
X173780905Y-37853376D01*
X173535718Y-38017204D01*
X173327204Y-38225718D01*
X173220000Y-38386161D01*
X173112796Y-38225718D01*
X172904282Y-38017204D01*
X172659095Y-37853376D01*
X172386659Y-37740529D01*
X172097442Y-37683000D01*
X171802558Y-37683000D01*
X171513341Y-37740529D01*
X171240905Y-37853376D01*
X170995718Y-38017204D01*
X170787204Y-38225718D01*
X170680000Y-38386161D01*
X170572796Y-38225718D01*
X170364282Y-38017204D01*
X170119095Y-37853376D01*
X169846659Y-37740529D01*
X169557442Y-37683000D01*
X169262558Y-37683000D01*
X168973341Y-37740529D01*
X168700905Y-37853376D01*
X168455718Y-38017204D01*
X168247204Y-38225718D01*
X168140000Y-38386161D01*
X168032796Y-38225718D01*
X167824282Y-38017204D01*
X167579095Y-37853376D01*
X167306659Y-37740529D01*
X167017442Y-37683000D01*
X166722558Y-37683000D01*
X166433341Y-37740529D01*
X166160905Y-37853376D01*
X165915718Y-38017204D01*
X165707204Y-38225718D01*
X165600000Y-38386161D01*
X165492796Y-38225718D01*
X165284282Y-38017204D01*
X165039095Y-37853376D01*
X164766659Y-37740529D01*
X164477442Y-37683000D01*
X164182558Y-37683000D01*
X163893341Y-37740529D01*
X163620905Y-37853376D01*
X163375718Y-38017204D01*
X163167204Y-38225718D01*
X163060000Y-38386161D01*
X162952796Y-38225718D01*
X162744282Y-38017204D01*
X162499095Y-37853376D01*
X162226659Y-37740529D01*
X161937442Y-37683000D01*
X161642558Y-37683000D01*
X161353341Y-37740529D01*
X161080905Y-37853376D01*
X160835718Y-38017204D01*
X160627204Y-38225718D01*
X160520000Y-38386161D01*
X160412796Y-38225718D01*
X160204282Y-38017204D01*
X159959095Y-37853376D01*
X159686659Y-37740529D01*
X159397442Y-37683000D01*
X159102558Y-37683000D01*
X158813341Y-37740529D01*
X158540905Y-37853376D01*
X158295718Y-38017204D01*
X158087204Y-38225718D01*
X157980000Y-38386161D01*
X157872796Y-38225718D01*
X157664282Y-38017204D01*
X157419095Y-37853376D01*
X157146659Y-37740529D01*
X156857442Y-37683000D01*
X156562558Y-37683000D01*
X156273341Y-37740529D01*
X156000905Y-37853376D01*
X155755718Y-38017204D01*
X155547204Y-38225718D01*
X155440000Y-38386161D01*
X155332796Y-38225718D01*
X155124282Y-38017204D01*
X154879095Y-37853376D01*
X154606659Y-37740529D01*
X154317442Y-37683000D01*
X154022558Y-37683000D01*
X153733341Y-37740529D01*
X153460905Y-37853376D01*
X153215718Y-38017204D01*
X153007204Y-38225718D01*
X152900000Y-38386161D01*
X152792796Y-38225718D01*
X152584282Y-38017204D01*
X152339095Y-37853376D01*
X152066659Y-37740529D01*
X151777442Y-37683000D01*
X151482558Y-37683000D01*
X151193341Y-37740529D01*
X150920905Y-37853376D01*
X150675718Y-38017204D01*
X150467204Y-38225718D01*
X150360000Y-38386161D01*
X150252796Y-38225718D01*
X150044282Y-38017204D01*
X149799095Y-37853376D01*
X149526659Y-37740529D01*
X149237442Y-37683000D01*
X148942558Y-37683000D01*
X148653341Y-37740529D01*
X148380905Y-37853376D01*
X148135718Y-38017204D01*
X147927204Y-38225718D01*
X147820000Y-38386161D01*
X147712796Y-38225718D01*
X147504282Y-38017204D01*
X147259095Y-37853376D01*
X146986659Y-37740529D01*
X146697442Y-37683000D01*
X146402558Y-37683000D01*
X146113341Y-37740529D01*
X145840905Y-37853376D01*
X145595718Y-38017204D01*
X145387204Y-38225718D01*
X145280000Y-38386161D01*
X145172796Y-38225718D01*
X144964282Y-38017204D01*
X144719095Y-37853376D01*
X144446659Y-37740529D01*
X144157442Y-37683000D01*
X143862558Y-37683000D01*
X143573341Y-37740529D01*
X143300905Y-37853376D01*
X143055718Y-38017204D01*
X142962547Y-38110375D01*
X142959808Y-38082571D01*
X142931389Y-37988886D01*
X142885239Y-37902546D01*
X142823132Y-37826868D01*
X142747454Y-37764761D01*
X142661114Y-37718611D01*
X142567429Y-37690192D01*
X142470000Y-37680596D01*
X140470000Y-37680596D01*
X140372571Y-37690192D01*
X140278886Y-37718611D01*
X140192546Y-37764761D01*
X140116868Y-37826868D01*
X140054761Y-37902546D01*
X140008611Y-37988886D01*
X139980192Y-38082571D01*
X139970596Y-38180000D01*
X122889927Y-38180000D01*
X122875935Y-38146221D01*
X122706635Y-37892845D01*
X122491157Y-37677367D01*
X122237781Y-37508067D01*
X121956245Y-37391451D01*
X121657368Y-37332000D01*
X121352636Y-37332000D01*
X121053759Y-37391451D01*
X120772223Y-37508067D01*
X120518847Y-37677367D01*
X120303369Y-37892845D01*
X120143571Y-38132000D01*
X119867788Y-38132000D01*
X120039633Y-37960155D01*
X120208933Y-37706779D01*
X120325549Y-37425243D01*
X120385000Y-37126366D01*
X120385000Y-36821634D01*
X120325549Y-36522757D01*
X120208933Y-36241221D01*
X120039633Y-35987845D01*
X119824155Y-35772367D01*
X119570779Y-35603067D01*
X119289243Y-35486451D01*
X118990366Y-35427000D01*
X118685634Y-35427000D01*
X118403531Y-35483114D01*
X113489000Y-30568584D01*
X113489000Y-29390685D01*
X113492613Y-29353999D01*
X113489000Y-29317314D01*
X113489000Y-29317307D01*
X113478191Y-29207562D01*
X113435477Y-29066752D01*
X113366113Y-28936981D01*
X113312627Y-28871809D01*
X113296154Y-28851736D01*
X113296152Y-28851734D01*
X113272764Y-28823236D01*
X113244267Y-28799849D01*
X107362161Y-22917745D01*
X107338764Y-22889236D01*
X107225019Y-22795887D01*
X107095248Y-22726523D01*
X106954438Y-22683809D01*
X106844693Y-22673000D01*
X106844685Y-22673000D01*
X106808000Y-22669387D01*
X106771315Y-22673000D01*
X102911431Y-22673000D01*
X102751633Y-22433845D01*
X102721423Y-22403635D01*
X102780000Y-22409404D01*
X104780000Y-22409404D01*
X104877429Y-22399808D01*
X104971114Y-22371389D01*
X105057454Y-22325239D01*
X105133132Y-22263132D01*
X105195239Y-22187454D01*
X105241389Y-22101114D01*
X105269808Y-22007429D01*
X105279404Y-21910000D01*
X105279404Y-19910000D01*
X105274480Y-19860000D01*
X112280596Y-19860000D01*
X112280596Y-21860000D01*
X112290192Y-21957429D01*
X112318611Y-22051114D01*
X112364761Y-22137454D01*
X112426868Y-22213132D01*
X112502546Y-22275239D01*
X112588886Y-22321389D01*
X112682571Y-22349808D01*
X112780000Y-22359404D01*
X114780000Y-22359404D01*
X114877429Y-22349808D01*
X114971114Y-22321389D01*
X115057454Y-22275239D01*
X115133132Y-22213132D01*
X115195239Y-22137454D01*
X115241389Y-22051114D01*
X115269808Y-21957429D01*
X115279404Y-21860000D01*
X115279404Y-19860000D01*
X115269808Y-19762571D01*
X115241389Y-19668886D01*
X115195239Y-19582546D01*
X115133132Y-19506868D01*
X115057454Y-19444761D01*
X114971114Y-19398611D01*
X114877429Y-19370192D01*
X114849625Y-19367453D01*
X114942796Y-19274282D01*
X115106624Y-19029095D01*
X115219471Y-18756659D01*
X115277000Y-18467442D01*
X115277000Y-18172558D01*
X115219471Y-17883341D01*
X115106624Y-17610905D01*
X114942796Y-17365718D01*
X114734282Y-17157204D01*
X114573839Y-17050000D01*
X114734282Y-16942796D01*
X114942796Y-16734282D01*
X115106624Y-16489095D01*
X115219471Y-16216659D01*
X115277000Y-15927442D01*
X115277000Y-15632558D01*
X115219471Y-15343341D01*
X115106624Y-15070905D01*
X114942796Y-14825718D01*
X114734282Y-14617204D01*
X114489095Y-14453376D01*
X114216659Y-14340529D01*
X113927442Y-14283000D01*
X113632558Y-14283000D01*
X113343341Y-14340529D01*
X113070905Y-14453376D01*
X112825718Y-14617204D01*
X112617204Y-14825718D01*
X112453376Y-15070905D01*
X112340529Y-15343341D01*
X112283000Y-15632558D01*
X112283000Y-15927442D01*
X112340529Y-16216659D01*
X112453376Y-16489095D01*
X112617204Y-16734282D01*
X112825718Y-16942796D01*
X112986161Y-17050000D01*
X112825718Y-17157204D01*
X112617204Y-17365718D01*
X112453376Y-17610905D01*
X112340529Y-17883341D01*
X112283000Y-18172558D01*
X112283000Y-18467442D01*
X112340529Y-18756659D01*
X112453376Y-19029095D01*
X112617204Y-19274282D01*
X112710375Y-19367453D01*
X112682571Y-19370192D01*
X112588886Y-19398611D01*
X112502546Y-19444761D01*
X112426868Y-19506868D01*
X112364761Y-19582546D01*
X112318611Y-19668886D01*
X112290192Y-19762571D01*
X112280596Y-19860000D01*
X105274480Y-19860000D01*
X105269808Y-19812571D01*
X105241389Y-19718886D01*
X105195239Y-19632546D01*
X105133132Y-19556868D01*
X105057454Y-19494761D01*
X104971114Y-19448611D01*
X104877429Y-19420192D01*
X104849625Y-19417453D01*
X104942796Y-19324282D01*
X105106624Y-19079095D01*
X105219471Y-18806659D01*
X105277000Y-18517442D01*
X105277000Y-18222558D01*
X105219471Y-17933341D01*
X105106624Y-17660905D01*
X104942796Y-17415718D01*
X104734282Y-17207204D01*
X104573839Y-17100000D01*
X104734282Y-16992796D01*
X104942796Y-16784282D01*
X105106624Y-16539095D01*
X105219471Y-16266659D01*
X105277000Y-15977442D01*
X105277000Y-15682558D01*
X105219471Y-15393341D01*
X105106624Y-15120905D01*
X104942796Y-14875718D01*
X104734282Y-14667204D01*
X104489095Y-14503376D01*
X104216659Y-14390529D01*
X103927442Y-14333000D01*
X103632558Y-14333000D01*
X103343341Y-14390529D01*
X103070905Y-14503376D01*
X102825718Y-14667204D01*
X102617204Y-14875718D01*
X102453376Y-15120905D01*
X102340529Y-15393341D01*
X102283000Y-15682558D01*
X102283000Y-15977442D01*
X102340529Y-16266659D01*
X102453376Y-16539095D01*
X102617204Y-16784282D01*
X102825718Y-16992796D01*
X102986161Y-17100000D01*
X102825718Y-17207204D01*
X102617204Y-17415718D01*
X102453376Y-17660905D01*
X102340529Y-17933341D01*
X102283000Y-18222558D01*
X102283000Y-18517442D01*
X102340529Y-18806659D01*
X102453376Y-19079095D01*
X102617204Y-19324282D01*
X102710375Y-19417453D01*
X102682571Y-19420192D01*
X102588886Y-19448611D01*
X102502546Y-19494761D01*
X102426868Y-19556868D01*
X102364761Y-19632546D01*
X102318611Y-19718886D01*
X102290192Y-19812571D01*
X102280596Y-19910000D01*
X102280596Y-21910000D01*
X102290192Y-22007429D01*
X102307918Y-22065864D01*
X102282779Y-22049067D01*
X102001243Y-21932451D01*
X101702366Y-21873000D01*
X101397634Y-21873000D01*
X101098757Y-21932451D01*
X100817221Y-22049067D01*
X100563845Y-22218367D01*
X100348367Y-22433845D01*
X100179067Y-22687221D01*
X100062451Y-22968757D01*
X100003000Y-23267634D01*
X100003000Y-23572366D01*
X100017610Y-23645813D01*
X99802366Y-23602998D01*
X99497634Y-23602998D01*
X99198757Y-23662449D01*
X98917221Y-23779065D01*
X98663845Y-23948365D01*
X98448367Y-24163843D01*
X98279067Y-24417219D01*
X98162451Y-24698755D01*
X98103000Y-24997632D01*
X91391000Y-24997632D01*
X91391000Y-20650000D01*
X92320596Y-20650000D01*
X92320596Y-22650000D01*
X92330192Y-22747429D01*
X92358611Y-22841114D01*
X92404761Y-22927454D01*
X92466868Y-23003132D01*
X92542546Y-23065239D01*
X92628886Y-23111389D01*
X92722571Y-23139808D01*
X92820000Y-23149404D01*
X94820000Y-23149404D01*
X94917429Y-23139808D01*
X95011114Y-23111389D01*
X95097454Y-23065239D01*
X95173132Y-23003132D01*
X95235239Y-22927454D01*
X95281389Y-22841114D01*
X95309808Y-22747429D01*
X95319404Y-22650000D01*
X95319404Y-20650000D01*
X96970596Y-20650000D01*
X96970596Y-22650000D01*
X96980192Y-22747429D01*
X97008611Y-22841114D01*
X97054761Y-22927454D01*
X97116868Y-23003132D01*
X97192546Y-23065239D01*
X97278886Y-23111389D01*
X97372571Y-23139808D01*
X97470000Y-23149404D01*
X99470000Y-23149404D01*
X99567429Y-23139808D01*
X99661114Y-23111389D01*
X99747454Y-23065239D01*
X99823132Y-23003132D01*
X99885239Y-22927454D01*
X99931389Y-22841114D01*
X99959808Y-22747429D01*
X99969404Y-22650000D01*
X99969404Y-20650000D01*
X99959808Y-20552571D01*
X99931389Y-20458886D01*
X99885239Y-20372546D01*
X99823132Y-20296868D01*
X99747454Y-20234761D01*
X99661114Y-20188611D01*
X99567429Y-20160192D01*
X99470000Y-20150596D01*
X97470000Y-20150596D01*
X97372571Y-20160192D01*
X97278886Y-20188611D01*
X97192546Y-20234761D01*
X97116868Y-20296868D01*
X97054761Y-20372546D01*
X97008611Y-20458886D01*
X96980192Y-20552571D01*
X96970596Y-20650000D01*
X95319404Y-20650000D01*
X95309808Y-20552571D01*
X95281389Y-20458886D01*
X95235239Y-20372546D01*
X95173132Y-20296868D01*
X95097454Y-20234761D01*
X95011114Y-20188611D01*
X94917429Y-20160192D01*
X94820000Y-20150596D01*
X92820000Y-20150596D01*
X92722571Y-20160192D01*
X92628886Y-20188611D01*
X92542546Y-20234761D01*
X92466868Y-20296868D01*
X92404761Y-20372546D01*
X92358611Y-20458886D01*
X92330192Y-20552571D01*
X92320596Y-20650000D01*
X91391000Y-20650000D01*
X91391000Y-16422558D01*
X92323000Y-16422558D01*
X92323000Y-16717442D01*
X92380529Y-17006659D01*
X92493376Y-17279095D01*
X92657204Y-17524282D01*
X92865718Y-17732796D01*
X93110905Y-17896624D01*
X93383341Y-18009471D01*
X93672558Y-18067000D01*
X93967442Y-18067000D01*
X94256659Y-18009471D01*
X94529095Y-17896624D01*
X94774282Y-17732796D01*
X94982796Y-17524282D01*
X95146624Y-17279095D01*
X95259471Y-17006659D01*
X95317000Y-16717442D01*
X95317000Y-16422558D01*
X96973000Y-16422558D01*
X96973000Y-16717442D01*
X97030529Y-17006659D01*
X97143376Y-17279095D01*
X97307204Y-17524282D01*
X97515718Y-17732796D01*
X97760905Y-17896624D01*
X98033341Y-18009471D01*
X98322558Y-18067000D01*
X98617442Y-18067000D01*
X98906659Y-18009471D01*
X99179095Y-17896624D01*
X99424282Y-17732796D01*
X99632796Y-17524282D01*
X99796624Y-17279095D01*
X99909471Y-17006659D01*
X99967000Y-16717442D01*
X99967000Y-16422558D01*
X99909471Y-16133341D01*
X99796624Y-15860905D01*
X99632796Y-15615718D01*
X99424282Y-15407204D01*
X99179095Y-15243376D01*
X98906659Y-15130529D01*
X98617442Y-15073000D01*
X98322558Y-15073000D01*
X98033341Y-15130529D01*
X97760905Y-15243376D01*
X97515718Y-15407204D01*
X97307204Y-15615718D01*
X97143376Y-15860905D01*
X97030529Y-16133341D01*
X96973000Y-16422558D01*
X95317000Y-16422558D01*
X95259471Y-16133341D01*
X95146624Y-15860905D01*
X94982796Y-15615718D01*
X94774282Y-15407204D01*
X94529095Y-15243376D01*
X94256659Y-15130529D01*
X93967442Y-15073000D01*
X93672558Y-15073000D01*
X93383341Y-15130529D01*
X93110905Y-15243376D01*
X92865718Y-15407204D01*
X92657204Y-15615718D01*
X92493376Y-15860905D01*
X92380529Y-16133341D01*
X92323000Y-16422558D01*
X91391000Y-16422558D01*
X91391000Y-13788416D01*
X93747417Y-11432000D01*
X97537569Y-11432000D01*
X97697367Y-11671155D01*
X97912845Y-11886633D01*
X98166221Y-12055933D01*
X98447757Y-12172549D01*
X98746634Y-12232000D01*
X99051366Y-12232000D01*
X99350243Y-12172549D01*
X99631779Y-12055933D01*
X99885155Y-11886633D01*
X100100633Y-11671155D01*
X100269933Y-11417779D01*
X100386549Y-11136243D01*
X100446000Y-10837366D01*
X100446000Y-10532634D01*
X100386549Y-10233757D01*
X100269933Y-9952221D01*
X100100633Y-9698845D01*
X99885155Y-9483367D01*
X99631779Y-9314067D01*
X99350243Y-9197451D01*
X99051366Y-9138000D01*
X98746634Y-9138000D01*
X98447757Y-9197451D01*
X98166221Y-9314067D01*
X97912845Y-9483367D01*
X97697367Y-9698845D01*
X97537569Y-9938000D01*
X93474685Y-9938000D01*
X93438000Y-9934387D01*
X93401314Y-9938000D01*
X93401307Y-9938000D01*
X93291562Y-9948809D01*
X93150752Y-9991523D01*
X93020981Y-10060887D01*
X92907236Y-10154236D01*
X92883844Y-10182739D01*
X90141740Y-12924844D01*
X90113237Y-12948236D01*
X90019888Y-13061981D01*
X89994549Y-13109387D01*
X89950523Y-13191753D01*
X89907809Y-13332563D01*
X89893387Y-13479000D01*
X89897001Y-13515696D01*
X89897000Y-27520583D01*
X86966740Y-30450844D01*
X86938237Y-30474236D01*
X86844888Y-30587981D01*
X86838464Y-30600000D01*
X86775523Y-30717753D01*
X86732809Y-30858563D01*
X86718387Y-31005000D01*
X86438000Y-31005000D01*
X86438000Y-23872558D01*
X86783000Y-23872558D01*
X86783000Y-24167442D01*
X86840529Y-24456659D01*
X86953376Y-24729095D01*
X87117204Y-24974282D01*
X87325718Y-25182796D01*
X87486161Y-25290000D01*
X87325718Y-25397204D01*
X87117204Y-25605718D01*
X86953376Y-25850905D01*
X86840529Y-26123341D01*
X86783000Y-26412558D01*
X86783000Y-26707442D01*
X86840529Y-26996659D01*
X86953376Y-27269095D01*
X87117204Y-27514282D01*
X87325718Y-27722796D01*
X87570905Y-27886624D01*
X87843341Y-27999471D01*
X88132558Y-28057000D01*
X88427442Y-28057000D01*
X88716659Y-27999471D01*
X88989095Y-27886624D01*
X89234282Y-27722796D01*
X89442796Y-27514282D01*
X89606624Y-27269095D01*
X89719471Y-26996659D01*
X89777000Y-26707442D01*
X89777000Y-26412558D01*
X89719471Y-26123341D01*
X89606624Y-25850905D01*
X89442796Y-25605718D01*
X89234282Y-25397204D01*
X89073839Y-25290000D01*
X89234282Y-25182796D01*
X89442796Y-24974282D01*
X89606624Y-24729095D01*
X89719471Y-24456659D01*
X89777000Y-24167442D01*
X89777000Y-23872558D01*
X89719471Y-23583341D01*
X89606624Y-23310905D01*
X89442796Y-23065718D01*
X89234282Y-22857204D01*
X88989095Y-22693376D01*
X88716659Y-22580529D01*
X88427442Y-22523000D01*
X88132558Y-22523000D01*
X87843341Y-22580529D01*
X87570905Y-22693376D01*
X87325718Y-22857204D01*
X87117204Y-23065718D01*
X86953376Y-23310905D01*
X86840529Y-23583341D01*
X86783000Y-23872558D01*
X86438000Y-23872558D01*
X86438000Y-16758416D01*
X86783000Y-16413416D01*
X86783000Y-16547442D01*
X86840529Y-16836659D01*
X86953376Y-17109095D01*
X87117204Y-17354282D01*
X87325718Y-17562796D01*
X87570905Y-17726624D01*
X87843341Y-17839471D01*
X88132558Y-17897000D01*
X88427442Y-17897000D01*
X88716659Y-17839471D01*
X88989095Y-17726624D01*
X89234282Y-17562796D01*
X89442796Y-17354282D01*
X89606624Y-17109095D01*
X89719471Y-16836659D01*
X89777000Y-16547442D01*
X89777000Y-16252558D01*
X89719471Y-15963341D01*
X89606624Y-15690905D01*
X89442796Y-15445718D01*
X89349625Y-15352547D01*
X89377429Y-15349808D01*
X89471114Y-15321389D01*
X89557454Y-15275239D01*
X89633132Y-15213132D01*
X89695239Y-15137454D01*
X89741389Y-15051114D01*
X89769808Y-14957429D01*
X89779404Y-14860000D01*
X89779404Y-12860000D01*
X89769808Y-12762571D01*
X89741389Y-12668886D01*
X89695239Y-12582546D01*
X89633132Y-12506868D01*
X89557454Y-12444761D01*
X89471114Y-12398611D01*
X89377429Y-12370192D01*
X89280000Y-12360596D01*
X87280000Y-12360596D01*
X87182571Y-12370192D01*
X87088886Y-12398611D01*
X87002546Y-12444761D01*
X86926868Y-12506868D01*
X86864761Y-12582546D01*
X86818611Y-12668886D01*
X86790192Y-12762571D01*
X86780596Y-12860000D01*
X86780596Y-14302987D01*
X85188740Y-15894844D01*
X85160237Y-15918236D01*
X85066888Y-16031981D01*
X85029812Y-16101346D01*
X84997523Y-16161753D01*
X84954809Y-16302563D01*
X84940387Y-16449000D01*
X84652310Y-16449000D01*
X84633913Y-10376668D01*
X88089457Y-8426246D01*
X88789830Y-8062558D01*
X102283000Y-8062558D01*
X102283000Y-8357442D01*
X102340529Y-8646659D01*
X102453376Y-8919095D01*
X102617204Y-9164282D01*
X102825718Y-9372796D01*
X102986161Y-9480000D01*
X102825718Y-9587204D01*
X102617204Y-9795718D01*
X102453376Y-10040905D01*
X102340529Y-10313341D01*
X102283000Y-10602558D01*
X102283000Y-10897442D01*
X102340529Y-11186659D01*
X102453376Y-11459095D01*
X102617204Y-11704282D01*
X102825718Y-11912796D01*
X103070905Y-12076624D01*
X103343341Y-12189471D01*
X103632558Y-12247000D01*
X103927442Y-12247000D01*
X104216659Y-12189471D01*
X104489095Y-12076624D01*
X104734282Y-11912796D01*
X104942796Y-11704282D01*
X105106624Y-11459095D01*
X105219471Y-11186659D01*
X105277000Y-10897442D01*
X105277000Y-10602558D01*
X105219471Y-10313341D01*
X105106624Y-10040905D01*
X104942796Y-9795718D01*
X104734282Y-9587204D01*
X104573839Y-9480000D01*
X104734282Y-9372796D01*
X104942796Y-9164282D01*
X105106624Y-8919095D01*
X105219471Y-8646659D01*
X105277000Y-8357442D01*
X105277000Y-8062558D01*
X105267055Y-8012558D01*
X112283000Y-8012558D01*
X112283000Y-8307442D01*
X112340529Y-8596659D01*
X112453376Y-8869095D01*
X112617204Y-9114282D01*
X112825718Y-9322796D01*
X112986161Y-9430000D01*
X112825718Y-9537204D01*
X112617204Y-9745718D01*
X112453376Y-9990905D01*
X112340529Y-10263341D01*
X112283000Y-10552558D01*
X112283000Y-10847442D01*
X112340529Y-11136659D01*
X112453376Y-11409095D01*
X112617204Y-11654282D01*
X112825718Y-11862796D01*
X113070905Y-12026624D01*
X113343341Y-12139471D01*
X113632558Y-12197000D01*
X113927442Y-12197000D01*
X114216659Y-12139471D01*
X114489095Y-12026624D01*
X114734282Y-11862796D01*
X114942796Y-11654282D01*
X115106624Y-11409095D01*
X115219471Y-11136659D01*
X115277000Y-10847442D01*
X115277000Y-10552558D01*
X115219471Y-10263341D01*
X115106624Y-9990905D01*
X114942796Y-9745718D01*
X114734282Y-9537204D01*
X114573839Y-9430000D01*
X114734282Y-9322796D01*
X114942796Y-9114282D01*
X115106624Y-8869095D01*
X115219471Y-8596659D01*
X115277000Y-8307442D01*
X115277000Y-8012558D01*
X115219471Y-7723341D01*
X115106624Y-7450905D01*
X114942796Y-7205718D01*
X114734282Y-6997204D01*
X114489095Y-6833376D01*
X114216659Y-6720529D01*
X113927442Y-6663000D01*
X113632558Y-6663000D01*
X113343341Y-6720529D01*
X113070905Y-6833376D01*
X112825718Y-6997204D01*
X112617204Y-7205718D01*
X112453376Y-7450905D01*
X112340529Y-7723341D01*
X112283000Y-8012558D01*
X105267055Y-8012558D01*
X105219471Y-7773341D01*
X105106624Y-7500905D01*
X104942796Y-7255718D01*
X104734282Y-7047204D01*
X104489095Y-6883376D01*
X104216659Y-6770529D01*
X103927442Y-6713000D01*
X103632558Y-6713000D01*
X103343341Y-6770529D01*
X103070905Y-6883376D01*
X102825718Y-7047204D01*
X102617204Y-7255718D01*
X102453376Y-7500905D01*
X102340529Y-7773341D01*
X102283000Y-8062558D01*
X88789830Y-8062558D01*
X91874257Y-6460887D01*
X95725364Y-4628801D01*
X99638110Y-2932214D01*
X100872154Y-2447558D01*
X125123000Y-2447558D01*
X125123000Y-2742442D01*
X125180529Y-3031659D01*
X125293376Y-3304095D01*
X125457204Y-3549282D01*
X125665718Y-3757796D01*
X125910905Y-3921624D01*
X126183341Y-4034471D01*
X126472558Y-4092000D01*
X126767442Y-4092000D01*
X127056659Y-4034471D01*
X127329095Y-3921624D01*
X127574282Y-3757796D01*
X127782796Y-3549282D01*
X127890000Y-3388839D01*
X127997204Y-3549282D01*
X128205718Y-3757796D01*
X128366161Y-3865000D01*
X128205718Y-3972204D01*
X127997204Y-4180718D01*
X127833376Y-4425905D01*
X127720529Y-4698341D01*
X127663000Y-4987558D01*
X127663000Y-5282442D01*
X127720529Y-5571659D01*
X127833376Y-5844095D01*
X127997204Y-6089282D01*
X128205718Y-6297796D01*
X128450905Y-6461624D01*
X128723341Y-6574471D01*
X129012558Y-6632000D01*
X129307442Y-6632000D01*
X129596659Y-6574471D01*
X129869095Y-6461624D01*
X130114282Y-6297796D01*
X130322796Y-6089282D01*
X130430000Y-5928839D01*
X130537204Y-6089282D01*
X130745718Y-6297796D01*
X130990905Y-6461624D01*
X131263341Y-6574471D01*
X131552558Y-6632000D01*
X131847442Y-6632000D01*
X132136659Y-6574471D01*
X132409095Y-6461624D01*
X132654282Y-6297796D01*
X132862796Y-6089282D01*
X132970000Y-5928839D01*
X133077204Y-6089282D01*
X133285718Y-6297796D01*
X133530905Y-6461624D01*
X133803341Y-6574471D01*
X134092558Y-6632000D01*
X134387442Y-6632000D01*
X134676659Y-6574471D01*
X134949095Y-6461624D01*
X135194282Y-6297796D01*
X135402796Y-6089282D01*
X135510000Y-5928839D01*
X135617204Y-6089282D01*
X135825718Y-6297796D01*
X136070905Y-6461624D01*
X136343341Y-6574471D01*
X136632558Y-6632000D01*
X136927442Y-6632000D01*
X137216659Y-6574471D01*
X137489095Y-6461624D01*
X137734282Y-6297796D01*
X137942796Y-6089282D01*
X138050000Y-5928839D01*
X138157204Y-6089282D01*
X138365718Y-6297796D01*
X138610905Y-6461624D01*
X138883341Y-6574471D01*
X139172558Y-6632000D01*
X139467442Y-6632000D01*
X139756659Y-6574471D01*
X140029095Y-6461624D01*
X140274282Y-6297796D01*
X140482796Y-6089282D01*
X140590000Y-5928839D01*
X140697204Y-6089282D01*
X140905718Y-6297796D01*
X141150905Y-6461624D01*
X141423341Y-6574471D01*
X141712558Y-6632000D01*
X142007442Y-6632000D01*
X142296659Y-6574471D01*
X142569095Y-6461624D01*
X142814282Y-6297796D01*
X143022796Y-6089282D01*
X143186624Y-5844095D01*
X143299471Y-5571659D01*
X143357000Y-5282442D01*
X143357000Y-4987558D01*
X143299471Y-4698341D01*
X143186624Y-4425905D01*
X143022796Y-4180718D01*
X142814282Y-3972204D01*
X142653839Y-3865000D01*
X142814282Y-3757796D01*
X143022796Y-3549282D01*
X143130000Y-3388839D01*
X143237204Y-3549282D01*
X143445718Y-3757796D01*
X143690905Y-3921624D01*
X143963341Y-4034471D01*
X144252558Y-4092000D01*
X144547442Y-4092000D01*
X144836659Y-4034471D01*
X145109095Y-3921624D01*
X145354282Y-3757796D01*
X145562796Y-3549282D01*
X145670000Y-3388839D01*
X145777204Y-3549282D01*
X145985718Y-3757796D01*
X146146161Y-3865000D01*
X145985718Y-3972204D01*
X145777204Y-4180718D01*
X145613376Y-4425905D01*
X145500529Y-4698341D01*
X145443000Y-4987558D01*
X145443000Y-5282442D01*
X145500529Y-5571659D01*
X145613376Y-5844095D01*
X145777204Y-6089282D01*
X145985718Y-6297796D01*
X146230905Y-6461624D01*
X146503341Y-6574471D01*
X146792558Y-6632000D01*
X147087442Y-6632000D01*
X147376659Y-6574471D01*
X147649095Y-6461624D01*
X147894282Y-6297796D01*
X148102796Y-6089282D01*
X148210000Y-5928839D01*
X148317204Y-6089282D01*
X148525718Y-6297796D01*
X148770905Y-6461624D01*
X149043341Y-6574471D01*
X149332558Y-6632000D01*
X149627442Y-6632000D01*
X149916659Y-6574471D01*
X150189095Y-6461624D01*
X150434282Y-6297796D01*
X150642796Y-6089282D01*
X150750000Y-5928839D01*
X150857204Y-6089282D01*
X151065718Y-6297796D01*
X151310905Y-6461624D01*
X151583341Y-6574471D01*
X151872558Y-6632000D01*
X152167442Y-6632000D01*
X152456659Y-6574471D01*
X152729095Y-6461624D01*
X152974282Y-6297796D01*
X153182796Y-6089282D01*
X153290000Y-5928839D01*
X153397204Y-6089282D01*
X153605718Y-6297796D01*
X153850905Y-6461624D01*
X154123341Y-6574471D01*
X154412558Y-6632000D01*
X154707442Y-6632000D01*
X154996659Y-6574471D01*
X155269095Y-6461624D01*
X155514282Y-6297796D01*
X155722796Y-6089282D01*
X155830000Y-5928839D01*
X155937204Y-6089282D01*
X156145718Y-6297796D01*
X156390905Y-6461624D01*
X156663341Y-6574471D01*
X156952558Y-6632000D01*
X157247442Y-6632000D01*
X157536659Y-6574471D01*
X157809095Y-6461624D01*
X158054282Y-6297796D01*
X158262796Y-6089282D01*
X158370000Y-5928839D01*
X158477204Y-6089282D01*
X158685718Y-6297796D01*
X158930905Y-6461624D01*
X159203341Y-6574471D01*
X159492558Y-6632000D01*
X159787442Y-6632000D01*
X160076659Y-6574471D01*
X160349095Y-6461624D01*
X160594282Y-6297796D01*
X160802796Y-6089282D01*
X160910000Y-5928839D01*
X161017204Y-6089282D01*
X161225718Y-6297796D01*
X161470905Y-6461624D01*
X161743341Y-6574471D01*
X162032558Y-6632000D01*
X162327442Y-6632000D01*
X162616659Y-6574471D01*
X162889095Y-6461624D01*
X163134282Y-6297796D01*
X163342796Y-6089282D01*
X163506624Y-5844095D01*
X163619471Y-5571659D01*
X163677000Y-5282442D01*
X163677000Y-4987558D01*
X163619471Y-4698341D01*
X163506624Y-4425905D01*
X163342796Y-4180718D01*
X163134282Y-3972204D01*
X162973839Y-3865000D01*
X163134282Y-3757796D01*
X163342796Y-3549282D01*
X163450000Y-3388839D01*
X163557204Y-3549282D01*
X163765718Y-3757796D01*
X164010905Y-3921624D01*
X164283341Y-4034471D01*
X164572558Y-4092000D01*
X164867442Y-4092000D01*
X165156659Y-4034471D01*
X165429095Y-3921624D01*
X165674282Y-3757796D01*
X165882796Y-3549282D01*
X165990000Y-3388839D01*
X166097204Y-3549282D01*
X166305718Y-3757796D01*
X166466161Y-3865000D01*
X166305718Y-3972204D01*
X166097204Y-4180718D01*
X165933376Y-4425905D01*
X165820529Y-4698341D01*
X165763000Y-4987558D01*
X165763000Y-5282442D01*
X165820529Y-5571659D01*
X165933376Y-5844095D01*
X166097204Y-6089282D01*
X166305718Y-6297796D01*
X166550905Y-6461624D01*
X166823341Y-6574471D01*
X167112558Y-6632000D01*
X167407442Y-6632000D01*
X167696659Y-6574471D01*
X167969095Y-6461624D01*
X168214282Y-6297796D01*
X168422796Y-6089282D01*
X168530000Y-5928839D01*
X168637204Y-6089282D01*
X168845718Y-6297796D01*
X169090905Y-6461624D01*
X169363341Y-6574471D01*
X169652558Y-6632000D01*
X169947442Y-6632000D01*
X170236659Y-6574471D01*
X170509095Y-6461624D01*
X170754282Y-6297796D01*
X170962796Y-6089282D01*
X171070000Y-5928839D01*
X171177204Y-6089282D01*
X171385718Y-6297796D01*
X171630905Y-6461624D01*
X171903341Y-6574471D01*
X172192558Y-6632000D01*
X172487442Y-6632000D01*
X172776659Y-6574471D01*
X173049095Y-6461624D01*
X173294282Y-6297796D01*
X173387453Y-6204625D01*
X173390192Y-6232429D01*
X173418611Y-6326114D01*
X173464761Y-6412454D01*
X173526868Y-6488132D01*
X173602546Y-6550239D01*
X173688886Y-6596389D01*
X173782571Y-6624808D01*
X173880000Y-6634404D01*
X175880000Y-6634404D01*
X175977429Y-6624808D01*
X176071114Y-6596389D01*
X176157454Y-6550239D01*
X176233132Y-6488132D01*
X176295239Y-6412454D01*
X176341389Y-6326114D01*
X176369808Y-6232429D01*
X176379404Y-6135000D01*
X176379404Y-4135000D01*
X176369808Y-4037571D01*
X176341389Y-3943886D01*
X176295239Y-3857546D01*
X176233132Y-3781868D01*
X176157454Y-3719761D01*
X176071114Y-3673611D01*
X175977429Y-3645192D01*
X175949625Y-3642453D01*
X176042796Y-3549282D01*
X176206624Y-3304095D01*
X176319471Y-3031659D01*
X176377000Y-2742442D01*
X176377000Y-2447558D01*
X176319471Y-2158341D01*
X176206624Y-1885905D01*
X176042796Y-1640718D01*
X175834282Y-1432204D01*
X175589095Y-1268376D01*
X175316659Y-1155529D01*
X175027442Y-1098000D01*
X174732558Y-1098000D01*
X174443341Y-1155529D01*
X174170905Y-1268376D01*
X173925718Y-1432204D01*
X173717204Y-1640718D01*
X173610000Y-1801161D01*
X173502796Y-1640718D01*
X173294282Y-1432204D01*
X173049095Y-1268376D01*
X172776659Y-1155529D01*
X172487442Y-1098000D01*
X172192558Y-1098000D01*
X171903341Y-1155529D01*
X171630905Y-1268376D01*
X171385718Y-1432204D01*
X171177204Y-1640718D01*
X171013376Y-1885905D01*
X170900529Y-2158341D01*
X170843000Y-2447558D01*
X170843000Y-2742442D01*
X170900529Y-3031659D01*
X171013376Y-3304095D01*
X171177204Y-3549282D01*
X171385718Y-3757796D01*
X171546161Y-3865000D01*
X171385718Y-3972204D01*
X171177204Y-4180718D01*
X171070000Y-4341161D01*
X170962796Y-4180718D01*
X170754282Y-3972204D01*
X170509095Y-3808376D01*
X170236659Y-3695529D01*
X169947442Y-3638000D01*
X169652558Y-3638000D01*
X169363341Y-3695529D01*
X169090905Y-3808376D01*
X168845718Y-3972204D01*
X168637204Y-4180718D01*
X168530000Y-4341161D01*
X168422796Y-4180718D01*
X168214282Y-3972204D01*
X168053839Y-3865000D01*
X168214282Y-3757796D01*
X168422796Y-3549282D01*
X168586624Y-3304095D01*
X168699471Y-3031659D01*
X168757000Y-2742442D01*
X168757000Y-2447558D01*
X168699471Y-2158341D01*
X168586624Y-1885905D01*
X168422796Y-1640718D01*
X168214282Y-1432204D01*
X167969095Y-1268376D01*
X167696659Y-1155529D01*
X167407442Y-1098000D01*
X167112558Y-1098000D01*
X166823341Y-1155529D01*
X166550905Y-1268376D01*
X166305718Y-1432204D01*
X166097204Y-1640718D01*
X165990000Y-1801161D01*
X165882796Y-1640718D01*
X165674282Y-1432204D01*
X165429095Y-1268376D01*
X165156659Y-1155529D01*
X164867442Y-1098000D01*
X164572558Y-1098000D01*
X164283341Y-1155529D01*
X164010905Y-1268376D01*
X163765718Y-1432204D01*
X163557204Y-1640718D01*
X163450000Y-1801161D01*
X163342796Y-1640718D01*
X163134282Y-1432204D01*
X162889095Y-1268376D01*
X162616659Y-1155529D01*
X162327442Y-1098000D01*
X162032558Y-1098000D01*
X161743341Y-1155529D01*
X161470905Y-1268376D01*
X161225718Y-1432204D01*
X161017204Y-1640718D01*
X160853376Y-1885905D01*
X160740529Y-2158341D01*
X160683000Y-2447558D01*
X160683000Y-2742442D01*
X160740529Y-3031659D01*
X160853376Y-3304095D01*
X161017204Y-3549282D01*
X161225718Y-3757796D01*
X161386161Y-3865000D01*
X161225718Y-3972204D01*
X161017204Y-4180718D01*
X160910000Y-4341161D01*
X160802796Y-4180718D01*
X160594282Y-3972204D01*
X160349095Y-3808376D01*
X160076659Y-3695529D01*
X159787442Y-3638000D01*
X159492558Y-3638000D01*
X159203341Y-3695529D01*
X158930905Y-3808376D01*
X158685718Y-3972204D01*
X158477204Y-4180718D01*
X158370000Y-4341161D01*
X158262796Y-4180718D01*
X158054282Y-3972204D01*
X157893839Y-3865000D01*
X158054282Y-3757796D01*
X158262796Y-3549282D01*
X158426624Y-3304095D01*
X158539471Y-3031659D01*
X158597000Y-2742442D01*
X158597000Y-2447558D01*
X158539471Y-2158341D01*
X158426624Y-1885905D01*
X158262796Y-1640718D01*
X158054282Y-1432204D01*
X157809095Y-1268376D01*
X157536659Y-1155529D01*
X157247442Y-1098000D01*
X156952558Y-1098000D01*
X156663341Y-1155529D01*
X156390905Y-1268376D01*
X156145718Y-1432204D01*
X155937204Y-1640718D01*
X155830000Y-1801161D01*
X155722796Y-1640718D01*
X155514282Y-1432204D01*
X155269095Y-1268376D01*
X154996659Y-1155529D01*
X154707442Y-1098000D01*
X154412558Y-1098000D01*
X154123341Y-1155529D01*
X153850905Y-1268376D01*
X153605718Y-1432204D01*
X153397204Y-1640718D01*
X153233376Y-1885905D01*
X153120529Y-2158341D01*
X153063000Y-2447558D01*
X153063000Y-2742442D01*
X153120529Y-3031659D01*
X153233376Y-3304095D01*
X153397204Y-3549282D01*
X153605718Y-3757796D01*
X153766161Y-3865000D01*
X153605718Y-3972204D01*
X153397204Y-4180718D01*
X153290000Y-4341161D01*
X153182796Y-4180718D01*
X152974282Y-3972204D01*
X152729095Y-3808376D01*
X152456659Y-3695529D01*
X152167442Y-3638000D01*
X151872558Y-3638000D01*
X151583341Y-3695529D01*
X151310905Y-3808376D01*
X151065718Y-3972204D01*
X150857204Y-4180718D01*
X150750000Y-4341161D01*
X150642796Y-4180718D01*
X150434282Y-3972204D01*
X150273839Y-3865000D01*
X150434282Y-3757796D01*
X150642796Y-3549282D01*
X150806624Y-3304095D01*
X150919471Y-3031659D01*
X150977000Y-2742442D01*
X150977000Y-2447558D01*
X150919471Y-2158341D01*
X150806624Y-1885905D01*
X150642796Y-1640718D01*
X150434282Y-1432204D01*
X150189095Y-1268376D01*
X149916659Y-1155529D01*
X149627442Y-1098000D01*
X149332558Y-1098000D01*
X149043341Y-1155529D01*
X148770905Y-1268376D01*
X148525718Y-1432204D01*
X148317204Y-1640718D01*
X148210000Y-1801161D01*
X148102796Y-1640718D01*
X147894282Y-1432204D01*
X147649095Y-1268376D01*
X147376659Y-1155529D01*
X147087442Y-1098000D01*
X146792558Y-1098000D01*
X146503341Y-1155529D01*
X146230905Y-1268376D01*
X145985718Y-1432204D01*
X145777204Y-1640718D01*
X145670000Y-1801161D01*
X145562796Y-1640718D01*
X145354282Y-1432204D01*
X145109095Y-1268376D01*
X144836659Y-1155529D01*
X144547442Y-1098000D01*
X144252558Y-1098000D01*
X143963341Y-1155529D01*
X143690905Y-1268376D01*
X143445718Y-1432204D01*
X143237204Y-1640718D01*
X143130000Y-1801161D01*
X143022796Y-1640718D01*
X142814282Y-1432204D01*
X142569095Y-1268376D01*
X142296659Y-1155529D01*
X142007442Y-1098000D01*
X141712558Y-1098000D01*
X141423341Y-1155529D01*
X141150905Y-1268376D01*
X140905718Y-1432204D01*
X140697204Y-1640718D01*
X140533376Y-1885905D01*
X140420529Y-2158341D01*
X140363000Y-2447558D01*
X140363000Y-2742442D01*
X140420529Y-3031659D01*
X140533376Y-3304095D01*
X140697204Y-3549282D01*
X140905718Y-3757796D01*
X141066161Y-3865000D01*
X140905718Y-3972204D01*
X140697204Y-4180718D01*
X140590000Y-4341161D01*
X140482796Y-4180718D01*
X140274282Y-3972204D01*
X140029095Y-3808376D01*
X139756659Y-3695529D01*
X139467442Y-3638000D01*
X139172558Y-3638000D01*
X138883341Y-3695529D01*
X138610905Y-3808376D01*
X138365718Y-3972204D01*
X138157204Y-4180718D01*
X138050000Y-4341161D01*
X137942796Y-4180718D01*
X137734282Y-3972204D01*
X137573839Y-3865000D01*
X137734282Y-3757796D01*
X137942796Y-3549282D01*
X138106624Y-3304095D01*
X138219471Y-3031659D01*
X138277000Y-2742442D01*
X138277000Y-2447558D01*
X138219471Y-2158341D01*
X138106624Y-1885905D01*
X137942796Y-1640718D01*
X137734282Y-1432204D01*
X137489095Y-1268376D01*
X137216659Y-1155529D01*
X136927442Y-1098000D01*
X136632558Y-1098000D01*
X136343341Y-1155529D01*
X136070905Y-1268376D01*
X135825718Y-1432204D01*
X135617204Y-1640718D01*
X135453376Y-1885905D01*
X135340529Y-2158341D01*
X135283000Y-2447558D01*
X135283000Y-2742442D01*
X135340529Y-3031659D01*
X135453376Y-3304095D01*
X135617204Y-3549282D01*
X135825718Y-3757796D01*
X135986161Y-3865000D01*
X135825718Y-3972204D01*
X135617204Y-4180718D01*
X135510000Y-4341161D01*
X135402796Y-4180718D01*
X135194282Y-3972204D01*
X134949095Y-3808376D01*
X134676659Y-3695529D01*
X134387442Y-3638000D01*
X134092558Y-3638000D01*
X133803341Y-3695529D01*
X133530905Y-3808376D01*
X133285718Y-3972204D01*
X133077204Y-4180718D01*
X132970000Y-4341161D01*
X132862796Y-4180718D01*
X132654282Y-3972204D01*
X132493839Y-3865000D01*
X132654282Y-3757796D01*
X132862796Y-3549282D01*
X133026624Y-3304095D01*
X133139471Y-3031659D01*
X133197000Y-2742442D01*
X133197000Y-2447558D01*
X133139471Y-2158341D01*
X133026624Y-1885905D01*
X132862796Y-1640718D01*
X132654282Y-1432204D01*
X132409095Y-1268376D01*
X132136659Y-1155529D01*
X131847442Y-1098000D01*
X131552558Y-1098000D01*
X131263341Y-1155529D01*
X130990905Y-1268376D01*
X130745718Y-1432204D01*
X130537204Y-1640718D01*
X130430000Y-1801161D01*
X130322796Y-1640718D01*
X130114282Y-1432204D01*
X129869095Y-1268376D01*
X129596659Y-1155529D01*
X129307442Y-1098000D01*
X129012558Y-1098000D01*
X128723341Y-1155529D01*
X128450905Y-1268376D01*
X128205718Y-1432204D01*
X127997204Y-1640718D01*
X127890000Y-1801161D01*
X127782796Y-1640718D01*
X127574282Y-1432204D01*
X127329095Y-1268376D01*
X127056659Y-1155529D01*
X126767442Y-1098000D01*
X126472558Y-1098000D01*
X126183341Y-1155529D01*
X125910905Y-1268376D01*
X125665718Y-1432204D01*
X125457204Y-1640718D01*
X125293376Y-1885905D01*
X125180529Y-2158341D01*
X125123000Y-2447558D01*
X100872154Y-2447558D01*
X103607627Y-1373235D01*
X107629180Y46276D01*
X111697754Y1324551D01*
X115808507Y2460070D01*
X119956419Y3451441D01*
X124136354Y4297438D01*
X128343265Y4997042D01*
X132572051Y5549403D01*
X136817527Y5953843D01*
X141074509Y6209872D01*
X145337892Y6317180D01*
X149602361Y6275633D01*
G37*
%TD.AperFunction*%
%TD*%
M02*
