  0
SECTION
  2
HEADER
  9
$ANGBASE
  50
0.0
  9
$ANGDIR
  70
1
  9
$MEASUREMENT
  70
0
  0
ENDSEC
  0
SECTION
  2
TABLES
  0
TABLE
  2
LTYPE
  70
4
  0
LTYPE
  5
40F
  2
CONTINUOUS
  70
0
  3
Solid line
  72
65
  73
0
  40
0.0
  0
LTYPE
  5
410
  2
DASHDOT
 70
0
  3
Dash Dot ____ _ ____ _
 72
65
 73
4
 40
2.0
 49
1.25
 49
-0.25
 49
0.25
 49
-0.25
  0
LTYPE
  5
411
  2
DASHED
 70
0
  3
Dashed __ __ __ __ __
 72
65
 73
2
 40
0.75
 49
0.5
 49
-0.25
  0
LTYPE
  5
43B
  2
DOTTED
 70
0
  3
Dotted .  .  .  .
 72
65
 73
2
 40
0.2
 49
0.0
 49
-0.2
  0
ENDTAB
  0
TABLE
  2
STYLE
  70
4
  0
STYLE
  2
KICAD
  70
0
  40
0
  41
1
  42
1
  50
0
  71
0
  3
isocp.shx
  0
STYLE
  2
KICADB
  70
0
  40
0
  41
1
  42
1
  50
0
  71
0
  3
isocp.shx
  0
STYLE
  2
KICADI
  70
0
  40
0
  41
1
  42
1
  50
15
  71
0
  3
isocp.shx
  0
STYLE
  2
KICADBI
  70
0
  40
0
  41
1
  42
1
  50
15
  71
0
  3
isocp.shx
  0
ENDTAB
  0
TABLE
  2
LAYER
  70
1
  0
LAYER
  2
BLACK
  70
0
  62
7
  6
CONTINUOUS
  0
ENDTAB
  0
ENDSEC
  0
SECTION
  2
ENTITIES
0
LINE
8
BLACK
6
CONTINUOUS
10
5.89043
20
0.268603
11
5.89043
21
0.268603
0
LINE
8
BLACK
6
CONTINUOUS
10
5.89043
20
0.268603
11
5.89046
21
0.268602
0
LINE
8
BLACK
6
CONTINUOUS
10
5.89046
20
0.268602
11
6.05891
21
0.261076
0
LINE
8
BLACK
6
CONTINUOUS
10
6.05891
20
0.261076
11
6.05891
21
0.261076
0
LINE
8
BLACK
6
CONTINUOUS
10
6.05891
20
0.261076
11
6.05895
21
0.261074
0
LINE
8
BLACK
6
CONTINUOUS
10
6.05895
20
0.261074
11
6.22703
21
0.247673
0
LINE
8
BLACK
6
CONTINUOUS
10
6.22703
20
0.247673
11
6.22707
21
0.24767
0
LINE
8
BLACK
6
CONTINUOUS
10
6.22707
20
0.24767
11
6.22707
21
0.24767
0
LINE
8
BLACK
6
CONTINUOUS
10
6.22707
20
0.24767
11
6.39458
21
0.228412
0
LINE
8
BLACK
6
CONTINUOUS
10
6.39458
20
0.228412
11
6.39458
21
0.228412
0
LINE
8
BLACK
6
CONTINUOUS
10
6.39458
20
0.228412
11
6.39461
21
0.228407
0
LINE
8
BLACK
6
CONTINUOUS
10
6.39461
20
0.228407
11
6.56136
21
0.203314
0
LINE
8
BLACK
6
CONTINUOUS
10
6.56136
20
0.203314
11
6.56136
21
0.203314
0
LINE
8
BLACK
6
CONTINUOUS
10
6.56136
20
0.203314
11
6.56139
21
0.203309
0
LINE
8
BLACK
6
CONTINUOUS
10
6.56139
20
0.203309
11
6.72715
21
0.172412
0
LINE
8
BLACK
6
CONTINUOUS
10
6.72715
20
0.172412
11
6.72719
21
0.172405
0
LINE
8
BLACK
6
CONTINUOUS
10
6.72719
20
0.172405
11
6.89177
21
0.135742
0
LINE
8
BLACK
6
CONTINUOUS
10
6.89177
20
0.135742
11
6.89181
21
0.135734
0
LINE
8
BLACK
6
CONTINUOUS
10
6.89181
20
0.135734
11
6.89181
21
0.135733
0
LINE
8
BLACK
6
CONTINUOUS
10
6.89181
20
0.135733
11
7.05501
21
0.0933494
0
LINE
8
BLACK
6
CONTINUOUS
10
7.05501
20
0.0933494
11
7.05504
21
0.0933402
0
LINE
8
BLACK
6
CONTINUOUS
10
7.05504
20
0.0933402
11
7.21667
21
0.0452856
0
LINE
8
BLACK
6
CONTINUOUS
10
7.21667
20
0.0452856
11
7.21668
21
0.0452816
0
LINE
8
BLACK
6
CONTINUOUS
10
7.21668
20
0.0452816
11
7.2167
21
0.0452767
0
LINE
8
BLACK
6
CONTINUOUS
10
7.2167
20
0.0452767
11
7.33416
21
0.00644929
0
LINE
8
BLACK
6
CONTINUOUS
10
7.33416
20
0.00644929
11
7.33424
21
0.00642547
0
LINE
8
BLACK
6
CONTINUOUS
10
7.33424
20
0.00642547
11
7.33432
21
0.00637902
0
LINE
8
BLACK
6
CONTINUOUS
10
7.33432
20
0.00637902
11
7.33432
21
0.00637843
0
LINE
8
BLACK
6
CONTINUOUS
10
7.33432
20
0.00637843
11
7.33433
21
0.00637799
0
LINE
8
BLACK
6
CONTINUOUS
10
7.33433
20
0.00637799
11
7.33441
21
0.00633409
0
LINE
8
BLACK
6
CONTINUOUS
10
7.33441
20
0.00633409
11
7.33456
21
0.0062111
0
LINE
8
BLACK
6
CONTINUOUS
10
7.33456
20
0.0062111
11
7.33461
21
0.00614193
0
LINE
8
BLACK
6
CONTINUOUS
10
7.33461
20
0.00614193
11
7.33462
21
0.00614059
0
LINE
8
BLACK
6
CONTINUOUS
10
7.33462
20
0.00614059
11
7.33462
21
0.00613783
0
LINE
8
BLACK
6
CONTINUOUS
10
7.33462
20
0.00613783
11
7.33468
21
0.00606122
0
LINE
8
BLACK
6
CONTINUOUS
10
7.33468
20
0.00606122
11
7.33473
21
0.00597169
0
LINE
8
BLACK
6
CONTINUOUS
10
7.33473
20
0.00597169
11
7.33473
21
0.00596941
0
LINE
8
BLACK
6
CONTINUOUS
10
7.33473
20
0.00596941
11
7.33473
21
0.0059685
0
LINE
8
BLACK
6
CONTINUOUS
10
7.33473
20
0.0059685
11
7.33477
21
0.00589024
0
LINE
8
BLACK
6
CONTINUOUS
10
7.33477
20
0.00589024
11
7.33483
21
0.00570472
0
LINE
8
BLACK
6
CONTINUOUS
10
7.33483
20
0.00570472
11
7.33484
21
0.00561543
0
LINE
8
BLACK
6
CONTINUOUS
10
7.33484
20
0.00561543
11
7.33484
21
0.00560965
0
LINE
8
BLACK
6
CONTINUOUS
10
7.33484
20
0.00560965
11
7.33484
21
0.00560272
0
LINE
8
BLACK
6
CONTINUOUS
10
7.33484
20
0.00560272
11
7.33484
21
0.00555972
0
LINE
8
BLACK
6
CONTINUOUS
10
7.33484
20
0.00555972
11
7.33484
21
-2.59287
0
LINE
8
BLACK
6
CONTINUOUS
10
7.33484
20
-2.59287
11
7.33485
21
-2.59291
0
LINE
8
BLACK
6
CONTINUOUS
10
7.33485
20
-2.59291
11
7.33483
21
-2.59311
0
LINE
8
BLACK
6
CONTINUOUS
10
7.33483
20
-2.59311
11
7.33477
21
-2.59329
0
LINE
8
BLACK
6
CONTINUOUS
10
7.33477
20
-2.59329
11
7.33468
21
-2.59346
0
LINE
8
BLACK
6
CONTINUOUS
10
7.33468
20
-2.59346
11
7.33456
21
-2.59361
0
LINE
8
BLACK
6
CONTINUOUS
10
7.33456
20
-2.59361
11
7.33441
21
-2.59374
0
LINE
8
BLACK
6
CONTINUOUS
10
7.33441
20
-2.59374
11
7.33424
21
-2.59383
0
LINE
8
BLACK
6
CONTINUOUS
10
7.33424
20
-2.59383
11
7.33405
21
-2.59388
0
LINE
8
BLACK
6
CONTINUOUS
10
7.33405
20
-2.59388
11
7.33391
21
-2.5939
0
LINE
8
BLACK
6
CONTINUOUS
10
7.33391
20
-2.5939
11
7.33391
21
-2.5939
0
LINE
8
BLACK
6
CONTINUOUS
10
7.33391
20
-2.5939
11
7.33386
21
-2.5939
0
LINE
8
BLACK
6
CONTINUOUS
10
7.33386
20
-2.5939
11
7.33381
21
-2.5939
0
LINE
8
BLACK
6
CONTINUOUS
10
7.33381
20
-2.5939
11
3.31816
21
-2.5939
0
LINE
8
BLACK
6
CONTINUOUS
10
3.31816
20
-2.5939
11
3.31811
21
-2.5939
0
LINE
8
BLACK
6
CONTINUOUS
10
3.31811
20
-2.5939
11
3.31806
21
-2.5939
0
LINE
8
BLACK
6
CONTINUOUS
10
3.31806
20
-2.5939
11
3.31806
21
-2.5939
0
LINE
8
BLACK
6
CONTINUOUS
10
3.31806
20
-2.5939
11
3.31801
21
-2.59389
0
LINE
8
BLACK
6
CONTINUOUS
10
3.31801
20
-2.59389
11
3.31792
21
-2.59388
0
LINE
8
BLACK
6
CONTINUOUS
10
3.31792
20
-2.59388
11
3.31792
21
-2.59388
0
LINE
8
BLACK
6
CONTINUOUS
10
3.31792
20
-2.59388
11
3.31792
21
-2.59388
0
LINE
8
BLACK
6
CONTINUOUS
10
3.31792
20
-2.59388
11
3.31782
21
-2.59385
0
LINE
8
BLACK
6
CONTINUOUS
10
3.31782
20
-2.59385
11
3.31773
21
-2.59383
0
LINE
8
BLACK
6
CONTINUOUS
10
3.31773
20
-2.59383
11
3.31773
21
-2.59383
0
LINE
8
BLACK
6
CONTINUOUS
10
3.31773
20
-2.59383
11
3.31773
21
-2.59383
0
LINE
8
BLACK
6
CONTINUOUS
10
3.31773
20
-2.59383
11
3.31765
21
-2.59378
0
LINE
8
BLACK
6
CONTINUOUS
10
3.31765
20
-2.59378
11
3.31756
21
-2.59374
0
LINE
8
BLACK
6
CONTINUOUS
10
3.31756
20
-2.59374
11
3.31756
21
-2.59374
0
LINE
8
BLACK
6
CONTINUOUS
10
3.31756
20
-2.59374
11
3.31756
21
-2.59374
0
LINE
8
BLACK
6
CONTINUOUS
10
3.31756
20
-2.59374
11
3.31749
21
-2.59368
0
LINE
8
BLACK
6
CONTINUOUS
10
3.31749
20
-2.59368
11
3.31741
21
-2.59361
0
LINE
8
BLACK
6
CONTINUOUS
10
3.31741
20
-2.59361
11
3.31741
21
-2.59361
0
LINE
8
BLACK
6
CONTINUOUS
10
3.31741
20
-2.59361
11
3.31741
21
-2.59361
0
LINE
8
BLACK
6
CONTINUOUS
10
3.31741
20
-2.59361
11
3.31735
21
-2.59354
0
LINE
8
BLACK
6
CONTINUOUS
10
3.31735
20
-2.59354
11
3.31729
21
-2.59347
0
LINE
8
BLACK
6
CONTINUOUS
10
3.31729
20
-2.59347
11
3.31729
21
-2.59346
0
LINE
8
BLACK
6
CONTINUOUS
10
3.31729
20
-2.59346
11
3.31729
21
-2.59346
0
LINE
8
BLACK
6
CONTINUOUS
10
3.31729
20
-2.59346
11
3.31724
21
-2.59338
0
LINE
8
BLACK
6
CONTINUOUS
10
3.31724
20
-2.59338
11
3.3172
21
-2.59329
0
LINE
8
BLACK
6
CONTINUOUS
10
3.3172
20
-2.59329
11
3.3172
21
-2.59329
0
LINE
8
BLACK
6
CONTINUOUS
10
3.3172
20
-2.59329
11
3.3172
21
-2.59329
0
LINE
8
BLACK
6
CONTINUOUS
10
3.3172
20
-2.59329
11
3.31717
21
-2.59321
0
LINE
8
BLACK
6
CONTINUOUS
10
3.31717
20
-2.59321
11
3.31714
21
-2.59311
0
LINE
8
BLACK
6
CONTINUOUS
10
3.31714
20
-2.59311
11
3.31714
21
-2.59311
0
LINE
8
BLACK
6
CONTINUOUS
10
3.31714
20
-2.59311
11
3.31714
21
-2.59311
0
LINE
8
BLACK
6
CONTINUOUS
10
3.31714
20
-2.59311
11
3.31713
21
-2.59302
0
LINE
8
BLACK
6
CONTINUOUS
10
3.31713
20
-2.59302
11
3.31713
21
-2.59296
0
LINE
8
BLACK
6
CONTINUOUS
10
3.31713
20
-2.59296
11
3.31713
21
-2.59296
0
LINE
8
BLACK
6
CONTINUOUS
10
3.31713
20
-2.59296
11
3.31712
21
-2.59291
0
LINE
8
BLACK
6
CONTINUOUS
10
3.31712
20
-2.59291
11
3.31713
21
-2.59287
0
LINE
8
BLACK
6
CONTINUOUS
10
3.31713
20
-2.59287
11
3.31047
21
-0.396507
0
LINE
8
BLACK
6
CONTINUOUS
10
3.31047
20
-0.396507
11
3.31049
21
-0.396362
0
LINE
8
BLACK
6
CONTINUOUS
10
3.31049
20
-0.396362
11
3.31051
21
-0.396274
0
LINE
8
BLACK
6
CONTINUOUS
10
3.31051
20
-0.396274
11
3.31051
21
-0.396271
0
LINE
8
BLACK
6
CONTINUOUS
10
3.31051
20
-0.396271
11
3.31051
21
-0.396268
0
LINE
8
BLACK
6
CONTINUOUS
10
3.31051
20
-0.396268
11
3.31054
21
-0.396176
0
LINE
8
BLACK
6
CONTINUOUS
10
3.31054
20
-0.396176
11
3.31063
21
-0.396005
0
LINE
8
BLACK
6
CONTINUOUS
10
3.31063
20
-0.396005
11
3.31075
21
-0.395854
0
LINE
8
BLACK
6
CONTINUOUS
10
3.31075
20
-0.395854
11
3.31083
21
-0.395793
0
LINE
8
BLACK
6
CONTINUOUS
10
3.31083
20
-0.395793
11
3.31083
21
-0.395792
0
LINE
8
BLACK
6
CONTINUOUS
10
3.31083
20
-0.395792
11
3.31083
21
-0.39579
0
LINE
8
BLACK
6
CONTINUOUS
10
3.31083
20
-0.39579
11
3.3109
21
-0.395731
0
LINE
8
BLACK
6
CONTINUOUS
10
3.3109
20
-0.395731
11
3.31098
21
-0.39569
0
LINE
8
BLACK
6
CONTINUOUS
10
3.31098
20
-0.39569
11
3.45781
21
-0.312812
0
LINE
8
BLACK
6
CONTINUOUS
10
3.45781
20
-0.312812
11
3.45782
21
-0.312812
0
LINE
8
BLACK
6
CONTINUOUS
10
3.45782
20
-0.312812
11
3.45783
21
-0.312804
0
LINE
8
BLACK
6
CONTINUOUS
10
3.45783
20
-0.312804
11
3.45785
21
-0.312795
0
LINE
8
BLACK
6
CONTINUOUS
10
3.45785
20
-0.312795
11
3.45785
21
-0.312795
0
LINE
8
BLACK
6
CONTINUOUS
10
3.45785
20
-0.312795
11
3.60749
21
-0.235088
0
LINE
8
BLACK
6
CONTINUOUS
10
3.60749
20
-0.235088
11
3.60752
21
-0.235072
0
LINE
8
BLACK
6
CONTINUOUS
10
3.60752
20
-0.235072
11
3.75979
21
-0.162635
0
LINE
8
BLACK
6
CONTINUOUS
10
3.75979
20
-0.162635
11
3.75982
21
-0.16262
0
LINE
8
BLACK
6
CONTINUOUS
10
3.75982
20
-0.16262
11
3.75982
21
-0.16262
0
LINE
8
BLACK
6
CONTINUOUS
10
3.75982
20
-0.16262
11
3.91452
21
-0.0955414
0
LINE
8
BLACK
6
CONTINUOUS
10
3.91452
20
-0.0955414
11
3.91452
21
-0.0955409
0
LINE
8
BLACK
6
CONTINUOUS
10
3.91452
20
-0.0955409
11
3.91454
21
-0.0955332
0
LINE
8
BLACK
6
CONTINUOUS
10
3.91454
20
-0.0955332
11
3.91455
21
-0.0955278
0
LINE
8
BLACK
6
CONTINUOUS
10
3.91455
20
-0.0955278
11
3.91455
21
-0.0955275
0
LINE
8
BLACK
6
CONTINUOUS
10
3.91455
20
-0.0955275
11
4.0715
21
-0.0338881
0
LINE
8
BLACK
6
CONTINUOUS
10
4.0715
20
-0.0338881
11
4.07153
21
-0.0338761
0
LINE
8
BLACK
6
CONTINUOUS
10
4.07153
20
-0.0338761
11
4.07154
21
-0.0338759
0
LINE
8
BLACK
6
CONTINUOUS
10
4.07154
20
-0.0338759
11
4.23054
21
0.0222486
0
LINE
8
BLACK
6
CONTINUOUS
10
4.23054
20
0.0222486
11
4.23057
21
0.0222594
0
LINE
8
BLACK
6
CONTINUOUS
10
4.23057
20
0.0222594
11
4.23057
21
0.0222596
0
LINE
8
BLACK
6
CONTINUOUS
10
4.23057
20
0.0222596
11
4.39144
21
0.0728008
0
LINE
8
BLACK
6
CONTINUOUS
10
4.39144
20
0.0728008
11
4.39147
21
0.0728105
0
LINE
8
BLACK
6
CONTINUOUS
10
4.39147
20
0.0728105
11
4.39147
21
0.0728107
0
LINE
8
BLACK
6
CONTINUOUS
10
4.39147
20
0.0728107
11
4.554
21
0.117707
0
LINE
8
BLACK
6
CONTINUOUS
10
4.554
20
0.117707
11
4.55404
21
0.117715
0
LINE
8
BLACK
6
CONTINUOUS
10
4.55404
20
0.117715
11
4.55404
21
0.117716
0
LINE
8
BLACK
6
CONTINUOUS
10
4.55404
20
0.117716
11
4.71804
21
0.156912
0
LINE
8
BLACK
6
CONTINUOUS
10
4.71804
20
0.156912
11
4.71807
21
0.15692
0
LINE
8
BLACK
6
CONTINUOUS
10
4.71807
20
0.15692
11
4.71807
21
0.15692
0
LINE
8
BLACK
6
CONTINUOUS
10
4.71807
20
0.15692
11
4.88334
21
0.190369
0
LINE
8
BLACK
6
CONTINUOUS
10
4.88334
20
0.190369
11
4.88337
21
0.190375
0
LINE
8
BLACK
6
CONTINUOUS
10
4.88337
20
0.190375
11
5.0497
21
0.218036
0
LINE
8
BLACK
6
CONTINUOUS
10
5.0497
20
0.218036
11
5.04971
21
0.218036
0
LINE
8
BLACK
6
CONTINUOUS
10
5.04971
20
0.218036
11
5.04972
21
0.218039
0
LINE
8
BLACK
6
CONTINUOUS
10
5.04972
20
0.218039
11
5.04974
21
0.218042
0
LINE
8
BLACK
6
CONTINUOUS
10
5.04974
20
0.218042
11
5.04974
21
0.218042
0
LINE
8
BLACK
6
CONTINUOUS
10
5.04974
20
0.218042
11
5.21694
21
0.239881
0
LINE
8
BLACK
6
CONTINUOUS
10
5.21694
20
0.239881
11
5.21694
21
0.239881
0
LINE
8
BLACK
6
CONTINUOUS
10
5.21694
20
0.239881
11
5.21697
21
0.239884
0
LINE
8
BLACK
6
CONTINUOUS
10
5.21697
20
0.239884
11
5.21697
21
0.239885
0
LINE
8
BLACK
6
CONTINUOUS
10
5.21697
20
0.239885
11
5.21697
21
0.239885
0
LINE
8
BLACK
6
CONTINUOUS
10
5.21697
20
0.239885
11
5.38483
21
0.255875
0
LINE
8
BLACK
6
CONTINUOUS
10
5.38483
20
0.255875
11
5.38483
21
0.255876
0
LINE
8
BLACK
6
CONTINUOUS
10
5.38483
20
0.255876
11
5.38487
21
0.255878
0
LINE
8
BLACK
6
CONTINUOUS
10
5.38487
20
0.255878
11
5.55318
21
0.266001
0
LINE
8
BLACK
6
CONTINUOUS
10
5.55318
20
0.266001
11
5.55321
21
0.266003
0
LINE
8
BLACK
6
CONTINUOUS
10
5.55321
20
0.266003
11
5.55321
21
0.266003
0
LINE
8
BLACK
6
CONTINUOUS
10
5.55321
20
0.266003
11
5.72178
21
0.270246
0
LINE
8
BLACK
6
CONTINUOUS
10
5.72178
20
0.270246
11
5.72181
21
0.270246
0
LINE
8
BLACK
6
CONTINUOUS
10
5.72181
20
0.270246
11
5.72181
21
0.270246
0
LINE
8
BLACK
6
CONTINUOUS
10
5.72181
20
0.270246
11
5.89043
21
0.268603
0
LINE
8
BLACK
6
CONTINUOUS
10
5.55328
20
0.264035
11
5.385
21
0.253914
0
LINE
8
BLACK
6
CONTINUOUS
10
5.385
20
0.253914
11
5.21718
21
0.237927
0
LINE
8
BLACK
6
CONTINUOUS
10
5.21718
20
0.237927
11
5.05001
21
0.216092
0
LINE
8
BLACK
6
CONTINUOUS
10
5.05001
20
0.216092
11
4.88371
21
0.188436
0
LINE
8
BLACK
6
CONTINUOUS
10
4.88371
20
0.188436
11
4.71848
21
0.154994
0
LINE
8
BLACK
6
CONTINUOUS
10
4.71848
20
0.154994
11
4.55451
21
0.115805
0
LINE
8
BLACK
6
CONTINUOUS
10
4.55451
20
0.115805
11
4.39201
21
0.0709174
0
LINE
8
BLACK
6
CONTINUOUS
10
4.39201
20
0.0709174
11
4.23118
21
0.0203863
0
LINE
8
BLACK
6
CONTINUOUS
10
4.23118
20
0.0203863
11
4.07221
21
-0.0357267
0
LINE
8
BLACK
6
CONTINUOUS
10
4.07221
20
-0.0357267
11
3.91529
21
-0.0973539
0
LINE
8
BLACK
6
CONTINUOUS
10
3.91529
20
-0.0973539
11
3.76062
21
-0.16442
0
LINE
8
BLACK
6
CONTINUOUS
10
3.76062
20
-0.16442
11
3.60838
21
-0.236843
0
LINE
8
BLACK
6
CONTINUOUS
10
3.60838
20
-0.236843
11
3.45877
21
-0.314535
0
LINE
8
BLACK
6
CONTINUOUS
10
3.45877
20
-0.314535
11
3.31244
21
-0.397125
0
LINE
8
BLACK
6
CONTINUOUS
10
3.31244
20
-0.397125
11
3.31909
21
-2.59193
0
LINE
8
BLACK
6
CONTINUOUS
10
3.31909
20
-2.59193
11
7.33287
21
-2.59193
0
LINE
8
BLACK
6
CONTINUOUS
10
7.33287
20
-2.59193
11
7.33287
21
0.00480047
0
LINE
8
BLACK
6
CONTINUOUS
10
7.33287
20
0.00480047
11
7.21609
21
0.0434032
0
LINE
8
BLACK
6
CONTINUOUS
10
7.21609
20
0.0434032
11
7.0545
21
0.0914485
0
LINE
8
BLACK
6
CONTINUOUS
10
7.0545
20
0.0914485
11
6.89133
21
0.133824
0
LINE
8
BLACK
6
CONTINUOUS
10
6.89133
20
0.133824
11
6.72678
21
0.17048
0
LINE
8
BLACK
6
CONTINUOUS
10
6.72678
20
0.17048
11
6.56105
21
0.20137
0
LINE
8
BLACK
6
CONTINUOUS
10
6.56105
20
0.20137
11
6.39434
21
0.226458
0
LINE
8
BLACK
6
CONTINUOUS
10
6.39434
20
0.226458
11
6.22686
21
0.245712
0
LINE
8
BLACK
6
CONTINUOUS
10
6.22686
20
0.245712
11
6.05881
21
0.25911
0
LINE
8
BLACK
6
CONTINUOUS
10
6.05881
20
0.25911
11
5.89039
21
0.266635
0
LINE
8
BLACK
6
CONTINUOUS
10
5.89039
20
0.266635
11
5.72181
21
0.268277
0
LINE
8
BLACK
6
CONTINUOUS
10
5.72181
20
0.268277
11
5.55328
21
0.264035
  0
ENDSEC
  0
EOF
