M48
; DRILL file {KiCad (5.1.10)-1} date 01/06/22 12:40:13
; FORMAT={-:-/ absolute / metric / decimal}
; #@! TF.CreationDate,2022-01-06T12:40:13+00:00
; #@! TF.GenerationSoftware,Kicad,Pcbnew,(5.1.10)-1
FMAT,2
METRIC
T1C1.000
T2C3.200
%
G90
G05
T1
X85.66Y-20.43
X87.1Y-37.53
X88.28Y-13.86
X88.28Y-16.4
X88.28Y-18.94
X88.28Y-21.48
X88.28Y-24.02
X88.28Y-26.56
X90.05Y-34.01
X90.05Y-37.51
X92.25Y-26.82
X93.58Y-42.2
X93.58Y-57.44
X93.82Y-16.57
X93.82Y-19.11
X93.82Y-21.65
X94.21Y-29.6
X94.63Y-26.84
X96.11Y-14.45
X96.12Y-39.07
X96.12Y-42.2
X96.12Y-57.44
X96.75Y-29.6
X98.47Y-16.57
X98.47Y-19.11
X98.47Y-21.65
X98.66Y-42.2
X98.66Y-57.44
X99.29Y-29.6
X99.65Y-25.15
X101.2Y-42.2
X101.2Y-57.44
X101.55Y-23.42
X101.83Y-29.6
X102.03Y-33.23
X103.11Y-54.23
X103.74Y-42.2
X103.74Y-57.44
X103.78Y-8.21
X103.78Y-10.75
X103.78Y-13.29
X103.78Y-15.83
X103.78Y-18.37
X103.78Y-20.91
X104.37Y-29.6
X104.6Y-36.63
X106.28Y-42.2
X106.28Y-57.44
X106.91Y-29.6
X108.17Y-24.43
X108.5Y-13.28
X108.82Y-42.2
X108.82Y-57.44
X109.34Y-35.42
X111.1Y-26.6
X111.36Y-42.2
X111.36Y-57.44
X113.78Y-8.16
X113.78Y-10.7
X113.78Y-13.24
X113.78Y-15.78
X113.78Y-18.32
X113.78Y-20.86
X113.9Y-42.2
X113.9Y-57.44
X116.44Y-42.2
X116.44Y-57.44
X117.84Y-32.36
X118.98Y-42.2
X118.98Y-57.44
X121.52Y-42.2
X121.52Y-57.44
X124.06Y-42.2
X124.06Y-57.44
X126.6Y-42.2
X126.6Y-57.44
X126.61Y-7.97
X126.62Y-2.595
X126.62Y-5.135
X129.14Y-42.2
X129.14Y-57.44
X129.16Y-2.595
X129.16Y-5.135
X131.7Y-2.595
X131.7Y-5.135
X134.24Y-2.595
X134.24Y-5.135
X136.78Y-2.595
X136.78Y-5.135
X139.32Y-2.595
X139.32Y-5.135
X141.47Y-39.18
X141.47Y-59.18
X141.86Y-2.595
X141.86Y-5.135
X144.01Y-39.18
X144.01Y-59.18
X144.4Y-2.595
X144.4Y-5.135
X144.42Y-8.16
X146.55Y-39.18
X146.55Y-59.18
X146.94Y-2.595
X146.94Y-5.135
X149.09Y-39.18
X149.09Y-59.18
X149.48Y-2.595
X149.48Y-5.135
X150.34Y-56.09
X151.63Y-39.18
X151.63Y-59.18
X152.02Y-2.595
X152.02Y-5.135
X154.17Y-39.18
X154.17Y-59.18
X154.56Y-2.595
X154.56Y-5.135
X156.71Y-39.18
X156.71Y-59.18
X156.81Y-18.26
X157.1Y-2.595
X157.1Y-5.135
X158.2Y-24.62
X159.25Y-39.18
X159.25Y-59.18
X159.64Y-2.595
X159.64Y-5.135
X161.79Y-39.18
X161.79Y-59.18
X162.18Y-2.595
X162.18Y-5.135
X164.33Y-39.18
X164.33Y-59.18
X164.71Y-7.97
X164.72Y-2.595
X164.72Y-5.135
X166.87Y-39.18
X166.87Y-59.18
X167.26Y-2.595
X167.26Y-5.135
X169.41Y-39.18
X169.41Y-59.18
X169.8Y-2.595
X169.8Y-5.135
X171.95Y-39.18
X171.95Y-59.18
X172.34Y-2.595
X172.34Y-5.135
X174.49Y-39.18
X174.49Y-59.18
X174.88Y-2.595
X174.88Y-5.135
X177.03Y-39.18
X177.03Y-59.18
X179.57Y-39.18
X179.57Y-59.18
T2
X131.02Y-48.66
X137.83Y-29.58
X165.3Y-50.33
T0
M30
