%TF.GenerationSoftware,KiCad,Pcbnew,(5.1.10)-1*%
%TF.CreationDate,2022-01-06T12:40:05+00:00*%
%TF.ProjectId,mike_pcb_control,6d696b65-5f70-4636-925f-636f6e74726f,rev?*%
%TF.SameCoordinates,Original*%
%TF.FileFunction,Copper,L2,Bot*%
%TF.FilePolarity,Positive*%
%FSLAX46Y46*%
G04 Gerber Fmt 4.6, Leading zero omitted, Abs format (unit mm)*
G04 Created by KiCad (PCBNEW (5.1.10)-1) date 2022-01-06 12:40:05*
%MOMM*%
%LPD*%
G01*
G04 APERTURE LIST*
%TA.AperFunction,ComponentPad*%
%ADD10C,2.000000*%
%TD*%
%TA.AperFunction,ComponentPad*%
%ADD11O,2.000000X2.000000*%
%TD*%
%TA.AperFunction,ComponentPad*%
%ADD12R,2.000000X2.000000*%
%TD*%
%TA.AperFunction,ComponentPad*%
%ADD13O,2.000000X2.600000*%
%TD*%
%TA.AperFunction,ComponentPad*%
%ADD14R,2.000000X2.600000*%
%TD*%
%TA.AperFunction,ViaPad*%
%ADD15C,2.100000*%
%TD*%
%TA.AperFunction,Conductor*%
%ADD16C,1.500000*%
%TD*%
%TA.AperFunction,Conductor*%
%ADD17C,1.000000*%
%TD*%
%TA.AperFunction,Conductor*%
%ADD18C,0.500000*%
%TD*%
%TA.AperFunction,Conductor*%
%ADD19C,2.000000*%
%TD*%
%TA.AperFunction,Conductor*%
%ADD20C,0.200000*%
%TD*%
%TA.AperFunction,Conductor*%
%ADD21C,0.100000*%
%TD*%
G04 APERTURE END LIST*
D10*
%TO.P,C1,2*%
%TO.N,GND*%
X90050000Y-37510000D03*
%TO.P,C1,1*%
%TO.N,+5V*%
X90050000Y-34010000D03*
%TD*%
D11*
%TO.P,J5,3*%
%TO.N,+5V*%
X93820000Y-16570000D03*
%TO.P,J5,2*%
%TO.N,GND*%
X93820000Y-19110000D03*
D12*
%TO.P,J5,1*%
%TO.N,A0*%
X93820000Y-21650000D03*
%TD*%
D11*
%TO.P,J3,3*%
%TO.N,+5V*%
X98470000Y-16570000D03*
%TO.P,J3,2*%
%TO.N,GND*%
X98470000Y-19110000D03*
D12*
%TO.P,J3,1*%
%TO.N,A1*%
X98470000Y-21650000D03*
%TD*%
D11*
%TO.P,J2,6*%
%TO.N,+5V*%
X88280000Y-26560000D03*
%TO.P,J2,5*%
X88280000Y-24020000D03*
%TO.P,J2,4*%
%TO.N,GND*%
X88280000Y-21480000D03*
%TO.P,J2,3*%
X88280000Y-18940000D03*
%TO.P,J2,2*%
%TO.N,TX5V*%
X88280000Y-16400000D03*
D12*
%TO.P,J2,1*%
%TO.N,RX5V*%
X88280000Y-13860000D03*
%TD*%
D11*
%TO.P,J4,40*%
%TO.N,Net-(J4-Pad40)*%
X126620000Y-2595000D03*
%TO.P,J4,39*%
%TO.N,GND*%
X126620000Y-5135000D03*
%TO.P,J4,38*%
%TO.N,Net-(J4-Pad38)*%
X129160000Y-2595000D03*
%TO.P,J4,37*%
%TO.N,Net-(J4-Pad37)*%
X129160000Y-5135000D03*
%TO.P,J4,36*%
%TO.N,Net-(J4-Pad36)*%
X131700000Y-2595000D03*
%TO.P,J4,35*%
%TO.N,Net-(J4-Pad35)*%
X131700000Y-5135000D03*
%TO.P,J4,34*%
%TO.N,GND*%
X134240000Y-2595000D03*
%TO.P,J4,33*%
%TO.N,Net-(J4-Pad33)*%
X134240000Y-5135000D03*
%TO.P,J4,32*%
%TO.N,Net-(J4-Pad32)*%
X136780000Y-2595000D03*
%TO.P,J4,31*%
%TO.N,Net-(J4-Pad31)*%
X136780000Y-5135000D03*
%TO.P,J4,30*%
%TO.N,GND*%
X139320000Y-2595000D03*
%TO.P,J4,29*%
%TO.N,Net-(J4-Pad29)*%
X139320000Y-5135000D03*
%TO.P,J4,28*%
%TO.N,Net-(J4-Pad28)*%
X141860000Y-2595000D03*
%TO.P,J4,27*%
%TO.N,Net-(J4-Pad27)*%
X141860000Y-5135000D03*
%TO.P,J4,26*%
%TO.N,Net-(J4-Pad26)*%
X144400000Y-2595000D03*
%TO.P,J4,25*%
%TO.N,GND*%
X144400000Y-5135000D03*
%TO.P,J4,24*%
%TO.N,Net-(J4-Pad24)*%
X146940000Y-2595000D03*
%TO.P,J4,23*%
%TO.N,Net-(J4-Pad23)*%
X146940000Y-5135000D03*
%TO.P,J4,22*%
%TO.N,Net-(J4-Pad22)*%
X149480000Y-2595000D03*
%TO.P,J4,21*%
%TO.N,Net-(J4-Pad21)*%
X149480000Y-5135000D03*
%TO.P,J4,20*%
%TO.N,GND*%
X152020000Y-2595000D03*
%TO.P,J4,19*%
%TO.N,Net-(J4-Pad19)*%
X152020000Y-5135000D03*
%TO.P,J4,18*%
%TO.N,Net-(J4-Pad18)*%
X154560000Y-2595000D03*
%TO.P,J4,17*%
%TO.N,+3V3*%
X154560000Y-5135000D03*
%TO.P,J4,16*%
%TO.N,Net-(J4-Pad16)*%
X157100000Y-2595000D03*
%TO.P,J4,15*%
%TO.N,Net-(J4-Pad15)*%
X157100000Y-5135000D03*
%TO.P,J4,14*%
%TO.N,GND*%
X159640000Y-2595000D03*
%TO.P,J4,13*%
%TO.N,Net-(J4-Pad13)*%
X159640000Y-5135000D03*
%TO.P,J4,12*%
%TO.N,Net-(J4-Pad12)*%
X162180000Y-2595000D03*
%TO.P,J4,11*%
%TO.N,Net-(J4-Pad11)*%
X162180000Y-5135000D03*
%TO.P,J4,10*%
%TO.N,RX3V3*%
X164720000Y-2595000D03*
%TO.P,J4,9*%
%TO.N,GND*%
X164720000Y-5135000D03*
%TO.P,J4,8*%
%TO.N,TX3V3*%
X167260000Y-2595000D03*
%TO.P,J4,7*%
%TO.N,Net-(J4-Pad7)*%
X167260000Y-5135000D03*
%TO.P,J4,6*%
%TO.N,GND*%
X169800000Y-2595000D03*
%TO.P,J4,5*%
%TO.N,SCL3V3*%
X169800000Y-5135000D03*
%TO.P,J4,4*%
%TO.N,+5V*%
X172340000Y-2595000D03*
%TO.P,J4,3*%
%TO.N,SDA3V3*%
X172340000Y-5135000D03*
%TO.P,J4,2*%
%TO.N,+5V*%
X174880000Y-2595000D03*
D12*
%TO.P,J4,1*%
%TO.N,+3V3*%
X174880000Y-5135000D03*
%TD*%
D11*
%TO.P,U4,21*%
%TO.N,Net-(U4-Pad21)*%
X169410000Y-39180000D03*
%TO.P,U4,22*%
%TO.N,Net-(U4-Pad22)*%
X166870000Y-39180000D03*
%TO.P,U4,29*%
%TO.N,Net-(U4-Pad29)*%
X149090000Y-39180000D03*
%TO.P,U4,28*%
%TO.N,Net-(U4-Pad28)*%
X151630000Y-39180000D03*
%TO.P,U4,31*%
%TO.N,Net-(U4-Pad31)*%
X144010000Y-39180000D03*
%TO.P,U4,23*%
%TO.N,Net-(U4-Pad23)*%
X164330000Y-39180000D03*
%TO.P,U4,30*%
%TO.N,Net-(U4-Pad30)*%
X146550000Y-39180000D03*
%TO.P,U4,24*%
%TO.N,Net-(U4-Pad24)*%
X161790000Y-39180000D03*
%TO.P,U4,19*%
%TO.N,Net-(U4-Pad19)*%
X174490000Y-39180000D03*
D12*
%TO.P,U4,32*%
%TO.N,Net-(U4-Pad32)*%
X141470000Y-39180000D03*
D11*
%TO.P,U4,20*%
%TO.N,Net-(U4-Pad20)*%
X171950000Y-39180000D03*
%TO.P,U4,26*%
%TO.N,Net-(U4-Pad26)*%
X156710000Y-39180000D03*
%TO.P,U4,17*%
%TO.N,SDA3V3*%
X179570000Y-39180000D03*
%TO.P,U4,25*%
%TO.N,Net-(U4-Pad25)*%
X159250000Y-39180000D03*
%TO.P,U4,27*%
%TO.N,Net-(U4-Pad27)*%
X154170000Y-39180000D03*
%TO.P,U4,18*%
%TO.N,SCL3V3*%
X177030000Y-39180000D03*
%TO.P,U4,16*%
%TO.N,Net-(U4-Pad16)*%
X179570000Y-59180000D03*
%TO.P,U4,15*%
%TO.N,Net-(U4-Pad15)*%
X177030000Y-59180000D03*
%TO.P,U4,14*%
%TO.N,Net-(U4-Pad14)*%
X174490000Y-59180000D03*
%TO.P,U4,13*%
%TO.N,Net-(U4-Pad13)*%
X171950000Y-59180000D03*
%TO.P,U4,12*%
%TO.N,Net-(U4-Pad12)*%
X169410000Y-59180000D03*
%TO.P,U4,11*%
%TO.N,Net-(U4-Pad11)*%
X166870000Y-59180000D03*
%TO.P,U4,10*%
%TO.N,Net-(U4-Pad10)*%
X164330000Y-59180000D03*
%TO.P,U4,9*%
%TO.N,Net-(U4-Pad9)*%
X161790000Y-59180000D03*
%TO.P,U4,8*%
%TO.N,Net-(U4-Pad8)*%
X159250000Y-59180000D03*
%TO.P,U4,7*%
%TO.N,Net-(U4-Pad7)*%
X156710000Y-59180000D03*
%TO.P,U4,6*%
%TO.N,Net-(U4-Pad6)*%
X154170000Y-59180000D03*
%TO.P,U4,5*%
%TO.N,Net-(U4-Pad5)*%
X151630000Y-59180000D03*
%TO.P,U4,4*%
%TO.N,GND*%
X149090000Y-59180000D03*
%TO.P,U4,3*%
%TO.N,Net-(U4-Pad3)*%
X146550000Y-59180000D03*
%TO.P,U4,2*%
%TO.N,+3.3VA*%
X144010000Y-59180000D03*
D12*
%TO.P,U4,1*%
%TO.N,Net-(U4-Pad1)*%
X141470000Y-59180000D03*
%TD*%
D11*
%TO.P,U3,8*%
%TO.N,RX5V*%
X103780000Y-10750000D03*
%TO.P,U3,7*%
%TO.N,TX5V*%
X103780000Y-8210000D03*
%TO.P,U3,10*%
%TO.N,+5V*%
X103780000Y-15830000D03*
%TO.P,U3,11*%
%TO.N,SCL5V*%
X103780000Y-18370000D03*
%TO.P,U3,9*%
%TO.N,GND*%
X103780000Y-13290000D03*
D12*
%TO.P,U3,12*%
%TO.N,SDA5V*%
X103780000Y-20910000D03*
D11*
%TO.P,U3,6*%
%TO.N,RX3V3*%
X113780000Y-8160000D03*
%TO.P,U3,5*%
%TO.N,TX3V3*%
X113780000Y-10700000D03*
%TO.P,U3,4*%
%TO.N,GND*%
X113780000Y-13240000D03*
%TO.P,U3,3*%
%TO.N,+3V3*%
X113780000Y-15780000D03*
%TO.P,U3,2*%
%TO.N,SDA3V3*%
X113780000Y-18320000D03*
D12*
%TO.P,U3,1*%
%TO.N,SCL3V3*%
X113780000Y-20860000D03*
%TD*%
D11*
%TO.P,J1,6*%
%TO.N,+5V*%
X94210000Y-29600000D03*
%TO.P,J1,5*%
X96750000Y-29600000D03*
%TO.P,J1,4*%
%TO.N,GND*%
X99290000Y-29600000D03*
%TO.P,J1,3*%
X101830000Y-29600000D03*
%TO.P,J1,2*%
%TO.N,SDA5V*%
X104370000Y-29600000D03*
D12*
%TO.P,J1,1*%
%TO.N,SCL5V*%
X106910000Y-29600000D03*
%TD*%
D11*
%TO.P,A2,16*%
%TO.N,Net-(A2-Pad16)*%
X129140000Y-42200000D03*
%TO.P,A2,15*%
%TO.N,Net-(A2-Pad15)*%
X129140000Y-57440000D03*
D13*
%TO.P,A2,30*%
%TO.N,+5V*%
X93580000Y-42200000D03*
D11*
%TO.P,A2,14*%
%TO.N,Net-(A2-Pad14)*%
X126600000Y-57440000D03*
D13*
%TO.P,A2,29*%
%TO.N,GND*%
X96120000Y-42200000D03*
D11*
%TO.P,A2,13*%
%TO.N,Net-(A2-Pad13)*%
X124060000Y-57440000D03*
%TO.P,A2,28*%
%TO.N,Net-(A2-Pad28)*%
X98660000Y-42200000D03*
%TO.P,A2,12*%
%TO.N,Net-(A2-Pad12)*%
X121520000Y-57440000D03*
%TO.P,A2,27*%
%TO.N,Net-(A2-Pad27)*%
X101200000Y-42200000D03*
%TO.P,A2,11*%
%TO.N,Net-(A2-Pad11)*%
X118980000Y-57440000D03*
%TO.P,A2,26*%
%TO.N,Net-(A2-Pad26)*%
X103740000Y-42200000D03*
%TO.P,A2,10*%
%TO.N,Net-(A2-Pad10)*%
X116440000Y-57440000D03*
%TO.P,A2,25*%
%TO.N,Net-(A2-Pad25)*%
X106280000Y-42200000D03*
%TO.P,A2,9*%
%TO.N,Net-(A2-Pad9)*%
X113900000Y-57440000D03*
D13*
%TO.P,A2,24*%
%TO.N,SCL5V*%
X108820000Y-42200000D03*
D11*
%TO.P,A2,8*%
%TO.N,Net-(A2-Pad8)*%
X111360000Y-57440000D03*
D13*
%TO.P,A2,23*%
%TO.N,SDA5V*%
X111360000Y-42200000D03*
D11*
%TO.P,A2,7*%
%TO.N,Net-(A2-Pad7)*%
X108820000Y-57440000D03*
%TO.P,A2,22*%
%TO.N,Net-(A2-Pad22)*%
X113900000Y-42200000D03*
%TO.P,A2,6*%
%TO.N,Net-(A2-Pad6)*%
X106280000Y-57440000D03*
%TO.P,A2,21*%
%TO.N,Net-(A2-Pad21)*%
X116440000Y-42200000D03*
%TO.P,A2,5*%
%TO.N,Net-(A2-Pad5)*%
X103740000Y-57440000D03*
%TO.P,A2,20*%
%TO.N,A1*%
X118980000Y-42200000D03*
D13*
%TO.P,A2,4*%
%TO.N,GND*%
X101200000Y-57440000D03*
D11*
%TO.P,A2,19*%
%TO.N,A0*%
X121520000Y-42200000D03*
%TO.P,A2,3*%
%TO.N,Net-(A2-Pad3)*%
X98660000Y-57440000D03*
%TO.P,A2,18*%
%TO.N,Net-(A2-Pad18)*%
X124060000Y-42200000D03*
D13*
%TO.P,A2,2*%
%TO.N,Net-(A2-Pad2)*%
X96120000Y-57440000D03*
%TO.P,A2,17*%
%TO.N,+3.3VA*%
X126600000Y-42200000D03*
D14*
%TO.P,A2,1*%
%TO.N,Net-(A2-Pad1)*%
X93580000Y-57440000D03*
%TD*%
D15*
%TO.N,+5V*%
X102030000Y-33230000D03*
X117840000Y-32360000D03*
%TO.N,GND*%
X87100000Y-37530000D03*
X96120000Y-39070000D03*
X85660000Y-20430000D03*
X108500000Y-13280000D03*
X144420000Y-8160000D03*
X126610000Y-7970000D03*
X164710000Y-7970000D03*
X150340000Y-56090000D03*
X103110000Y-54230000D03*
X96110000Y-14450002D03*
X94630000Y-26840000D03*
X92250000Y-26820000D03*
%TO.N,SCL5V*%
X104600000Y-36630000D03*
X109339998Y-35420000D03*
%TO.N,SCL3V3*%
X158200000Y-24620000D03*
X156810000Y-18260000D03*
%TO.N,A1*%
X108170000Y-24430000D03*
X101550000Y-23420000D03*
%TO.N,A0*%
X111100002Y-26600000D03*
X99650000Y-25149998D03*
%TD*%
D16*
%TO.N,+5V*%
X172340000Y-2595000D02*
X174880000Y-2595000D01*
D17*
X88280000Y-24020000D02*
X88280000Y-26560000D01*
X91320000Y-29600000D02*
X88280000Y-26560000D01*
X94210000Y-29600000D02*
X91320000Y-29600000D01*
D18*
X88280000Y-24020000D02*
X90300000Y-24020000D01*
X90300000Y-24020000D02*
X91200000Y-23120000D01*
X91200000Y-23120000D02*
X91200000Y-17620000D01*
X92250000Y-16570000D02*
X93820000Y-16570000D01*
X91200000Y-17620000D02*
X92250000Y-16570000D01*
X103040000Y-16570000D02*
X103780000Y-15830000D01*
X98470000Y-16570000D02*
X103040000Y-16570000D01*
D16*
X96750000Y-29600000D02*
X96750000Y-31810000D01*
X96750000Y-31810000D02*
X98170000Y-33230000D01*
X98170000Y-33230000D02*
X102030000Y-33230000D01*
D18*
X93570000Y-30240000D02*
X94210000Y-29600000D01*
D17*
X93570000Y-42190000D02*
X93570000Y-30240000D01*
D18*
X93580000Y-42200000D02*
X93570000Y-42190000D01*
D19*
X96750000Y-29600000D02*
X94210000Y-29600000D01*
X90050000Y-33760000D02*
X94210000Y-29600000D01*
X90050000Y-34010000D02*
X90050000Y-33760000D01*
D18*
X95010000Y-12470000D02*
X93820000Y-13660000D01*
X97330000Y-12470000D02*
X95010000Y-12470000D01*
X98470000Y-13610000D02*
X97330000Y-12470000D01*
X93820000Y-13660000D02*
X93820000Y-16570000D01*
X98470000Y-16570000D02*
X98470000Y-13610000D01*
D16*
X178875000Y-2595000D02*
X182850000Y-6570000D01*
X129270000Y-32360000D02*
X117840000Y-32360000D01*
X174880000Y-2595000D02*
X178875000Y-2595000D01*
X139430000Y-42520000D02*
X129270000Y-32360000D01*
X182850000Y-6570000D02*
X182850000Y-40740000D01*
X182850000Y-40740000D02*
X181070000Y-42520000D01*
X181070000Y-42520000D02*
X139430000Y-42520000D01*
D19*
%TO.N,GND*%
X90050000Y-37510000D02*
X87120000Y-37510000D01*
X87120000Y-37510000D02*
X87100000Y-37530000D01*
D17*
X96120000Y-42200000D02*
X96120000Y-39070000D01*
D19*
X101830000Y-29600000D02*
X99290000Y-29600000D01*
D17*
X88280000Y-18940000D02*
X88280000Y-21480000D01*
X87150000Y-18940000D02*
X85660000Y-20430000D01*
X88280000Y-18940000D02*
X87150000Y-18940000D01*
D18*
X108490000Y-13290000D02*
X108500000Y-13280000D01*
X103780000Y-13290000D02*
X108490000Y-13290000D01*
X108540000Y-13240000D02*
X108500000Y-13280000D01*
X113780000Y-13240000D02*
X108540000Y-13240000D01*
X144400000Y-8140000D02*
X144420000Y-8160000D01*
X144400000Y-5135000D02*
X144400000Y-8140000D01*
X126620000Y-7960000D02*
X126610000Y-7970000D01*
X126620000Y-5135000D02*
X126620000Y-7960000D01*
X164720000Y-7960000D02*
X164710000Y-7970000D01*
X164720000Y-5135000D02*
X164720000Y-7960000D01*
D17*
X149090000Y-57340000D02*
X150340000Y-56090000D01*
X149090000Y-59180000D02*
X149090000Y-57340000D01*
D18*
X101200000Y-56140000D02*
X103110000Y-54230000D01*
X101200000Y-57440000D02*
X101200000Y-56140000D01*
X93820000Y-19110000D02*
X96110000Y-16820000D01*
X96110000Y-16820000D02*
X96110000Y-14450002D01*
X98470000Y-19110000D02*
X96110000Y-16750000D01*
X96110000Y-16750000D02*
X96110000Y-14450002D01*
D16*
X99290000Y-29600000D02*
X99290000Y-28185787D01*
X99290000Y-28185787D02*
X97944213Y-26840000D01*
X97944213Y-26840000D02*
X94630000Y-26840000D01*
X92270000Y-26840000D02*
X92250000Y-26820000D01*
X94630000Y-26840000D02*
X92270000Y-26840000D01*
D17*
%TO.N,+3.3VA*%
X126590000Y-43930000D02*
X126590000Y-42210000D01*
X144010000Y-59180000D02*
X144010000Y-52420000D01*
X144010000Y-52420000D02*
X136170000Y-44580000D01*
X126590000Y-42210000D02*
X126600000Y-42200000D01*
X136170000Y-44580000D02*
X127240000Y-44580000D01*
X127240000Y-44580000D02*
X126590000Y-43930000D01*
D18*
%TO.N,+3V3*%
X154560000Y-5135000D02*
X154560000Y-9170000D01*
X147950000Y-15780000D02*
X113780000Y-15780000D01*
X154560000Y-9170000D02*
X147950000Y-15780000D01*
%TO.N,SDA5V*%
X103780000Y-20910000D02*
X103780000Y-25740000D01*
X104370000Y-26330000D02*
X104370000Y-29600000D01*
X103780000Y-25740000D02*
X104370000Y-26330000D01*
X111360000Y-38370000D02*
X111360000Y-42200000D01*
X110270000Y-37280000D02*
X111360000Y-38370000D01*
X108150000Y-37280000D02*
X110270000Y-37280000D01*
X104370000Y-33500000D02*
X108150000Y-37280000D01*
X104370000Y-29600000D02*
X104370000Y-33500000D01*
%TO.N,SCL5V*%
X103780000Y-18370000D02*
X104650000Y-18370000D01*
X104650000Y-18370000D02*
X105890000Y-19610000D01*
X105890000Y-19610000D02*
X105890000Y-25540000D01*
X106910000Y-26560000D02*
X106910000Y-29600000D01*
X105890000Y-25540000D02*
X106910000Y-26560000D01*
X106910000Y-29600000D02*
X106910000Y-32990002D01*
X106910000Y-32990002D02*
X109339998Y-35420000D01*
X108820000Y-39170000D02*
X108820000Y-42200000D01*
X108270000Y-38620000D02*
X108820000Y-39170000D01*
X106590000Y-38620000D02*
X108270000Y-38620000D01*
X104600000Y-36630000D02*
X106590000Y-38620000D01*
%TO.N,RX3V3*%
X119360000Y-8160000D02*
X113780000Y-8160000D01*
X122080000Y-5440000D02*
X119360000Y-8160000D01*
X122080000Y-2480000D02*
X122080000Y-5440000D01*
X125510000Y950000D02*
X122080000Y-2480000D01*
X163030000Y950000D02*
X125510000Y950000D01*
X164720000Y-740000D02*
X163030000Y950000D01*
X164720000Y-2595000D02*
X164720000Y-740000D01*
%TO.N,TX3V3*%
X167260000Y-2595000D02*
X167260000Y-1170000D01*
X167260000Y-1170000D02*
X163810000Y2280000D01*
X163810000Y2280000D02*
X124800000Y2280000D01*
X124800000Y2280000D02*
X120330000Y-2190000D01*
X120330000Y-2190000D02*
X120330000Y-4590000D01*
X120330000Y-4590000D02*
X119060000Y-5860000D01*
X119060000Y-5860000D02*
X112010000Y-5860000D01*
X112010000Y-5860000D02*
X110860000Y-7010000D01*
X110860000Y-7010000D02*
X110860000Y-9850000D01*
X111710000Y-10700000D02*
X113780000Y-10700000D01*
X110860000Y-9850000D02*
X111710000Y-10700000D01*
%TO.N,SCL3V3*%
X169800000Y-5135000D02*
X169800000Y-9260000D01*
X169800000Y-9260000D02*
X158200000Y-20860000D01*
X118050000Y-20860000D02*
X113780000Y-20860000D01*
X177030000Y-39180000D02*
X177030000Y-33400000D01*
X168250000Y-24620000D02*
X158200000Y-24620000D01*
X177030000Y-33400000D02*
X168250000Y-24620000D01*
X156810000Y-20720000D02*
X156950000Y-20860000D01*
X156810000Y-18260000D02*
X156810000Y-20720000D01*
X156950000Y-20860000D02*
X118050000Y-20860000D01*
X158200000Y-20860000D02*
X156950000Y-20860000D01*
%TO.N,SDA3V3*%
X172340000Y-5135000D02*
X172340000Y-9620000D01*
X172340000Y-9620000D02*
X159680000Y-22280000D01*
X159680000Y-22280000D02*
X116760000Y-22280000D01*
X116760000Y-22280000D02*
X115170000Y-23870000D01*
X115170000Y-23870000D02*
X112420000Y-23870000D01*
X112420000Y-23870000D02*
X110900000Y-22350000D01*
X110900000Y-22350000D02*
X110900000Y-19380000D01*
X111960000Y-18320000D02*
X113780000Y-18320000D01*
X110900000Y-19380000D02*
X111960000Y-18320000D01*
X179570000Y-39180000D02*
X179570000Y-32990000D01*
X168860000Y-22280000D02*
X159680000Y-22280000D01*
X179570000Y-32990000D02*
X168860000Y-22280000D01*
%TO.N,RX5V*%
X88280000Y-13860000D02*
X88280000Y-13080000D01*
X90610000Y-10750000D02*
X103780000Y-10750000D01*
X88280000Y-13080000D02*
X90610000Y-10750000D01*
%TO.N,TX5V*%
X103780000Y-8210000D02*
X90800000Y-8210000D01*
X90800000Y-8210000D02*
X87460000Y-11550000D01*
X87460000Y-11550000D02*
X86440000Y-11550000D01*
X86440000Y-11550000D02*
X85580000Y-12410000D01*
X85580000Y-12410000D02*
X85580000Y-15780000D01*
X86200000Y-16400000D02*
X88280000Y-16400000D01*
X85580000Y-15780000D02*
X86200000Y-16400000D01*
%TO.N,A1*%
X109219999Y-25479999D02*
X108170000Y-24430000D01*
X109219999Y-32439999D02*
X109219999Y-25479999D01*
X114560000Y-37780000D02*
X109219999Y-32439999D01*
X115930000Y-37780000D02*
X114560000Y-37780000D01*
X118980000Y-40830000D02*
X115930000Y-37780000D01*
X118980000Y-42200000D02*
X118980000Y-40830000D01*
X98470000Y-21650000D02*
X98470000Y-23160000D01*
X98470000Y-23160000D02*
X98730000Y-23420000D01*
X98730000Y-23420000D02*
X101550000Y-23420000D01*
%TO.N,A0*%
X111100002Y-27600002D02*
X111100002Y-26600000D01*
X115740000Y-36370000D02*
X111100002Y-31730002D01*
X117190000Y-36370000D02*
X115740000Y-36370000D01*
X111100002Y-31730002D02*
X111100002Y-27600002D01*
X121520000Y-40700000D02*
X117190000Y-36370000D01*
X121520000Y-42200000D02*
X121520000Y-40700000D01*
X93820000Y-21650000D02*
X97319998Y-25149998D01*
X97319998Y-25149998D02*
X99650000Y-25149998D01*
%TD*%
D20*
%TO.N,Net-(U4-Pad9)*%
X149585979Y5672763D02*
X153825393Y5483351D01*
X158055636Y5146101D01*
X162271495Y4661426D01*
X166467884Y4029913D01*
X170639695Y3252331D01*
X174781818Y2329629D01*
X178889220Y1262930D01*
X182959365Y52800D01*
X185154999Y-672991D01*
X185155001Y-64735000D01*
X85401597Y-64735000D01*
X85375559Y-56140000D01*
X91474678Y-56140000D01*
X91474678Y-58740000D01*
X91495916Y-58955638D01*
X91558816Y-59162988D01*
X91660958Y-59354084D01*
X91798419Y-59521581D01*
X91965916Y-59659042D01*
X92157012Y-59761184D01*
X92364362Y-59824084D01*
X92580000Y-59845322D01*
X94580000Y-59845322D01*
X94795638Y-59824084D01*
X95002988Y-59761184D01*
X95194084Y-59659042D01*
X95218279Y-59639185D01*
X95312477Y-59689535D01*
X95708329Y-59809615D01*
X96120000Y-59850161D01*
X96531672Y-59809615D01*
X96927524Y-59689535D01*
X97292343Y-59494535D01*
X97589702Y-59250498D01*
X97665277Y-59300996D01*
X98047453Y-59459298D01*
X98453168Y-59540000D01*
X98866832Y-59540000D01*
X99272547Y-59459298D01*
X99654723Y-59300996D01*
X99730299Y-59250498D01*
X100027658Y-59494535D01*
X100392477Y-59689535D01*
X100788329Y-59809615D01*
X101200000Y-59850161D01*
X101611672Y-59809615D01*
X102007524Y-59689535D01*
X102372343Y-59494535D01*
X102669702Y-59250498D01*
X102745277Y-59300996D01*
X103127453Y-59459298D01*
X103533168Y-59540000D01*
X103946832Y-59540000D01*
X104352547Y-59459298D01*
X104734723Y-59300996D01*
X105010000Y-59117062D01*
X105285277Y-59300996D01*
X105667453Y-59459298D01*
X106073168Y-59540000D01*
X106486832Y-59540000D01*
X106892547Y-59459298D01*
X107274723Y-59300996D01*
X107550000Y-59117062D01*
X107825277Y-59300996D01*
X108207453Y-59459298D01*
X108613168Y-59540000D01*
X109026832Y-59540000D01*
X109432547Y-59459298D01*
X109814723Y-59300996D01*
X110090000Y-59117062D01*
X110365277Y-59300996D01*
X110747453Y-59459298D01*
X111153168Y-59540000D01*
X111566832Y-59540000D01*
X111972547Y-59459298D01*
X112354723Y-59300996D01*
X112630000Y-59117062D01*
X112905277Y-59300996D01*
X113287453Y-59459298D01*
X113693168Y-59540000D01*
X114106832Y-59540000D01*
X114512547Y-59459298D01*
X114894723Y-59300996D01*
X115170000Y-59117062D01*
X115445277Y-59300996D01*
X115827453Y-59459298D01*
X116233168Y-59540000D01*
X116646832Y-59540000D01*
X117052547Y-59459298D01*
X117434723Y-59300996D01*
X117710000Y-59117062D01*
X117985277Y-59300996D01*
X118367453Y-59459298D01*
X118773168Y-59540000D01*
X119186832Y-59540000D01*
X119592547Y-59459298D01*
X119974723Y-59300996D01*
X120250000Y-59117062D01*
X120525277Y-59300996D01*
X120907453Y-59459298D01*
X121313168Y-59540000D01*
X121726832Y-59540000D01*
X122132547Y-59459298D01*
X122514723Y-59300996D01*
X122790000Y-59117062D01*
X123065277Y-59300996D01*
X123447453Y-59459298D01*
X123853168Y-59540000D01*
X124266832Y-59540000D01*
X124672547Y-59459298D01*
X125054723Y-59300996D01*
X125330000Y-59117062D01*
X125605277Y-59300996D01*
X125987453Y-59459298D01*
X126393168Y-59540000D01*
X126806832Y-59540000D01*
X127212547Y-59459298D01*
X127594723Y-59300996D01*
X127870000Y-59117062D01*
X128145277Y-59300996D01*
X128527453Y-59459298D01*
X128933168Y-59540000D01*
X129346832Y-59540000D01*
X129752547Y-59459298D01*
X130134723Y-59300996D01*
X130478672Y-59071177D01*
X130771177Y-58778672D01*
X131000996Y-58434723D01*
X131159298Y-58052547D01*
X131240000Y-57646832D01*
X131240000Y-57233168D01*
X131159298Y-56827453D01*
X131000996Y-56445277D01*
X130771177Y-56101328D01*
X130478672Y-55808823D01*
X130134723Y-55579004D01*
X129752547Y-55420702D01*
X129346832Y-55340000D01*
X128933168Y-55340000D01*
X128527453Y-55420702D01*
X128145277Y-55579004D01*
X127870000Y-55762938D01*
X127594723Y-55579004D01*
X127212547Y-55420702D01*
X126806832Y-55340000D01*
X126393168Y-55340000D01*
X125987453Y-55420702D01*
X125605277Y-55579004D01*
X125330000Y-55762938D01*
X125054723Y-55579004D01*
X124672547Y-55420702D01*
X124266832Y-55340000D01*
X123853168Y-55340000D01*
X123447453Y-55420702D01*
X123065277Y-55579004D01*
X122790000Y-55762938D01*
X122514723Y-55579004D01*
X122132547Y-55420702D01*
X121726832Y-55340000D01*
X121313168Y-55340000D01*
X120907453Y-55420702D01*
X120525277Y-55579004D01*
X120250000Y-55762938D01*
X119974723Y-55579004D01*
X119592547Y-55420702D01*
X119186832Y-55340000D01*
X118773168Y-55340000D01*
X118367453Y-55420702D01*
X117985277Y-55579004D01*
X117710000Y-55762938D01*
X117434723Y-55579004D01*
X117052547Y-55420702D01*
X116646832Y-55340000D01*
X116233168Y-55340000D01*
X115827453Y-55420702D01*
X115445277Y-55579004D01*
X115170000Y-55762938D01*
X114894723Y-55579004D01*
X114512547Y-55420702D01*
X114106832Y-55340000D01*
X113693168Y-55340000D01*
X113287453Y-55420702D01*
X112905277Y-55579004D01*
X112630000Y-55762938D01*
X112354723Y-55579004D01*
X111972547Y-55420702D01*
X111566832Y-55340000D01*
X111153168Y-55340000D01*
X110747453Y-55420702D01*
X110365277Y-55579004D01*
X110090000Y-55762938D01*
X109814723Y-55579004D01*
X109432547Y-55420702D01*
X109026832Y-55340000D01*
X108613168Y-55340000D01*
X108207453Y-55420702D01*
X107825277Y-55579004D01*
X107550000Y-55762938D01*
X107274723Y-55579004D01*
X106892547Y-55420702D01*
X106486832Y-55340000D01*
X106073168Y-55340000D01*
X105667453Y-55420702D01*
X105285277Y-55579004D01*
X105010000Y-55762938D01*
X104774786Y-55605773D01*
X104780014Y-55600545D01*
X105015305Y-55248407D01*
X105177377Y-54857132D01*
X105260000Y-54441757D01*
X105260000Y-54018243D01*
X105177377Y-53602868D01*
X105015305Y-53211593D01*
X104780014Y-52859455D01*
X104480545Y-52559986D01*
X104128407Y-52324695D01*
X103737132Y-52162623D01*
X103321757Y-52080000D01*
X102898243Y-52080000D01*
X102482868Y-52162623D01*
X102091593Y-52324695D01*
X101739455Y-52559986D01*
X101439986Y-52859455D01*
X101204695Y-53211593D01*
X101042623Y-53602868D01*
X100960000Y-54018243D01*
X100960000Y-54441757D01*
X100964820Y-54465991D01*
X100292299Y-55138513D01*
X100240788Y-55180787D01*
X100198514Y-55232298D01*
X100198510Y-55232302D01*
X100108099Y-55342468D01*
X100027657Y-55385465D01*
X99730298Y-55629502D01*
X99654723Y-55579004D01*
X99272547Y-55420702D01*
X98866832Y-55340000D01*
X98453168Y-55340000D01*
X98047453Y-55420702D01*
X97665277Y-55579004D01*
X97589702Y-55629502D01*
X97292343Y-55385465D01*
X96927523Y-55190465D01*
X96531671Y-55070385D01*
X96120000Y-55029839D01*
X95708328Y-55070385D01*
X95312476Y-55190465D01*
X95218279Y-55240814D01*
X95194084Y-55220958D01*
X95002988Y-55118816D01*
X94795638Y-55055916D01*
X94580000Y-55034678D01*
X92580000Y-55034678D01*
X92364362Y-55055916D01*
X92157012Y-55118816D01*
X91965916Y-55220958D01*
X91798419Y-55358419D01*
X91660958Y-55525916D01*
X91558816Y-55717012D01*
X91495916Y-55924362D01*
X91474678Y-56140000D01*
X85375559Y-56140000D01*
X85322845Y-38740197D01*
X85429986Y-38900545D01*
X85729455Y-39200014D01*
X86081593Y-39435305D01*
X86472868Y-39597377D01*
X86888243Y-39680000D01*
X87311757Y-39680000D01*
X87663672Y-39610000D01*
X90256832Y-39610000D01*
X90358504Y-39589776D01*
X90461672Y-39579615D01*
X90560878Y-39549521D01*
X90662547Y-39529298D01*
X90758316Y-39489629D01*
X90857524Y-39459535D01*
X90948953Y-39410665D01*
X91044723Y-39370996D01*
X91130916Y-39313404D01*
X91222343Y-39264535D01*
X91302477Y-39198771D01*
X91388672Y-39141177D01*
X91461978Y-39067871D01*
X91542109Y-39002109D01*
X91607871Y-38921978D01*
X91681177Y-38848672D01*
X91738771Y-38762477D01*
X91804535Y-38682343D01*
X91853404Y-38590916D01*
X91910996Y-38504723D01*
X91950665Y-38408953D01*
X91970000Y-38372779D01*
X91970000Y-40551541D01*
X91825465Y-40727657D01*
X91630465Y-41092477D01*
X91510385Y-41488329D01*
X91480000Y-41796834D01*
X91480000Y-42603167D01*
X91510385Y-42911672D01*
X91630465Y-43307524D01*
X91825465Y-43672343D01*
X92087892Y-43992109D01*
X92407658Y-44254535D01*
X92772477Y-44449535D01*
X93168329Y-44569615D01*
X93580000Y-44610161D01*
X93991672Y-44569615D01*
X94387524Y-44449535D01*
X94752343Y-44254535D01*
X94850001Y-44174389D01*
X94947658Y-44254535D01*
X95312477Y-44449535D01*
X95708329Y-44569615D01*
X96120000Y-44610161D01*
X96531672Y-44569615D01*
X96927524Y-44449535D01*
X97292343Y-44254535D01*
X97589702Y-44010498D01*
X97665277Y-44060996D01*
X98047453Y-44219298D01*
X98453168Y-44300000D01*
X98866832Y-44300000D01*
X99272547Y-44219298D01*
X99654723Y-44060996D01*
X99930000Y-43877062D01*
X100205277Y-44060996D01*
X100587453Y-44219298D01*
X100993168Y-44300000D01*
X101406832Y-44300000D01*
X101812547Y-44219298D01*
X102194723Y-44060996D01*
X102470000Y-43877062D01*
X102745277Y-44060996D01*
X103127453Y-44219298D01*
X103533168Y-44300000D01*
X103946832Y-44300000D01*
X104352547Y-44219298D01*
X104734723Y-44060996D01*
X105010000Y-43877062D01*
X105285277Y-44060996D01*
X105667453Y-44219298D01*
X106073168Y-44300000D01*
X106486832Y-44300000D01*
X106892547Y-44219298D01*
X107274723Y-44060996D01*
X107350299Y-44010498D01*
X107647658Y-44254535D01*
X108012477Y-44449535D01*
X108408329Y-44569615D01*
X108820000Y-44610161D01*
X109231672Y-44569615D01*
X109627524Y-44449535D01*
X109992343Y-44254535D01*
X110090001Y-44174389D01*
X110187658Y-44254535D01*
X110552477Y-44449535D01*
X110948329Y-44569615D01*
X111360000Y-44610161D01*
X111771672Y-44569615D01*
X112167524Y-44449535D01*
X112532343Y-44254535D01*
X112829702Y-44010498D01*
X112905277Y-44060996D01*
X113287453Y-44219298D01*
X113693168Y-44300000D01*
X114106832Y-44300000D01*
X114512547Y-44219298D01*
X114894723Y-44060996D01*
X115170000Y-43877062D01*
X115445277Y-44060996D01*
X115827453Y-44219298D01*
X116233168Y-44300000D01*
X116646832Y-44300000D01*
X117052547Y-44219298D01*
X117434723Y-44060996D01*
X117710000Y-43877062D01*
X117985277Y-44060996D01*
X118367453Y-44219298D01*
X118773168Y-44300000D01*
X119186832Y-44300000D01*
X119592547Y-44219298D01*
X119974723Y-44060996D01*
X120250000Y-43877062D01*
X120525277Y-44060996D01*
X120907453Y-44219298D01*
X121313168Y-44300000D01*
X121726832Y-44300000D01*
X122132547Y-44219298D01*
X122514723Y-44060996D01*
X122790000Y-43877062D01*
X123065277Y-44060996D01*
X123447453Y-44219298D01*
X123853168Y-44300000D01*
X124266832Y-44300000D01*
X124672547Y-44219298D01*
X124997496Y-44084700D01*
X125013151Y-44243654D01*
X125075605Y-44449535D01*
X125104641Y-44545255D01*
X125253212Y-44823213D01*
X125311022Y-44893654D01*
X125453155Y-45066845D01*
X125514212Y-45116953D01*
X126053047Y-45655788D01*
X126103155Y-45716845D01*
X126346787Y-45916788D01*
X126624744Y-46065359D01*
X126926345Y-46156849D01*
X127161403Y-46180000D01*
X127161406Y-46180000D01*
X127240000Y-46187741D01*
X127318594Y-46180000D01*
X129951810Y-46180000D01*
X129741070Y-46267291D01*
X129298850Y-46562773D01*
X128922773Y-46938850D01*
X128627291Y-47381070D01*
X128423760Y-47872439D01*
X128320000Y-48394073D01*
X128320000Y-48925927D01*
X128423760Y-49447561D01*
X128627291Y-49938930D01*
X128922773Y-50381150D01*
X129298850Y-50757227D01*
X129741070Y-51052709D01*
X130232439Y-51256240D01*
X130754073Y-51360000D01*
X131285927Y-51360000D01*
X131807561Y-51256240D01*
X132298930Y-51052709D01*
X132741150Y-50757227D01*
X133117227Y-50381150D01*
X133412709Y-49938930D01*
X133616240Y-49447561D01*
X133720000Y-48925927D01*
X133720000Y-48394073D01*
X133616240Y-47872439D01*
X133412709Y-47381070D01*
X133117227Y-46938850D01*
X132741150Y-46562773D01*
X132298930Y-46267291D01*
X132088190Y-46180000D01*
X135507259Y-46180000D01*
X142410001Y-53082743D01*
X142410000Y-57074678D01*
X140470000Y-57074678D01*
X140254362Y-57095916D01*
X140047012Y-57158816D01*
X139855916Y-57260958D01*
X139688419Y-57398419D01*
X139550958Y-57565916D01*
X139448816Y-57757012D01*
X139385916Y-57964362D01*
X139364678Y-58180000D01*
X139364678Y-60180000D01*
X139385916Y-60395638D01*
X139448816Y-60602988D01*
X139550958Y-60794084D01*
X139688419Y-60961581D01*
X139855916Y-61099042D01*
X140047012Y-61201184D01*
X140254362Y-61264084D01*
X140470000Y-61285322D01*
X142470000Y-61285322D01*
X142685638Y-61264084D01*
X142892988Y-61201184D01*
X143084084Y-61099042D01*
X143108009Y-61079407D01*
X143397453Y-61199298D01*
X143803168Y-61280000D01*
X144216832Y-61280000D01*
X144622547Y-61199298D01*
X145004723Y-61040996D01*
X145280000Y-60857062D01*
X145555277Y-61040996D01*
X145937453Y-61199298D01*
X146343168Y-61280000D01*
X146756832Y-61280000D01*
X147162547Y-61199298D01*
X147544723Y-61040996D01*
X147820000Y-60857062D01*
X148095277Y-61040996D01*
X148477453Y-61199298D01*
X148883168Y-61280000D01*
X149296832Y-61280000D01*
X149702547Y-61199298D01*
X150084723Y-61040996D01*
X150360000Y-60857062D01*
X150635277Y-61040996D01*
X151017453Y-61199298D01*
X151423168Y-61280000D01*
X151836832Y-61280000D01*
X152242547Y-61199298D01*
X152624723Y-61040996D01*
X152900000Y-60857062D01*
X153175277Y-61040996D01*
X153557453Y-61199298D01*
X153963168Y-61280000D01*
X154376832Y-61280000D01*
X154782547Y-61199298D01*
X155164723Y-61040996D01*
X155440000Y-60857062D01*
X155715277Y-61040996D01*
X156097453Y-61199298D01*
X156503168Y-61280000D01*
X156916832Y-61280000D01*
X157322547Y-61199298D01*
X157704723Y-61040996D01*
X157980000Y-60857062D01*
X158255277Y-61040996D01*
X158637453Y-61199298D01*
X159043168Y-61280000D01*
X159456832Y-61280000D01*
X159862547Y-61199298D01*
X160244723Y-61040996D01*
X160588672Y-60811177D01*
X160881177Y-60518672D01*
X160894893Y-60498145D01*
X160975035Y-60556898D01*
X161259314Y-60689433D01*
X161392654Y-60729876D01*
X161640000Y-60622221D01*
X161640000Y-59330000D01*
X161620000Y-59330000D01*
X161620000Y-59030000D01*
X161640000Y-59030000D01*
X161640000Y-57737779D01*
X161940000Y-57737779D01*
X161940000Y-59030000D01*
X161960000Y-59030000D01*
X161960000Y-59330000D01*
X161940000Y-59330000D01*
X161940000Y-60622221D01*
X162187346Y-60729876D01*
X162320686Y-60689433D01*
X162604965Y-60556898D01*
X162685107Y-60498145D01*
X162698823Y-60518672D01*
X162991328Y-60811177D01*
X163335277Y-61040996D01*
X163717453Y-61199298D01*
X164123168Y-61280000D01*
X164536832Y-61280000D01*
X164942547Y-61199298D01*
X165324723Y-61040996D01*
X165600000Y-60857062D01*
X165875277Y-61040996D01*
X166257453Y-61199298D01*
X166663168Y-61280000D01*
X167076832Y-61280000D01*
X167482547Y-61199298D01*
X167864723Y-61040996D01*
X168140000Y-60857062D01*
X168415277Y-61040996D01*
X168797453Y-61199298D01*
X169203168Y-61280000D01*
X169616832Y-61280000D01*
X170022547Y-61199298D01*
X170404723Y-61040996D01*
X170680000Y-60857062D01*
X170955277Y-61040996D01*
X171337453Y-61199298D01*
X171743168Y-61280000D01*
X172156832Y-61280000D01*
X172562547Y-61199298D01*
X172944723Y-61040996D01*
X173220000Y-60857062D01*
X173495277Y-61040996D01*
X173877453Y-61199298D01*
X174283168Y-61280000D01*
X174696832Y-61280000D01*
X175102547Y-61199298D01*
X175484723Y-61040996D01*
X175760000Y-60857062D01*
X176035277Y-61040996D01*
X176417453Y-61199298D01*
X176823168Y-61280000D01*
X177236832Y-61280000D01*
X177642547Y-61199298D01*
X178024723Y-61040996D01*
X178300000Y-60857062D01*
X178575277Y-61040996D01*
X178957453Y-61199298D01*
X179363168Y-61280000D01*
X179776832Y-61280000D01*
X180182547Y-61199298D01*
X180564723Y-61040996D01*
X180908672Y-60811177D01*
X181201177Y-60518672D01*
X181430996Y-60174723D01*
X181589298Y-59792547D01*
X181670000Y-59386832D01*
X181670000Y-58973168D01*
X181589298Y-58567453D01*
X181430996Y-58185277D01*
X181201177Y-57841328D01*
X180908672Y-57548823D01*
X180564723Y-57319004D01*
X180182547Y-57160702D01*
X179776832Y-57080000D01*
X179363168Y-57080000D01*
X178957453Y-57160702D01*
X178575277Y-57319004D01*
X178300000Y-57502938D01*
X178024723Y-57319004D01*
X177642547Y-57160702D01*
X177236832Y-57080000D01*
X176823168Y-57080000D01*
X176417453Y-57160702D01*
X176035277Y-57319004D01*
X175760000Y-57502938D01*
X175484723Y-57319004D01*
X175102547Y-57160702D01*
X174696832Y-57080000D01*
X174283168Y-57080000D01*
X173877453Y-57160702D01*
X173495277Y-57319004D01*
X173220000Y-57502938D01*
X172944723Y-57319004D01*
X172562547Y-57160702D01*
X172156832Y-57080000D01*
X171743168Y-57080000D01*
X171337453Y-57160702D01*
X170955277Y-57319004D01*
X170680000Y-57502938D01*
X170404723Y-57319004D01*
X170022547Y-57160702D01*
X169616832Y-57080000D01*
X169203168Y-57080000D01*
X168797453Y-57160702D01*
X168415277Y-57319004D01*
X168140000Y-57502938D01*
X167864723Y-57319004D01*
X167482547Y-57160702D01*
X167076832Y-57080000D01*
X166663168Y-57080000D01*
X166257453Y-57160702D01*
X165875277Y-57319004D01*
X165600000Y-57502938D01*
X165324723Y-57319004D01*
X164942547Y-57160702D01*
X164536832Y-57080000D01*
X164123168Y-57080000D01*
X163717453Y-57160702D01*
X163335277Y-57319004D01*
X162991328Y-57548823D01*
X162698823Y-57841328D01*
X162685107Y-57861855D01*
X162604965Y-57803102D01*
X162320686Y-57670567D01*
X162187346Y-57630124D01*
X161940000Y-57737779D01*
X161640000Y-57737779D01*
X161392654Y-57630124D01*
X161259314Y-57670567D01*
X160975035Y-57803102D01*
X160894893Y-57861855D01*
X160881177Y-57841328D01*
X160588672Y-57548823D01*
X160244723Y-57319004D01*
X159862547Y-57160702D01*
X159456832Y-57080000D01*
X159043168Y-57080000D01*
X158637453Y-57160702D01*
X158255277Y-57319004D01*
X157980000Y-57502938D01*
X157704723Y-57319004D01*
X157322547Y-57160702D01*
X156916832Y-57080000D01*
X156503168Y-57080000D01*
X156097453Y-57160702D01*
X155715277Y-57319004D01*
X155440000Y-57502938D01*
X155164723Y-57319004D01*
X154782547Y-57160702D01*
X154376832Y-57080000D01*
X153963168Y-57080000D01*
X153557453Y-57160702D01*
X153175277Y-57319004D01*
X152900000Y-57502938D01*
X152624723Y-57319004D01*
X152242547Y-57160702D01*
X152214138Y-57155051D01*
X152245305Y-57108407D01*
X152407377Y-56717132D01*
X152490000Y-56301757D01*
X152490000Y-55878243D01*
X152407377Y-55462868D01*
X152245305Y-55071593D01*
X152010014Y-54719455D01*
X151710545Y-54419986D01*
X151358407Y-54184695D01*
X150967132Y-54022623D01*
X150551757Y-53940000D01*
X150128243Y-53940000D01*
X149712868Y-54022623D01*
X149321593Y-54184695D01*
X148969455Y-54419986D01*
X148669986Y-54719455D01*
X148434695Y-55071593D01*
X148272623Y-55462868D01*
X148190000Y-55878243D01*
X148190000Y-55977259D01*
X148014207Y-56153052D01*
X147953156Y-56203155D01*
X147903053Y-56264206D01*
X147753212Y-56446787D01*
X147604641Y-56724745D01*
X147513152Y-57026346D01*
X147486694Y-57294968D01*
X147162547Y-57160702D01*
X146756832Y-57080000D01*
X146343168Y-57080000D01*
X145937453Y-57160702D01*
X145610000Y-57296337D01*
X145610000Y-52498593D01*
X145617741Y-52419999D01*
X145608354Y-52324695D01*
X145586849Y-52106345D01*
X145495359Y-51804744D01*
X145346788Y-51526787D01*
X145146845Y-51283155D01*
X145085793Y-51233051D01*
X143916815Y-50064073D01*
X162600000Y-50064073D01*
X162600000Y-50595927D01*
X162703760Y-51117561D01*
X162907291Y-51608930D01*
X163202773Y-52051150D01*
X163578850Y-52427227D01*
X164021070Y-52722709D01*
X164512439Y-52926240D01*
X165034073Y-53030000D01*
X165565927Y-53030000D01*
X166087561Y-52926240D01*
X166578930Y-52722709D01*
X167021150Y-52427227D01*
X167397227Y-52051150D01*
X167692709Y-51608930D01*
X167896240Y-51117561D01*
X168000000Y-50595927D01*
X168000000Y-50064073D01*
X167896240Y-49542439D01*
X167692709Y-49051070D01*
X167397227Y-48608850D01*
X167021150Y-48232773D01*
X166578930Y-47937291D01*
X166087561Y-47733760D01*
X165565927Y-47630000D01*
X165034073Y-47630000D01*
X164512439Y-47733760D01*
X164021070Y-47937291D01*
X163578850Y-48232773D01*
X163202773Y-48608850D01*
X162907291Y-49051070D01*
X162703760Y-49542439D01*
X162600000Y-50064073D01*
X143916815Y-50064073D01*
X137356953Y-43504212D01*
X137306845Y-43443155D01*
X137063213Y-43243212D01*
X136785256Y-43094641D01*
X136483655Y-43003151D01*
X136248597Y-42980000D01*
X136248594Y-42980000D01*
X136170000Y-42972259D01*
X136091406Y-42980000D01*
X131089937Y-42980000D01*
X131159298Y-42812547D01*
X131240000Y-42406832D01*
X131240000Y-41993168D01*
X131159298Y-41587453D01*
X131000996Y-41205277D01*
X130771177Y-40861328D01*
X130478672Y-40568823D01*
X130134723Y-40339004D01*
X129752547Y-40180702D01*
X129346832Y-40100000D01*
X128933168Y-40100000D01*
X128527453Y-40180702D01*
X128145277Y-40339004D01*
X128069702Y-40389502D01*
X127772343Y-40145465D01*
X127407523Y-39950465D01*
X127011671Y-39830385D01*
X126600000Y-39789839D01*
X126188328Y-39830385D01*
X125792476Y-39950465D01*
X125427657Y-40145465D01*
X125130298Y-40389502D01*
X125054723Y-40339004D01*
X124672547Y-40180702D01*
X124266832Y-40100000D01*
X123853168Y-40100000D01*
X123447453Y-40180702D01*
X123065277Y-40339004D01*
X122854827Y-40479622D01*
X122850467Y-40435354D01*
X122773272Y-40180878D01*
X122773272Y-40180877D01*
X122647915Y-39946350D01*
X122521490Y-39792302D01*
X122479213Y-39740787D01*
X122427697Y-39698509D01*
X118191489Y-35462301D01*
X118149213Y-35410787D01*
X117943649Y-35242085D01*
X117709122Y-35116728D01*
X117454646Y-35039533D01*
X117256321Y-35020000D01*
X117256319Y-35020000D01*
X117190000Y-35013468D01*
X117123681Y-35020000D01*
X116299189Y-35020000D01*
X112450002Y-31170814D01*
X112450002Y-29314073D01*
X135130000Y-29314073D01*
X135130000Y-29845927D01*
X135233760Y-30367561D01*
X135437291Y-30858930D01*
X135732773Y-31301150D01*
X136108850Y-31677227D01*
X136551070Y-31972709D01*
X137042439Y-32176240D01*
X137564073Y-32280000D01*
X138095927Y-32280000D01*
X138617561Y-32176240D01*
X139108930Y-31972709D01*
X139551150Y-31677227D01*
X139927227Y-31301150D01*
X140222709Y-30858930D01*
X140426240Y-30367561D01*
X140530000Y-29845927D01*
X140530000Y-29314073D01*
X140426240Y-28792439D01*
X140222709Y-28301070D01*
X139927227Y-27858850D01*
X139551150Y-27482773D01*
X139108930Y-27187291D01*
X138617561Y-26983760D01*
X138095927Y-26880000D01*
X137564073Y-26880000D01*
X137042439Y-26983760D01*
X136551070Y-27187291D01*
X136108850Y-27482773D01*
X135732773Y-27858850D01*
X135437291Y-28301070D01*
X135233760Y-28792439D01*
X135130000Y-29314073D01*
X112450002Y-29314073D01*
X112450002Y-28283742D01*
X112470547Y-28270014D01*
X112770016Y-27970545D01*
X113005307Y-27618407D01*
X113167379Y-27227132D01*
X113250002Y-26811757D01*
X113250002Y-26388243D01*
X113167379Y-25972868D01*
X113005307Y-25581593D01*
X112770016Y-25229455D01*
X112760561Y-25220000D01*
X115103681Y-25220000D01*
X115170000Y-25226532D01*
X115236319Y-25220000D01*
X115236321Y-25220000D01*
X115434646Y-25200467D01*
X115689122Y-25123272D01*
X115923649Y-24997915D01*
X116129213Y-24829213D01*
X116171491Y-24777697D01*
X117319188Y-23630000D01*
X156282928Y-23630000D01*
X156132623Y-23992868D01*
X156050000Y-24408243D01*
X156050000Y-24831757D01*
X156132623Y-25247132D01*
X156294695Y-25638407D01*
X156529986Y-25990545D01*
X156829455Y-26290014D01*
X157181593Y-26525305D01*
X157572868Y-26687377D01*
X157988243Y-26770000D01*
X158411757Y-26770000D01*
X158827132Y-26687377D01*
X159218407Y-26525305D01*
X159570545Y-26290014D01*
X159870014Y-25990545D01*
X159883742Y-25970000D01*
X167690812Y-25970000D01*
X175680001Y-33959190D01*
X175680000Y-37449484D01*
X175484723Y-37319004D01*
X175102547Y-37160702D01*
X174696832Y-37080000D01*
X174283168Y-37080000D01*
X173877453Y-37160702D01*
X173495277Y-37319004D01*
X173220000Y-37502938D01*
X172944723Y-37319004D01*
X172562547Y-37160702D01*
X172156832Y-37080000D01*
X171743168Y-37080000D01*
X171337453Y-37160702D01*
X170955277Y-37319004D01*
X170680000Y-37502938D01*
X170404723Y-37319004D01*
X170022547Y-37160702D01*
X169616832Y-37080000D01*
X169203168Y-37080000D01*
X168797453Y-37160702D01*
X168415277Y-37319004D01*
X168140000Y-37502938D01*
X167864723Y-37319004D01*
X167482547Y-37160702D01*
X167076832Y-37080000D01*
X166663168Y-37080000D01*
X166257453Y-37160702D01*
X165875277Y-37319004D01*
X165600000Y-37502938D01*
X165324723Y-37319004D01*
X164942547Y-37160702D01*
X164536832Y-37080000D01*
X164123168Y-37080000D01*
X163717453Y-37160702D01*
X163335277Y-37319004D01*
X163060000Y-37502938D01*
X162784723Y-37319004D01*
X162402547Y-37160702D01*
X161996832Y-37080000D01*
X161583168Y-37080000D01*
X161177453Y-37160702D01*
X160795277Y-37319004D01*
X160520000Y-37502938D01*
X160244723Y-37319004D01*
X159862547Y-37160702D01*
X159456832Y-37080000D01*
X159043168Y-37080000D01*
X158637453Y-37160702D01*
X158255277Y-37319004D01*
X157980000Y-37502938D01*
X157704723Y-37319004D01*
X157322547Y-37160702D01*
X156916832Y-37080000D01*
X156503168Y-37080000D01*
X156097453Y-37160702D01*
X155715277Y-37319004D01*
X155440000Y-37502938D01*
X155164723Y-37319004D01*
X154782547Y-37160702D01*
X154376832Y-37080000D01*
X153963168Y-37080000D01*
X153557453Y-37160702D01*
X153175277Y-37319004D01*
X152900000Y-37502938D01*
X152624723Y-37319004D01*
X152242547Y-37160702D01*
X151836832Y-37080000D01*
X151423168Y-37080000D01*
X151017453Y-37160702D01*
X150635277Y-37319004D01*
X150360000Y-37502938D01*
X150084723Y-37319004D01*
X149702547Y-37160702D01*
X149296832Y-37080000D01*
X148883168Y-37080000D01*
X148477453Y-37160702D01*
X148095277Y-37319004D01*
X147820000Y-37502938D01*
X147544723Y-37319004D01*
X147162547Y-37160702D01*
X146756832Y-37080000D01*
X146343168Y-37080000D01*
X145937453Y-37160702D01*
X145555277Y-37319004D01*
X145280000Y-37502938D01*
X145004723Y-37319004D01*
X144622547Y-37160702D01*
X144216832Y-37080000D01*
X143803168Y-37080000D01*
X143397453Y-37160702D01*
X143108009Y-37280593D01*
X143084084Y-37260958D01*
X142892988Y-37158816D01*
X142685638Y-37095916D01*
X142470000Y-37074678D01*
X140470000Y-37074678D01*
X140254362Y-37095916D01*
X140047012Y-37158816D01*
X139855916Y-37260958D01*
X139688419Y-37398419D01*
X139550958Y-37565916D01*
X139448816Y-37757012D01*
X139385916Y-37964362D01*
X139364678Y-38180000D01*
X139364678Y-39838383D01*
X130642416Y-31116122D01*
X130584477Y-31045523D01*
X130302778Y-30814339D01*
X129981390Y-30642553D01*
X129632663Y-30536768D01*
X129360882Y-30510000D01*
X129360879Y-30510000D01*
X129270000Y-30501049D01*
X129179121Y-30510000D01*
X118941177Y-30510000D01*
X118858407Y-30454695D01*
X118467132Y-30292623D01*
X118051757Y-30210000D01*
X117628243Y-30210000D01*
X117212868Y-30292623D01*
X116821593Y-30454695D01*
X116469455Y-30689986D01*
X116169986Y-30989455D01*
X115934695Y-31341593D01*
X115772623Y-31732868D01*
X115690000Y-32148243D01*
X115690000Y-32571757D01*
X115772623Y-32987132D01*
X115934695Y-33378407D01*
X116169986Y-33730545D01*
X116469455Y-34030014D01*
X116821593Y-34265305D01*
X117212868Y-34427377D01*
X117628243Y-34510000D01*
X118051757Y-34510000D01*
X118467132Y-34427377D01*
X118858407Y-34265305D01*
X118941177Y-34210000D01*
X128503706Y-34210000D01*
X138057589Y-43763883D01*
X138115523Y-43834477D01*
X138186115Y-43892410D01*
X138397221Y-44065661D01*
X138684656Y-44219298D01*
X138718610Y-44237447D01*
X139067337Y-44343232D01*
X139339118Y-44370000D01*
X139339121Y-44370000D01*
X139430000Y-44378951D01*
X139520879Y-44370000D01*
X180979121Y-44370000D01*
X181070000Y-44378951D01*
X181160879Y-44370000D01*
X181160882Y-44370000D01*
X181432663Y-44343232D01*
X181781390Y-44237447D01*
X182102778Y-44065661D01*
X182384477Y-43834477D01*
X182442416Y-43763878D01*
X184093883Y-42112412D01*
X184164477Y-42054477D01*
X184294252Y-41896346D01*
X184395661Y-41772779D01*
X184567447Y-41451390D01*
X184572009Y-41436351D01*
X184673232Y-41102663D01*
X184700000Y-40830882D01*
X184700000Y-40830880D01*
X184708951Y-40740001D01*
X184700000Y-40649122D01*
X184700000Y-6660879D01*
X184708951Y-6570000D01*
X184700000Y-6479118D01*
X184673232Y-6207337D01*
X184567447Y-5858610D01*
X184559249Y-5843272D01*
X184395661Y-5537221D01*
X184235309Y-5341832D01*
X184164477Y-5255523D01*
X184093885Y-5197590D01*
X180247416Y-1351122D01*
X180189477Y-1280523D01*
X179907778Y-1049339D01*
X179586390Y-877553D01*
X179237663Y-771768D01*
X178965882Y-745000D01*
X178965879Y-745000D01*
X178875000Y-736049D01*
X178784121Y-745000D01*
X175891180Y-745000D01*
X175874723Y-734004D01*
X175492547Y-575702D01*
X175086832Y-495000D01*
X174673168Y-495000D01*
X174267453Y-575702D01*
X173885277Y-734004D01*
X173868820Y-745000D01*
X173351180Y-745000D01*
X173334723Y-734004D01*
X172952547Y-575702D01*
X172546832Y-495000D01*
X172133168Y-495000D01*
X171727453Y-575702D01*
X171345277Y-734004D01*
X171070000Y-917938D01*
X170794723Y-734004D01*
X170412547Y-575702D01*
X170006832Y-495000D01*
X169593168Y-495000D01*
X169187453Y-575702D01*
X168805277Y-734004D01*
X168583450Y-882224D01*
X168513272Y-650878D01*
X168429954Y-495000D01*
X168387915Y-416350D01*
X168274868Y-278603D01*
X168219213Y-210787D01*
X168167697Y-168509D01*
X164811491Y3187697D01*
X164769213Y3239213D01*
X164563649Y3407915D01*
X164329122Y3533272D01*
X164074646Y3610467D01*
X163876321Y3630000D01*
X163876319Y3630000D01*
X163810000Y3636532D01*
X163743681Y3630000D01*
X124866319Y3630000D01*
X124800000Y3636532D01*
X124733681Y3630000D01*
X124733679Y3630000D01*
X124535354Y3610467D01*
X124346179Y3553081D01*
X124280877Y3533272D01*
X124056572Y3413378D01*
X124046351Y3407915D01*
X123840787Y3239213D01*
X123798509Y3187697D01*
X119422299Y-1188513D01*
X119370787Y-1230788D01*
X119328513Y-1282299D01*
X119328510Y-1282302D01*
X119202085Y-1436351D01*
X119148615Y-1536388D01*
X119076728Y-1670879D01*
X118999533Y-1925355D01*
X118985241Y-2070466D01*
X118973468Y-2190000D01*
X118980000Y-2256319D01*
X118980001Y-4030811D01*
X118500812Y-4510000D01*
X112076319Y-4510000D01*
X112010000Y-4503468D01*
X111943681Y-4510000D01*
X111943679Y-4510000D01*
X111745354Y-4529533D01*
X111550105Y-4588761D01*
X111490877Y-4606728D01*
X111341913Y-4686351D01*
X111256351Y-4732085D01*
X111050787Y-4900787D01*
X111008510Y-4952302D01*
X109952299Y-6008513D01*
X109900787Y-6050788D01*
X109858513Y-6102299D01*
X109858510Y-6102302D01*
X109732085Y-6256351D01*
X109681688Y-6350638D01*
X109606728Y-6490879D01*
X109529533Y-6745355D01*
X109510000Y-6943679D01*
X109503468Y-7010000D01*
X109510000Y-7076319D01*
X109510001Y-9783671D01*
X109503468Y-9850000D01*
X109529534Y-10114646D01*
X109606729Y-10369122D01*
X109732085Y-10603649D01*
X109858510Y-10757698D01*
X109858514Y-10757702D01*
X109900788Y-10809213D01*
X109952299Y-10851487D01*
X110708504Y-11607692D01*
X110750787Y-11659213D01*
X110940183Y-11814646D01*
X110956351Y-11827915D01*
X111072504Y-11890000D01*
X110150559Y-11890000D01*
X109870545Y-11609986D01*
X109518407Y-11374695D01*
X109127132Y-11212623D01*
X108711757Y-11130000D01*
X108288243Y-11130000D01*
X107872868Y-11212623D01*
X107481593Y-11374695D01*
X107129455Y-11609986D01*
X106829986Y-11909455D01*
X106809576Y-11940000D01*
X105510516Y-11940000D01*
X105640996Y-11744723D01*
X105799298Y-11362547D01*
X105880000Y-10956832D01*
X105880000Y-10543168D01*
X105799298Y-10137453D01*
X105640996Y-9755277D01*
X105457062Y-9480000D01*
X105640996Y-9204723D01*
X105799298Y-8822547D01*
X105880000Y-8416832D01*
X105880000Y-8003168D01*
X105799298Y-7597453D01*
X105640996Y-7215277D01*
X105411177Y-6871328D01*
X105118672Y-6578823D01*
X104774723Y-6349004D01*
X104392547Y-6190702D01*
X103986832Y-6110000D01*
X103573168Y-6110000D01*
X103167453Y-6190702D01*
X102785277Y-6349004D01*
X102441328Y-6578823D01*
X102160151Y-6860000D01*
X92438956Y-6860000D01*
X95974942Y-5177828D01*
X99868326Y-3489637D01*
X103818269Y-1938346D01*
X107819945Y-525851D01*
X111868489Y746131D01*
X115958944Y1876042D01*
X120086316Y2862504D01*
X124245644Y3704332D01*
X128431801Y4400484D01*
X132639699Y4950116D01*
X136864235Y5352562D01*
X141100224Y5607328D01*
X145342522Y5714106D01*
X149585979Y5672763D01*
%TA.AperFunction,Conductor*%
D21*
G36*
X149585979Y5672763D02*
G01*
X153825393Y5483351D01*
X158055636Y5146101D01*
X162271495Y4661426D01*
X166467884Y4029913D01*
X170639695Y3252331D01*
X174781818Y2329629D01*
X178889220Y1262930D01*
X182959365Y52800D01*
X185154999Y-672991D01*
X185155001Y-64735000D01*
X85401597Y-64735000D01*
X85375559Y-56140000D01*
X91474678Y-56140000D01*
X91474678Y-58740000D01*
X91495916Y-58955638D01*
X91558816Y-59162988D01*
X91660958Y-59354084D01*
X91798419Y-59521581D01*
X91965916Y-59659042D01*
X92157012Y-59761184D01*
X92364362Y-59824084D01*
X92580000Y-59845322D01*
X94580000Y-59845322D01*
X94795638Y-59824084D01*
X95002988Y-59761184D01*
X95194084Y-59659042D01*
X95218279Y-59639185D01*
X95312477Y-59689535D01*
X95708329Y-59809615D01*
X96120000Y-59850161D01*
X96531672Y-59809615D01*
X96927524Y-59689535D01*
X97292343Y-59494535D01*
X97589702Y-59250498D01*
X97665277Y-59300996D01*
X98047453Y-59459298D01*
X98453168Y-59540000D01*
X98866832Y-59540000D01*
X99272547Y-59459298D01*
X99654723Y-59300996D01*
X99730299Y-59250498D01*
X100027658Y-59494535D01*
X100392477Y-59689535D01*
X100788329Y-59809615D01*
X101200000Y-59850161D01*
X101611672Y-59809615D01*
X102007524Y-59689535D01*
X102372343Y-59494535D01*
X102669702Y-59250498D01*
X102745277Y-59300996D01*
X103127453Y-59459298D01*
X103533168Y-59540000D01*
X103946832Y-59540000D01*
X104352547Y-59459298D01*
X104734723Y-59300996D01*
X105010000Y-59117062D01*
X105285277Y-59300996D01*
X105667453Y-59459298D01*
X106073168Y-59540000D01*
X106486832Y-59540000D01*
X106892547Y-59459298D01*
X107274723Y-59300996D01*
X107550000Y-59117062D01*
X107825277Y-59300996D01*
X108207453Y-59459298D01*
X108613168Y-59540000D01*
X109026832Y-59540000D01*
X109432547Y-59459298D01*
X109814723Y-59300996D01*
X110090000Y-59117062D01*
X110365277Y-59300996D01*
X110747453Y-59459298D01*
X111153168Y-59540000D01*
X111566832Y-59540000D01*
X111972547Y-59459298D01*
X112354723Y-59300996D01*
X112630000Y-59117062D01*
X112905277Y-59300996D01*
X113287453Y-59459298D01*
X113693168Y-59540000D01*
X114106832Y-59540000D01*
X114512547Y-59459298D01*
X114894723Y-59300996D01*
X115170000Y-59117062D01*
X115445277Y-59300996D01*
X115827453Y-59459298D01*
X116233168Y-59540000D01*
X116646832Y-59540000D01*
X117052547Y-59459298D01*
X117434723Y-59300996D01*
X117710000Y-59117062D01*
X117985277Y-59300996D01*
X118367453Y-59459298D01*
X118773168Y-59540000D01*
X119186832Y-59540000D01*
X119592547Y-59459298D01*
X119974723Y-59300996D01*
X120250000Y-59117062D01*
X120525277Y-59300996D01*
X120907453Y-59459298D01*
X121313168Y-59540000D01*
X121726832Y-59540000D01*
X122132547Y-59459298D01*
X122514723Y-59300996D01*
X122790000Y-59117062D01*
X123065277Y-59300996D01*
X123447453Y-59459298D01*
X123853168Y-59540000D01*
X124266832Y-59540000D01*
X124672547Y-59459298D01*
X125054723Y-59300996D01*
X125330000Y-59117062D01*
X125605277Y-59300996D01*
X125987453Y-59459298D01*
X126393168Y-59540000D01*
X126806832Y-59540000D01*
X127212547Y-59459298D01*
X127594723Y-59300996D01*
X127870000Y-59117062D01*
X128145277Y-59300996D01*
X128527453Y-59459298D01*
X128933168Y-59540000D01*
X129346832Y-59540000D01*
X129752547Y-59459298D01*
X130134723Y-59300996D01*
X130478672Y-59071177D01*
X130771177Y-58778672D01*
X131000996Y-58434723D01*
X131159298Y-58052547D01*
X131240000Y-57646832D01*
X131240000Y-57233168D01*
X131159298Y-56827453D01*
X131000996Y-56445277D01*
X130771177Y-56101328D01*
X130478672Y-55808823D01*
X130134723Y-55579004D01*
X129752547Y-55420702D01*
X129346832Y-55340000D01*
X128933168Y-55340000D01*
X128527453Y-55420702D01*
X128145277Y-55579004D01*
X127870000Y-55762938D01*
X127594723Y-55579004D01*
X127212547Y-55420702D01*
X126806832Y-55340000D01*
X126393168Y-55340000D01*
X125987453Y-55420702D01*
X125605277Y-55579004D01*
X125330000Y-55762938D01*
X125054723Y-55579004D01*
X124672547Y-55420702D01*
X124266832Y-55340000D01*
X123853168Y-55340000D01*
X123447453Y-55420702D01*
X123065277Y-55579004D01*
X122790000Y-55762938D01*
X122514723Y-55579004D01*
X122132547Y-55420702D01*
X121726832Y-55340000D01*
X121313168Y-55340000D01*
X120907453Y-55420702D01*
X120525277Y-55579004D01*
X120250000Y-55762938D01*
X119974723Y-55579004D01*
X119592547Y-55420702D01*
X119186832Y-55340000D01*
X118773168Y-55340000D01*
X118367453Y-55420702D01*
X117985277Y-55579004D01*
X117710000Y-55762938D01*
X117434723Y-55579004D01*
X117052547Y-55420702D01*
X116646832Y-55340000D01*
X116233168Y-55340000D01*
X115827453Y-55420702D01*
X115445277Y-55579004D01*
X115170000Y-55762938D01*
X114894723Y-55579004D01*
X114512547Y-55420702D01*
X114106832Y-55340000D01*
X113693168Y-55340000D01*
X113287453Y-55420702D01*
X112905277Y-55579004D01*
X112630000Y-55762938D01*
X112354723Y-55579004D01*
X111972547Y-55420702D01*
X111566832Y-55340000D01*
X111153168Y-55340000D01*
X110747453Y-55420702D01*
X110365277Y-55579004D01*
X110090000Y-55762938D01*
X109814723Y-55579004D01*
X109432547Y-55420702D01*
X109026832Y-55340000D01*
X108613168Y-55340000D01*
X108207453Y-55420702D01*
X107825277Y-55579004D01*
X107550000Y-55762938D01*
X107274723Y-55579004D01*
X106892547Y-55420702D01*
X106486832Y-55340000D01*
X106073168Y-55340000D01*
X105667453Y-55420702D01*
X105285277Y-55579004D01*
X105010000Y-55762938D01*
X104774786Y-55605773D01*
X104780014Y-55600545D01*
X105015305Y-55248407D01*
X105177377Y-54857132D01*
X105260000Y-54441757D01*
X105260000Y-54018243D01*
X105177377Y-53602868D01*
X105015305Y-53211593D01*
X104780014Y-52859455D01*
X104480545Y-52559986D01*
X104128407Y-52324695D01*
X103737132Y-52162623D01*
X103321757Y-52080000D01*
X102898243Y-52080000D01*
X102482868Y-52162623D01*
X102091593Y-52324695D01*
X101739455Y-52559986D01*
X101439986Y-52859455D01*
X101204695Y-53211593D01*
X101042623Y-53602868D01*
X100960000Y-54018243D01*
X100960000Y-54441757D01*
X100964820Y-54465991D01*
X100292299Y-55138513D01*
X100240788Y-55180787D01*
X100198514Y-55232298D01*
X100198510Y-55232302D01*
X100108099Y-55342468D01*
X100027657Y-55385465D01*
X99730298Y-55629502D01*
X99654723Y-55579004D01*
X99272547Y-55420702D01*
X98866832Y-55340000D01*
X98453168Y-55340000D01*
X98047453Y-55420702D01*
X97665277Y-55579004D01*
X97589702Y-55629502D01*
X97292343Y-55385465D01*
X96927523Y-55190465D01*
X96531671Y-55070385D01*
X96120000Y-55029839D01*
X95708328Y-55070385D01*
X95312476Y-55190465D01*
X95218279Y-55240814D01*
X95194084Y-55220958D01*
X95002988Y-55118816D01*
X94795638Y-55055916D01*
X94580000Y-55034678D01*
X92580000Y-55034678D01*
X92364362Y-55055916D01*
X92157012Y-55118816D01*
X91965916Y-55220958D01*
X91798419Y-55358419D01*
X91660958Y-55525916D01*
X91558816Y-55717012D01*
X91495916Y-55924362D01*
X91474678Y-56140000D01*
X85375559Y-56140000D01*
X85322845Y-38740197D01*
X85429986Y-38900545D01*
X85729455Y-39200014D01*
X86081593Y-39435305D01*
X86472868Y-39597377D01*
X86888243Y-39680000D01*
X87311757Y-39680000D01*
X87663672Y-39610000D01*
X90256832Y-39610000D01*
X90358504Y-39589776D01*
X90461672Y-39579615D01*
X90560878Y-39549521D01*
X90662547Y-39529298D01*
X90758316Y-39489629D01*
X90857524Y-39459535D01*
X90948953Y-39410665D01*
X91044723Y-39370996D01*
X91130916Y-39313404D01*
X91222343Y-39264535D01*
X91302477Y-39198771D01*
X91388672Y-39141177D01*
X91461978Y-39067871D01*
X91542109Y-39002109D01*
X91607871Y-38921978D01*
X91681177Y-38848672D01*
X91738771Y-38762477D01*
X91804535Y-38682343D01*
X91853404Y-38590916D01*
X91910996Y-38504723D01*
X91950665Y-38408953D01*
X91970000Y-38372779D01*
X91970000Y-40551541D01*
X91825465Y-40727657D01*
X91630465Y-41092477D01*
X91510385Y-41488329D01*
X91480000Y-41796834D01*
X91480000Y-42603167D01*
X91510385Y-42911672D01*
X91630465Y-43307524D01*
X91825465Y-43672343D01*
X92087892Y-43992109D01*
X92407658Y-44254535D01*
X92772477Y-44449535D01*
X93168329Y-44569615D01*
X93580000Y-44610161D01*
X93991672Y-44569615D01*
X94387524Y-44449535D01*
X94752343Y-44254535D01*
X94850001Y-44174389D01*
X94947658Y-44254535D01*
X95312477Y-44449535D01*
X95708329Y-44569615D01*
X96120000Y-44610161D01*
X96531672Y-44569615D01*
X96927524Y-44449535D01*
X97292343Y-44254535D01*
X97589702Y-44010498D01*
X97665277Y-44060996D01*
X98047453Y-44219298D01*
X98453168Y-44300000D01*
X98866832Y-44300000D01*
X99272547Y-44219298D01*
X99654723Y-44060996D01*
X99930000Y-43877062D01*
X100205277Y-44060996D01*
X100587453Y-44219298D01*
X100993168Y-44300000D01*
X101406832Y-44300000D01*
X101812547Y-44219298D01*
X102194723Y-44060996D01*
X102470000Y-43877062D01*
X102745277Y-44060996D01*
X103127453Y-44219298D01*
X103533168Y-44300000D01*
X103946832Y-44300000D01*
X104352547Y-44219298D01*
X104734723Y-44060996D01*
X105010000Y-43877062D01*
X105285277Y-44060996D01*
X105667453Y-44219298D01*
X106073168Y-44300000D01*
X106486832Y-44300000D01*
X106892547Y-44219298D01*
X107274723Y-44060996D01*
X107350299Y-44010498D01*
X107647658Y-44254535D01*
X108012477Y-44449535D01*
X108408329Y-44569615D01*
X108820000Y-44610161D01*
X109231672Y-44569615D01*
X109627524Y-44449535D01*
X109992343Y-44254535D01*
X110090001Y-44174389D01*
X110187658Y-44254535D01*
X110552477Y-44449535D01*
X110948329Y-44569615D01*
X111360000Y-44610161D01*
X111771672Y-44569615D01*
X112167524Y-44449535D01*
X112532343Y-44254535D01*
X112829702Y-44010498D01*
X112905277Y-44060996D01*
X113287453Y-44219298D01*
X113693168Y-44300000D01*
X114106832Y-44300000D01*
X114512547Y-44219298D01*
X114894723Y-44060996D01*
X115170000Y-43877062D01*
X115445277Y-44060996D01*
X115827453Y-44219298D01*
X116233168Y-44300000D01*
X116646832Y-44300000D01*
X117052547Y-44219298D01*
X117434723Y-44060996D01*
X117710000Y-43877062D01*
X117985277Y-44060996D01*
X118367453Y-44219298D01*
X118773168Y-44300000D01*
X119186832Y-44300000D01*
X119592547Y-44219298D01*
X119974723Y-44060996D01*
X120250000Y-43877062D01*
X120525277Y-44060996D01*
X120907453Y-44219298D01*
X121313168Y-44300000D01*
X121726832Y-44300000D01*
X122132547Y-44219298D01*
X122514723Y-44060996D01*
X122790000Y-43877062D01*
X123065277Y-44060996D01*
X123447453Y-44219298D01*
X123853168Y-44300000D01*
X124266832Y-44300000D01*
X124672547Y-44219298D01*
X124997496Y-44084700D01*
X125013151Y-44243654D01*
X125075605Y-44449535D01*
X125104641Y-44545255D01*
X125253212Y-44823213D01*
X125311022Y-44893654D01*
X125453155Y-45066845D01*
X125514212Y-45116953D01*
X126053047Y-45655788D01*
X126103155Y-45716845D01*
X126346787Y-45916788D01*
X126624744Y-46065359D01*
X126926345Y-46156849D01*
X127161403Y-46180000D01*
X127161406Y-46180000D01*
X127240000Y-46187741D01*
X127318594Y-46180000D01*
X129951810Y-46180000D01*
X129741070Y-46267291D01*
X129298850Y-46562773D01*
X128922773Y-46938850D01*
X128627291Y-47381070D01*
X128423760Y-47872439D01*
X128320000Y-48394073D01*
X128320000Y-48925927D01*
X128423760Y-49447561D01*
X128627291Y-49938930D01*
X128922773Y-50381150D01*
X129298850Y-50757227D01*
X129741070Y-51052709D01*
X130232439Y-51256240D01*
X130754073Y-51360000D01*
X131285927Y-51360000D01*
X131807561Y-51256240D01*
X132298930Y-51052709D01*
X132741150Y-50757227D01*
X133117227Y-50381150D01*
X133412709Y-49938930D01*
X133616240Y-49447561D01*
X133720000Y-48925927D01*
X133720000Y-48394073D01*
X133616240Y-47872439D01*
X133412709Y-47381070D01*
X133117227Y-46938850D01*
X132741150Y-46562773D01*
X132298930Y-46267291D01*
X132088190Y-46180000D01*
X135507259Y-46180000D01*
X142410001Y-53082743D01*
X142410000Y-57074678D01*
X140470000Y-57074678D01*
X140254362Y-57095916D01*
X140047012Y-57158816D01*
X139855916Y-57260958D01*
X139688419Y-57398419D01*
X139550958Y-57565916D01*
X139448816Y-57757012D01*
X139385916Y-57964362D01*
X139364678Y-58180000D01*
X139364678Y-60180000D01*
X139385916Y-60395638D01*
X139448816Y-60602988D01*
X139550958Y-60794084D01*
X139688419Y-60961581D01*
X139855916Y-61099042D01*
X140047012Y-61201184D01*
X140254362Y-61264084D01*
X140470000Y-61285322D01*
X142470000Y-61285322D01*
X142685638Y-61264084D01*
X142892988Y-61201184D01*
X143084084Y-61099042D01*
X143108009Y-61079407D01*
X143397453Y-61199298D01*
X143803168Y-61280000D01*
X144216832Y-61280000D01*
X144622547Y-61199298D01*
X145004723Y-61040996D01*
X145280000Y-60857062D01*
X145555277Y-61040996D01*
X145937453Y-61199298D01*
X146343168Y-61280000D01*
X146756832Y-61280000D01*
X147162547Y-61199298D01*
X147544723Y-61040996D01*
X147820000Y-60857062D01*
X148095277Y-61040996D01*
X148477453Y-61199298D01*
X148883168Y-61280000D01*
X149296832Y-61280000D01*
X149702547Y-61199298D01*
X150084723Y-61040996D01*
X150360000Y-60857062D01*
X150635277Y-61040996D01*
X151017453Y-61199298D01*
X151423168Y-61280000D01*
X151836832Y-61280000D01*
X152242547Y-61199298D01*
X152624723Y-61040996D01*
X152900000Y-60857062D01*
X153175277Y-61040996D01*
X153557453Y-61199298D01*
X153963168Y-61280000D01*
X154376832Y-61280000D01*
X154782547Y-61199298D01*
X155164723Y-61040996D01*
X155440000Y-60857062D01*
X155715277Y-61040996D01*
X156097453Y-61199298D01*
X156503168Y-61280000D01*
X156916832Y-61280000D01*
X157322547Y-61199298D01*
X157704723Y-61040996D01*
X157980000Y-60857062D01*
X158255277Y-61040996D01*
X158637453Y-61199298D01*
X159043168Y-61280000D01*
X159456832Y-61280000D01*
X159862547Y-61199298D01*
X160244723Y-61040996D01*
X160588672Y-60811177D01*
X160881177Y-60518672D01*
X160894893Y-60498145D01*
X160975035Y-60556898D01*
X161259314Y-60689433D01*
X161392654Y-60729876D01*
X161640000Y-60622221D01*
X161640000Y-59330000D01*
X161620000Y-59330000D01*
X161620000Y-59030000D01*
X161640000Y-59030000D01*
X161640000Y-57737779D01*
X161940000Y-57737779D01*
X161940000Y-59030000D01*
X161960000Y-59030000D01*
X161960000Y-59330000D01*
X161940000Y-59330000D01*
X161940000Y-60622221D01*
X162187346Y-60729876D01*
X162320686Y-60689433D01*
X162604965Y-60556898D01*
X162685107Y-60498145D01*
X162698823Y-60518672D01*
X162991328Y-60811177D01*
X163335277Y-61040996D01*
X163717453Y-61199298D01*
X164123168Y-61280000D01*
X164536832Y-61280000D01*
X164942547Y-61199298D01*
X165324723Y-61040996D01*
X165600000Y-60857062D01*
X165875277Y-61040996D01*
X166257453Y-61199298D01*
X166663168Y-61280000D01*
X167076832Y-61280000D01*
X167482547Y-61199298D01*
X167864723Y-61040996D01*
X168140000Y-60857062D01*
X168415277Y-61040996D01*
X168797453Y-61199298D01*
X169203168Y-61280000D01*
X169616832Y-61280000D01*
X170022547Y-61199298D01*
X170404723Y-61040996D01*
X170680000Y-60857062D01*
X170955277Y-61040996D01*
X171337453Y-61199298D01*
X171743168Y-61280000D01*
X172156832Y-61280000D01*
X172562547Y-61199298D01*
X172944723Y-61040996D01*
X173220000Y-60857062D01*
X173495277Y-61040996D01*
X173877453Y-61199298D01*
X174283168Y-61280000D01*
X174696832Y-61280000D01*
X175102547Y-61199298D01*
X175484723Y-61040996D01*
X175760000Y-60857062D01*
X176035277Y-61040996D01*
X176417453Y-61199298D01*
X176823168Y-61280000D01*
X177236832Y-61280000D01*
X177642547Y-61199298D01*
X178024723Y-61040996D01*
X178300000Y-60857062D01*
X178575277Y-61040996D01*
X178957453Y-61199298D01*
X179363168Y-61280000D01*
X179776832Y-61280000D01*
X180182547Y-61199298D01*
X180564723Y-61040996D01*
X180908672Y-60811177D01*
X181201177Y-60518672D01*
X181430996Y-60174723D01*
X181589298Y-59792547D01*
X181670000Y-59386832D01*
X181670000Y-58973168D01*
X181589298Y-58567453D01*
X181430996Y-58185277D01*
X181201177Y-57841328D01*
X180908672Y-57548823D01*
X180564723Y-57319004D01*
X180182547Y-57160702D01*
X179776832Y-57080000D01*
X179363168Y-57080000D01*
X178957453Y-57160702D01*
X178575277Y-57319004D01*
X178300000Y-57502938D01*
X178024723Y-57319004D01*
X177642547Y-57160702D01*
X177236832Y-57080000D01*
X176823168Y-57080000D01*
X176417453Y-57160702D01*
X176035277Y-57319004D01*
X175760000Y-57502938D01*
X175484723Y-57319004D01*
X175102547Y-57160702D01*
X174696832Y-57080000D01*
X174283168Y-57080000D01*
X173877453Y-57160702D01*
X173495277Y-57319004D01*
X173220000Y-57502938D01*
X172944723Y-57319004D01*
X172562547Y-57160702D01*
X172156832Y-57080000D01*
X171743168Y-57080000D01*
X171337453Y-57160702D01*
X170955277Y-57319004D01*
X170680000Y-57502938D01*
X170404723Y-57319004D01*
X170022547Y-57160702D01*
X169616832Y-57080000D01*
X169203168Y-57080000D01*
X168797453Y-57160702D01*
X168415277Y-57319004D01*
X168140000Y-57502938D01*
X167864723Y-57319004D01*
X167482547Y-57160702D01*
X167076832Y-57080000D01*
X166663168Y-57080000D01*
X166257453Y-57160702D01*
X165875277Y-57319004D01*
X165600000Y-57502938D01*
X165324723Y-57319004D01*
X164942547Y-57160702D01*
X164536832Y-57080000D01*
X164123168Y-57080000D01*
X163717453Y-57160702D01*
X163335277Y-57319004D01*
X162991328Y-57548823D01*
X162698823Y-57841328D01*
X162685107Y-57861855D01*
X162604965Y-57803102D01*
X162320686Y-57670567D01*
X162187346Y-57630124D01*
X161940000Y-57737779D01*
X161640000Y-57737779D01*
X161392654Y-57630124D01*
X161259314Y-57670567D01*
X160975035Y-57803102D01*
X160894893Y-57861855D01*
X160881177Y-57841328D01*
X160588672Y-57548823D01*
X160244723Y-57319004D01*
X159862547Y-57160702D01*
X159456832Y-57080000D01*
X159043168Y-57080000D01*
X158637453Y-57160702D01*
X158255277Y-57319004D01*
X157980000Y-57502938D01*
X157704723Y-57319004D01*
X157322547Y-57160702D01*
X156916832Y-57080000D01*
X156503168Y-57080000D01*
X156097453Y-57160702D01*
X155715277Y-57319004D01*
X155440000Y-57502938D01*
X155164723Y-57319004D01*
X154782547Y-57160702D01*
X154376832Y-57080000D01*
X153963168Y-57080000D01*
X153557453Y-57160702D01*
X153175277Y-57319004D01*
X152900000Y-57502938D01*
X152624723Y-57319004D01*
X152242547Y-57160702D01*
X152214138Y-57155051D01*
X152245305Y-57108407D01*
X152407377Y-56717132D01*
X152490000Y-56301757D01*
X152490000Y-55878243D01*
X152407377Y-55462868D01*
X152245305Y-55071593D01*
X152010014Y-54719455D01*
X151710545Y-54419986D01*
X151358407Y-54184695D01*
X150967132Y-54022623D01*
X150551757Y-53940000D01*
X150128243Y-53940000D01*
X149712868Y-54022623D01*
X149321593Y-54184695D01*
X148969455Y-54419986D01*
X148669986Y-54719455D01*
X148434695Y-55071593D01*
X148272623Y-55462868D01*
X148190000Y-55878243D01*
X148190000Y-55977259D01*
X148014207Y-56153052D01*
X147953156Y-56203155D01*
X147903053Y-56264206D01*
X147753212Y-56446787D01*
X147604641Y-56724745D01*
X147513152Y-57026346D01*
X147486694Y-57294968D01*
X147162547Y-57160702D01*
X146756832Y-57080000D01*
X146343168Y-57080000D01*
X145937453Y-57160702D01*
X145610000Y-57296337D01*
X145610000Y-52498593D01*
X145617741Y-52419999D01*
X145608354Y-52324695D01*
X145586849Y-52106345D01*
X145495359Y-51804744D01*
X145346788Y-51526787D01*
X145146845Y-51283155D01*
X145085793Y-51233051D01*
X143916815Y-50064073D01*
X162600000Y-50064073D01*
X162600000Y-50595927D01*
X162703760Y-51117561D01*
X162907291Y-51608930D01*
X163202773Y-52051150D01*
X163578850Y-52427227D01*
X164021070Y-52722709D01*
X164512439Y-52926240D01*
X165034073Y-53030000D01*
X165565927Y-53030000D01*
X166087561Y-52926240D01*
X166578930Y-52722709D01*
X167021150Y-52427227D01*
X167397227Y-52051150D01*
X167692709Y-51608930D01*
X167896240Y-51117561D01*
X168000000Y-50595927D01*
X168000000Y-50064073D01*
X167896240Y-49542439D01*
X167692709Y-49051070D01*
X167397227Y-48608850D01*
X167021150Y-48232773D01*
X166578930Y-47937291D01*
X166087561Y-47733760D01*
X165565927Y-47630000D01*
X165034073Y-47630000D01*
X164512439Y-47733760D01*
X164021070Y-47937291D01*
X163578850Y-48232773D01*
X163202773Y-48608850D01*
X162907291Y-49051070D01*
X162703760Y-49542439D01*
X162600000Y-50064073D01*
X143916815Y-50064073D01*
X137356953Y-43504212D01*
X137306845Y-43443155D01*
X137063213Y-43243212D01*
X136785256Y-43094641D01*
X136483655Y-43003151D01*
X136248597Y-42980000D01*
X136248594Y-42980000D01*
X136170000Y-42972259D01*
X136091406Y-42980000D01*
X131089937Y-42980000D01*
X131159298Y-42812547D01*
X131240000Y-42406832D01*
X131240000Y-41993168D01*
X131159298Y-41587453D01*
X131000996Y-41205277D01*
X130771177Y-40861328D01*
X130478672Y-40568823D01*
X130134723Y-40339004D01*
X129752547Y-40180702D01*
X129346832Y-40100000D01*
X128933168Y-40100000D01*
X128527453Y-40180702D01*
X128145277Y-40339004D01*
X128069702Y-40389502D01*
X127772343Y-40145465D01*
X127407523Y-39950465D01*
X127011671Y-39830385D01*
X126600000Y-39789839D01*
X126188328Y-39830385D01*
X125792476Y-39950465D01*
X125427657Y-40145465D01*
X125130298Y-40389502D01*
X125054723Y-40339004D01*
X124672547Y-40180702D01*
X124266832Y-40100000D01*
X123853168Y-40100000D01*
X123447453Y-40180702D01*
X123065277Y-40339004D01*
X122854827Y-40479622D01*
X122850467Y-40435354D01*
X122773272Y-40180878D01*
X122773272Y-40180877D01*
X122647915Y-39946350D01*
X122521490Y-39792302D01*
X122479213Y-39740787D01*
X122427697Y-39698509D01*
X118191489Y-35462301D01*
X118149213Y-35410787D01*
X117943649Y-35242085D01*
X117709122Y-35116728D01*
X117454646Y-35039533D01*
X117256321Y-35020000D01*
X117256319Y-35020000D01*
X117190000Y-35013468D01*
X117123681Y-35020000D01*
X116299189Y-35020000D01*
X112450002Y-31170814D01*
X112450002Y-29314073D01*
X135130000Y-29314073D01*
X135130000Y-29845927D01*
X135233760Y-30367561D01*
X135437291Y-30858930D01*
X135732773Y-31301150D01*
X136108850Y-31677227D01*
X136551070Y-31972709D01*
X137042439Y-32176240D01*
X137564073Y-32280000D01*
X138095927Y-32280000D01*
X138617561Y-32176240D01*
X139108930Y-31972709D01*
X139551150Y-31677227D01*
X139927227Y-31301150D01*
X140222709Y-30858930D01*
X140426240Y-30367561D01*
X140530000Y-29845927D01*
X140530000Y-29314073D01*
X140426240Y-28792439D01*
X140222709Y-28301070D01*
X139927227Y-27858850D01*
X139551150Y-27482773D01*
X139108930Y-27187291D01*
X138617561Y-26983760D01*
X138095927Y-26880000D01*
X137564073Y-26880000D01*
X137042439Y-26983760D01*
X136551070Y-27187291D01*
X136108850Y-27482773D01*
X135732773Y-27858850D01*
X135437291Y-28301070D01*
X135233760Y-28792439D01*
X135130000Y-29314073D01*
X112450002Y-29314073D01*
X112450002Y-28283742D01*
X112470547Y-28270014D01*
X112770016Y-27970545D01*
X113005307Y-27618407D01*
X113167379Y-27227132D01*
X113250002Y-26811757D01*
X113250002Y-26388243D01*
X113167379Y-25972868D01*
X113005307Y-25581593D01*
X112770016Y-25229455D01*
X112760561Y-25220000D01*
X115103681Y-25220000D01*
X115170000Y-25226532D01*
X115236319Y-25220000D01*
X115236321Y-25220000D01*
X115434646Y-25200467D01*
X115689122Y-25123272D01*
X115923649Y-24997915D01*
X116129213Y-24829213D01*
X116171491Y-24777697D01*
X117319188Y-23630000D01*
X156282928Y-23630000D01*
X156132623Y-23992868D01*
X156050000Y-24408243D01*
X156050000Y-24831757D01*
X156132623Y-25247132D01*
X156294695Y-25638407D01*
X156529986Y-25990545D01*
X156829455Y-26290014D01*
X157181593Y-26525305D01*
X157572868Y-26687377D01*
X157988243Y-26770000D01*
X158411757Y-26770000D01*
X158827132Y-26687377D01*
X159218407Y-26525305D01*
X159570545Y-26290014D01*
X159870014Y-25990545D01*
X159883742Y-25970000D01*
X167690812Y-25970000D01*
X175680001Y-33959190D01*
X175680000Y-37449484D01*
X175484723Y-37319004D01*
X175102547Y-37160702D01*
X174696832Y-37080000D01*
X174283168Y-37080000D01*
X173877453Y-37160702D01*
X173495277Y-37319004D01*
X173220000Y-37502938D01*
X172944723Y-37319004D01*
X172562547Y-37160702D01*
X172156832Y-37080000D01*
X171743168Y-37080000D01*
X171337453Y-37160702D01*
X170955277Y-37319004D01*
X170680000Y-37502938D01*
X170404723Y-37319004D01*
X170022547Y-37160702D01*
X169616832Y-37080000D01*
X169203168Y-37080000D01*
X168797453Y-37160702D01*
X168415277Y-37319004D01*
X168140000Y-37502938D01*
X167864723Y-37319004D01*
X167482547Y-37160702D01*
X167076832Y-37080000D01*
X166663168Y-37080000D01*
X166257453Y-37160702D01*
X165875277Y-37319004D01*
X165600000Y-37502938D01*
X165324723Y-37319004D01*
X164942547Y-37160702D01*
X164536832Y-37080000D01*
X164123168Y-37080000D01*
X163717453Y-37160702D01*
X163335277Y-37319004D01*
X163060000Y-37502938D01*
X162784723Y-37319004D01*
X162402547Y-37160702D01*
X161996832Y-37080000D01*
X161583168Y-37080000D01*
X161177453Y-37160702D01*
X160795277Y-37319004D01*
X160520000Y-37502938D01*
X160244723Y-37319004D01*
X159862547Y-37160702D01*
X159456832Y-37080000D01*
X159043168Y-37080000D01*
X158637453Y-37160702D01*
X158255277Y-37319004D01*
X157980000Y-37502938D01*
X157704723Y-37319004D01*
X157322547Y-37160702D01*
X156916832Y-37080000D01*
X156503168Y-37080000D01*
X156097453Y-37160702D01*
X155715277Y-37319004D01*
X155440000Y-37502938D01*
X155164723Y-37319004D01*
X154782547Y-37160702D01*
X154376832Y-37080000D01*
X153963168Y-37080000D01*
X153557453Y-37160702D01*
X153175277Y-37319004D01*
X152900000Y-37502938D01*
X152624723Y-37319004D01*
X152242547Y-37160702D01*
X151836832Y-37080000D01*
X151423168Y-37080000D01*
X151017453Y-37160702D01*
X150635277Y-37319004D01*
X150360000Y-37502938D01*
X150084723Y-37319004D01*
X149702547Y-37160702D01*
X149296832Y-37080000D01*
X148883168Y-37080000D01*
X148477453Y-37160702D01*
X148095277Y-37319004D01*
X147820000Y-37502938D01*
X147544723Y-37319004D01*
X147162547Y-37160702D01*
X146756832Y-37080000D01*
X146343168Y-37080000D01*
X145937453Y-37160702D01*
X145555277Y-37319004D01*
X145280000Y-37502938D01*
X145004723Y-37319004D01*
X144622547Y-37160702D01*
X144216832Y-37080000D01*
X143803168Y-37080000D01*
X143397453Y-37160702D01*
X143108009Y-37280593D01*
X143084084Y-37260958D01*
X142892988Y-37158816D01*
X142685638Y-37095916D01*
X142470000Y-37074678D01*
X140470000Y-37074678D01*
X140254362Y-37095916D01*
X140047012Y-37158816D01*
X139855916Y-37260958D01*
X139688419Y-37398419D01*
X139550958Y-37565916D01*
X139448816Y-37757012D01*
X139385916Y-37964362D01*
X139364678Y-38180000D01*
X139364678Y-39838383D01*
X130642416Y-31116122D01*
X130584477Y-31045523D01*
X130302778Y-30814339D01*
X129981390Y-30642553D01*
X129632663Y-30536768D01*
X129360882Y-30510000D01*
X129360879Y-30510000D01*
X129270000Y-30501049D01*
X129179121Y-30510000D01*
X118941177Y-30510000D01*
X118858407Y-30454695D01*
X118467132Y-30292623D01*
X118051757Y-30210000D01*
X117628243Y-30210000D01*
X117212868Y-30292623D01*
X116821593Y-30454695D01*
X116469455Y-30689986D01*
X116169986Y-30989455D01*
X115934695Y-31341593D01*
X115772623Y-31732868D01*
X115690000Y-32148243D01*
X115690000Y-32571757D01*
X115772623Y-32987132D01*
X115934695Y-33378407D01*
X116169986Y-33730545D01*
X116469455Y-34030014D01*
X116821593Y-34265305D01*
X117212868Y-34427377D01*
X117628243Y-34510000D01*
X118051757Y-34510000D01*
X118467132Y-34427377D01*
X118858407Y-34265305D01*
X118941177Y-34210000D01*
X128503706Y-34210000D01*
X138057589Y-43763883D01*
X138115523Y-43834477D01*
X138186115Y-43892410D01*
X138397221Y-44065661D01*
X138684656Y-44219298D01*
X138718610Y-44237447D01*
X139067337Y-44343232D01*
X139339118Y-44370000D01*
X139339121Y-44370000D01*
X139430000Y-44378951D01*
X139520879Y-44370000D01*
X180979121Y-44370000D01*
X181070000Y-44378951D01*
X181160879Y-44370000D01*
X181160882Y-44370000D01*
X181432663Y-44343232D01*
X181781390Y-44237447D01*
X182102778Y-44065661D01*
X182384477Y-43834477D01*
X182442416Y-43763878D01*
X184093883Y-42112412D01*
X184164477Y-42054477D01*
X184294252Y-41896346D01*
X184395661Y-41772779D01*
X184567447Y-41451390D01*
X184572009Y-41436351D01*
X184673232Y-41102663D01*
X184700000Y-40830882D01*
X184700000Y-40830880D01*
X184708951Y-40740001D01*
X184700000Y-40649122D01*
X184700000Y-6660879D01*
X184708951Y-6570000D01*
X184700000Y-6479118D01*
X184673232Y-6207337D01*
X184567447Y-5858610D01*
X184559249Y-5843272D01*
X184395661Y-5537221D01*
X184235309Y-5341832D01*
X184164477Y-5255523D01*
X184093885Y-5197590D01*
X180247416Y-1351122D01*
X180189477Y-1280523D01*
X179907778Y-1049339D01*
X179586390Y-877553D01*
X179237663Y-771768D01*
X178965882Y-745000D01*
X178965879Y-745000D01*
X178875000Y-736049D01*
X178784121Y-745000D01*
X175891180Y-745000D01*
X175874723Y-734004D01*
X175492547Y-575702D01*
X175086832Y-495000D01*
X174673168Y-495000D01*
X174267453Y-575702D01*
X173885277Y-734004D01*
X173868820Y-745000D01*
X173351180Y-745000D01*
X173334723Y-734004D01*
X172952547Y-575702D01*
X172546832Y-495000D01*
X172133168Y-495000D01*
X171727453Y-575702D01*
X171345277Y-734004D01*
X171070000Y-917938D01*
X170794723Y-734004D01*
X170412547Y-575702D01*
X170006832Y-495000D01*
X169593168Y-495000D01*
X169187453Y-575702D01*
X168805277Y-734004D01*
X168583450Y-882224D01*
X168513272Y-650878D01*
X168429954Y-495000D01*
X168387915Y-416350D01*
X168274868Y-278603D01*
X168219213Y-210787D01*
X168167697Y-168509D01*
X164811491Y3187697D01*
X164769213Y3239213D01*
X164563649Y3407915D01*
X164329122Y3533272D01*
X164074646Y3610467D01*
X163876321Y3630000D01*
X163876319Y3630000D01*
X163810000Y3636532D01*
X163743681Y3630000D01*
X124866319Y3630000D01*
X124800000Y3636532D01*
X124733681Y3630000D01*
X124733679Y3630000D01*
X124535354Y3610467D01*
X124346179Y3553081D01*
X124280877Y3533272D01*
X124056572Y3413378D01*
X124046351Y3407915D01*
X123840787Y3239213D01*
X123798509Y3187697D01*
X119422299Y-1188513D01*
X119370787Y-1230788D01*
X119328513Y-1282299D01*
X119328510Y-1282302D01*
X119202085Y-1436351D01*
X119148615Y-1536388D01*
X119076728Y-1670879D01*
X118999533Y-1925355D01*
X118985241Y-2070466D01*
X118973468Y-2190000D01*
X118980000Y-2256319D01*
X118980001Y-4030811D01*
X118500812Y-4510000D01*
X112076319Y-4510000D01*
X112010000Y-4503468D01*
X111943681Y-4510000D01*
X111943679Y-4510000D01*
X111745354Y-4529533D01*
X111550105Y-4588761D01*
X111490877Y-4606728D01*
X111341913Y-4686351D01*
X111256351Y-4732085D01*
X111050787Y-4900787D01*
X111008510Y-4952302D01*
X109952299Y-6008513D01*
X109900787Y-6050788D01*
X109858513Y-6102299D01*
X109858510Y-6102302D01*
X109732085Y-6256351D01*
X109681688Y-6350638D01*
X109606728Y-6490879D01*
X109529533Y-6745355D01*
X109510000Y-6943679D01*
X109503468Y-7010000D01*
X109510000Y-7076319D01*
X109510001Y-9783671D01*
X109503468Y-9850000D01*
X109529534Y-10114646D01*
X109606729Y-10369122D01*
X109732085Y-10603649D01*
X109858510Y-10757698D01*
X109858514Y-10757702D01*
X109900788Y-10809213D01*
X109952299Y-10851487D01*
X110708504Y-11607692D01*
X110750787Y-11659213D01*
X110940183Y-11814646D01*
X110956351Y-11827915D01*
X111072504Y-11890000D01*
X110150559Y-11890000D01*
X109870545Y-11609986D01*
X109518407Y-11374695D01*
X109127132Y-11212623D01*
X108711757Y-11130000D01*
X108288243Y-11130000D01*
X107872868Y-11212623D01*
X107481593Y-11374695D01*
X107129455Y-11609986D01*
X106829986Y-11909455D01*
X106809576Y-11940000D01*
X105510516Y-11940000D01*
X105640996Y-11744723D01*
X105799298Y-11362547D01*
X105880000Y-10956832D01*
X105880000Y-10543168D01*
X105799298Y-10137453D01*
X105640996Y-9755277D01*
X105457062Y-9480000D01*
X105640996Y-9204723D01*
X105799298Y-8822547D01*
X105880000Y-8416832D01*
X105880000Y-8003168D01*
X105799298Y-7597453D01*
X105640996Y-7215277D01*
X105411177Y-6871328D01*
X105118672Y-6578823D01*
X104774723Y-6349004D01*
X104392547Y-6190702D01*
X103986832Y-6110000D01*
X103573168Y-6110000D01*
X103167453Y-6190702D01*
X102785277Y-6349004D01*
X102441328Y-6578823D01*
X102160151Y-6860000D01*
X92438956Y-6860000D01*
X95974942Y-5177828D01*
X99868326Y-3489637D01*
X103818269Y-1938346D01*
X107819945Y-525851D01*
X111868489Y746131D01*
X115958944Y1876042D01*
X120086316Y2862504D01*
X124245644Y3704332D01*
X128431801Y4400484D01*
X132639699Y4950116D01*
X136864235Y5352562D01*
X141100224Y5607328D01*
X145342522Y5714106D01*
X149585979Y5672763D01*
G37*
%TD.AperFunction*%
%TD*%
M02*
