M48
METRIC,TZ
T1C0.800
T2C1.000
%
G90
G05
T1
X90050Y-34010
X90050Y-37510
T2
X85660Y-20430
X87100Y-37530
X88280Y-13860
X88280Y-16400
X88280Y-18940
X88280Y-21480
X88280Y-24020
X88280Y-26560
X92250Y-26820
X93580Y-42200
X93580Y-57440
X93820Y-16570
X93820Y-19110
X93820Y-21650
X94210Y-29600
X94630Y-26840
X96110Y-14450
X96120Y-39070
X96120Y-42200
X96120Y-57440
X96750Y-29600
X98470Y-16570
X98470Y-19110
X98470Y-21650
X98660Y-42200
X98660Y-57440
X99290Y-29600
X99650Y-25150
X101200Y-42200
X101200Y-57440
X101550Y-23420
X101830Y-29600
X102030Y-33230
X103110Y-54230
X103740Y-42200
X103740Y-57440
X103780Y-8210
X103780Y-10750
X103780Y-13290
X103780Y-15830
X103780Y-18370
X103780Y-20910
X104370Y-29600
X104600Y-36630
X106280Y-42200
X106280Y-57440
X106910Y-29600
X108170Y-24430
X108500Y-13280
X108820Y-42200
X108820Y-57440
X109340Y-35420
X111100Y-26600
X111360Y-42200
X111360Y-57440
X113780Y-8160
X113780Y-10700
X113780Y-13240
X113780Y-15780
X113780Y-18320
X113780Y-20860
X113900Y-42200
X113900Y-57440
X116440Y-42200
X116440Y-57440
X117840Y-32360
X118980Y-42200
X118980Y-57440
X121520Y-42200
X121520Y-57440
X124060Y-42200
X124060Y-57440
X126600Y-42200
X126600Y-57440
X126610Y-7970
X126620Y-2595
X126620Y-5135
X129140Y-42200
X129140Y-57440
X129160Y-2595
X129160Y-5135
X131700Y-2595
X131700Y-5135
X134240Y-2595
X134240Y-5135
X136780Y-2595
X136780Y-5135
X139320Y-2595
X139320Y-5135
X141470Y-39180
X141470Y-59180
X141860Y-2595
X141860Y-5135
X144010Y-39180
X144010Y-59180
X144400Y-2595
X144400Y-5135
X144420Y-8160
X146550Y-39180
X146550Y-59180
X146940Y-2595
X146940Y-5135
X149090Y-39180
X149090Y-59180
X149480Y-2595
X149480Y-5135
X150340Y-56090
X151630Y-39180
X151630Y-59180
X152020Y-2595
X152020Y-5135
X154170Y-39180
X154170Y-59180
X154560Y-2595
X154560Y-5135
X156710Y-39180
X156710Y-59180
X156810Y-18260
X157100Y-2595
X157100Y-5135
X158200Y-24620
X159250Y-39180
X159250Y-59180
X159640Y-2595
X159640Y-5135
X161790Y-39180
X161790Y-59180
X162180Y-2595
X162180Y-5135
X164330Y-39180
X164330Y-59180
X164710Y-7970
X164720Y-2595
X164720Y-5135
X166870Y-39180
X166870Y-59180
X167260Y-2595
X167260Y-5135
X169410Y-39180
X169410Y-59180
X169800Y-2595
X169800Y-5135
X171950Y-39180
X171950Y-59180
X172340Y-2595
X172340Y-5135
X174490Y-39180
X174490Y-59180
X174880Y-2595
X174880Y-5135
X177030Y-39180
X177030Y-59180
X179570Y-39180
X179570Y-59180
T0
M30
