%TF.GenerationSoftware,KiCad,Pcbnew,(5.1.10)-1*%
%TF.CreationDate,2022-01-22T14:52:44+00:00*%
%TF.ProjectId,mike_pcb_arduino_sheild,6d696b65-5f70-4636-925f-61726475696e,rev?*%
%TF.SameCoordinates,Original*%
%TF.FileFunction,Legend,Top*%
%TF.FilePolarity,Positive*%
%FSLAX46Y46*%
G04 Gerber Fmt 4.6, Leading zero omitted, Abs format (unit mm)*
G04 Created by KiCad (PCBNEW (5.1.10)-1) date 2022-01-22 14:52:44*
%MOMM*%
%LPD*%
G01*
G04 APERTURE LIST*
%ADD10C,0.120000*%
%ADD11C,0.150000*%
G04 APERTURE END LIST*
D10*
%TO.C,J101*%
X171644000Y-131953000D02*
X171644000Y-130623000D01*
X171644000Y-130623000D02*
X172974000Y-130623000D01*
X174244000Y-130623000D02*
X187004000Y-130623000D01*
X187004000Y-133283000D02*
X187004000Y-130623000D01*
X174244000Y-133283000D02*
X187004000Y-133283000D01*
X174244000Y-133283000D02*
X174244000Y-130623000D01*
%TO.C,A101*%
X188217000Y-126877000D02*
X190757000Y-124337000D01*
X188217000Y-138307000D02*
X188217000Y-126877000D01*
X186567000Y-139957000D02*
X188217000Y-138307000D01*
X121917000Y-139957000D02*
X186567000Y-139957000D01*
X121917000Y-130427000D02*
X121917000Y-139957000D01*
X115567000Y-130427000D02*
X121917000Y-130427000D01*
X115567000Y-118747000D02*
X115567000Y-130427000D01*
X121917000Y-118747000D02*
X115567000Y-118747000D01*
X121917000Y-98677000D02*
X121917000Y-118747000D01*
X120017000Y-98677000D02*
X121917000Y-98677000D01*
X120017000Y-89537000D02*
X120017000Y-98677000D01*
X121917000Y-89537000D02*
X120017000Y-89537000D01*
X121917000Y-86357000D02*
X121917000Y-89537000D01*
X188217000Y-86357000D02*
X121917000Y-86357000D01*
X188217000Y-89027000D02*
X188217000Y-86357000D01*
X190757000Y-91567000D02*
X188217000Y-89027000D01*
X190757000Y-124337000D02*
X190757000Y-91567000D01*
%TO.C,J101*%
D11*
X169656380Y-133238714D02*
X170370666Y-133238714D01*
X170513523Y-133286333D01*
X170608761Y-133381571D01*
X170656380Y-133524428D01*
X170656380Y-133619666D01*
X170656380Y-132238714D02*
X170656380Y-132810142D01*
X170656380Y-132524428D02*
X169656380Y-132524428D01*
X169799238Y-132619666D01*
X169894476Y-132714904D01*
X169942095Y-132810142D01*
X169656380Y-131619666D02*
X169656380Y-131524428D01*
X169704000Y-131429190D01*
X169751619Y-131381571D01*
X169846857Y-131333952D01*
X170037333Y-131286333D01*
X170275428Y-131286333D01*
X170465904Y-131333952D01*
X170561142Y-131381571D01*
X170608761Y-131429190D01*
X170656380Y-131524428D01*
X170656380Y-131619666D01*
X170608761Y-131714904D01*
X170561142Y-131762523D01*
X170465904Y-131810142D01*
X170275428Y-131857761D01*
X170037333Y-131857761D01*
X169846857Y-131810142D01*
X169751619Y-131762523D01*
X169704000Y-131714904D01*
X169656380Y-131619666D01*
X170656380Y-130333952D02*
X170656380Y-130905380D01*
X170656380Y-130619666D02*
X169656380Y-130619666D01*
X169799238Y-130714904D01*
X169894476Y-130810142D01*
X169942095Y-130905380D01*
%TO.C,A101*%
X149590333Y-85383666D02*
X150066523Y-85383666D01*
X149495095Y-85669380D02*
X149828428Y-84669380D01*
X150161761Y-85669380D01*
X151018904Y-85669380D02*
X150447476Y-85669380D01*
X150733190Y-85669380D02*
X150733190Y-84669380D01*
X150637952Y-84812238D01*
X150542714Y-84907476D01*
X150447476Y-84955095D01*
X151637952Y-84669380D02*
X151733190Y-84669380D01*
X151828428Y-84717000D01*
X151876047Y-84764619D01*
X151923666Y-84859857D01*
X151971285Y-85050333D01*
X151971285Y-85288428D01*
X151923666Y-85478904D01*
X151876047Y-85574142D01*
X151828428Y-85621761D01*
X151733190Y-85669380D01*
X151637952Y-85669380D01*
X151542714Y-85621761D01*
X151495095Y-85574142D01*
X151447476Y-85478904D01*
X151399857Y-85288428D01*
X151399857Y-85050333D01*
X151447476Y-84859857D01*
X151495095Y-84764619D01*
X151542714Y-84717000D01*
X151637952Y-84669380D01*
X152923666Y-85669380D02*
X152352238Y-85669380D01*
X152637952Y-85669380D02*
X152637952Y-84669380D01*
X152542714Y-84812238D01*
X152447476Y-84907476D01*
X152352238Y-84955095D01*
%TD*%
M02*
