%TF.GenerationSoftware,KiCad,Pcbnew,(5.1.10)-1*%
%TF.CreationDate,2022-01-22T14:52:44+00:00*%
%TF.ProjectId,mike_pcb_arduino_sheild,6d696b65-5f70-4636-925f-61726475696e,rev?*%
%TF.SameCoordinates,Original*%
%TF.FileFunction,Copper,L1,Top*%
%TF.FilePolarity,Positive*%
%FSLAX46Y46*%
G04 Gerber Fmt 4.6, Leading zero omitted, Abs format (unit mm)*
G04 Created by KiCad (PCBNEW (5.1.10)-1) date 2022-01-22 14:52:44*
%MOMM*%
%LPD*%
G01*
G04 APERTURE LIST*
%TA.AperFunction,ComponentPad*%
%ADD10O,2.000000X2.000000*%
%TD*%
%TA.AperFunction,ComponentPad*%
%ADD11R,2.000000X2.000000*%
%TD*%
%TA.AperFunction,ComponentPad*%
%ADD12O,1.600000X1.600000*%
%TD*%
%TA.AperFunction,Conductor*%
%ADD13C,1.000000*%
%TD*%
%TA.AperFunction,Conductor*%
%ADD14C,0.200000*%
%TD*%
%TA.AperFunction,Conductor*%
%ADD15C,0.100000*%
%TD*%
G04 APERTURE END LIST*
D10*
%TO.P,J101,6*%
%TO.N,RX*%
X185674000Y-131953000D03*
%TO.P,J101,5*%
%TO.N,TX*%
X183134000Y-131953000D03*
%TO.P,J101,4*%
%TO.N,GND*%
X180594000Y-131953000D03*
%TO.P,J101,3*%
X178054000Y-131953000D03*
%TO.P,J101,2*%
%TO.N,+5V*%
X175514000Y-131953000D03*
D11*
%TO.P,J101,1*%
X172974000Y-131953000D03*
%TD*%
D10*
%TO.P,A101,16*%
%TO.N,TX*%
X183007000Y-137287000D03*
%TO.P,A101,15*%
%TO.N,RX*%
X185547000Y-137287000D03*
D12*
%TO.P,A101,30*%
%TO.N,Net-(A101-Pad30)*%
X145927000Y-137287000D03*
D10*
%TO.P,A101,14*%
%TO.N,Net-(A101-Pad14)*%
X185547000Y-89027000D03*
%TO.P,A101,29*%
%TO.N,GND*%
X148467000Y-137287000D03*
D12*
%TO.P,A101,13*%
%TO.N,Net-(A101-Pad13)*%
X183007000Y-89027000D03*
%TO.P,A101,28*%
%TO.N,Net-(A101-Pad28)*%
X151007000Y-137287000D03*
%TO.P,A101,12*%
%TO.N,Net-(A101-Pad12)*%
X180467000Y-89027000D03*
%TO.P,A101,27*%
%TO.N,Net-(A101-Pad27)*%
X153547000Y-137287000D03*
%TO.P,A101,11*%
%TO.N,Net-(A101-Pad11)*%
X177927000Y-89027000D03*
%TO.P,A101,26*%
%TO.N,Net-(A101-Pad26)*%
X156087000Y-137287000D03*
%TO.P,A101,10*%
%TO.N,Net-(A101-Pad10)*%
X175387000Y-89027000D03*
%TO.P,A101,25*%
%TO.N,Net-(A101-Pad25)*%
X158627000Y-137287000D03*
D10*
%TO.P,A101,9*%
%TO.N,Net-(A101-Pad9)*%
X172847000Y-89027000D03*
D12*
%TO.P,A101,24*%
%TO.N,Net-(A101-Pad24)*%
X161167000Y-137287000D03*
D10*
%TO.P,A101,8*%
%TO.N,Net-(A101-Pad8)*%
X167767000Y-89027000D03*
%TO.P,A101,23*%
%TO.N,Net-(A101-Pad23)*%
X163707000Y-137287000D03*
%TO.P,A101,7*%
%TO.N,GND*%
X165227000Y-89027000D03*
%TO.P,A101,22*%
%TO.N,Net-(A101-Pad22)*%
X167767000Y-137287000D03*
%TO.P,A101,6*%
%TO.N,GND*%
X162687000Y-89027000D03*
D12*
%TO.P,A101,21*%
%TO.N,Net-(A101-Pad21)*%
X170307000Y-137287000D03*
D10*
%TO.P,A101,5*%
%TO.N,+5V*%
X160147000Y-89027000D03*
D12*
%TO.P,A101,20*%
%TO.N,Net-(A101-Pad20)*%
X172847000Y-137287000D03*
%TO.P,A101,4*%
%TO.N,Net-(A101-Pad4)*%
X157607000Y-89027000D03*
%TO.P,A101,19*%
%TO.N,Net-(A101-Pad19)*%
X175387000Y-137287000D03*
%TO.P,A101,3*%
%TO.N,Net-(A101-Pad3)*%
X155067000Y-89027000D03*
%TO.P,A101,18*%
%TO.N,Net-(A101-Pad18)*%
X177927000Y-137287000D03*
%TO.P,A101,2*%
%TO.N,Net-(A101-Pad2)*%
X152527000Y-89027000D03*
%TO.P,A101,17*%
%TO.N,Net-(A101-Pad17)*%
X180467000Y-137287000D03*
D11*
%TO.P,A101,1*%
%TO.N,Net-(A101-Pad1)*%
X149987000Y-89027000D03*
D12*
%TO.P,A101,31*%
%TO.N,Net-(A101-Pad31)*%
X143387000Y-137287000D03*
D10*
%TO.P,A101,32*%
%TO.N,Net-(A101-Pad32)*%
X140847000Y-137287000D03*
%TD*%
D13*
%TO.N,TX*%
X183640000Y-132459000D02*
X183134000Y-131953000D01*
X183640000Y-136654000D02*
X183640000Y-132459000D01*
X183007000Y-137287000D02*
X183640000Y-136654000D01*
%TO.N,RX*%
X185190000Y-132437000D02*
X185674000Y-131953000D01*
X185190000Y-136930000D02*
X185190000Y-132437000D01*
X185547000Y-137287000D02*
X185190000Y-136930000D01*
%TO.N,GND*%
X148467000Y-137287000D02*
X148467000Y-135632000D01*
X148467000Y-135632000D02*
X149479000Y-134620000D01*
X149479000Y-134620000D02*
X176657000Y-134620000D01*
X178054000Y-133223000D02*
X178054000Y-131953000D01*
X176657000Y-134620000D02*
X178054000Y-133223000D01*
X178054000Y-131953000D02*
X180594000Y-131953000D01*
X178054000Y-131953000D02*
X178054000Y-104013000D01*
X165227000Y-91186000D02*
X165227000Y-89027000D01*
X178054000Y-104013000D02*
X165227000Y-91186000D01*
X162687000Y-89027000D02*
X165227000Y-89027000D01*
%TO.N,+5V*%
X175514000Y-131953000D02*
X172974000Y-131953000D01*
X175514000Y-104394000D02*
X175514000Y-131953000D01*
X160147000Y-89027000D02*
X175514000Y-104394000D01*
%TD*%
D14*
%TO.N,GND*%
X187639000Y-87060535D02*
X187639001Y-93106826D01*
X180080394Y-100665434D01*
X180058446Y-100683446D01*
X180011287Y-100740911D01*
X179986592Y-100771002D01*
X179933200Y-100870892D01*
X179933199Y-100870893D01*
X179900320Y-100979281D01*
X179892000Y-101063754D01*
X179889218Y-101092000D01*
X179892000Y-101120243D01*
X179892001Y-118970747D01*
X179889218Y-118999000D01*
X179900321Y-119111719D01*
X179933199Y-119220107D01*
X179986592Y-119319998D01*
X180032441Y-119375865D01*
X180058447Y-119407554D01*
X180080389Y-119425561D01*
X187446386Y-126791559D01*
X187446392Y-126791564D01*
X187766000Y-127111172D01*
X187766001Y-138191826D01*
X186578828Y-139379000D01*
X139005000Y-139379000D01*
X139005000Y-137134338D01*
X139297000Y-137134338D01*
X139297000Y-137439662D01*
X139356565Y-137739118D01*
X139473408Y-138021200D01*
X139643036Y-138275068D01*
X139858932Y-138490964D01*
X140112800Y-138660592D01*
X140394882Y-138777435D01*
X140694338Y-138837000D01*
X140999662Y-138837000D01*
X141299118Y-138777435D01*
X141581200Y-138660592D01*
X141835068Y-138490964D01*
X142050964Y-138275068D01*
X142220592Y-138021200D01*
X142233356Y-137990385D01*
X142338387Y-138147575D01*
X142526425Y-138335613D01*
X142747535Y-138483354D01*
X142993220Y-138585120D01*
X143254037Y-138637000D01*
X143519963Y-138637000D01*
X143780780Y-138585120D01*
X144026465Y-138483354D01*
X144247575Y-138335613D01*
X144435613Y-138147575D01*
X144583354Y-137926465D01*
X144657000Y-137748668D01*
X144730646Y-137926465D01*
X144878387Y-138147575D01*
X145066425Y-138335613D01*
X145287535Y-138483354D01*
X145533220Y-138585120D01*
X145794037Y-138637000D01*
X146059963Y-138637000D01*
X146320780Y-138585120D01*
X146566465Y-138483354D01*
X146787575Y-138335613D01*
X146975613Y-138147575D01*
X147123354Y-137926465D01*
X147225120Y-137680780D01*
X147277000Y-137419963D01*
X147277000Y-137154037D01*
X149657000Y-137154037D01*
X149657000Y-137419963D01*
X149708880Y-137680780D01*
X149810646Y-137926465D01*
X149958387Y-138147575D01*
X150146425Y-138335613D01*
X150367535Y-138483354D01*
X150613220Y-138585120D01*
X150874037Y-138637000D01*
X151139963Y-138637000D01*
X151400780Y-138585120D01*
X151646465Y-138483354D01*
X151867575Y-138335613D01*
X152055613Y-138147575D01*
X152203354Y-137926465D01*
X152277000Y-137748668D01*
X152350646Y-137926465D01*
X152498387Y-138147575D01*
X152686425Y-138335613D01*
X152907535Y-138483354D01*
X153153220Y-138585120D01*
X153414037Y-138637000D01*
X153679963Y-138637000D01*
X153940780Y-138585120D01*
X154186465Y-138483354D01*
X154407575Y-138335613D01*
X154595613Y-138147575D01*
X154743354Y-137926465D01*
X154817000Y-137748668D01*
X154890646Y-137926465D01*
X155038387Y-138147575D01*
X155226425Y-138335613D01*
X155447535Y-138483354D01*
X155693220Y-138585120D01*
X155954037Y-138637000D01*
X156219963Y-138637000D01*
X156480780Y-138585120D01*
X156726465Y-138483354D01*
X156947575Y-138335613D01*
X157135613Y-138147575D01*
X157283354Y-137926465D01*
X157357000Y-137748668D01*
X157430646Y-137926465D01*
X157578387Y-138147575D01*
X157766425Y-138335613D01*
X157987535Y-138483354D01*
X158233220Y-138585120D01*
X158494037Y-138637000D01*
X158759963Y-138637000D01*
X159020780Y-138585120D01*
X159266465Y-138483354D01*
X159487575Y-138335613D01*
X159675613Y-138147575D01*
X159823354Y-137926465D01*
X159897000Y-137748668D01*
X159970646Y-137926465D01*
X160118387Y-138147575D01*
X160306425Y-138335613D01*
X160527535Y-138483354D01*
X160773220Y-138585120D01*
X161034037Y-138637000D01*
X161299963Y-138637000D01*
X161560780Y-138585120D01*
X161806465Y-138483354D01*
X162027575Y-138335613D01*
X162215613Y-138147575D01*
X162320644Y-137990385D01*
X162333408Y-138021200D01*
X162503036Y-138275068D01*
X162718932Y-138490964D01*
X162972800Y-138660592D01*
X163254882Y-138777435D01*
X163554338Y-138837000D01*
X163859662Y-138837000D01*
X164159118Y-138777435D01*
X164441200Y-138660592D01*
X164695068Y-138490964D01*
X164910964Y-138275068D01*
X165080592Y-138021200D01*
X165197435Y-137739118D01*
X165257000Y-137439662D01*
X165257000Y-137134338D01*
X166217000Y-137134338D01*
X166217000Y-137439662D01*
X166276565Y-137739118D01*
X166393408Y-138021200D01*
X166563036Y-138275068D01*
X166778932Y-138490964D01*
X167032800Y-138660592D01*
X167314882Y-138777435D01*
X167614338Y-138837000D01*
X167919662Y-138837000D01*
X168219118Y-138777435D01*
X168501200Y-138660592D01*
X168755068Y-138490964D01*
X168970964Y-138275068D01*
X169140592Y-138021200D01*
X169153356Y-137990385D01*
X169258387Y-138147575D01*
X169446425Y-138335613D01*
X169667535Y-138483354D01*
X169913220Y-138585120D01*
X170174037Y-138637000D01*
X170439963Y-138637000D01*
X170700780Y-138585120D01*
X170946465Y-138483354D01*
X171167575Y-138335613D01*
X171355613Y-138147575D01*
X171503354Y-137926465D01*
X171577000Y-137748668D01*
X171650646Y-137926465D01*
X171798387Y-138147575D01*
X171986425Y-138335613D01*
X172207535Y-138483354D01*
X172453220Y-138585120D01*
X172714037Y-138637000D01*
X172979963Y-138637000D01*
X173240780Y-138585120D01*
X173486465Y-138483354D01*
X173707575Y-138335613D01*
X173895613Y-138147575D01*
X174043354Y-137926465D01*
X174117000Y-137748668D01*
X174190646Y-137926465D01*
X174338387Y-138147575D01*
X174526425Y-138335613D01*
X174747535Y-138483354D01*
X174993220Y-138585120D01*
X175254037Y-138637000D01*
X175519963Y-138637000D01*
X175780780Y-138585120D01*
X176026465Y-138483354D01*
X176247575Y-138335613D01*
X176435613Y-138147575D01*
X176583354Y-137926465D01*
X176657000Y-137748668D01*
X176730646Y-137926465D01*
X176878387Y-138147575D01*
X177066425Y-138335613D01*
X177287535Y-138483354D01*
X177533220Y-138585120D01*
X177794037Y-138637000D01*
X178059963Y-138637000D01*
X178320780Y-138585120D01*
X178566465Y-138483354D01*
X178787575Y-138335613D01*
X178975613Y-138147575D01*
X179123354Y-137926465D01*
X179197000Y-137748668D01*
X179270646Y-137926465D01*
X179418387Y-138147575D01*
X179606425Y-138335613D01*
X179827535Y-138483354D01*
X180073220Y-138585120D01*
X180334037Y-138637000D01*
X180599963Y-138637000D01*
X180860780Y-138585120D01*
X181106465Y-138483354D01*
X181327575Y-138335613D01*
X181515613Y-138147575D01*
X181620644Y-137990385D01*
X181633408Y-138021200D01*
X181803036Y-138275068D01*
X182018932Y-138490964D01*
X182272800Y-138660592D01*
X182554882Y-138777435D01*
X182854338Y-138837000D01*
X183159662Y-138837000D01*
X183459118Y-138777435D01*
X183741200Y-138660592D01*
X183995068Y-138490964D01*
X184210964Y-138275068D01*
X184277000Y-138176237D01*
X184343036Y-138275068D01*
X184558932Y-138490964D01*
X184812800Y-138660592D01*
X185094882Y-138777435D01*
X185394338Y-138837000D01*
X185699662Y-138837000D01*
X185999118Y-138777435D01*
X186281200Y-138660592D01*
X186535068Y-138490964D01*
X186750964Y-138275068D01*
X186920592Y-138021200D01*
X187037435Y-137739118D01*
X187097000Y-137439662D01*
X187097000Y-137134338D01*
X187037435Y-136834882D01*
X186920592Y-136552800D01*
X186750964Y-136298932D01*
X186535068Y-136083036D01*
X186281200Y-135913408D01*
X186240000Y-135896342D01*
X186240000Y-133396263D01*
X186408200Y-133326592D01*
X186662068Y-133156964D01*
X186877964Y-132941068D01*
X187047592Y-132687200D01*
X187164435Y-132405118D01*
X187224000Y-132105662D01*
X187224000Y-131800338D01*
X187164435Y-131500882D01*
X187047592Y-131218800D01*
X186877964Y-130964932D01*
X186662068Y-130749036D01*
X186408200Y-130579408D01*
X186126118Y-130462565D01*
X185826662Y-130403000D01*
X185521338Y-130403000D01*
X185221882Y-130462565D01*
X184939800Y-130579408D01*
X184685932Y-130749036D01*
X184470036Y-130964932D01*
X184404000Y-131063763D01*
X184337964Y-130964932D01*
X184122068Y-130749036D01*
X183868200Y-130579408D01*
X183586118Y-130462565D01*
X183286662Y-130403000D01*
X182981338Y-130403000D01*
X182681882Y-130462565D01*
X182399800Y-130579408D01*
X182145932Y-130749036D01*
X181930036Y-130964932D01*
X181760408Y-131218800D01*
X181643565Y-131500882D01*
X181584000Y-131800338D01*
X181584000Y-132105662D01*
X181643565Y-132405118D01*
X181760408Y-132687200D01*
X181930036Y-132941068D01*
X182145932Y-133156964D01*
X182399800Y-133326592D01*
X182590001Y-133405376D01*
X182590000Y-135789580D01*
X182554882Y-135796565D01*
X182272800Y-135913408D01*
X182018932Y-136083036D01*
X181803036Y-136298932D01*
X181633408Y-136552800D01*
X181620644Y-136583615D01*
X181515613Y-136426425D01*
X181327575Y-136238387D01*
X181106465Y-136090646D01*
X180860780Y-135988880D01*
X180599963Y-135937000D01*
X180334037Y-135937000D01*
X180073220Y-135988880D01*
X179827535Y-136090646D01*
X179606425Y-136238387D01*
X179418387Y-136426425D01*
X179270646Y-136647535D01*
X179197000Y-136825332D01*
X179123354Y-136647535D01*
X178975613Y-136426425D01*
X178787575Y-136238387D01*
X178566465Y-136090646D01*
X178320780Y-135988880D01*
X178059963Y-135937000D01*
X177794037Y-135937000D01*
X177533220Y-135988880D01*
X177287535Y-136090646D01*
X177066425Y-136238387D01*
X176878387Y-136426425D01*
X176730646Y-136647535D01*
X176657000Y-136825332D01*
X176583354Y-136647535D01*
X176435613Y-136426425D01*
X176247575Y-136238387D01*
X176026465Y-136090646D01*
X175780780Y-135988880D01*
X175519963Y-135937000D01*
X175254037Y-135937000D01*
X174993220Y-135988880D01*
X174747535Y-136090646D01*
X174526425Y-136238387D01*
X174338387Y-136426425D01*
X174190646Y-136647535D01*
X174117000Y-136825332D01*
X174043354Y-136647535D01*
X173895613Y-136426425D01*
X173707575Y-136238387D01*
X173486465Y-136090646D01*
X173240780Y-135988880D01*
X172979963Y-135937000D01*
X172714037Y-135937000D01*
X172453220Y-135988880D01*
X172207535Y-136090646D01*
X171986425Y-136238387D01*
X171798387Y-136426425D01*
X171650646Y-136647535D01*
X171577000Y-136825332D01*
X171503354Y-136647535D01*
X171355613Y-136426425D01*
X171167575Y-136238387D01*
X170946465Y-136090646D01*
X170700780Y-135988880D01*
X170439963Y-135937000D01*
X170174037Y-135937000D01*
X169913220Y-135988880D01*
X169667535Y-136090646D01*
X169446425Y-136238387D01*
X169258387Y-136426425D01*
X169153356Y-136583615D01*
X169140592Y-136552800D01*
X168970964Y-136298932D01*
X168755068Y-136083036D01*
X168501200Y-135913408D01*
X168219118Y-135796565D01*
X167919662Y-135737000D01*
X167614338Y-135737000D01*
X167314882Y-135796565D01*
X167032800Y-135913408D01*
X166778932Y-136083036D01*
X166563036Y-136298932D01*
X166393408Y-136552800D01*
X166276565Y-136834882D01*
X166217000Y-137134338D01*
X165257000Y-137134338D01*
X165197435Y-136834882D01*
X165080592Y-136552800D01*
X164910964Y-136298932D01*
X164695068Y-136083036D01*
X164441200Y-135913408D01*
X164159118Y-135796565D01*
X163859662Y-135737000D01*
X163554338Y-135737000D01*
X163254882Y-135796565D01*
X162972800Y-135913408D01*
X162718932Y-136083036D01*
X162503036Y-136298932D01*
X162333408Y-136552800D01*
X162320644Y-136583615D01*
X162215613Y-136426425D01*
X162027575Y-136238387D01*
X161806465Y-136090646D01*
X161560780Y-135988880D01*
X161299963Y-135937000D01*
X161034037Y-135937000D01*
X160773220Y-135988880D01*
X160527535Y-136090646D01*
X160306425Y-136238387D01*
X160118387Y-136426425D01*
X159970646Y-136647535D01*
X159897000Y-136825332D01*
X159823354Y-136647535D01*
X159675613Y-136426425D01*
X159487575Y-136238387D01*
X159266465Y-136090646D01*
X159020780Y-135988880D01*
X158759963Y-135937000D01*
X158494037Y-135937000D01*
X158233220Y-135988880D01*
X157987535Y-136090646D01*
X157766425Y-136238387D01*
X157578387Y-136426425D01*
X157430646Y-136647535D01*
X157357000Y-136825332D01*
X157283354Y-136647535D01*
X157135613Y-136426425D01*
X156947575Y-136238387D01*
X156726465Y-136090646D01*
X156480780Y-135988880D01*
X156219963Y-135937000D01*
X155954037Y-135937000D01*
X155693220Y-135988880D01*
X155447535Y-136090646D01*
X155226425Y-136238387D01*
X155038387Y-136426425D01*
X154890646Y-136647535D01*
X154817000Y-136825332D01*
X154743354Y-136647535D01*
X154595613Y-136426425D01*
X154407575Y-136238387D01*
X154186465Y-136090646D01*
X153940780Y-135988880D01*
X153679963Y-135937000D01*
X153414037Y-135937000D01*
X153153220Y-135988880D01*
X152907535Y-136090646D01*
X152686425Y-136238387D01*
X152498387Y-136426425D01*
X152350646Y-136647535D01*
X152277000Y-136825332D01*
X152203354Y-136647535D01*
X152055613Y-136426425D01*
X151867575Y-136238387D01*
X151646465Y-136090646D01*
X151400780Y-135988880D01*
X151139963Y-135937000D01*
X150874037Y-135937000D01*
X150613220Y-135988880D01*
X150367535Y-136090646D01*
X150146425Y-136238387D01*
X149958387Y-136426425D01*
X149810646Y-136647535D01*
X149708880Y-136893220D01*
X149657000Y-137154037D01*
X147277000Y-137154037D01*
X147225120Y-136893220D01*
X147123354Y-136647535D01*
X146975613Y-136426425D01*
X146787575Y-136238387D01*
X146566465Y-136090646D01*
X146320780Y-135988880D01*
X146059963Y-135937000D01*
X145794037Y-135937000D01*
X145533220Y-135988880D01*
X145287535Y-136090646D01*
X145066425Y-136238387D01*
X144878387Y-136426425D01*
X144730646Y-136647535D01*
X144657000Y-136825332D01*
X144583354Y-136647535D01*
X144435613Y-136426425D01*
X144247575Y-136238387D01*
X144026465Y-136090646D01*
X143780780Y-135988880D01*
X143519963Y-135937000D01*
X143254037Y-135937000D01*
X142993220Y-135988880D01*
X142747535Y-136090646D01*
X142526425Y-136238387D01*
X142338387Y-136426425D01*
X142233356Y-136583615D01*
X142220592Y-136552800D01*
X142050964Y-136298932D01*
X141835068Y-136083036D01*
X141581200Y-135913408D01*
X141299118Y-135796565D01*
X140999662Y-135737000D01*
X140694338Y-135737000D01*
X140394882Y-135796565D01*
X140112800Y-135913408D01*
X139858932Y-136083036D01*
X139643036Y-136298932D01*
X139473408Y-136552800D01*
X139356565Y-136834882D01*
X139297000Y-137134338D01*
X139005000Y-137134338D01*
X139005000Y-88027000D01*
X148434339Y-88027000D01*
X148434339Y-90027000D01*
X148444958Y-90134819D01*
X148476408Y-90238494D01*
X148527479Y-90334042D01*
X148596210Y-90417790D01*
X148679958Y-90486521D01*
X148775506Y-90537592D01*
X148879181Y-90569042D01*
X148987000Y-90579661D01*
X150987000Y-90579661D01*
X151094819Y-90569042D01*
X151198494Y-90537592D01*
X151294042Y-90486521D01*
X151377790Y-90417790D01*
X151446521Y-90334042D01*
X151497592Y-90238494D01*
X151529042Y-90134819D01*
X151539661Y-90027000D01*
X151539661Y-89948849D01*
X151666425Y-90075613D01*
X151887535Y-90223354D01*
X152133220Y-90325120D01*
X152394037Y-90377000D01*
X152659963Y-90377000D01*
X152920780Y-90325120D01*
X153166465Y-90223354D01*
X153387575Y-90075613D01*
X153575613Y-89887575D01*
X153723354Y-89666465D01*
X153797000Y-89488668D01*
X153870646Y-89666465D01*
X154018387Y-89887575D01*
X154206425Y-90075613D01*
X154427535Y-90223354D01*
X154673220Y-90325120D01*
X154934037Y-90377000D01*
X155199963Y-90377000D01*
X155460780Y-90325120D01*
X155706465Y-90223354D01*
X155927575Y-90075613D01*
X156115613Y-89887575D01*
X156263354Y-89666465D01*
X156337000Y-89488668D01*
X156410646Y-89666465D01*
X156558387Y-89887575D01*
X156746425Y-90075613D01*
X156967535Y-90223354D01*
X157213220Y-90325120D01*
X157474037Y-90377000D01*
X157739963Y-90377000D01*
X158000780Y-90325120D01*
X158246465Y-90223354D01*
X158467575Y-90075613D01*
X158655613Y-89887575D01*
X158760644Y-89730385D01*
X158773408Y-89761200D01*
X158943036Y-90015068D01*
X159158932Y-90230964D01*
X159412800Y-90400592D01*
X159694882Y-90517435D01*
X159994338Y-90577000D01*
X160212077Y-90577000D01*
X174464000Y-104828924D01*
X174464001Y-130702983D01*
X174433521Y-130645958D01*
X174364790Y-130562210D01*
X174281042Y-130493479D01*
X174185494Y-130442408D01*
X174081819Y-130410958D01*
X173974000Y-130400339D01*
X171974000Y-130400339D01*
X171866181Y-130410958D01*
X171762506Y-130442408D01*
X171666958Y-130493479D01*
X171583210Y-130562210D01*
X171514479Y-130645958D01*
X171463408Y-130741506D01*
X171431958Y-130845181D01*
X171421339Y-130953000D01*
X171421339Y-132953000D01*
X171431958Y-133060819D01*
X171463408Y-133164494D01*
X171514479Y-133260042D01*
X171583210Y-133343790D01*
X171666958Y-133412521D01*
X171762506Y-133463592D01*
X171866181Y-133495042D01*
X171974000Y-133505661D01*
X173974000Y-133505661D01*
X174081819Y-133495042D01*
X174185494Y-133463592D01*
X174281042Y-133412521D01*
X174364790Y-133343790D01*
X174433521Y-133260042D01*
X174484592Y-133164494D01*
X174495966Y-133126998D01*
X174525932Y-133156964D01*
X174779800Y-133326592D01*
X175061882Y-133443435D01*
X175361338Y-133503000D01*
X175666662Y-133503000D01*
X175966118Y-133443435D01*
X176248200Y-133326592D01*
X176502068Y-133156964D01*
X176717964Y-132941068D01*
X176887592Y-132687200D01*
X177004435Y-132405118D01*
X177064000Y-132105662D01*
X177064000Y-131800338D01*
X177004435Y-131500882D01*
X176887592Y-131218800D01*
X176717964Y-130964932D01*
X176564000Y-130810968D01*
X176564000Y-104445571D01*
X176569079Y-104394000D01*
X176564000Y-104342429D01*
X176564000Y-104342422D01*
X176548807Y-104188164D01*
X176488767Y-103990238D01*
X176391267Y-103807829D01*
X176260054Y-103647946D01*
X176219991Y-103615067D01*
X161697000Y-89092077D01*
X161697000Y-88874338D01*
X166217000Y-88874338D01*
X166217000Y-89179662D01*
X166276565Y-89479118D01*
X166393408Y-89761200D01*
X166563036Y-90015068D01*
X166778932Y-90230964D01*
X167032800Y-90400592D01*
X167314882Y-90517435D01*
X167614338Y-90577000D01*
X167919662Y-90577000D01*
X168219118Y-90517435D01*
X168501200Y-90400592D01*
X168755068Y-90230964D01*
X168970964Y-90015068D01*
X169140592Y-89761200D01*
X169257435Y-89479118D01*
X169317000Y-89179662D01*
X169317000Y-88874338D01*
X171297000Y-88874338D01*
X171297000Y-89179662D01*
X171356565Y-89479118D01*
X171473408Y-89761200D01*
X171643036Y-90015068D01*
X171858932Y-90230964D01*
X172112800Y-90400592D01*
X172394882Y-90517435D01*
X172694338Y-90577000D01*
X172999662Y-90577000D01*
X173299118Y-90517435D01*
X173581200Y-90400592D01*
X173835068Y-90230964D01*
X174050964Y-90015068D01*
X174220592Y-89761200D01*
X174233356Y-89730385D01*
X174338387Y-89887575D01*
X174526425Y-90075613D01*
X174747535Y-90223354D01*
X174993220Y-90325120D01*
X175254037Y-90377000D01*
X175519963Y-90377000D01*
X175780780Y-90325120D01*
X176026465Y-90223354D01*
X176247575Y-90075613D01*
X176435613Y-89887575D01*
X176583354Y-89666465D01*
X176657000Y-89488668D01*
X176730646Y-89666465D01*
X176878387Y-89887575D01*
X177066425Y-90075613D01*
X177287535Y-90223354D01*
X177533220Y-90325120D01*
X177794037Y-90377000D01*
X178059963Y-90377000D01*
X178320780Y-90325120D01*
X178566465Y-90223354D01*
X178787575Y-90075613D01*
X178975613Y-89887575D01*
X179123354Y-89666465D01*
X179197000Y-89488668D01*
X179270646Y-89666465D01*
X179418387Y-89887575D01*
X179606425Y-90075613D01*
X179827535Y-90223354D01*
X180073220Y-90325120D01*
X180334037Y-90377000D01*
X180599963Y-90377000D01*
X180860780Y-90325120D01*
X181106465Y-90223354D01*
X181327575Y-90075613D01*
X181515613Y-89887575D01*
X181663354Y-89666465D01*
X181737000Y-89488668D01*
X181810646Y-89666465D01*
X181958387Y-89887575D01*
X182146425Y-90075613D01*
X182367535Y-90223354D01*
X182613220Y-90325120D01*
X182874037Y-90377000D01*
X183139963Y-90377000D01*
X183400780Y-90325120D01*
X183646465Y-90223354D01*
X183867575Y-90075613D01*
X184055613Y-89887575D01*
X184160644Y-89730385D01*
X184173408Y-89761200D01*
X184343036Y-90015068D01*
X184558932Y-90230964D01*
X184812800Y-90400592D01*
X185094882Y-90517435D01*
X185394338Y-90577000D01*
X185699662Y-90577000D01*
X185999118Y-90517435D01*
X186281200Y-90400592D01*
X186535068Y-90230964D01*
X186750964Y-90015068D01*
X186920592Y-89761200D01*
X187037435Y-89479118D01*
X187097000Y-89179662D01*
X187097000Y-88874338D01*
X187037435Y-88574882D01*
X186920592Y-88292800D01*
X186750964Y-88038932D01*
X186535068Y-87823036D01*
X186281200Y-87653408D01*
X185999118Y-87536565D01*
X185699662Y-87477000D01*
X185394338Y-87477000D01*
X185094882Y-87536565D01*
X184812800Y-87653408D01*
X184558932Y-87823036D01*
X184343036Y-88038932D01*
X184173408Y-88292800D01*
X184160644Y-88323615D01*
X184055613Y-88166425D01*
X183867575Y-87978387D01*
X183646465Y-87830646D01*
X183400780Y-87728880D01*
X183139963Y-87677000D01*
X182874037Y-87677000D01*
X182613220Y-87728880D01*
X182367535Y-87830646D01*
X182146425Y-87978387D01*
X181958387Y-88166425D01*
X181810646Y-88387535D01*
X181737000Y-88565332D01*
X181663354Y-88387535D01*
X181515613Y-88166425D01*
X181327575Y-87978387D01*
X181106465Y-87830646D01*
X180860780Y-87728880D01*
X180599963Y-87677000D01*
X180334037Y-87677000D01*
X180073220Y-87728880D01*
X179827535Y-87830646D01*
X179606425Y-87978387D01*
X179418387Y-88166425D01*
X179270646Y-88387535D01*
X179197000Y-88565332D01*
X179123354Y-88387535D01*
X178975613Y-88166425D01*
X178787575Y-87978387D01*
X178566465Y-87830646D01*
X178320780Y-87728880D01*
X178059963Y-87677000D01*
X177794037Y-87677000D01*
X177533220Y-87728880D01*
X177287535Y-87830646D01*
X177066425Y-87978387D01*
X176878387Y-88166425D01*
X176730646Y-88387535D01*
X176657000Y-88565332D01*
X176583354Y-88387535D01*
X176435613Y-88166425D01*
X176247575Y-87978387D01*
X176026465Y-87830646D01*
X175780780Y-87728880D01*
X175519963Y-87677000D01*
X175254037Y-87677000D01*
X174993220Y-87728880D01*
X174747535Y-87830646D01*
X174526425Y-87978387D01*
X174338387Y-88166425D01*
X174233356Y-88323615D01*
X174220592Y-88292800D01*
X174050964Y-88038932D01*
X173835068Y-87823036D01*
X173581200Y-87653408D01*
X173299118Y-87536565D01*
X172999662Y-87477000D01*
X172694338Y-87477000D01*
X172394882Y-87536565D01*
X172112800Y-87653408D01*
X171858932Y-87823036D01*
X171643036Y-88038932D01*
X171473408Y-88292800D01*
X171356565Y-88574882D01*
X171297000Y-88874338D01*
X169317000Y-88874338D01*
X169257435Y-88574882D01*
X169140592Y-88292800D01*
X168970964Y-88038932D01*
X168755068Y-87823036D01*
X168501200Y-87653408D01*
X168219118Y-87536565D01*
X167919662Y-87477000D01*
X167614338Y-87477000D01*
X167314882Y-87536565D01*
X167032800Y-87653408D01*
X166778932Y-87823036D01*
X166563036Y-88038932D01*
X166393408Y-88292800D01*
X166276565Y-88574882D01*
X166217000Y-88874338D01*
X161697000Y-88874338D01*
X161637435Y-88574882D01*
X161520592Y-88292800D01*
X161350964Y-88038932D01*
X161135068Y-87823036D01*
X160881200Y-87653408D01*
X160599118Y-87536565D01*
X160299662Y-87477000D01*
X159994338Y-87477000D01*
X159694882Y-87536565D01*
X159412800Y-87653408D01*
X159158932Y-87823036D01*
X158943036Y-88038932D01*
X158773408Y-88292800D01*
X158760644Y-88323615D01*
X158655613Y-88166425D01*
X158467575Y-87978387D01*
X158246465Y-87830646D01*
X158000780Y-87728880D01*
X157739963Y-87677000D01*
X157474037Y-87677000D01*
X157213220Y-87728880D01*
X156967535Y-87830646D01*
X156746425Y-87978387D01*
X156558387Y-88166425D01*
X156410646Y-88387535D01*
X156337000Y-88565332D01*
X156263354Y-88387535D01*
X156115613Y-88166425D01*
X155927575Y-87978387D01*
X155706465Y-87830646D01*
X155460780Y-87728880D01*
X155199963Y-87677000D01*
X154934037Y-87677000D01*
X154673220Y-87728880D01*
X154427535Y-87830646D01*
X154206425Y-87978387D01*
X154018387Y-88166425D01*
X153870646Y-88387535D01*
X153797000Y-88565332D01*
X153723354Y-88387535D01*
X153575613Y-88166425D01*
X153387575Y-87978387D01*
X153166465Y-87830646D01*
X152920780Y-87728880D01*
X152659963Y-87677000D01*
X152394037Y-87677000D01*
X152133220Y-87728880D01*
X151887535Y-87830646D01*
X151666425Y-87978387D01*
X151539661Y-88105151D01*
X151539661Y-88027000D01*
X151529042Y-87919181D01*
X151497592Y-87815506D01*
X151446521Y-87719958D01*
X151377790Y-87636210D01*
X151294042Y-87567479D01*
X151198494Y-87516408D01*
X151094819Y-87484958D01*
X150987000Y-87474339D01*
X148987000Y-87474339D01*
X148879181Y-87484958D01*
X148775506Y-87516408D01*
X148679958Y-87567479D01*
X148596210Y-87636210D01*
X148527479Y-87719958D01*
X148476408Y-87815506D01*
X148444958Y-87919181D01*
X148434339Y-88027000D01*
X139005000Y-88027000D01*
X139005000Y-86936469D01*
X187639000Y-87060535D01*
%TA.AperFunction,Conductor*%
D15*
G36*
X187639000Y-87060535D02*
G01*
X187639001Y-93106826D01*
X180080394Y-100665434D01*
X180058446Y-100683446D01*
X180011287Y-100740911D01*
X179986592Y-100771002D01*
X179933200Y-100870892D01*
X179933199Y-100870893D01*
X179900320Y-100979281D01*
X179892000Y-101063754D01*
X179889218Y-101092000D01*
X179892000Y-101120243D01*
X179892001Y-118970747D01*
X179889218Y-118999000D01*
X179900321Y-119111719D01*
X179933199Y-119220107D01*
X179986592Y-119319998D01*
X180032441Y-119375865D01*
X180058447Y-119407554D01*
X180080389Y-119425561D01*
X187446386Y-126791559D01*
X187446392Y-126791564D01*
X187766000Y-127111172D01*
X187766001Y-138191826D01*
X186578828Y-139379000D01*
X139005000Y-139379000D01*
X139005000Y-137134338D01*
X139297000Y-137134338D01*
X139297000Y-137439662D01*
X139356565Y-137739118D01*
X139473408Y-138021200D01*
X139643036Y-138275068D01*
X139858932Y-138490964D01*
X140112800Y-138660592D01*
X140394882Y-138777435D01*
X140694338Y-138837000D01*
X140999662Y-138837000D01*
X141299118Y-138777435D01*
X141581200Y-138660592D01*
X141835068Y-138490964D01*
X142050964Y-138275068D01*
X142220592Y-138021200D01*
X142233356Y-137990385D01*
X142338387Y-138147575D01*
X142526425Y-138335613D01*
X142747535Y-138483354D01*
X142993220Y-138585120D01*
X143254037Y-138637000D01*
X143519963Y-138637000D01*
X143780780Y-138585120D01*
X144026465Y-138483354D01*
X144247575Y-138335613D01*
X144435613Y-138147575D01*
X144583354Y-137926465D01*
X144657000Y-137748668D01*
X144730646Y-137926465D01*
X144878387Y-138147575D01*
X145066425Y-138335613D01*
X145287535Y-138483354D01*
X145533220Y-138585120D01*
X145794037Y-138637000D01*
X146059963Y-138637000D01*
X146320780Y-138585120D01*
X146566465Y-138483354D01*
X146787575Y-138335613D01*
X146975613Y-138147575D01*
X147123354Y-137926465D01*
X147225120Y-137680780D01*
X147277000Y-137419963D01*
X147277000Y-137154037D01*
X149657000Y-137154037D01*
X149657000Y-137419963D01*
X149708880Y-137680780D01*
X149810646Y-137926465D01*
X149958387Y-138147575D01*
X150146425Y-138335613D01*
X150367535Y-138483354D01*
X150613220Y-138585120D01*
X150874037Y-138637000D01*
X151139963Y-138637000D01*
X151400780Y-138585120D01*
X151646465Y-138483354D01*
X151867575Y-138335613D01*
X152055613Y-138147575D01*
X152203354Y-137926465D01*
X152277000Y-137748668D01*
X152350646Y-137926465D01*
X152498387Y-138147575D01*
X152686425Y-138335613D01*
X152907535Y-138483354D01*
X153153220Y-138585120D01*
X153414037Y-138637000D01*
X153679963Y-138637000D01*
X153940780Y-138585120D01*
X154186465Y-138483354D01*
X154407575Y-138335613D01*
X154595613Y-138147575D01*
X154743354Y-137926465D01*
X154817000Y-137748668D01*
X154890646Y-137926465D01*
X155038387Y-138147575D01*
X155226425Y-138335613D01*
X155447535Y-138483354D01*
X155693220Y-138585120D01*
X155954037Y-138637000D01*
X156219963Y-138637000D01*
X156480780Y-138585120D01*
X156726465Y-138483354D01*
X156947575Y-138335613D01*
X157135613Y-138147575D01*
X157283354Y-137926465D01*
X157357000Y-137748668D01*
X157430646Y-137926465D01*
X157578387Y-138147575D01*
X157766425Y-138335613D01*
X157987535Y-138483354D01*
X158233220Y-138585120D01*
X158494037Y-138637000D01*
X158759963Y-138637000D01*
X159020780Y-138585120D01*
X159266465Y-138483354D01*
X159487575Y-138335613D01*
X159675613Y-138147575D01*
X159823354Y-137926465D01*
X159897000Y-137748668D01*
X159970646Y-137926465D01*
X160118387Y-138147575D01*
X160306425Y-138335613D01*
X160527535Y-138483354D01*
X160773220Y-138585120D01*
X161034037Y-138637000D01*
X161299963Y-138637000D01*
X161560780Y-138585120D01*
X161806465Y-138483354D01*
X162027575Y-138335613D01*
X162215613Y-138147575D01*
X162320644Y-137990385D01*
X162333408Y-138021200D01*
X162503036Y-138275068D01*
X162718932Y-138490964D01*
X162972800Y-138660592D01*
X163254882Y-138777435D01*
X163554338Y-138837000D01*
X163859662Y-138837000D01*
X164159118Y-138777435D01*
X164441200Y-138660592D01*
X164695068Y-138490964D01*
X164910964Y-138275068D01*
X165080592Y-138021200D01*
X165197435Y-137739118D01*
X165257000Y-137439662D01*
X165257000Y-137134338D01*
X166217000Y-137134338D01*
X166217000Y-137439662D01*
X166276565Y-137739118D01*
X166393408Y-138021200D01*
X166563036Y-138275068D01*
X166778932Y-138490964D01*
X167032800Y-138660592D01*
X167314882Y-138777435D01*
X167614338Y-138837000D01*
X167919662Y-138837000D01*
X168219118Y-138777435D01*
X168501200Y-138660592D01*
X168755068Y-138490964D01*
X168970964Y-138275068D01*
X169140592Y-138021200D01*
X169153356Y-137990385D01*
X169258387Y-138147575D01*
X169446425Y-138335613D01*
X169667535Y-138483354D01*
X169913220Y-138585120D01*
X170174037Y-138637000D01*
X170439963Y-138637000D01*
X170700780Y-138585120D01*
X170946465Y-138483354D01*
X171167575Y-138335613D01*
X171355613Y-138147575D01*
X171503354Y-137926465D01*
X171577000Y-137748668D01*
X171650646Y-137926465D01*
X171798387Y-138147575D01*
X171986425Y-138335613D01*
X172207535Y-138483354D01*
X172453220Y-138585120D01*
X172714037Y-138637000D01*
X172979963Y-138637000D01*
X173240780Y-138585120D01*
X173486465Y-138483354D01*
X173707575Y-138335613D01*
X173895613Y-138147575D01*
X174043354Y-137926465D01*
X174117000Y-137748668D01*
X174190646Y-137926465D01*
X174338387Y-138147575D01*
X174526425Y-138335613D01*
X174747535Y-138483354D01*
X174993220Y-138585120D01*
X175254037Y-138637000D01*
X175519963Y-138637000D01*
X175780780Y-138585120D01*
X176026465Y-138483354D01*
X176247575Y-138335613D01*
X176435613Y-138147575D01*
X176583354Y-137926465D01*
X176657000Y-137748668D01*
X176730646Y-137926465D01*
X176878387Y-138147575D01*
X177066425Y-138335613D01*
X177287535Y-138483354D01*
X177533220Y-138585120D01*
X177794037Y-138637000D01*
X178059963Y-138637000D01*
X178320780Y-138585120D01*
X178566465Y-138483354D01*
X178787575Y-138335613D01*
X178975613Y-138147575D01*
X179123354Y-137926465D01*
X179197000Y-137748668D01*
X179270646Y-137926465D01*
X179418387Y-138147575D01*
X179606425Y-138335613D01*
X179827535Y-138483354D01*
X180073220Y-138585120D01*
X180334037Y-138637000D01*
X180599963Y-138637000D01*
X180860780Y-138585120D01*
X181106465Y-138483354D01*
X181327575Y-138335613D01*
X181515613Y-138147575D01*
X181620644Y-137990385D01*
X181633408Y-138021200D01*
X181803036Y-138275068D01*
X182018932Y-138490964D01*
X182272800Y-138660592D01*
X182554882Y-138777435D01*
X182854338Y-138837000D01*
X183159662Y-138837000D01*
X183459118Y-138777435D01*
X183741200Y-138660592D01*
X183995068Y-138490964D01*
X184210964Y-138275068D01*
X184277000Y-138176237D01*
X184343036Y-138275068D01*
X184558932Y-138490964D01*
X184812800Y-138660592D01*
X185094882Y-138777435D01*
X185394338Y-138837000D01*
X185699662Y-138837000D01*
X185999118Y-138777435D01*
X186281200Y-138660592D01*
X186535068Y-138490964D01*
X186750964Y-138275068D01*
X186920592Y-138021200D01*
X187037435Y-137739118D01*
X187097000Y-137439662D01*
X187097000Y-137134338D01*
X187037435Y-136834882D01*
X186920592Y-136552800D01*
X186750964Y-136298932D01*
X186535068Y-136083036D01*
X186281200Y-135913408D01*
X186240000Y-135896342D01*
X186240000Y-133396263D01*
X186408200Y-133326592D01*
X186662068Y-133156964D01*
X186877964Y-132941068D01*
X187047592Y-132687200D01*
X187164435Y-132405118D01*
X187224000Y-132105662D01*
X187224000Y-131800338D01*
X187164435Y-131500882D01*
X187047592Y-131218800D01*
X186877964Y-130964932D01*
X186662068Y-130749036D01*
X186408200Y-130579408D01*
X186126118Y-130462565D01*
X185826662Y-130403000D01*
X185521338Y-130403000D01*
X185221882Y-130462565D01*
X184939800Y-130579408D01*
X184685932Y-130749036D01*
X184470036Y-130964932D01*
X184404000Y-131063763D01*
X184337964Y-130964932D01*
X184122068Y-130749036D01*
X183868200Y-130579408D01*
X183586118Y-130462565D01*
X183286662Y-130403000D01*
X182981338Y-130403000D01*
X182681882Y-130462565D01*
X182399800Y-130579408D01*
X182145932Y-130749036D01*
X181930036Y-130964932D01*
X181760408Y-131218800D01*
X181643565Y-131500882D01*
X181584000Y-131800338D01*
X181584000Y-132105662D01*
X181643565Y-132405118D01*
X181760408Y-132687200D01*
X181930036Y-132941068D01*
X182145932Y-133156964D01*
X182399800Y-133326592D01*
X182590001Y-133405376D01*
X182590000Y-135789580D01*
X182554882Y-135796565D01*
X182272800Y-135913408D01*
X182018932Y-136083036D01*
X181803036Y-136298932D01*
X181633408Y-136552800D01*
X181620644Y-136583615D01*
X181515613Y-136426425D01*
X181327575Y-136238387D01*
X181106465Y-136090646D01*
X180860780Y-135988880D01*
X180599963Y-135937000D01*
X180334037Y-135937000D01*
X180073220Y-135988880D01*
X179827535Y-136090646D01*
X179606425Y-136238387D01*
X179418387Y-136426425D01*
X179270646Y-136647535D01*
X179197000Y-136825332D01*
X179123354Y-136647535D01*
X178975613Y-136426425D01*
X178787575Y-136238387D01*
X178566465Y-136090646D01*
X178320780Y-135988880D01*
X178059963Y-135937000D01*
X177794037Y-135937000D01*
X177533220Y-135988880D01*
X177287535Y-136090646D01*
X177066425Y-136238387D01*
X176878387Y-136426425D01*
X176730646Y-136647535D01*
X176657000Y-136825332D01*
X176583354Y-136647535D01*
X176435613Y-136426425D01*
X176247575Y-136238387D01*
X176026465Y-136090646D01*
X175780780Y-135988880D01*
X175519963Y-135937000D01*
X175254037Y-135937000D01*
X174993220Y-135988880D01*
X174747535Y-136090646D01*
X174526425Y-136238387D01*
X174338387Y-136426425D01*
X174190646Y-136647535D01*
X174117000Y-136825332D01*
X174043354Y-136647535D01*
X173895613Y-136426425D01*
X173707575Y-136238387D01*
X173486465Y-136090646D01*
X173240780Y-135988880D01*
X172979963Y-135937000D01*
X172714037Y-135937000D01*
X172453220Y-135988880D01*
X172207535Y-136090646D01*
X171986425Y-136238387D01*
X171798387Y-136426425D01*
X171650646Y-136647535D01*
X171577000Y-136825332D01*
X171503354Y-136647535D01*
X171355613Y-136426425D01*
X171167575Y-136238387D01*
X170946465Y-136090646D01*
X170700780Y-135988880D01*
X170439963Y-135937000D01*
X170174037Y-135937000D01*
X169913220Y-135988880D01*
X169667535Y-136090646D01*
X169446425Y-136238387D01*
X169258387Y-136426425D01*
X169153356Y-136583615D01*
X169140592Y-136552800D01*
X168970964Y-136298932D01*
X168755068Y-136083036D01*
X168501200Y-135913408D01*
X168219118Y-135796565D01*
X167919662Y-135737000D01*
X167614338Y-135737000D01*
X167314882Y-135796565D01*
X167032800Y-135913408D01*
X166778932Y-136083036D01*
X166563036Y-136298932D01*
X166393408Y-136552800D01*
X166276565Y-136834882D01*
X166217000Y-137134338D01*
X165257000Y-137134338D01*
X165197435Y-136834882D01*
X165080592Y-136552800D01*
X164910964Y-136298932D01*
X164695068Y-136083036D01*
X164441200Y-135913408D01*
X164159118Y-135796565D01*
X163859662Y-135737000D01*
X163554338Y-135737000D01*
X163254882Y-135796565D01*
X162972800Y-135913408D01*
X162718932Y-136083036D01*
X162503036Y-136298932D01*
X162333408Y-136552800D01*
X162320644Y-136583615D01*
X162215613Y-136426425D01*
X162027575Y-136238387D01*
X161806465Y-136090646D01*
X161560780Y-135988880D01*
X161299963Y-135937000D01*
X161034037Y-135937000D01*
X160773220Y-135988880D01*
X160527535Y-136090646D01*
X160306425Y-136238387D01*
X160118387Y-136426425D01*
X159970646Y-136647535D01*
X159897000Y-136825332D01*
X159823354Y-136647535D01*
X159675613Y-136426425D01*
X159487575Y-136238387D01*
X159266465Y-136090646D01*
X159020780Y-135988880D01*
X158759963Y-135937000D01*
X158494037Y-135937000D01*
X158233220Y-135988880D01*
X157987535Y-136090646D01*
X157766425Y-136238387D01*
X157578387Y-136426425D01*
X157430646Y-136647535D01*
X157357000Y-136825332D01*
X157283354Y-136647535D01*
X157135613Y-136426425D01*
X156947575Y-136238387D01*
X156726465Y-136090646D01*
X156480780Y-135988880D01*
X156219963Y-135937000D01*
X155954037Y-135937000D01*
X155693220Y-135988880D01*
X155447535Y-136090646D01*
X155226425Y-136238387D01*
X155038387Y-136426425D01*
X154890646Y-136647535D01*
X154817000Y-136825332D01*
X154743354Y-136647535D01*
X154595613Y-136426425D01*
X154407575Y-136238387D01*
X154186465Y-136090646D01*
X153940780Y-135988880D01*
X153679963Y-135937000D01*
X153414037Y-135937000D01*
X153153220Y-135988880D01*
X152907535Y-136090646D01*
X152686425Y-136238387D01*
X152498387Y-136426425D01*
X152350646Y-136647535D01*
X152277000Y-136825332D01*
X152203354Y-136647535D01*
X152055613Y-136426425D01*
X151867575Y-136238387D01*
X151646465Y-136090646D01*
X151400780Y-135988880D01*
X151139963Y-135937000D01*
X150874037Y-135937000D01*
X150613220Y-135988880D01*
X150367535Y-136090646D01*
X150146425Y-136238387D01*
X149958387Y-136426425D01*
X149810646Y-136647535D01*
X149708880Y-136893220D01*
X149657000Y-137154037D01*
X147277000Y-137154037D01*
X147225120Y-136893220D01*
X147123354Y-136647535D01*
X146975613Y-136426425D01*
X146787575Y-136238387D01*
X146566465Y-136090646D01*
X146320780Y-135988880D01*
X146059963Y-135937000D01*
X145794037Y-135937000D01*
X145533220Y-135988880D01*
X145287535Y-136090646D01*
X145066425Y-136238387D01*
X144878387Y-136426425D01*
X144730646Y-136647535D01*
X144657000Y-136825332D01*
X144583354Y-136647535D01*
X144435613Y-136426425D01*
X144247575Y-136238387D01*
X144026465Y-136090646D01*
X143780780Y-135988880D01*
X143519963Y-135937000D01*
X143254037Y-135937000D01*
X142993220Y-135988880D01*
X142747535Y-136090646D01*
X142526425Y-136238387D01*
X142338387Y-136426425D01*
X142233356Y-136583615D01*
X142220592Y-136552800D01*
X142050964Y-136298932D01*
X141835068Y-136083036D01*
X141581200Y-135913408D01*
X141299118Y-135796565D01*
X140999662Y-135737000D01*
X140694338Y-135737000D01*
X140394882Y-135796565D01*
X140112800Y-135913408D01*
X139858932Y-136083036D01*
X139643036Y-136298932D01*
X139473408Y-136552800D01*
X139356565Y-136834882D01*
X139297000Y-137134338D01*
X139005000Y-137134338D01*
X139005000Y-88027000D01*
X148434339Y-88027000D01*
X148434339Y-90027000D01*
X148444958Y-90134819D01*
X148476408Y-90238494D01*
X148527479Y-90334042D01*
X148596210Y-90417790D01*
X148679958Y-90486521D01*
X148775506Y-90537592D01*
X148879181Y-90569042D01*
X148987000Y-90579661D01*
X150987000Y-90579661D01*
X151094819Y-90569042D01*
X151198494Y-90537592D01*
X151294042Y-90486521D01*
X151377790Y-90417790D01*
X151446521Y-90334042D01*
X151497592Y-90238494D01*
X151529042Y-90134819D01*
X151539661Y-90027000D01*
X151539661Y-89948849D01*
X151666425Y-90075613D01*
X151887535Y-90223354D01*
X152133220Y-90325120D01*
X152394037Y-90377000D01*
X152659963Y-90377000D01*
X152920780Y-90325120D01*
X153166465Y-90223354D01*
X153387575Y-90075613D01*
X153575613Y-89887575D01*
X153723354Y-89666465D01*
X153797000Y-89488668D01*
X153870646Y-89666465D01*
X154018387Y-89887575D01*
X154206425Y-90075613D01*
X154427535Y-90223354D01*
X154673220Y-90325120D01*
X154934037Y-90377000D01*
X155199963Y-90377000D01*
X155460780Y-90325120D01*
X155706465Y-90223354D01*
X155927575Y-90075613D01*
X156115613Y-89887575D01*
X156263354Y-89666465D01*
X156337000Y-89488668D01*
X156410646Y-89666465D01*
X156558387Y-89887575D01*
X156746425Y-90075613D01*
X156967535Y-90223354D01*
X157213220Y-90325120D01*
X157474037Y-90377000D01*
X157739963Y-90377000D01*
X158000780Y-90325120D01*
X158246465Y-90223354D01*
X158467575Y-90075613D01*
X158655613Y-89887575D01*
X158760644Y-89730385D01*
X158773408Y-89761200D01*
X158943036Y-90015068D01*
X159158932Y-90230964D01*
X159412800Y-90400592D01*
X159694882Y-90517435D01*
X159994338Y-90577000D01*
X160212077Y-90577000D01*
X174464000Y-104828924D01*
X174464001Y-130702983D01*
X174433521Y-130645958D01*
X174364790Y-130562210D01*
X174281042Y-130493479D01*
X174185494Y-130442408D01*
X174081819Y-130410958D01*
X173974000Y-130400339D01*
X171974000Y-130400339D01*
X171866181Y-130410958D01*
X171762506Y-130442408D01*
X171666958Y-130493479D01*
X171583210Y-130562210D01*
X171514479Y-130645958D01*
X171463408Y-130741506D01*
X171431958Y-130845181D01*
X171421339Y-130953000D01*
X171421339Y-132953000D01*
X171431958Y-133060819D01*
X171463408Y-133164494D01*
X171514479Y-133260042D01*
X171583210Y-133343790D01*
X171666958Y-133412521D01*
X171762506Y-133463592D01*
X171866181Y-133495042D01*
X171974000Y-133505661D01*
X173974000Y-133505661D01*
X174081819Y-133495042D01*
X174185494Y-133463592D01*
X174281042Y-133412521D01*
X174364790Y-133343790D01*
X174433521Y-133260042D01*
X174484592Y-133164494D01*
X174495966Y-133126998D01*
X174525932Y-133156964D01*
X174779800Y-133326592D01*
X175061882Y-133443435D01*
X175361338Y-133503000D01*
X175666662Y-133503000D01*
X175966118Y-133443435D01*
X176248200Y-133326592D01*
X176502068Y-133156964D01*
X176717964Y-132941068D01*
X176887592Y-132687200D01*
X177004435Y-132405118D01*
X177064000Y-132105662D01*
X177064000Y-131800338D01*
X177004435Y-131500882D01*
X176887592Y-131218800D01*
X176717964Y-130964932D01*
X176564000Y-130810968D01*
X176564000Y-104445571D01*
X176569079Y-104394000D01*
X176564000Y-104342429D01*
X176564000Y-104342422D01*
X176548807Y-104188164D01*
X176488767Y-103990238D01*
X176391267Y-103807829D01*
X176260054Y-103647946D01*
X176219991Y-103615067D01*
X161697000Y-89092077D01*
X161697000Y-88874338D01*
X166217000Y-88874338D01*
X166217000Y-89179662D01*
X166276565Y-89479118D01*
X166393408Y-89761200D01*
X166563036Y-90015068D01*
X166778932Y-90230964D01*
X167032800Y-90400592D01*
X167314882Y-90517435D01*
X167614338Y-90577000D01*
X167919662Y-90577000D01*
X168219118Y-90517435D01*
X168501200Y-90400592D01*
X168755068Y-90230964D01*
X168970964Y-90015068D01*
X169140592Y-89761200D01*
X169257435Y-89479118D01*
X169317000Y-89179662D01*
X169317000Y-88874338D01*
X171297000Y-88874338D01*
X171297000Y-89179662D01*
X171356565Y-89479118D01*
X171473408Y-89761200D01*
X171643036Y-90015068D01*
X171858932Y-90230964D01*
X172112800Y-90400592D01*
X172394882Y-90517435D01*
X172694338Y-90577000D01*
X172999662Y-90577000D01*
X173299118Y-90517435D01*
X173581200Y-90400592D01*
X173835068Y-90230964D01*
X174050964Y-90015068D01*
X174220592Y-89761200D01*
X174233356Y-89730385D01*
X174338387Y-89887575D01*
X174526425Y-90075613D01*
X174747535Y-90223354D01*
X174993220Y-90325120D01*
X175254037Y-90377000D01*
X175519963Y-90377000D01*
X175780780Y-90325120D01*
X176026465Y-90223354D01*
X176247575Y-90075613D01*
X176435613Y-89887575D01*
X176583354Y-89666465D01*
X176657000Y-89488668D01*
X176730646Y-89666465D01*
X176878387Y-89887575D01*
X177066425Y-90075613D01*
X177287535Y-90223354D01*
X177533220Y-90325120D01*
X177794037Y-90377000D01*
X178059963Y-90377000D01*
X178320780Y-90325120D01*
X178566465Y-90223354D01*
X178787575Y-90075613D01*
X178975613Y-89887575D01*
X179123354Y-89666465D01*
X179197000Y-89488668D01*
X179270646Y-89666465D01*
X179418387Y-89887575D01*
X179606425Y-90075613D01*
X179827535Y-90223354D01*
X180073220Y-90325120D01*
X180334037Y-90377000D01*
X180599963Y-90377000D01*
X180860780Y-90325120D01*
X181106465Y-90223354D01*
X181327575Y-90075613D01*
X181515613Y-89887575D01*
X181663354Y-89666465D01*
X181737000Y-89488668D01*
X181810646Y-89666465D01*
X181958387Y-89887575D01*
X182146425Y-90075613D01*
X182367535Y-90223354D01*
X182613220Y-90325120D01*
X182874037Y-90377000D01*
X183139963Y-90377000D01*
X183400780Y-90325120D01*
X183646465Y-90223354D01*
X183867575Y-90075613D01*
X184055613Y-89887575D01*
X184160644Y-89730385D01*
X184173408Y-89761200D01*
X184343036Y-90015068D01*
X184558932Y-90230964D01*
X184812800Y-90400592D01*
X185094882Y-90517435D01*
X185394338Y-90577000D01*
X185699662Y-90577000D01*
X185999118Y-90517435D01*
X186281200Y-90400592D01*
X186535068Y-90230964D01*
X186750964Y-90015068D01*
X186920592Y-89761200D01*
X187037435Y-89479118D01*
X187097000Y-89179662D01*
X187097000Y-88874338D01*
X187037435Y-88574882D01*
X186920592Y-88292800D01*
X186750964Y-88038932D01*
X186535068Y-87823036D01*
X186281200Y-87653408D01*
X185999118Y-87536565D01*
X185699662Y-87477000D01*
X185394338Y-87477000D01*
X185094882Y-87536565D01*
X184812800Y-87653408D01*
X184558932Y-87823036D01*
X184343036Y-88038932D01*
X184173408Y-88292800D01*
X184160644Y-88323615D01*
X184055613Y-88166425D01*
X183867575Y-87978387D01*
X183646465Y-87830646D01*
X183400780Y-87728880D01*
X183139963Y-87677000D01*
X182874037Y-87677000D01*
X182613220Y-87728880D01*
X182367535Y-87830646D01*
X182146425Y-87978387D01*
X181958387Y-88166425D01*
X181810646Y-88387535D01*
X181737000Y-88565332D01*
X181663354Y-88387535D01*
X181515613Y-88166425D01*
X181327575Y-87978387D01*
X181106465Y-87830646D01*
X180860780Y-87728880D01*
X180599963Y-87677000D01*
X180334037Y-87677000D01*
X180073220Y-87728880D01*
X179827535Y-87830646D01*
X179606425Y-87978387D01*
X179418387Y-88166425D01*
X179270646Y-88387535D01*
X179197000Y-88565332D01*
X179123354Y-88387535D01*
X178975613Y-88166425D01*
X178787575Y-87978387D01*
X178566465Y-87830646D01*
X178320780Y-87728880D01*
X178059963Y-87677000D01*
X177794037Y-87677000D01*
X177533220Y-87728880D01*
X177287535Y-87830646D01*
X177066425Y-87978387D01*
X176878387Y-88166425D01*
X176730646Y-88387535D01*
X176657000Y-88565332D01*
X176583354Y-88387535D01*
X176435613Y-88166425D01*
X176247575Y-87978387D01*
X176026465Y-87830646D01*
X175780780Y-87728880D01*
X175519963Y-87677000D01*
X175254037Y-87677000D01*
X174993220Y-87728880D01*
X174747535Y-87830646D01*
X174526425Y-87978387D01*
X174338387Y-88166425D01*
X174233356Y-88323615D01*
X174220592Y-88292800D01*
X174050964Y-88038932D01*
X173835068Y-87823036D01*
X173581200Y-87653408D01*
X173299118Y-87536565D01*
X172999662Y-87477000D01*
X172694338Y-87477000D01*
X172394882Y-87536565D01*
X172112800Y-87653408D01*
X171858932Y-87823036D01*
X171643036Y-88038932D01*
X171473408Y-88292800D01*
X171356565Y-88574882D01*
X171297000Y-88874338D01*
X169317000Y-88874338D01*
X169257435Y-88574882D01*
X169140592Y-88292800D01*
X168970964Y-88038932D01*
X168755068Y-87823036D01*
X168501200Y-87653408D01*
X168219118Y-87536565D01*
X167919662Y-87477000D01*
X167614338Y-87477000D01*
X167314882Y-87536565D01*
X167032800Y-87653408D01*
X166778932Y-87823036D01*
X166563036Y-88038932D01*
X166393408Y-88292800D01*
X166276565Y-88574882D01*
X166217000Y-88874338D01*
X161697000Y-88874338D01*
X161637435Y-88574882D01*
X161520592Y-88292800D01*
X161350964Y-88038932D01*
X161135068Y-87823036D01*
X160881200Y-87653408D01*
X160599118Y-87536565D01*
X160299662Y-87477000D01*
X159994338Y-87477000D01*
X159694882Y-87536565D01*
X159412800Y-87653408D01*
X159158932Y-87823036D01*
X158943036Y-88038932D01*
X158773408Y-88292800D01*
X158760644Y-88323615D01*
X158655613Y-88166425D01*
X158467575Y-87978387D01*
X158246465Y-87830646D01*
X158000780Y-87728880D01*
X157739963Y-87677000D01*
X157474037Y-87677000D01*
X157213220Y-87728880D01*
X156967535Y-87830646D01*
X156746425Y-87978387D01*
X156558387Y-88166425D01*
X156410646Y-88387535D01*
X156337000Y-88565332D01*
X156263354Y-88387535D01*
X156115613Y-88166425D01*
X155927575Y-87978387D01*
X155706465Y-87830646D01*
X155460780Y-87728880D01*
X155199963Y-87677000D01*
X154934037Y-87677000D01*
X154673220Y-87728880D01*
X154427535Y-87830646D01*
X154206425Y-87978387D01*
X154018387Y-88166425D01*
X153870646Y-88387535D01*
X153797000Y-88565332D01*
X153723354Y-88387535D01*
X153575613Y-88166425D01*
X153387575Y-87978387D01*
X153166465Y-87830646D01*
X152920780Y-87728880D01*
X152659963Y-87677000D01*
X152394037Y-87677000D01*
X152133220Y-87728880D01*
X151887535Y-87830646D01*
X151666425Y-87978387D01*
X151539661Y-88105151D01*
X151539661Y-88027000D01*
X151529042Y-87919181D01*
X151497592Y-87815506D01*
X151446521Y-87719958D01*
X151377790Y-87636210D01*
X151294042Y-87567479D01*
X151198494Y-87516408D01*
X151094819Y-87484958D01*
X150987000Y-87474339D01*
X148987000Y-87474339D01*
X148879181Y-87484958D01*
X148775506Y-87516408D01*
X148679958Y-87567479D01*
X148596210Y-87636210D01*
X148527479Y-87719958D01*
X148476408Y-87815506D01*
X148444958Y-87919181D01*
X148434339Y-88027000D01*
X139005000Y-88027000D01*
X139005000Y-86936469D01*
X187639000Y-87060535D01*
G37*
%TD.AperFunction*%
%TD*%
M02*
