M48
; DRILL file {KiCad (5.1.10)-1} date 01/22/22 14:52:55
; FORMAT={-:-/ absolute / metric / decimal}
; #@! TF.CreationDate,2022-01-22T14:52:55+00:00
; #@! TF.GenerationSoftware,Kicad,Pcbnew,(5.1.10)-1
FMAT,2
METRIC
T1C1.000
%
G90
G05
T1
X140.847Y-137.287
X143.387Y-137.287
X145.927Y-137.287
X148.467Y-137.287
X149.987Y-89.027
X151.007Y-137.287
X152.527Y-89.027
X153.547Y-137.287
X155.067Y-89.027
X156.087Y-137.287
X157.607Y-89.027
X158.627Y-137.287
X160.147Y-89.027
X161.167Y-137.287
X162.687Y-89.027
X163.707Y-137.287
X165.227Y-89.027
X167.767Y-89.027
X167.767Y-137.287
X170.307Y-137.287
X172.847Y-89.027
X172.847Y-137.287
X172.974Y-131.953
X175.387Y-89.027
X175.387Y-137.287
X175.514Y-131.953
X177.927Y-89.027
X177.927Y-137.287
X178.054Y-131.953
X180.467Y-89.027
X180.467Y-137.287
X180.594Y-131.953
X183.007Y-89.027
X183.007Y-137.287
X183.134Y-131.953
X185.547Y-89.027
X185.547Y-137.287
X185.674Y-131.953
T0
M30
